<svg id="Layer_1" data-name="Layer 1" xmlns="http://www.w3.org/2000/svg" viewBox="0 0 214.67 164.49"><defs><style>.cls-1{fill:#d9e021;}</style></defs><title>brush-strokes</title><polygon class="cls-1" points="200.73 96.95 200.72 96.95 200.72 96.96 200.73 96.95"/><path class="cls-1" d="M214.39,72.65c-.38-.1-.8-.36-1.24-.09l0,0h0l0,0a2.48,2.48,0,0,0-1-.27c-.35-.07-.65-.36-1,0,0-.35,0-.37-.36-.3s-.49.1-.43-.2c0-.09-.09-.14-.16-.2a1.65,1.65,0,0,0-1.06-.28H209c-.27,0-.33-.21-.53-.27s-.55-.29-.82-.44c0,0,0,0,0,0s0-.22.06-.35c.22,0,.51,0,.72-.21L208,70l.1,0c.21,0,.43,0,.42-.23s-.19-.27-.42-.27-.76,0-1.13,0-.42-.21-.44-.19c-.26.36-.4,0-.56-.1-.21.2,0,.35,0,.52a1.77,1.77,0,0,0-.55-.07,4.65,4.65,0,0,1-2-.16c.05-.14-.08-.2-.24-.24,0-.11.05-.22-.14-.28s-.14.09-.17.16-.08-.12,0-.26l-.15,0h-.14a.91.91,0,0,0-.32-.19c.07-.07.26-.06.22-.2s-.17-.09-.27-.08l-.71.08a.69.69,0,0,0-.53,0h-.89l-.22-.08c-.13-.15-.47,0-.56-.25-.11,0-.24.12-.35.06a1.68,1.68,0,0,0-1.32,0h0c-1.13,0-2.25-.17-3.38-.17a14.8,14.8,0,0,1-2.12-.15l-.5,0c.73,0,1.48,0,2.21,0,1,0,2-.19,3-.18a15.64,15.64,0,0,0,2.59-.25,2.31,2.31,0,0,0-.32-.06c-1.29,0-2.57-.09-3.87,0s-2.71.08-4.07.09a6.81,6.81,0,0,1-2.38,0,1.32,1.32,0,0,0-.58,0,17.19,17.19,0,0,1-2,.17s0,0,0,0a2.79,2.79,0,0,0-1.72-.29,4.91,4.91,0,0,1-1.08,0,14.57,14.57,0,0,0-1.74-.14,1.63,1.63,0,0,1,.31-.27l.15,0c.13,0,.28,0,.28-.14.51-.06,1,0,1.54,0h.83c.28,0,.45-.16.34-.45.57-.07,1,.42,1.64.33-.06-.18-.22-.21-.33-.26a.9.9,0,0,0,.33-.18l.08-.07.08.06a.37.37,0,0,0,.11.39c.15.12.42.15.38,0a.27.27,0,0,1,0-.09.37.37,0,0,0,.11,0h.05a.24.24,0,0,0,0,.17.43.43,0,0,1,.15-.15,1,1,0,0,0,.43,0l.19,0a.36.36,0,0,0-.07-.1.47.47,0,0,0,.22-.31c.14.14.21.33.42.14a.44.44,0,0,1,.27-.14h0c.24.38-.38.15-.35.41.3.07.55,0,.68-.2.06,0,.12,0,.11,0a.07.07,0,0,0,0,0c.47.43.5.43,1,.06h.25a.9.9,0,0,0,.4,0l.81,0c.32,0,.6,0,.62-.26a1.45,1.45,0,0,1,.29,0c.13,0,.31,0,.32-.13s-.15-.2-.29-.21a3.67,3.67,0,0,0-1.1,0c-.12-.16-.47-.11-.56-.27-.23-.4-.5-.21-.73,0a.7.7,0,0,1-.64.11c-.23,0-.49,0-.68-.09-.55-.13-1.2,0-1.66-.36l.35-.08,4.18-.1c.74.07,1.47-.08,2.21-.08l.28,0c1,.13,2-.28,3-.21.1,0,.3-.11.2-.17-.25-.16-.25-.29-.17-.42a11.94,11.94,0,0,0,1.35-.27h-1.11a.31.31,0,0,0,0-.39c-.23-.27-.6-.11-.91-.17a.15.15,0,0,1,0-.07c.24-.28-.35-.21-.32-.4a.82.82,0,0,0,.42-.11.27.27,0,0,0,.17-.1c.31-.18.63-.34.63-.69a11.86,11.86,0,0,0,2-.8,1.23,1.23,0,0,1,.63-.11,2.37,2.37,0,0,0,1.68-.42c.13-.08.29-.12.43-.19a15.88,15.88,0,0,0,2.45-1.19,2.68,2.68,0,0,1,.58-.36c.34-.12.45-.22.21-.48s-.18-.42.3-.45c.19,0,.4,0,.37-.24-.06-.47-.12-.5-.67-.25,0-.3.31-.54.27-.82-.09-.67.58-1.18.66-1.82,0-.27,0-.4-.34-.38s-.3-.07-.36-.18.1-.16.2-.19c.46-.14.63-.3.28-.65a.47.47,0,0,1,0-.52c.16-.22,0-.26-.21-.28a4.85,4.85,0,0,0-.66,0,5.11,5.11,0,0,1-1.36-.11,8,8,0,0,0-1.46-.15,8.7,8.7,0,0,1-2.28,0c.08-.08-.45-.06-.06-.19a.83.83,0,0,0,.31-.2,1.5,1.5,0,0,1,1.19-.35c.84.07,1.7.06,2.55.06.49,0,1.19-.6.94-.84s-.1-.42.06-.61.37-.17.35-.33c-.05-.46.37-.52.82-.57.24,0,.43-.08.38-.3.13-.44-.11-.73-.77-.89,1-.18,1.13-.7,1.12-1.27,0-.24.06-.51-.48-.46a.29.29,0,0,1-.33-.28c0-.17.24-.09.4-.06s.48.13.48-.19c0-.15.24-.2.41-.24s.44-.1.39-.32-.32-.21-.57-.19a1.4,1.4,0,0,0-.51-.1c0-.13-.18-.17-.24-.26-.23-.34-.66-.61-.67-1h.1c.53,0,1,.3,1.54.16s1,0,1.35-.27c.09-.07.19,0,.29.05s.48.23.34-.15c0,0,.12-.14.21-.16.27-.07.51.14.83,0,.14,0,0,.25.25.32.22-.33.65-.16,1-.21a.81.81,0,0,1,.83.22c.47.13.76-.18,1.13-.27.18,0,.11-.21.09-.33s-.18-.11-.31-.12-.4.09-.73.11a1.28,1.28,0,0,1,1.15-.21c.14,0,.31,0,.33-.12s-.09-.19-.26-.18-.27.06-.28-.09h0a.14.14,0,0,1,0-.07c.16,0,.42.07.47-.1s-.18-.2-.35-.25a.77.77,0,0,1-.25-.14h0c-.33.16-.69-.06-1,0-.57.19-1.08-.09-1.61-.14-.29,0-.79.12-1-.23,0,0-.18,0-.2,0-.22.29-.77.17-1,.44-.07.08-.27.14-.26,0a.22.22,0,0,0-.12-.22,2.85,2.85,0,0,0,.48-.13c.2-.08.58.07.57-.17s-.42-.16-.65-.24a.76.76,0,0,0-.21,0l-1.68-.1V40.7l1.76-.42c.12,0,.32.1.34-.11s-.19-.15-.31-.19a1.09,1.09,0,0,0-.3-.07,9,9,0,0,1-3.34-.4.44.44,0,0,0-.29,0c-.13.37-.35.11-.4,0s-.31-.16-.47-.23c-.52-.25-1.19,0-1.65-.45-.09-.06-.25,0-.32-.12-.19-.34-.52-.29-.85-.24l-.31,0c-.61-.15-1.24-.2-1.86-.37a1,1,0,0,0-1,.2.17.17,0,0,1-.22.06c-.52-.17-1.08,0-1.6-.19,0-.09.17-.19-.08-.28s-.7-.22-1,.11a8,8,0,0,1-1.45-.24.84.84,0,0,1,.76-.47c.23,0,.54-.24.08-.45h0c-.19-.08-.24-.31-.47-.31a2.36,2.36,0,0,0-1.27.33H192c-.14,0-.27,0-.26.15s0,.07.06.11a4.29,4.29,0,0,1-.5-.07c-.09,0-.27,0-.24.16a.17.17,0,0,0,.25.1c.34-.19.58.1.87.12s.18.18.15.28-.17.18-.31,0-.55-.12-.59,0c-.23.54-.56.22-.87.13a2.44,2.44,0,0,0-1-.17,9.09,9.09,0,0,1-1.73.1l0-.11h0s0,0,0,0a.9.9,0,0,1,.63-.19h0a5.1,5.1,0,0,0,2.27-.11c.32-.05.32-.27,0-.42a2.08,2.08,0,0,0-.52-.12c-.27-.05-.64,0-.81-.19-.35-.38-.53-.18-.75.06s-.15.3-.43.2a2,2,0,0,0-1.12,0,1.53,1.53,0,0,1-.37,0c-.07-.12-.21-.06-.32,0h0l-.6-.09h0c-.13-.35-.38-.2-.6-.11a2.12,2.12,0,0,0-1,0h0a3,3,0,0,0-1.73.22h0a.25.25,0,0,0,0,.07l-.19.1a.5.5,0,0,1-.13-.12c-.06-.09.19-.21,0-.28s-.3.08-.41.16-.2.26-.46.22c-.06-.05-.09-.14-.16-.19.24-.07.27-.25.35-.76a.06.06,0,0,1,0,0c.24-.2.44-.46.85-.24a.29.29,0,0,0,.35-.15c.11-.42.48-.42.83-.49.19,0,.5.07.49-.27l.13-.16c.74-.25,1.52-.36,2.26-.64a6.32,6.32,0,0,0,1.41-.54,2.13,2.13,0,0,0,1.2-.78,5.87,5.87,0,0,0-1.51.38l-.1,0h0c-.34,0-.55.23-.85.27h0a.49.49,0,0,0-.39.11,3.59,3.59,0,0,1-1.71.37h0a1.38,1.38,0,0,0-1.26-.2.26.26,0,0,1-.33-.07c-.09-.15.07-.22.18-.29s.54-.21.69-.47a1.42,1.42,0,0,1,.46.06c.35.13,1.62-.17,1.71-.46.18-.66.72-.6,1.26-.65.31,0,.71,0,.92-.22a3,3,0,0,1,1.87-.92,1,1,0,0,0,1.07-.68,1,1,0,0,1,.91-.66c.18,0,.34,0,.31-.23s.15-.47.23-.71c.66-.3,1-.92,1.69-1.24.13-.06.13-.22.21-.31.29-.38.41-.92,1-1.05,1.13-.26,1.78-1.11,2.66-1.68a3.81,3.81,0,0,1,.92-.59c.4-.14.63-.45.53-.79a1.24,1.24,0,0,1,.52-1.37c.17-.16.32-.36.47-.53s.47-.72,1-.82c.32.06.42-.25.7-.34a5.23,5.23,0,0,0,1.61-.91c.17-.12,0-.7.54-.35,0,0,.07-.08.11-.09.67-.19.69-.81,1-1.22s0-.38-.25-.41a1.49,1.49,0,0,0-.36.05,1,1,0,0,1-1.13-.56s-.09-.09-.11-.08c-.31.11-.44-.09-.67-.21a1.25,1.25,0,0,1-.58-.76,2.11,2.11,0,0,0-1.1-1.19h0c0-.2-.08-.23-.41-.28-.15,0-.39,0-.38-.17,0-.35-.21-.72,0-1,.4-.58-.21-.83-.48-1.11s-.25.22-.43.29a.41.41,0,0,1-.16,0,4.7,4.7,0,0,0-1.33.32,4,4,0,0,1-1.41.15,2.08,2.08,0,0,0-1.26,0c-.13.07-.29.09-.34-.08a3,3,0,0,1-.22-.82c0-.4-.19-.59-.63-.57-.22-.15-.6-.1-.66-.44,0-.11-.12-.1-.19,0-.51.49-.95.26-1.38-.1h0a2.33,2.33,0,0,1-.13-.83c0-.5-.53-.77-1.26-.53.48,0,.56.31.8.4-.17.36-.43.19-.68.12s-.37-.6-.54,0c0,.08-.15,0-.24,0s-.08-.09-.09-.16c-.09-.67-.27-.82-1-.85a1.61,1.61,0,0,1-.87-.22c-.24-.19-.73-.12-.82.1s-.44.35-.74.4c0-.15-.31-.19-.27-.38.1-.46-.27-.33-.52-.33-.09,0-.22.16-.27.07-.25-.47-.56-.07-.78,0s-.49.12-.59.35c0,.07.05.11.11.14a1.05,1.05,0,0,0,.76-.06c.06,0,.08-.1.14-.13s.24-.11.33,0,.56.32.68.62c0,.09.09.2-.1.2-.25-.21-.6,0-.86-.2s-.72,0-1.05-.18c0-.07-.14-.11-.15-.08-.12.31-.36.23-.6.18a5.53,5.53,0,0,1-.7-.18c-.26-.09-.23-.29,0-.36.36-.12.56-.3.6-.63,0-.1.23,0,.16-.17A.22.22,0,0,0,183,7.5c-.47.2-1,0-1.44.09-.2-.16-.35,0-.54.14.2-.41.11-.55-.32-.41a.34.34,0,0,1-.21-.21l-.19-.29c-.06-.12-.18-.2-.28-.1-.38.36-.79.13-1.19.09-.12-.44-.22-.49-.56-.26,0,.24-.1.3-.33.28a1.09,1.09,0,0,0-.81.19c-.19.09-.1.24-.11.37v.19c-.26.09-.13.33-.24.47a1,1,0,0,1-.84-.17h-.07c0-.09,0-.18,0-.26.38-.37.37-.36-.18-.52a1.32,1.32,0,0,0-.39-.1l.27-.21c.18-.13.08-.29,0-.45-.37.22-.43-.31-.74-.26s-.36.36-.66.2c-.11,0-.21-.28-.32,0a6.68,6.68,0,0,1-.39.81.27.27,0,0,1-.22.2c-.43,0-.89.39-1.27-.1.52-.38-.09-.46-.22-.67.12-.11.43-.06.34-.35,0-.12,0-.26-.2-.29s-.38.06-.4.15c0,.25-.37.33-.4.58-.09,0-.17.19-.28,0s-.43-.08-.65-.07c.08.27-.38.33-.29.6,0,0,.05,0,.08,0h0c.27.15.77,0,.8.45-.08,0-.16,0-.24,0-1-.31-1.15-.5-.9-1.36,0-.1.06-.23-.08-.29s-.29-.09-.37.06c-.2.42-.38.15-.57,0,0-.51-.38-.22-.62-.21a.56.56,0,0,0-.43-.16c-.06-.25-.22-.26-.41-.11s-.18.18-.33.19a5.55,5.55,0,0,1-1.38-.56l.22-.2.2.11c.19.29.37.35.54,0v-.2c0-.12.08-.26-.08-.33a.82.82,0,0,0-1,.53c-.33.13.11.32-.05.48-.3-.13-.58-.16-.77.19,0-.1.13-.16.07-.24-.29-.33-.62-.07-.92,0s-.12.2,0,.32a.12.12,0,0,1-.07.2c-.41.13-.18.2,0,.28s.22.17.1.33.07.25-.07.21c-.4-.11-.7.11-1.05.18a.29.29,0,0,1-.32-.19.24.24,0,0,1,.11-.3c.36-.25.36-.28,0-.58s.13-.18.09-.29c.23-.31.38-.61-.19-.77-.26-.17-.46-.21-.43.18,0,.16,0,.36-.22.13s-.47-.28-.64.08c-.16,0-.29.16-.5,0a.76.76,0,0,0-.77,0,1,1,0,0,1-1.28.22c-.09,0-.25-.1-.29-.06-.43.39-.74,0-1.09-.11a.66.66,0,0,0-.46,0,2.38,2.38,0,0,1-.88.08c.05-.29.3-.28.54-.29s.51-.26.27-.5-.59-.78-1.22-.55c-.14-.19-.36-.17-.56-.17-.43,0-.85,0-1-.42-.05-.1-.22-.13-.25-.06a1,1,0,0,0-.12.56c0,.12.19.19.38.16s.31.06.46,0a.44.44,0,0,1,.59.39v.19l-.29.15c.06.1.2.1.28.15s.45-.08.57.16c-.31.14-.69,0-1,.22a3.11,3.11,0,0,0-1.25-.21c-.32-.22-.07-.5-.1-.76,0,0,0-.08,0-.08a6.46,6.46,0,0,0-1.63-.27c-.23,0-.33,0-.44-.19a5,5,0,0,0,.75.06c.14,0,.35.1.43-.06s-.17-.21-.24-.33V3.31c0-.13.14-.29-.07-.37s-.27.1-.35.23-.09,0-.14.06c-.28,0-.54-.06-.61.27-.33-.21-.7,0-1.06-.11a2.8,2.8,0,0,0-1.34-.25,1,1,0,0,1-.89-.2V2.82c.06-.07.14-.14,0-.2a1.57,1.57,0,0,0-.61-.07,1.82,1.82,0,0,1-1.15-.1h0c-.32-.11-.64-.26-1,0-.15,0,0,.4-.31.17-.07-.2-.19-.43-.4-.15s-.48.25-.76.26-.38-.07-.52,0,.32.13.34.35c-.25.12-.44.33-.79.19a1.58,1.58,0,0,0-.62-.05c-.25,0-.11-.47-.48-.28-.22.12,0,.37-.2.47a1.75,1.75,0,0,1-1.34-.39A.74.74,0,0,0,139,2.7c-.28,0-.58,0-.7-.32s-.29-.17-.47-.07c-.69.38-.78.37-1.22-.15l-.27.32c-.21.25-1.15.2-1.22-.09-.09-.44-.39-.5-.78-.49l-.15,0c-.56.12-.66.22-.4.43s-.42.38-.08.63a.53.53,0,0,0,.38.11c.21,0,.4-.08.61-.1l.16,0V3l-.15,0c-.32,0-.65.08-.42.51,0,0-.07.06-.12.08l-.26.08c-.14,0-.28-.07-.42-.09l-.06-.06c-.49,0-1-.17-1.42.22a.41.41,0,0,1-.4.06,4.65,4.65,0,0,0-1.7-.25c-.22,0-.38-.09-.21-.33a.35.35,0,0,0,0-.13,2.55,2.55,0,0,1,.4-.27h.19c.21,0,.19.13.24.24a1,1,0,0,0,1.61.27.36.36,0,0,1,.41-.11c.2,0,.41.08.41-.19s0-.48-.37-.42c-.13.21-.24.36-.52.11a1.32,1.32,0,0,0-.83-.25c-.29,0-.48-.15-.85-.22.2-.06.29-.11.32-.09.25.22.6.07.88.19s.29,0,.31-.14-.4-.59-.61-.49a1.18,1.18,0,0,1-.83,0c-.41-.08-.76-.07-.91.37a1.07,1.07,0,0,0-1.14-.18c-.15,0,0,.36-.26.19,0-.18-.27-.28-.77-.35-.27,0-.53.19-.8-.05s-.38,0-.36.12c.07.39-.23.33-.47.37-.11-.11-.25-.09-.39-.09H123.6c-.18,0-.36,0-.47-.14.11-.11.27-.05.38-.09s.5.06.48-.22-.31-.18-.49-.15c-.89.16-1.74-.53-2.64-.11l0,0c-.27-.21-.6-.12-.9-.13-.56-.12-1.13.06-1.69,0-1-.08-2-.1-3-.26a3.08,3.08,0,0,0-.8,0c-.29,0-.58.2-.89.1-.56-.19-1.18,0-1.75-.17-.13-.05-.37,0-.21.17.61.47.27.77-.17,1.09a2.8,2.8,0,0,0-1.15-.07,2.92,2.92,0,0,0-1.06-.1c0-.13.3-.23.12-.4s-.34-.07-.52,0l-.34.11-.1-.1a1.21,1.21,0,0,0-.4-.38h0c-.26-.19-.25-.3.11-.29.12,0,.29,0,.3-.12s-.17-.14-.3-.17A4.34,4.34,0,0,0,107,.55a11.13,11.13,0,0,0-3.86.22,2.84,2.84,0,0,0,2,0c.18.38-.17.72,0,1.07.21,0,.21-.15.24-.24.11-.25.38-.36.57-.54s.38.19.6.25-.12.27-.08.4c.14.44.47.17.73.16.19.24.52.23.77.36l.1,0s0,0,0,0a1.91,1.91,0,0,1-1.57.48,14.23,14.23,0,0,0-2.26-.15c-.1-.36-.5-.45-.73-.69,0-.36-.33-.49-.59-.51-.54-.05-.71-.46-1-.72a.65.65,0,0,0-.58-.36c-.47-.07-.93,0-1.38,0-.9-.09-1.8,0-2.7-.07-.22,0-.43,0-.4.28s-.19.18-.31.23c-.28.12-.15-.1-.2-.18a.27.27,0,0,0-.3-.14l-.32.08a.51.51,0,0,0-.33-.19.69.69,0,0,0-.72.07c-.13.07.11.18.15.29s-.49.27-.48.54c0,.48-.36.53-.73.61,0-.23-.27-.13-.36-.26-.13-.3.31-.13.32-.31s.13-.22,0-.25c-.31-.09-.18-.09,0-.19A.38.38,0,0,0,93.8.42c-.09-.17-.35-.13-.47,0-.33.22-.78.29-1,.66,0,.12-.17.23,0,.35.34.29.1.4-.19.5l-.09,0a.74.74,0,0,0-.55.08c.15.08.35,0,.42.18a.79.79,0,0,1-1-.18c-.26-.29-.67.18-1-.18.46-.05.49-.79,1.14-.51,0,0,.07-.06.11-.09.34-.21,0-.34,0-.52C91,.35,90.89.39,90.67.55c-.39-.34-.63,0-1,.17.14.15.39.25.31.49a.83.83,0,0,0-.08.12c-.13.19-.7.26-.2.61-.07.06-.07.22-.15.25h0s-.09,0-.17-.06c-.29-.22-.51-.34-.58.14,0,0-.18.06-.28.1-.22-.15-.5,0-.8-.12.23-.12.46-.09.6-.24-.23,0-.58-.14-.66,0-.44.47-.83.2-1.24,0A1.47,1.47,0,0,0,86,1.42l.41-.11a.85.85,0,0,0,.5,0c0-.3-.36-.08-.49-.24l.09-.11c.11-.07.26-.14.12-.29s-.14-.21-.28-.17a.26.26,0,0,0-.19.34.22.22,0,0,1-.09.31h-.18C86,1,86.14.8,85.88.75s-.21.22-.29.36a.2.2,0,0,0-.09.3c0,.16-.07.31-.11.47s-.18.13-.3.11c-.29-.06-.22.42-.55.29-.16-.1-.41,0-.51-.21s-.42-.26-.63-.4c0-.12-.06-.26.09-.35,0,.11.1.27.21.16A.74.74,0,0,0,84,.94c0-.21-.12-.24-.3-.19a2.07,2.07,0,0,1-.57.08c-.31,0-.48.12-.18.39a.29.29,0,0,0-.22.18c-.28-.17-.55,0-.83,0a.5.5,0,0,0-.74.09.81.81,0,0,0,.75.1l1,0,.15.08c.06.25.35.3.52.46,0,.33-.31.23-.44.26a13,13,0,0,0-2.41.15s-.06,0-.09,0c.09-.28.22-.57-.35-.47-.07,0-.18-.07-.22-.17h0c-.14-.13-.29-.34-.47-.13a.32.32,0,0,0,.12.52c.1.06.29.07.23.25s-.06.12-.1.15.27.31-.1.34-.34,0-.32-.25-.13-.12-.24-.16c-.48-.14-.9.14-1.35.18s-.78-.11-1,.23a.36.36,0,0,1-.39-.31c0-.09,0-.17-.15-.16s-.13.08-.13.17c0,.44-.31.4-.61.28A.65.65,0,0,0,75,3c-.2.1-.39.25-.66.08a.15.15,0,0,0-.21.13c0,.1,0,.15.14.16.6.07,1.2.16,1.8.2.15,0,.52-.06.46-.18-.15-.3.1-.24.23-.3,0,.33.44.47.56.36.3-.27.46-.23.83-.1a7.16,7.16,0,0,0,1.64.14c-.17.24-.38.5.13.64.23.06.15.22.07.34s-.21.12-.36,0-.12-.28-.33-.26a1.29,1.29,0,0,1-.17-.16C79,4,79,3.92,78.82,4s-.11.12-.09.2.19.15.33.11.07,0,.1.07c0,.31-.55.18-.56.5s-.37.22-.41.14c-.24-.46-.57-.27-.92-.17s-.52,0-.45-.2.09-.53.51-.47c.13,0,.32,0,.26-.2a.29.29,0,0,0-.38-.17c-.46.22-1,.06-1.45.19-.19,0-.5,0-.47.25s.33.15.53.11a1.83,1.83,0,0,1,.39-.09c.19,0,.44-.09.54.16A5.62,5.62,0,0,1,75,4.56c-.43.05-.78,0-.59.59-.14-.25-.32-.28-.48-.18s0,.21.06.33.15.42.06.42c-.42,0-.68.41-1.11.25-.09,0-.25,0-.24-.1s.14-.12.22-.18c.24-.11.6-.16.33-.53A1.86,1.86,0,0,0,72.18,5a.21.21,0,0,0-.07.25c0,.13,0,.25.06.37-.36,0-.73.08-1.08.14s-.51-.18-.62.07.36.14.36.36a.34.34,0,0,1-.35.08,1.81,1.81,0,0,0-1,0,1.79,1.79,0,0,1-1.44-.14c-.17-.12-.48-.36-.77-.3-.51.09-1.11-.11-1.53.34-.09.11-.23,0-.34,0a1.51,1.51,0,0,0-1.23.5c.08.13,0,.4.29.36a4.08,4.08,0,0,0,1.34-.11,2,2,0,0,1,.88-.12c-.19.1-.44.12-.4.31s.28.15.45.17a11,11,0,0,1,1.72,0c.14,0,.22-.09.23-.2,0-.27.22-.27.45-.29.48,0,.92.18,1.4.15.16,0,.18.1.11.23-.14.32-.48.43-.94.3.08-.09.21-.15.21-.29s0-.19-.14-.23-.25,0-.26,0-.2.33-.27.5l-.14.12c-1.18.09-2.37.07-3.56.1a.28.28,0,0,1-.33-.28A.26.26,0,0,0,65,7.14a.34.34,0,0,0-.3.15v0c0-.28-.15-.31-.59-.29-.18.07-.38.18-.43-.12s.56-.29,0-.46a.43.43,0,0,1,.09-.38c.27-.1.35-.36.17-.48a1,1,0,0,0-1.09.13c.38,0,.51.16.51.45s-.42.22-.65.3-.38.21-.61.19c-.38.15-.34-.11-.33-.3,0-.35-.14-.48-.51-.28-.09-.22-.09-.57-.49-.16-.13.14-.36.22-.47.41a.44.44,0,0,1-.48.21c-.52-.17-.89-.07-1.11.4-.4.16-.94,0-1.23.41.07.09.25,0,.29.15s-.37.27-.16.53a1.08,1.08,0,0,1,.78-.25c.21.17.44.32.73.12h0v-.1h0c.55-.09.37.23.33.48s-.14.2-.33.23-.53-.29-.86-.19c-.74.23-1.54.21-2.28.47-.27.09-.59-.13-.87,0-.19-.05-.3.13-.47.15-.35,0-.35.06-.36.33.43.16.81-.16,1.23-.14a.47.47,0,0,0,.24,0,.28.28,0,0,1,.41,0c.22.3.37.58-.17.73,0,0,0,0,0,0-.43.44-1.05-.06-1.51.24,0,0-.06,0-.09-.05s-.2,0-.2.11c0,.42-.35.34-.58.28s-.51.34-.81.08c-.22-.47-.89,0-1.14-.45,0,0-.15.05-.17.13-.07.4-.29.22-.5.11.11-.2,0-.21-.18-.19-.45.06-.48.53-.85.67h0c-.2-.06-.43,0-.62-.1s-.21-.05-.24.09c-.26.24-.71.11-1,.39l-.53,0c.07-.42.48-.33.73-.46s0-.52.45-.33c-.21-.14-.43-.16-.55-.32s.1-.18.24-.1.59,0,.82.35c0-.23,0-.36.11-.45.18-.25.07-.37-.23-.35-.09,0-.2.12-.29.06-.49-.32-.91.09-1.36.11-.19.1-.37,0-.56,0s-.41,0-.43.27h0c-.2.12.15.33-.06.41s-.31.32-.41.51c-.2.39-.89.76-1.17.55s-.33-.05-.48,0a1.12,1.12,0,0,1-.33.22c-.21.05-.43.06-.65.09a3.19,3.19,0,0,1,.07-.54c0-.08.23-.13.14-.26s-.19-.06-.29-.05-.25.09-.24.26,0,.38-.31.22c-.1-.05-.13,0-.1.08s-.07.21-.22.17a1.45,1.45,0,0,0-1.14.16c-.23.13-.55-.18-.69.16a2.69,2.69,0,0,1-1,.2c-.65.13-1.3.27-2,.37-.33,0-.5.16-.48.47l-2.22.47c-.07,0-.17,0-.21,0-.34-.29-.57-.21-.82.12a.75.75,0,0,1-.62.28c-.15,0-.33,0-.35.18l-.29.12a.67.67,0,0,0-.67.29c.33-.19.75,0,1.07-.21l1-.11c.28.11.42-.17.66-.17v.09c.06.35-.31.72-.78.76-.65.07-.65.07-1,.49a4.84,4.84,0,0,0,.64-.13A6.15,6.15,0,0,0,35,14.83a1.73,1.73,0,0,0,.64-.12c.48-.06,1-.14,1.43-.19s.53.13.36.46a7.33,7.33,0,0,0-.75.24c-.32.11-.71,0-.95.25a1.6,1.6,0,0,1-.4.11,20.91,20.91,0,0,0-2.83.59,2.47,2.47,0,0,0-1,.34l-.68.1a1.71,1.71,0,0,0-1.11.3c-.08.08-.27.15-.17.29a.34.34,0,0,0,.38.07c.47-.13.95-.21,1.4-.38a7.36,7.36,0,0,0,1.8-.55c.85,0,1.57-.48,2.42-.46.07,0,.15-.07.22-.11a17.59,17.59,0,0,1,2.06-.47,3.9,3.9,0,0,1,2.27-.23c.17,0,.29-.07.4-.17a6.33,6.33,0,0,0,2.13-.27h0c.43-.06.89.11,1.27-.19l1-.21a4.8,4.8,0,0,1,2.25.29l-.24.19a19.58,19.58,0,0,0-2.15.33,5.26,5.26,0,0,1-1.78.25c-.34,0,.08.32-.15.42,0,0-.13.07,0,.09a2.76,2.76,0,0,0,.91,0c.38-.1.8-.1,1.18-.19.76-.18,1.57.16,2.31-.2a.35.35,0,0,1,.39.1,4.79,4.79,0,0,1-1.47.42,1.56,1.56,0,0,0-1.06.35,3.71,3.71,0,0,0-.82,0,11.34,11.34,0,0,0-1.93.26c-.87.22-1.79.24-2.66.44-.47.1-.5.14-.68.48A5.63,5.63,0,0,1,41,17.15a26.46,26.46,0,0,1,3.86-.59c.14,0,.32,0,.46,0l.11,0c.11,0,.18.13.2.33a6.83,6.83,0,0,0-2,.2,6.19,6.19,0,0,1-1.57.19c-1.3.15-2.57.41-3.86.58-.52.21-1.14.09-1.66.36.08.12.46.07.18.31a1,1,0,0,1-.53.09c-.5-.35-.58-.34-1,.16,0,0-.07.07-.12,0-.23-.09-.49,0-.71-.11-.66-.2-.83.26-1,.65a1.81,1.81,0,0,0-1,.21.2.2,0,0,1-.33-.07c-.13-.34-.12-.35-.47-.15-.5-.15-.91.14-1.36.23a.21.21,0,0,0-.1.35c0,.12.16.12.24.19l0,0a3.14,3.14,0,0,1-1.17.28,1.37,1.37,0,0,0-1,.28c-.53-.4-.53-.39-.92.13-.05.07-.21.2-.29.07-.25-.46-.41,0-.74,0,.32.06.51.1.46.34h0l-.4.2a1,1,0,0,0-.87.38c.38-.1.7,0,1-.19l.21,0a.77.77,0,0,1-.1.49h0c-.47.06-.71.49-1.17.57-.29.09-.61.15-.74.47-.21.07-.34-.3-.49-.14-.32.36-.85.33-1.2.61h0a.55.55,0,0,0-.76.08,1.65,1.65,0,0,1-1.13.25c-.24,0-.42-.06-.53.21s-.21.25-.26,0c0-.09-.08-.09-.14,0a2.65,2.65,0,0,1-1.23.45c-.24.05-.59.11-.73.39-.17,0-.27.27-.45.19-.88-.36-1.37.44-2.1.58-.27,0-.61.29-1,.35-.18,0-.37.05-.47.23-.42.26-1,.26-1.37.57-.2,0-.48,0-.47.29s.3.1.45.15c.45.15.78-.15,1.16-.22a34.59,34.59,0,0,0,3.38-1,7.93,7.93,0,0,1,1.92-.41c.3,0,.49,0,.63-.26a5.08,5.08,0,0,1,.9-.34,10,10,0,0,0,2.18-.59c.62.09,1.1-.28,1.66-.39h.89c.17,0,.44-.21.5,0s-.29.24-.48.33-.24,0-.35.06-.5.08-.55.36c-.42.15-.86.23-1.29.35s-1,.2-1.2.58c-.32.73-1.16,1-1.55,1.65-.23.39-.77.48-1,.84a31.09,31.09,0,0,0-2.65,2.47.52.52,0,0,0-.34.39c-.15.8-.9,1.38-1,2.21a.52.52,0,0,1-.25.45c-.11,0-.14.07-.19.14-.39.64,0,1.21.28,1.74a2.16,2.16,0,0,0,1,1.14A4.15,4.15,0,0,0,18.22,38a5.57,5.57,0,0,1,1.28.53,11.5,11.5,0,0,0,2.74,1.11,9.29,9.29,0,0,1,2.66,1.2,14.88,14.88,0,0,1-3.24.49c.07-.11.4,0,.28-.24s-.29,0-.44,0-.24.12-.17.28a7.66,7.66,0,0,0-2,.07,1.72,1.72,0,0,1-.78-.08c-.2,0-.37-.11-.31-.38a.37.37,0,0,0-.17-.45c-.5-.33-1-.2-1.55-.28a9.36,9.36,0,0,0-4.91.74,1.84,1.84,0,0,1-.66,0c-.46,0-.92-.37-1.48,0,.51.09.93.18,1.36.22a1,1,0,0,1,.49.17c-.21.15.09.36,0,.47a.56.56,0,0,1-.55,0A.64.64,0,0,0,10,42a8.84,8.84,0,0,0,1.28.24c.51,0,.46.36.45.63s-.31.19-.52.19H9.13a4.11,4.11,0,0,0,1.52.16c.17,0,.41,0,.41.18s.22.42.19.69L9.35,44c-.1,0-.23-.06-.25.08s.14.12.25.13l1.56.05c.34,0,.66,0,.4.45-.06.1,0,.24.06.37.09.43.47.79.53,1.18a1.64,1.64,0,0,0,.91,1.17c-.24.07-.25.19-.12.49a.87.87,0,0,1,.09.44c0,.12,0,.22.25.2.39.13.52-.16.88-.35A4.69,4.69,0,0,0,13.4,50c0,.67-.91,1.17-.66,1.89,0,0-.05.06-.08.1-.33.42-.16.66.5.66a.51.51,0,0,1,.44.2c.07.11-.1.19-.21.26a2.48,2.48,0,0,1-.37.17c-.49.16-.6.34-.24.61s.2.61.18.89c0,.46-.09.53.55.48a23.71,23.71,0,0,1,2.39.05c.61,0,1.21.33,1.91.31a16.23,16.23,0,0,1-2.58,1.26c-.33.1-.15.25-.09.39.25.51.08.67-.67.62-.12,0-.28-.09-.32,0a1,1,0,0,0,.08,1c.31.18.48-.09.73-.11,0,.4-.51.68-.51,1.09a1.72,1.72,0,0,1-.55,1.23c-.3.3-.59.58-.48,1,0,.14-.11.22-.24.3s-.25.16-.14.31.15.28.42.26a.43.43,0,0,1,.38.09c.28.27.2.43-.5.57-.54.11-.57.33-.37.59s.06.69-.1,1,0,.4.27.44a2.82,2.82,0,0,0,.92.08c.64-.09,1.16.34,1.8.23a6.75,6.75,0,0,0,3.07.51c0,.31.24.45.61.42s.63.06.93.07.48.37.8.29a4.56,4.56,0,0,1,1.33,0,1.84,1.84,0,0,0,.72-.05c-.35-.19-.77-.26-1-.52l.05,0a1,1,0,0,1,.71,0,14.19,14.19,0,0,0,1.58.3l.05,0a10.91,10.91,0,0,1,2.05.48c.84.15,1.68.27,2.5.5a5.06,5.06,0,0,0,2,.38c.31.05.62.11.93.14a39.91,39.91,0,0,0,4.23.62,4.56,4.56,0,0,0,1.6.18c1.24.11,2.48.08,3.7.3l.66.1.2.07a.23.23,0,0,0,.23,0l.76.08a.85.85,0,0,0,.19.09c.29.1.45.49.81.43.69-.1,1.12.27,1.69.38-.23,0-.45,0-.67,0s-.29,0-.25.09c.14.33-.27.26-.44.31A5.81,5.81,0,0,1,43.11,71c-.93,0-1.88,0-2.82,0-.83-.14-1.63-.38-2.45-.56a7.75,7.75,0,0,0-1.73-.31,8.88,8.88,0,0,0-1.27-.38,2.54,2.54,0,0,0-.82-.21,4.79,4.79,0,0,0-1.49-.37,4.46,4.46,0,0,0-1.48-.4c-.44-.07-.84-.44-1.34-.17,0,0-.12,0-.19,0-.46-.1-.91-.22-1.38-.3-.18,0-.48-.1-.53.15s.23.35.44.39a2.61,2.61,0,0,0,.74,0,1.45,1.45,0,0,1,1.47.71.59.59,0,0,0,.58.24,3.1,3.1,0,0,1,1.25.11c.14.58.66.45,1.1.45a1.62,1.62,0,0,0,.31,0c.6-.07.76,0,.87.58a.11.11,0,0,0,.13.1,5.41,5.41,0,0,0,.82.09,6.6,6.6,0,0,1,1.53-.18h.32a2.21,2.21,0,0,0,.84.29l-6.28.71a25.76,25.76,0,0,0-2.66.31,4,4,0,0,0-1.35.24H27.3a29.83,29.83,0,0,0-3.55.33,22.69,22.69,0,0,0-4.89.79,19.89,19.89,0,0,0-5.73,1.73,6.44,6.44,0,0,1-1,.4c-.68.23-1.47.36-1.77,1a1.45,1.45,0,0,0-.56.15c-.37.17-.54.31-.59.54-.07,0-.11.09,0,.16l0,.06a.69.69,0,0,0,0,.13s0,.1-.09.14-.17.24.09.3.13.11.11.2c-.08.56.31,1,1.06,1.07.19,0,.39,0,.48.21s.3.11.48.11a18.51,18.51,0,0,0,2.69.51c.59,0,1.17.09,1.76.12a17.85,17.85,0,0,1,3.26.76.62.62,0,0,0-.47.42c-.07.24-.73.45-1,.33-.54-.24-.7-.07-.81.3-.06.2-.15.36.08.52s.12.2,0,.25c-.43.25.11.8-.59.95.26.37-.39.63-.2,1a.43.43,0,0,1-.33.55.7.7,0,0,1-.77-.26,1.06,1.06,0,0,0-.59-.41c.38.45.77.81.48,1.3-.07.11.06.2.15.28s.18.14.15.25a7.54,7.54,0,0,0-.1,1.57c-.2.14,0,.52-.53.49a19.24,19.24,0,0,0-3.64.2,18.85,18.85,0,0,0-2.21.37,3.36,3.36,0,0,0,.5.13l-.32.07a4.36,4.36,0,0,1-1.18-.33A1.14,1.14,0,0,0,6.89,89c-.24,0-.43.13-.16.36.12.1.27.26.18.37-.31.37,0,.45.28.58-.24.17-.57.07-.83.2s-.41.26-.23.32c.44.13.61.59,1.09.63a3.73,3.73,0,0,1,1.62.29.37.37,0,0,1,.29.24c.23.68.38.76,1.13.83s1.18-.18,1.78-.11a1.07,1.07,0,0,0,.61.08,5.48,5.48,0,0,1,.7,0v0c.07.29.3.33.55.33a.93.93,0,0,1-.82.07,1.17,1.17,0,0,0-.89-.07l-2,.28c-.14-.2-.26-.28-.47,0a1.2,1.2,0,0,1-.76.34c-.26,0-.74-.16-.78.34L8,94c0-.14.06-.28-.18-.28.14-.2.24-.35-.18-.29S7,93.56,7,93c-.18.27-.11.55-.24.76l0,0h0a.29.29,0,0,0,0,.09c-.11.35-.41.41-.82.29.23,0,.49,0,.46-.32s-.32-.18-.5-.24a.41.41,0,0,0-.38.09,1.45,1.45,0,0,0-1.25.18c-.19.16-.48-.07-.67.12a9.37,9.37,0,0,1-1.32-.13c0,.1,0,.24-.06.38s-.08.12-.07.2a.59.59,0,0,1-.25.07c-.21,0-.44,0-.43.23s.2.27.43.27.76,0,1.13,0,.42.22.44.19c.26-.35.4,0,.55.11.22-.21,0-.36,0-.52a2.26,2.26,0,0,0,.56.07,5.11,5.11,0,0,1,2.2.2c.17.12-.14.38.18.47s0-.28.29-.19a.59.59,0,0,0,.47.49c-.07.08-.27.06-.22.21s.17.08.27.07l.91-.09,1.61,0A2.48,2.48,0,0,0,11.35,96h.18a1,1,0,0,0,.52.41c-.12,0-.29,0-.27.17s.18.11.31.12a3.94,3.94,0,0,0,1,0c.34,0,.65.2,1,.06a1.38,1.38,0,0,0-1-.23c-.18,0-.36-.1-.54-.13a1.25,1.25,0,0,0,.27-.1.69.69,0,0,1,.25,0h0c.17.24.36.08.53,0s.28-.17.38-.1c.41.27.8,0,1.2,0a.48.48,0,0,0,.54,0c.29-.3.48-.23.77,0a.71.71,0,0,0,.4.16.15.15,0,0,0,.08,0c.12,0,.15,0,.16-.06a.72.72,0,0,0,.22-.1c.06,0,.08-.08.08-.11.17.13.2.28-.12.43,0,0,0,.08,0,.12l-.58.19-.7,0c-.4,0-.79.05-1.18.09a.71.71,0,0,0-.29,0c-.51,0-1,.08-1.51.07a15.64,15.64,0,0,0-2.59.25,1.57,1.57,0,0,0,.32.07c1.29,0,2.57.09,3.86,0l.79,0,.13,0c.2,0,.46,0,.42.28,0,.67,0,.69.85.67a3.68,3.68,0,0,1,.58.06.14.14,0,0,1,.06.15.47.47,0,0,0-.06-.15,1,1,0,0,0-.12.35c-.11,0-.22,0-.33,0s-.31,0-.32.14.15.2.29.2l.44,0a.34.34,0,0,0,.05.11l-.07,0h-.63l-1,.16c0,.42.43.8.34,1.21a2.37,2.37,0,0,0,.35,1.59.66.66,0,0,0,.29.28c.84.48,1.65,1,2.55,1.4A10.91,10.91,0,0,0,23.78,105c1,0,2.07,0,3.11.11.66,0,1.34,0,2,0a26,26,0,0,0,3.06.14l.17,0a8.65,8.65,0,0,0,3,0c.19,0,.35-.25.47-.15a2,2,0,0,0,1.74.3c.13,0,.29.09.48,0s.58-.52,1,0a.7.7,0,0,0,.46.2,15.94,15.94,0,0,1,2.3.34c.14,0,.28.06.3-.07.07-.3.33-.16.5-.11a3.82,3.82,0,0,1,.6.25c.14-.49.18-.5.68-.2.08,0,.24.39.41,0,0-.06,0,0,0,0a1.39,1.39,0,0,0,.67.35c-.12,0-.27,0-.38,0a2.52,2.52,0,0,0-.73,0,8.09,8.09,0,0,1-2.5.15c-1.38,0-2.76-.2-4.15-.13a8.93,8.93,0,0,1-1.15,0,6.19,6.19,0,0,0-1.77,0,6,6,0,0,1-1.33.16,33.32,33.32,0,0,0-4.24-.15A1.9,1.9,0,0,1,27.3,106a1.57,1.57,0,0,0-1.12-.12,3.4,3.4,0,0,1-1.1,0,23.08,23.08,0,0,0-4.32-.18,6.49,6.49,0,0,0-1.41.13,4,4,0,0,0,.41.14c.75.12,1.51.21,2.26.35.57.1,1.13.31,1.7.38,1.43.17,2.86.29,4.28.44.13.14.49.1.46.32s-.36.1-.54.15l-.29.12a4.16,4.16,0,0,0,.46.34c.1.07.24.1.2.24s-.18.14-.29.15a6.56,6.56,0,0,0-1.38.38c-.31,0-.62.12-.94,0-.15-.3-.45-.23-.69-.19a10.81,10.81,0,0,1-2.41.08,4.25,4.25,0,0,0-2.1.48,1.28,1.28,0,0,0,1.06.65c.83,0,1.64.11,2.46.12.39,0,.79-.18,1.15,0a1,1,0,0,0,.65.07.1.1,0,0,1,.09,0,1.28,1.28,0,0,0,1.27,1.23c.31.1.58.35,1,.2a.57.57,0,0,1,.59.31,2,2,0,0,0,1.68.74,16.46,16.46,0,0,1,2.34.31,21.44,21.44,0,0,0,2.64.35c1.62,0,3.16.59,4.78.61a5.94,5.94,0,0,1,.92.17,22.67,22.67,0,0,1-4.73-.21c-1.57-.12-3.14-.3-4.71-.39s-3.09-.53-4.73-.57a2.75,2.75,0,0,0,1.8.6c1.31.19,2.65.23,3.95.54l.06,0c.4.15.91-.06,1.32.31a5,5,0,0,1-1.07,0h0a1.4,1.4,0,0,0-1.14-.05,1.3,1.3,0,0,0,.71.25c.29,0,.4.46.73.32a2.1,2.1,0,0,1,1-.06c.27.06.52.32.84.12h0c0,.18.41.34.07.49-.16.08-.29.37-.57.19a.15.15,0,0,0-.21.09.3.3,0,0,0,0,.21.14.14,0,0,0,.22,0c.18-.22.37,0,.5,0a1,1,0,0,0,.79.11c0,.29-.34.35-.55.59h.57a1.3,1.3,0,0,0,.08.17c.05.1-.18.26.07.29s.2-.07.2-.23.12-.1.19,0a.18.18,0,0,0,.29.08l.62.19v.08h-.09c-.36,0-.56.31-.92.35-.16,0-.06.28.19.3,0,0,0,0,.06.07s0,0,0,0c-.31.25-.69-.12-1,.1-.14-.13-.1-.41-.42-.38.06-.51.06-.51-.57-.48,0,0,0,0,0-.06,0-.17.34,0,.32-.25a3.16,3.16,0,0,0-1.1-.52c-.12.23-.36.09-.58.2.45-.05.12.46.49.45,0,.26.22.32.43.37s0,.13,0,.19c-.19-.06-.48-.06-.56-.18-.19-.27-.43-.25-.7-.2s-.61-.27-.88-.34a4.4,4.4,0,0,0-2.14-.25c-.19,0-.45.08-.55-.22a.28.28,0,0,0-.41-.08.4.4,0,0,1-.33.07,3.5,3.5,0,0,0-2,.07c-.12,0-.25.06-.25.2s.11.18.23.2.27.06.41.09a.24.24,0,0,1,.21.28c0,.27-.41.24-.44.48a2.18,2.18,0,0,1-.21-.22.56.56,0,0,0-.73-.28,1.36,1.36,0,0,1-.66.06c-.27,0-.58-.12-.73.24,0,.11-.17,0-.19-.08s0-.22,0-.32a5.43,5.43,0,0,0,1.86-.65c-.34-.24-.62,0-.84,0-.5-.14-1-.41-1.39.13,0,0-.07,0-.1,0a3,3,0,0,1-1.54-.3H21a.55.55,0,0,0-.74-.17c-.17.08-.49,0-.53.27h-.3c-.23,0-.52,0-.66-.06a.54.54,0,0,0-.63,0c-.19.1-.33.25-.46,0,0-.08-.15-.09-.23-.06s0,.12,0,.18c-.06.22.1.51-.32.63l.44.19-.37,0c.05.13.29,0,.26.18s-.27.24-.29.21c-.16-.19-.53.21-.54-.12s-.25-.33-.47-.39a8.81,8.81,0,0,0-4.24,0,2.26,2.26,0,0,1-1.62,0,.28.28,0,0,0-.34.08l.91.22c.19,0,.33.06.27.33s.07.55.54.48c.23,0,.7-.14.46.38,0,.09,0,.22.05.33-.6.07-1.16-.14-1.77-.07a1,1,0,0,1,.63,1c-.15.5.18.92.23,1.36.08.76.74.37,1,.62l0,0a1.52,1.52,0,0,0-1.15.56l0,.06h0l.05-.05c-.12-.15-.38,0-.46-.18s-.18-.3-.4-.31-.18,0-.21.09.17.13.22.23-.29,0-.36.17H9.86c-.06-.1-.09-.24-.18-.28-.32-.14-.22-.3,0-.47s.28,0,.25-.18-.15-.14-.26-.11c-.4.12-.83,0-1.22.16-.13,0-.35,0-.36.2s.28.06.34.2l-.27.12c-.08,0-.23,0-.17.18a.19.19,0,0,0,.24.12c.21-.07.52-.07.4-.4.23.13.87-.19.62.46l-.3,0c-.42-.07-.57.37-.91.45H7.85l-.48-.13c.38-.26.38-.26,0-.45,0-.2-.15-.5-.36-.43s-.74,0-.94.34c-.36,0-.82.1-1.07-.06-.69-.43-1.08-.47-1.63,0,.22.17.58-.15.67.06.21.52.74.27,1.06.45a1,1,0,0,0-.58.1,2.44,2.44,0,0,1-1.5.29c-.22,0-.54.12-.5-.3,0-.11-.21-.14-.36-.08-.5.21-1.06.2-1.56.4-.2.08-.58-.08-.57.16s.42.17.65.24c.06,0,.14,0,.21,0l1.67.1,0,.12-1.76.42c-.12,0-.32-.09-.34.11s.18.15.31.19a.78.78,0,0,0,.3.07,9.18,9.18,0,0,1,3.34.4c.08,0,.28,0,.29,0,.13-.36.35-.1.4,0s.31.16.47.24c.52.25,1.19,0,1.64.45.1.06.25,0,.32.12.2.33.53.28.86.23l.31,0c.61.14,1.24.19,1.86.36a.92.92,0,0,0,1-.19.2.2,0,0,1,.23-.07c.52.18,1.08.05,1.6.19,0,.09-.17.19.08.28s.7.22,1-.11a7.8,7.8,0,0,1,2,.38c.39.12.72.47,1.21.31,0,0,.08,0,.11.07.19.24.5.11.75.2.09,0,.27,0,.24-.16s-.17-.14-.25-.1c-.34.2-.58-.09-.87-.11s-.18-.18-.15-.28.17-.18.31-.06.55.12.59,0c.22-.55.56-.23.86-.14a2.36,2.36,0,0,0,1,.18,7.7,7.7,0,0,1,1.73-.1l.09.18c-.19.12-.09.22.06.26s.37,0,.38-.15-.2-.08-.31-.12c0-.29.29-.13.43-.19a18.26,18.26,0,0,0,2.09.21c.2.27.17.41-.24.38a3.23,3.23,0,0,0-1.24,0c-.09.1-.33.12-.22.31s.21.06.32,0,.27,0,.4,0a5,5,0,0,0,1.8.17c.26-.07.34-.14.13-.33,0-.12.32-.12.25-.26-.21-.47.24-.23.38-.31a1,1,0,0,0,.35.09c1.38-.13,2.76,0,4.15,0a2.12,2.12,0,0,0-1,.38.79.79,0,0,1-.51.18c-.87,0-.87,0-1,.82,0,0,0,0,0,.05-.24.19-.44.46-.85.24a.28.28,0,0,0-.35.15c-.11.41-.48.41-.83.48-.19,0-.5-.07-.5.27l-.12.17c-.74.25-1.53.35-2.26.64a7.13,7.13,0,0,0-1.42.53,2.07,2.07,0,0,0-1.19.79,6.31,6.31,0,0,0,1.51-.38l.1,0h0c.33,0,.55-.23.85-.28h0a.54.54,0,0,0,.39-.1,3.37,3.37,0,0,1,1.71-.37h0a1.4,1.4,0,0,0,1.26.2.26.26,0,0,1,.33.06c.09.16-.07.23-.18.29s-.54.22-.69.47a1.27,1.27,0,0,1-.47-.06c-.34-.12-1.61.17-1.7.47-.19.65-.72.6-1.26.65-.31,0-.72-.06-.92.22a3.08,3.08,0,0,1-1.87.91,1.06,1.06,0,0,0-1.08.68,1,1,0,0,1-.91.67c-.17,0-.33,0-.3.22s-.16.48-.23.72c-.66.3-1,.91-1.69,1.23-.13.06-.14.22-.21.32-.29.38-.42.92-1,1-1.13.26-1.78,1.12-2.66,1.69a4.45,4.45,0,0,1-.93.59.65.65,0,0,0-.52.78A1.26,1.26,0,0,1,9.83,143c-.17.15-.32.36-.47.52s-.47.73-1,.82c-.32-.06-.42.26-.7.34a5.63,5.63,0,0,0-1.62.91c-.16.13,0,.7-.53.36,0,0-.07.07-.11.09-.67.18-.69.8-1,1.21s0,.39.25.41a2.2,2.2,0,0,0,.36,0,1,1,0,0,1,1.13.55s.09.1.11.09c.31-.11.44.08.67.21a1.24,1.24,0,0,1,.58.75,2.15,2.15,0,0,0,1.1,1.2h0c0,.2.08.23.41.28.15,0,.39,0,.37.17,0,.35.22.72,0,1-.39.58.22.83.49,1.12s.25-.22.43-.29a.26.26,0,0,1,.15,0,4.7,4.7,0,0,0,1.34-.33,4.49,4.49,0,0,1,1.41-.15,2,2,0,0,0,1.26,0c.13-.06.28-.09.34.09a3.06,3.06,0,0,1,.22.81c0,.41.19.59.63.57.22.15.6.1.66.44,0,.11.12.1.19,0,.51-.49,1-.26,1.38.1h0a2.36,2.36,0,0,1,.13.83c0,.51.53.77,1.26.53-.48,0-.56-.31-.8-.39.17-.37.43-.2.68-.13s.37.61.54,0c0-.08.15-.05.23-.05s.09.09.1.17c.08.67.27.82,1,.84.3.05.59,0,.87.23s.73.12.82-.1.44-.35.73-.4c.05.15.31.18.27.38-.09.45.28.33.53.33.09,0,.22-.17.26-.08.26.47.57.08.79,0s.49-.11.59-.35c0-.06,0-.11-.11-.14A1,1,0,0,0,25,156c-.06,0-.09.09-.14.13s-.24.1-.33,0-.56-.31-.68-.62c0-.09-.09-.19.1-.2.25.21.6,0,.86.2s.72,0,1.05.19c0,.06.14.11.15.07.12-.31.36-.22.6-.18s.48.1.7.18.23.3,0,.37a.73.73,0,0,0-.59.63c0,.1-.23,0-.16.17a.23.23,0,0,0,.28.08c.47-.21,1,0,1.44-.09.2.15.35,0,.54-.15-.2.41-.11.56.32.42a.32.32,0,0,1,.21.21l.19.28c.06.12.18.2.28.1.38-.36.79-.13,1.19-.09.11.44.22.5.56.26,0-.23.1-.3.33-.27a1.16,1.16,0,0,0,.81-.19c.19-.09.1-.24.1-.37v-.2c.26-.08.13-.32.24-.47a1,1,0,0,1,.84.17l.07,0c0,.09,0,.18,0,.26-.38.36-.37.36.18.52a1.3,1.3,0,0,0,.39.09l-.27.21c-.18.14-.09.3,0,.45.37-.21.43.31.74.26s.35-.36.65-.19c.12.05.22.28.32,0a6.76,6.76,0,0,1,.4-.81c0-.09.09-.18.22-.19.43,0,.89-.39,1.27.09-.52.39.09.47.22.68-.12.11-.43.06-.34.35,0,.12,0,.26.19.29s.39-.07.4-.15c.05-.26.38-.33.4-.58.1,0,.18-.19.29,0s.43.07.64.07c-.07-.28.38-.34.3-.61,0,0-.06,0-.08,0h0c-.27-.15-.77,0-.8-.45.08,0,.16,0,.24,0,1,.31,1.15.5.9,1.35,0,.11-.06.24.08.29s.29.1.37,0c.2-.42.38-.15.57,0,0,.51.38.22.62.2s.24.2.43.17c.06.25.22.25.41.11s.18-.19.33-.2a6,6,0,0,1,1.38.57l-.22.2-.2-.12c-.19-.28-.37-.34-.54,0v.19c0,.12-.08.27.08.33a.81.81,0,0,0,1-.53c.33-.12-.12-.31,0-.47.31.13.59.16.78-.2,0,.1-.13.17-.07.24.29.33.62.07.92,0s.12-.2,0-.32a.12.12,0,0,1,.07-.19c.41-.14.18-.21,0-.29s-.22-.17-.11-.32-.07-.26.07-.22c.4.11.71-.11,1.06-.17.17,0,.26.08.32.19s0,.22-.11.29c-.36.26-.36.28,0,.59s-.13.17-.09.28c-.23.32-.38.62.18.78.27.16.47.21.44-.19,0-.16,0-.35.22-.13s.47.29.64-.07c.16,0,.29-.17.5,0a.76.76,0,0,0,.76,0,1,1,0,0,1,1.29-.23c.09.05.25.1.29.07.43-.4.73-.06,1.09.1a.67.67,0,0,0,.46,0,2.35,2.35,0,0,1,.87-.09c0,.3-.29.28-.54.29s-.5.27-.26.51.59.77,1.22.54c.14.2.36.18.56.17.43,0,.84,0,1,.43,0,.1.22.12.25.05a1,1,0,0,0,.12-.56c0-.11-.19-.19-.38-.15s-.32-.07-.46,0a.44.44,0,0,1-.59-.39v-.18l.3-.15c-.07-.1-.2-.1-.28-.15s-.45.08-.57-.16c.31-.15.69,0,1-.22a3.11,3.11,0,0,0,1.25.21c.32.22.07.5.1.75,0,0,0,.09,0,.09a7.1,7.1,0,0,0,1.63.26c.24,0,.33,0,.45.2a5.37,5.37,0,0,0-.75-.07c-.14,0-.36-.09-.43.07s.17.21.24.33v.27c0,.13-.14.29.06.37s.28-.1.36-.24.09,0,.14,0c.28,0,.53,0,.61-.27.33.21.7,0,1.06.1a2.56,2.56,0,0,0,1.33.25,1,1,0,0,1,.9.2v.12c-.07.07-.15.15,0,.21a1.73,1.73,0,0,0,.6.06,1.91,1.91,0,0,1,1.16.1h0c.32.1.64.25,1,0,.16,0,0-.4.31-.17.07.2.2.43.4.15s.48-.25.77-.26.38.08.52-.05c0-.22-.32-.13-.34-.35.24-.12.44-.32.79-.19a1.58,1.58,0,0,0,.62.05c.25,0,.11.47.47.28s0-.37.21-.46a1.74,1.74,0,0,1,1.34.38.74.74,0,0,0,.67.38c.28,0,.58,0,.7.32s.29.17.47.07c.69-.38.78-.37,1.22.16l.27-.32c.21-.26,1.15-.21,1.21.09s.4.5.79.49l.15,0c.56-.12.66-.23.4-.43s.42-.39.08-.64a.58.58,0,0,0-.38-.11c-.21,0-.41.09-.61.1l-.16,0s0,0,0,0l.14,0c.33,0,.66-.08.43-.5,0,0,.07-.07.11-.09l.26-.07c.15,0,.28.07.43.09l0,0c.5.05,1,.18,1.43-.22a.41.41,0,0,1,.4-.06,4.45,4.45,0,0,0,1.7.25c.22,0,.38.1.21.33a.74.74,0,0,0,0,.14,2.7,2.7,0,0,1-.39.27h-.19c-.21,0-.19-.12-.24-.24a1,1,0,0,0-1.61-.27.38.38,0,0,1-.41.12c-.2-.06-.41-.08-.42.19s0,.47.38.41c.13-.2.23-.36.52-.11a1.29,1.29,0,0,0,.82.25,4.45,4.45,0,0,1,.86.23c-.2,0-.3.1-.32.08-.25-.22-.6-.06-.88-.19s-.29,0-.31.14.4.6.61.5.56,0,.83,0,.76.08.91-.37a1.06,1.06,0,0,0,1.13.19c.16,0,0-.36.26-.2.06.19.28.29.78.35.27,0,.53-.19.8.06s.38,0,.35-.12c-.07-.4.24-.33.47-.37a.56.56,0,0,0,.4.09l1.75,0c.18,0,.36,0,.47.15-.12.1-.27,0-.39.08s-.5,0-.47.23.31.17.48.14c.9-.16,1.74.54,2.65.12,0,0,0,0,0,0,.27.21.59.13.9.14.56.12,1.12-.07,1.69,0,1,.08,2,.11,2.94.26a2.76,2.76,0,0,0,.81,0c.28,0,.58-.2.88-.1.57.19,1.19,0,1.76.18.12,0,.37,0,.21-.18-.61-.47-.27-.77.17-1.08a3.18,3.18,0,0,0,1.15.07,3.13,3.13,0,0,0,1.06.09c0,.14-.3.23-.13.41s.35.07.53,0a1.93,1.93,0,0,1,.34-.11l.1.09a1.15,1.15,0,0,0,.4.39h0c.26.19.25.29-.11.29-.13,0-.29,0-.3.12s.17.13.3.16a4.3,4.3,0,0,0,1.08.1,10.93,10.93,0,0,0,3.86-.23,2.9,2.9,0,0,0-2,0c-.19-.38.17-.72,0-1.07-.21,0-.21.16-.24.24-.11.25-.38.37-.57.54s-.38-.19-.6-.24.12-.27.08-.41c-.14-.43-.47-.17-.73-.15-.19-.24-.52-.24-.77-.37l-.1,0s0,0,0,0a1.91,1.91,0,0,1,1.57-.49,12.21,12.21,0,0,0,2.26.15c.09.36.5.46.73.7,0,.35.33.48.58.51.55.05.72.45,1,.72a.69.69,0,0,0,.58.36c.47.06.93,0,1.38,0,.9.08,1.8,0,2.7.07.22,0,.43,0,.4-.29s.18-.18.31-.23.15.11.2.19a.25.25,0,0,0,.3.13l.32-.07a.55.55,0,0,0,.33.19.69.69,0,0,0,.72-.08c.13-.07-.11-.18-.15-.29s.49-.27.48-.54c0-.47.36-.53.73-.61,0,.24.27.14.35.26.14.31-.3.13-.31.31s-.13.22,0,.25c.31.09.18.09,0,.2a.38.38,0,0,0-.17.44c.09.16.35.13.47,0,.33-.22.78-.3,1-.67-.05-.12.17-.22,0-.34-.34-.3-.1-.41.19-.5l.09,0a.72.72,0,0,0,.54-.09c-.14-.07-.34,0-.41-.17a.78.78,0,0,1,1,.18c.26.29.67-.18,1,.17-.47.06-.49.8-1.15.52,0,0-.07,0-.11.08-.33.22,0,.35.06.53.09.33.23.29.45.13.39.33.63,0,.94-.17-.13-.16-.38-.26-.3-.5l.08-.12c.13-.18.7-.25.2-.61.06-.05.07-.21.15-.24h0a.22.22,0,0,1,.18.06c.29.22.5.34.58-.14,0,0,.18-.07.28-.1.22.14.49,0,.8.11-.23.13-.47.09-.6.25.23,0,.58.13.66,0,.44-.47.83-.2,1.24,0a1.59,1.59,0,0,0,.42.55l-.41.1a.85.85,0,0,0-.5,0c0,.31.36.08.48.25a.81.81,0,0,1-.09.1c-.1.08-.25.15-.11.3s.14.2.28.16a.26.26,0,0,0,.19-.34.21.21,0,0,1,.08-.3h.19c-.07.14-.21.33,0,.37s.21-.22.29-.36a.19.19,0,0,0,.09-.29l.11-.47c.09-.06.17-.14.3-.11.29.06.22-.43.55-.29.16.1.41,0,.51.2s.42.27.63.4c0,.12,0,.26-.09.36,0-.12-.1-.27-.21-.17a.78.78,0,0,0-.32.55c0,.2.13.23.31.19a2.06,2.06,0,0,1,.57-.09c.31,0,.48-.12.17-.38.11,0,.2-.08.23-.19.28.18.55,0,.83,0a.51.51,0,0,0,.74-.09.82.82,0,0,0-.75-.11l-1,0-.15-.07c-.06-.26-.35-.31-.52-.47,0-.32.31-.23.44-.25.79-.15,1.62.14,2.41-.16,0,0,.06,0,.09,0-.09.28-.22.58.35.47.07,0,.18.08.21.18h0c.14.13.29.33.47.13a.33.33,0,0,0-.12-.53c-.11-.05-.29-.06-.23-.25.07,0,.06-.12.09-.15s-.26-.31.11-.33c.22,0,.34,0,.32.25s.13.12.24.15c.48.15.9-.13,1.35-.17s.78.1,1-.24a.37.37,0,0,1,.39.32c0,.08,0,.16.15.15s.13-.08.13-.17c0-.44.3-.39.61-.28a.65.65,0,0,0,.59,0c.2-.1.39-.25.66-.09.08.06.2,0,.21-.13s0-.14-.14-.16c-.6-.07-1.2-.16-1.8-.2-.15,0-.52.06-.46.19.15.3-.1.24-.23.29,0-.33-.44-.46-.56-.36-.3.27-.46.24-.84.11a6.52,6.52,0,0,0-1.63-.14c.17-.25.38-.51-.13-.65-.23-.06-.16-.21-.07-.34s.21-.11.35,0,.13.28.34.26l.17.17c.07.09.14.19.28.14s.11-.12.09-.2-.19-.15-.34-.11-.06,0-.1-.07c0-.31.56-.17.57-.49s.37-.22.41-.14c.24.46.57.27.92.16s.51,0,.44.21-.09.52-.5.46c-.13,0-.32,0-.26.21a.29.29,0,0,0,.38.16c.46-.22,1-.05,1.44-.18.19-.06.51,0,.48-.26s-.33-.14-.53-.1a2.57,2.57,0,0,1-.4.08c-.19,0-.43.09-.53-.16a5.61,5.61,0,0,1,1.73-.15c.43-.05.78,0,.59-.59.14.24.32.28.48.17s0-.21-.06-.32-.15-.43-.06-.42c.42,0,.68-.42,1.11-.26.09,0,.24,0,.24.11s-.14.12-.22.18c-.24.11-.61.15-.33.52a1.79,1.79,0,0,0,1.09.21c.1-.07.09-.15.07-.25s0-.25-.06-.37c.36,0,.72-.07,1.08-.14.21,0,.5.18.62-.06s-.36-.14-.36-.37a.37.37,0,0,1,.34-.08,1.85,1.85,0,0,0,1,0,1.84,1.84,0,0,1,1.44.15,1.16,1.16,0,0,0,.77.3c.51-.1,1.11.11,1.53-.35.09-.1.23,0,.34,0a1.52,1.52,0,0,0,1.23-.51c-.08-.13,0-.4-.29-.36a4.34,4.34,0,0,0-1.34.11,1.9,1.9,0,0,1-.88.12c.18-.1.44-.12.4-.31s-.28-.14-.45-.16a11,11,0,0,1-1.72,0c-.14,0-.22.09-.23.21s-.23.26-.45.28c-.48,0-.92-.17-1.4-.14-.16,0-.18-.11-.12-.24.15-.31.49-.42,1-.29-.08.09-.21.15-.21.28s0,.19.14.23.25.06.26-.05.2-.33.27-.5l.14-.11c1.18-.09,2.37-.08,3.56-.11a.29.29,0,0,1,.33.29.26.26,0,0,0,.26.25.32.32,0,0,0,.3-.15h0c0,.28.15.3.59.29.18-.08.38-.19.43.12,0,.15-.56.28,0,.46a.42.42,0,0,1-.09.37c-.27.11-.35.37-.17.48a1,1,0,0,0,1.09-.13c-.38,0-.51-.15-.51-.44s.42-.23.64-.31.39-.2.62-.19c.38-.14.33.12.33.3,0,.36.13.48.5.28.1.23.1.57.5.16.13-.13.36-.21.47-.4a.41.41,0,0,1,.48-.21c.52.17.89.07,1.1-.41.41-.15,1,0,1.23-.4-.07-.09-.24,0-.28-.16s.37-.27.16-.52a1.18,1.18,0,0,1-.78.25c-.22-.18-.44-.32-.73-.12h0v.09h0c-.56.1-.37-.23-.34-.47s.15-.2.34-.23c.34-.06.53.28.86.18.74-.22,1.54-.21,2.28-.46.27-.1.58.13.87-.05.19.05.3-.13.47-.15.35,0,.35-.05.36-.32-.43-.16-.81.16-1.23.14a.6.6,0,0,0-.24-.05.27.27,0,0,1-.41,0c-.22-.29-.37-.58.17-.73,0,0,0,0,0,0,.43-.44,1.05.06,1.51-.23,0,0,.06,0,.09,0s.2,0,.2-.1c0-.43.35-.34.58-.29s.51-.33.81-.07c.22.47.89,0,1.14.44,0,0,.15,0,.16-.13.08-.4.3-.21.5-.1-.1.19,0,.21.18.18.45-.06.49-.53.86-.67h0c.2.06.43,0,.62.1s.21.06.24-.09c.26-.24.71-.1.95-.39l.53,0c-.07.42-.48.33-.73.45s0,.52-.46.34c.22.14.44.16.56.31,0,.14-.1.18-.24.1s-.59,0-.83-.34c0,.22,0,.36-.11.44-.17.26-.07.37.24.36.09,0,.2-.12.28-.06.5.32.92-.1,1.37-.12.19-.1.37,0,.55,0s.42,0,.44-.28h0c.2-.12-.16-.33.05-.4s.32-.32.42-.52c.2-.39.89-.76,1.17-.55s.33.06.47,0a2.17,2.17,0,0,1,.34-.22,4.62,4.62,0,0,1,.65-.08,2.34,2.34,0,0,1-.08.53c0,.09-.23.13-.13.26s.19.07.29.05.25-.09.24-.26,0-.38.31-.21c.1,0,.13,0,.1-.08-.09-.23.06-.21.21-.17a1.51,1.51,0,0,0,1.15-.16c.23-.13.55.17.69-.16a2.65,2.65,0,0,1,1-.21c.66-.12,1.31-.26,2-.36.33,0,.49-.17.48-.47l2.22-.48c.07,0,.16,0,.2,0,.34.28.58.21.83-.12a.76.76,0,0,1,.62-.29c.15,0,.32,0,.35-.18l.29-.11a.71.71,0,0,0,.67-.29c-.34.19-.75,0-1.07.2l-1,.12c-.28-.12-.42.17-.66.17v-.1c-.06-.34.31-.71.78-.76.65-.07.65-.07,1-.48-.21,0-.44.06-.65.12a6.29,6.29,0,0,0-1.48.43,2,2,0,0,0-.63.12l-1.43.2c-.42,0-.53-.13-.36-.47a7.35,7.35,0,0,0,.75-.23c.32-.12.71,0,.95-.25a1.52,1.52,0,0,1,.4-.12,19.48,19.48,0,0,0,2.83-.59,2.61,2.61,0,0,0,1-.33l.67-.1a1.77,1.77,0,0,0,1.12-.31c.08-.08.26-.14.17-.28a.34.34,0,0,0-.38-.07c-.47.13-.95.21-1.4.37a7.85,7.85,0,0,0-1.8.56c-.85,0-1.57.48-2.42.45-.07,0-.15.07-.22.11a18.1,18.1,0,0,1-2.06.48,4.07,4.07,0,0,1-2.27.23c-.17-.06-.29.06-.41.16a6.4,6.4,0,0,0-2.13.27h0c-.42.06-.88-.1-1.26.2l-1,.2a4.66,4.66,0,0,1-2.25-.29l.23-.19a19.38,19.38,0,0,0,2.16-.32,5.26,5.26,0,0,1,1.78-.26c.34,0-.08-.32.15-.42,0,0,.13-.07,0-.08a2.76,2.76,0,0,0-.91,0c-.38.1-.8.09-1.18.18-.76.18-1.57-.16-2.32.2a.31.31,0,0,1-.38-.1,4.51,4.51,0,0,1,1.47-.41,1.63,1.63,0,0,0,1.06-.35,3.64,3.64,0,0,0,.81,0,11.32,11.32,0,0,0,1.94-.26c.87-.23,1.78-.25,2.66-.44.47-.11.5-.14.68-.48a6,6,0,0,1-1.87.33,27.89,27.89,0,0,1-3.86.59,3.62,3.62,0,0,1-.47,0l-.1,0c-.11,0-.19-.14-.2-.34a6.55,6.55,0,0,0,2-.2,6.19,6.19,0,0,1,1.57-.19c1.3-.15,2.57-.4,3.86-.57.52-.22,1.14-.1,1.66-.37-.08-.12-.47-.07-.18-.3a.94.94,0,0,1,.52-.1c.51.36.59.35,1-.15,0-.05.06-.07.12-.05.23.08.49,0,.71.11.66.19.83-.27,1-.66a1.77,1.77,0,0,0,1-.2c.12-.08.28-.09.34.07.13.34.12.34.47.15.5.14.91-.15,1.36-.24a.2.2,0,0,0,.1-.34c0-.12-.17-.13-.24-.2l0,0a3,3,0,0,1,1.17-.27,1.47,1.47,0,0,0,1-.28c.53.39.52.39.91-.13.06-.08.22-.2.29-.07.26.46.42,0,.75,0-.32-.06-.51-.1-.46-.34h0l.39-.2a1,1,0,0,0,.87-.38c-.37.11-.69,0-.95.2h-.21a.78.78,0,0,1,.1-.49h0c.47-.05.71-.49,1.16-.57s.62-.15.75-.46c.21-.08.34.29.49.13.32-.36.85-.33,1.2-.61h0a.55.55,0,0,0,.76-.08,1.65,1.65,0,0,1,1.13-.24c.24,0,.42.05.53-.21s.2-.25.26,0c0,.1.08.09.14,0a2.63,2.63,0,0,1,1.23-.46c.23,0,.59-.11.73-.38.17,0,.27-.27.45-.2.88.36,1.37-.44,2.1-.57.27-.05.61-.29.95-.36.19,0,.38,0,.48-.22.42-.27,1-.26,1.37-.57.2-.05.48-.05.47-.29s-.3-.11-.45-.16c-.45-.14-.78.15-1.16.22-1.18.21-2.25.69-3.38,1a8,8,0,0,1-1.92.41c-.31,0-.49,0-.63.25a6,6,0,0,1-.9.35A10.25,10.25,0,0,0,187,140c-.61-.08-1.09.29-1.65.4h-.89c-.17,0-.44.21-.5,0s.29-.24.48-.32.24,0,.35-.06.49-.08.55-.36c.42-.16.86-.24,1.29-.36s1-.2,1.2-.57c.32-.73,1.16-1,1.55-1.66.23-.38.77-.47,1-.84a29.43,29.43,0,0,0,2.64-2.47.47.47,0,0,0,.34-.39c.15-.8.91-1.38,1-2.2a.5.5,0,0,1,.25-.45c.1,0,.14-.08.19-.15.39-.64,0-1.2-.28-1.74a2.24,2.24,0,0,0-1-1.14,4.23,4.23,0,0,0-1.94-1.14,5.16,5.16,0,0,1-1.28-.53,12.39,12.39,0,0,0-2.74-1.11,9.29,9.29,0,0,1-2.66-1.19,14.91,14.91,0,0,1,3.24-.5c-.07.11-.4,0-.28.24s.28,0,.44,0,.24-.12.17-.28a7.67,7.67,0,0,0,2-.08,1.81,1.81,0,0,1,.77.08c.21,0,.37.11.32.39a.37.37,0,0,0,.17.45c.5.32,1,.19,1.55.28a9.46,9.46,0,0,0,4.91-.74,1.6,1.6,0,0,1,.65,0c.47,0,.93.38,1.49,0-.51-.09-.93-.17-1.36-.22a1,1,0,0,1-.49-.16c.21-.15-.09-.36,0-.47a.54.54,0,0,1,.55,0,.66.66,0,0,0,.72-.14,10.44,10.44,0,0,0-1.28-.24c-.52,0-.46-.35-.45-.62s.31-.2.52-.2h2.07a4.33,4.33,0,0,0-1.52-.16c-.17,0-.41,0-.42-.18s-.21-.41-.18-.68l1.9.11c.1,0,.23.06.25-.08s-.14-.13-.25-.13l-1.56-.06c-.34,0-.66,0-.4-.45.06-.1,0-.24-.07-.36-.08-.44-.46-.79-.53-1.18a1.9,1.9,0,0,0-1.32-1.39A19,19,0,0,0,191.5,115c-.09-.16-.32-.06-.42-.19h.09a2.17,2.17,0,0,0,.36,0,1.69,1.69,0,0,0,1.21-.9c.08-.16.32-.27.21-.47s-.33-.12-.51-.1l-.29,0c-.16-.14-.35-.08-.53-.09A1,1,0,0,0,191,113c-.16-.16-.13-.52-.53-.47l-.52-.2c-.4-.45-1-.2-1.49-.36l-.09,0a.56.56,0,0,0-.16-.71,5.16,5.16,0,0,1,1.34-.13.64.64,0,0,0,.61-.29c.61-.28,1.33-.27,2.09-.57a2.76,2.76,0,0,0-.91-.12c-.29-.21-.48-.4.09-.48.1,0,.23,0,.26-.13s-.14-.16-.23-.21a1.7,1.7,0,0,0-.34-.12c0-.06.2-.14,0-.16-.49-.08-.91-.39-1.44-.3h0c0-.4.44-.74.16-1.2-.06-.1.14-.3.37-.32s.24-.06.12-.18-.14-.37,0-.54,0-.25-.12-.28c-.42-.07-.32-.43-.47-.64.31-.13.27-.6.63-.61s.26-.22.33-.36-.09-.19.06-.25c.47-.18.11-.31,0-.43a.68.68,0,0,0-.63-.13l-.93-.2c-.08-.15-.4,0-.39-.22s.15-.27.34-.31a.54.54,0,0,0,.19-.08c.22-.19.38-.37-.05-.51-.24-.07-.47-.18-.71-.27a.81.81,0,0,1,.77-.46,1.43,1.43,0,0,0,.9-.32,2,2,0,0,0,.5-.11c.18-.09.54,0,.48-.37a.53.53,0,0,0-.58-.47h0a5.48,5.48,0,0,0-1.9-1h0a3.48,3.48,0,0,0-1.18-.47c-.15,0-.33,0-.37-.21a.37.37,0,0,0-.1-.16,1.25,1.25,0,0,0,.5-.06l.06,0h.11c.08.76.6.07.9.14a.22.22,0,0,0,.25-.13,1.5,1.5,0,0,0,.7,0c.08,0,.15,0,.18.06.15.27.43.28.71.3.11,0,.29.08.31.15.13.49.53.37.87.29a4.28,4.28,0,0,1,.87-.09l.41.21c.09.22.73.17.39.62,0,0,0,.11.11.13a2.73,2.73,0,0,0,2.24,0,2.57,2.57,0,0,1,.57-.17,1.56,1.56,0,0,1-.22-.1,2.64,2.64,0,0,0-2.33-.73h0A2.64,2.64,0,0,0,191.3,99a.61.61,0,0,1,0-.15c.2-.1.35-.21.27-.44s-.28-.15-.46-.12-.16,0-.17-.14l1.24-.44c.15-.06.19-.16,0-.25s-.27-.15-.3-.27c.34-.2.47,0,.58.14,0,0,0,0,0,0,.27.19.24.35-.09.49-.14.05-.23.14-.16.26a.26.26,0,0,0,.27.1c.47-.06.95-.09,1.41-.19.21,0,.21-.15.27-.26s-.13-.11-.2-.15-.15-.07.13-.18.17-.29.45-.22h0c0,.31.2.48.64.48a2.86,2.86,0,0,1,1-.07v.07a.8.8,0,0,0-.62.52,2,2,0,0,1,.84-.1.61.61,0,0,0,.64.11,1.5,1.5,0,0,1,.91-.2c.24,0,.33-.09.21-.26.16-.07.39-.06.46-.23.67.11,1.08-.28,1.61-.46a.93.93,0,0,1,.38-.1c.09-.26.3-.53.65-.44s.42-.08.47-.27a.88.88,0,0,1,.07-.23s.27,0,.11-.15-.24-.24-.33-.18c-.36.28-.78.06-1.17.11-.84.1-1.67-.19-2.53-.16-.16,0-.45-.11-.37-.23.19-.29-.2-.31-.26-.25-.24.28-.3-.31-.51,0s-.21,0-.33,0v-.42c.41-.2.81.15,1.22,0a39.64,39.64,0,0,0,6.81-.45,8.14,8.14,0,0,0,1.71-.28,8.71,8.71,0,0,1,1.36.11,1.64,1.64,0,0,0,1,.07c.24,0,.26-.07.22-.19a.61.61,0,0,1-.12-.72c.21,0,.46,0,.62-.25a7.82,7.82,0,0,0-2.12-.42c-.52,0-1.12,0-1.33-.51-.06-.14-.21-.14-.35-.16a3.87,3.87,0,0,0-1.27,0,28.2,28.2,0,0,1-2.91.13,1.81,1.81,0,0,1-.83-.09c.22-.22.62-.2.85-.41a2.2,2.2,0,0,0-.91-.14,10.37,10.37,0,0,1-1.93,0,5.22,5.22,0,0,0-1.12-.16c-.14-.13-.33-.08-.51-.08s-.21-.06-.16-.17h0a3.28,3.28,0,0,1,.64,0c.3.09.38,0,.48-.2.28,0,.39-.27.65-.2a.59.59,0,0,0,.67-.2c.05,0,.09.07.13.07a10.59,10.59,0,0,1,1.5-.17c.19,0,.07-.14,0-.22h0a4.16,4.16,0,0,0,2.77-.41h0a2.94,2.94,0,0,0,1.51-.41.68.68,0,0,1,.47-.07h.06a1.4,1.4,0,0,0,.41,0,5.93,5.93,0,0,0,2-.53s0-.08,0-.12c.16-.1.35-.05.53-.08a8.94,8.94,0,0,0,2.21-.54c.09,0,.22-.06.14-.21a7,7,0,0,0-2.35.23c-1.94.54-4,.68-6,1.12a21.2,21.2,0,0,1-2.57.37,24.32,24.32,0,0,1-3.24.37,10,10,0,0,0-2.05.36c-.65.11-1.33.11-2,.21a5.44,5.44,0,0,1-2.94,0,4.63,4.63,0,0,0-2.1-.34,1.83,1.83,0,0,0-.66-.16,20,20,0,0,0-2.89.11,11,11,0,0,0-2.49.21h-.2a3,3,0,0,0-.58-.07c-.7.09-1.39.2-2.08.3-1.16,0-2.31-.16-3.48-.07.23-.12.48,0,.77-.16a5.79,5.79,0,0,1-2-.16,5.4,5.4,0,0,0-1.44-.17.64.64,0,0,1,0-.07c0-.09-.24-.17-.1-.22s.47-.29.78-.11a.69.69,0,0,0,.62-.16c.07-.08,0-.14-.14-.18s-.38-.07-.49.1-.15.08-.24,0,0-.12,0-.18,0-.25.15-.22a7.38,7.38,0,0,0,1.63,0h.64c.18-.3-.14-.53-.2-.79a1.32,1.32,0,0,0,.43-.12.43.43,0,0,1,.57,0c.14.21.62.4,0,.64-.11,0,0,.17,0,.26.41,0,0,.31.24.41h0v.09h0l-.44-.11c0,.21,0,.36.33.35s.36.15.54,0a1.32,1.32,0,0,0,1.18-.07.29.29,0,0,1,.38,0c.36.27.82.16,1.25.16.15,0,.31-.06.29-.2s-.2-.07-.33-.08c-.41,0-.86-.09-.87-.52a1.12,1.12,0,0,1-.41.17,1.36,1.36,0,0,0,.41-.17c0-.21-.14-.32-.45-.25s-.46-.05-.68-.09c-.38,0-.45-.25-.16-.45.11-.08.31-.13.25-.28s.12-.44.39-.43c.55,0,1.06-.44,1.62-.06-.06.14-.47,0-.39.23s.34.07.51.12,0,.18,0,.26a.21.21,0,0,0,.35.07c.08-.12.26-.27.12-.44l-.42-.22c.2-.18.2-.18-.37-.45.09-.12.32-.19.22-.37.31-.2.14.22.35.15.08.41.47.39.88.35-.11.16,0,.27.21.27s.43.19.56.36-.29.15,0,.25a1.51,1.51,0,0,1,.58.5c0,.06.12.16.17.11.27-.24.72-.15,1-.3a.63.63,0,0,1,.67-.07.56.56,0,0,0,.4.15c.33.06.8,0,.72.42,0,.06,0,.11.12.11s.17,0,.17-.12.23-.14.37-.21a2.38,2.38,0,0,1,1.58,0s.11,0,.17-.07c.32-.15.57.17.89.08s.34-.1.57-.1c-.07.24-.49.32-.36.58l0,0h0c-.13,0-.33-.15-.36.09s.4.61.74.63.33,0,.32-.22c0-.33-.42-.69.2-.95.08,0-.15-.11,0-.19.48.41.6.41,1.36.19a.63.63,0,0,1,.82.3h-.84c.22.08.45.13.39.29-.2.51.45.48.78.68-.12-.19.06-.35,0-.53v-.21c-.08-.26.11-.3.39-.3.07.14-.25.13-.15.27,1.07-.12,1.07-.12,1.12-.28-.23-.08-.38.15-.63.08l.42-.49c.14.23.51.41.62.33.27-.22.95,0,.91-.52h0c.08-.23-.31-.29-.35-.48,0,0-.17-.09-.1-.09.31,0,.41-.31.81-.25s.89.23,1.3-.06l.36-.07c.09,0,.18-.08.15-.14s-.19,0-.29,0c.08-.38.08-.38-.22-.41-.23-.22-.65,0-.88-.19h0c-.14-.28-.54-.29-.82-.42s-.35-.25,0-.36h0c0,.2.24.26.46.3a.37.37,0,0,0,.4-.15c0-.09.08-.24,0-.3a.3.3,0,0,0-.41,0h-.11c0-.12.06-.24.29-.21.08,0,.24.06.17,0-.21-.33.15-.3.38-.41s.63-.25.71-.54h.21c.13.17.45,0,.58.14,0,.2.06.33.32.23s.42-.07.54-.22a.26.26,0,0,0,0-.3c0-.11,0-.18.16-.17s.35,0,.52,0a1.55,1.55,0,0,0,.21,0c.4,0,.75.39,1.13.17a3.78,3.78,0,0,1,1.09-.4c.26-.06.09-.38.43-.28h0c.17.19-.25.25-.18.41-.35.24.12.2.19.3a4,4,0,0,1,.6,0,2.19,2.19,0,0,0,.93-.14c.49-.12.14-.38.14-.58,0,0,0-.12.1-.13s.15.36.49.33c.13,0,.26.15.41,0l.77.09h0c0,.17-.12.41.32.41a.28.28,0,0,0,.24.07c.47.29.7.06.89-.23l.43-.1h0c.94,0,1.62-.33,1.8-.77a1.82,1.82,0,0,1,.75.44c.18-.14.09-.24,0-.35s0-.19.23-.19c.37,0,.83,0,.76-.41,0-.2.28-.13.37-.26-.21-.13-.38-.32-.7-.13a.23.23,0,0,1-.35-.07c0-.07-.13-.13-.18,0-.16.25-.47.17-.67.13-.71-.14-1.42-.26-2.14-.35-.1,0-.26,0-.28-.15,0-.33-.05-.33-.49-.13h-.13l-.11,0c-.2-.07-.34-.26-.58-.22a1,1,0,0,1-.39,0l-.27-.08a1.91,1.91,0,0,1-.39-.23,3.94,3.94,0,0,0-1.45-.41,2.57,2.57,0,0,1-.87-.2,1.57,1.57,0,0,0-1.13,0l-.46.1-1.29-.18c.28-.32-.15-.31-.34-.41,0-.18.26-.13.33-.23l.33-.16a1.33,1.33,0,0,0,.77-.33,1,1,0,0,0,1.11-.65c.41-.13.39-.54.81-.67.06,0,0-.15-.09-.16-.46,0-.69-.4-1.17-.38-.06,0-.22,0-.17-.13.19-.29,0-.43-.34-.52-.08,0-.14-.11-.22-.17l.73-.27h0c.27-.06.65-.06.74-.28s.32-.16.51-.14.21.08.36.06a16.37,16.37,0,0,0,2.71-.26c0,.14-.24.15-.25.37.12-.17.35.08.41-.17,0-.1.18-.12.32-.11a3,3,0,0,0,1.45-.23c.22-.1.62-.27.74-.14.3.32.55.14.83.05.13,0,.23-.07.32,0a.14.14,0,0,0,.22,0c.06-.08,0-.14-.09-.16-.25-.07-.31-.21-.28-.38a1.89,1.89,0,0,0,.53-.27,2.24,2.24,0,0,0,1-.25l.11-.07c.25,0,.36-.31.68-.16h0c.33,0,.65-.41,1,0h0c.25-.16.39,0,.58.09a.8.8,0,0,0,1.17-.36c.05-.18,0-.38.19-.53C214.7,73,214.77,72.74,214.39,72.65Zm-16.95-8.53v0h0ZM194.6,36.86Zm-3.83.4h0Zm-1.31-27.08Zm-116.31-5h.07l-.08,0ZM38,14.54c.2-.15.48-.09.59-.3.19.17.5,0,.71.18A10.45,10.45,0,0,1,38,14.54Zm2.24-.38h0c.11.15.38.2.37.44A3.19,3.19,0,0,1,40.27,14.16Zm5.11-1.35h0Zm2.42-2.64a.19.19,0,0,1,0,.09h0l0-.06h-.05A.2.2,0,0,0,47.8,10.17Zm-.37.13s0,0,0,0a.56.56,0,0,1,.23,0c-.14,0-.14.17-.12.3s.1.18.23.13.06.07,0,0C47.5,10.66,47.45,10.49,47.43,10.3Zm-13,59.44h0Zm-6.27,38.11h0Zm7.62,8.08h.11S35.82,116,35.76,115.93Zm-24.63,6.95h0Zm4.09.71h0l0,0Zm8.25,2.54h-.11a1.35,1.35,0,0,0-.53,0l-.07,0c-.1,0-.22-.06-.24,0-.17.34-.41.1-.61.09h-.15a.18.18,0,0,0-.07-.05c.1-.14.45-.1.37-.32a.62.62,0,0,0,0-.1l.1-.05c.05,0,.15.06.24.08a6.69,6.69,0,0,0,.78.14h.35a.51.51,0,0,1,.28.12A.83.83,0,0,0,23.47,126.13Zm-3.06,28.18Zm11-36.76,0,0a.08.08,0,0,0,0,0Zm8.51-1.77v0h0Zm1.9.53h0Zm.86,38.63v0h0Zm1.45-38.85h0Zm92.6,43.28h-.07l.08,0ZM171.83,150c-.19.16-.48.1-.58.3-.19-.16-.51,0-.71-.18C171,150,171.37,150,171.83,150Zm-2.23.38h0c-.11-.15-.38-.19-.38-.43A2.69,2.69,0,0,1,169.6,150.33Zm-5.12,1.36h0Zm-2.41,2.64a.36.36,0,0,1,0-.09l0,0,0,.07h.05A.12.12,0,0,0,162.07,154.33Zm.37-.13a0,0,0,0,0,0,0,.45.45,0,0,1-.24,0c.15,0,.15-.16.12-.3a.16.16,0,0,0-.22-.13s-.06-.07,0,0C162.37,153.84,162.42,154,162.44,154.2Zm29.13-39.88,0,0h0Zm-2.51-5.76h0Zm18.73-14.63h-.07s0,0,0,0Zm-8.34.63a1.65,1.65,0,0,1-.63,0Zm-6,2.48Zm1.51-10.23v0H195Zm0-.42a.3.3,0,0,0-.13,0v-.11S194.86,86.35,194.94,86.39Zm7.13-8.65.06,0h-.06A0,0,0,0,0,202.07,77.74Zm-1.13-.12h0Zm-4.38.58h-.07l0,0Zm-1-.15h-.07l.06,0S195.6,78,195.6,78.05ZM180.2,65.61a2,2,0,0,1-.21,0l.1-.08c.21-.16-.25-.18-.34-.35.54,0,1,.21,1.47.24h0l.15.1C181,65.57,180.59,65.34,180.2,65.61Zm-8.49,25.21h0Zm6.15-25c0,.07.16.1.21.16s-.1.13-.11.22l-.2.07a.35.35,0,0,0-.14-.24.54.54,0,0,0,.12-.09A1.35,1.35,0,0,1,177.86,65.85Zm-7.4,24.41h0Zm-3.13-24.49a.7.7,0,0,1-.12.26H167a11.05,11.05,0,0,0-2.38-.59c.32-.09.61-.13.88-.19a26.16,26.16,0,0,1,2.8,0c.05.11.25.11.37.16s.25,0,.17.19A5,5,0,0,0,167.33,65.77Zm11.26.36c-.08-.14-.42-.27,0-.39.07,0,.1,0,.11-.07a1.7,1.7,0,0,1,.64.13.67.67,0,0,0,.48,0l0,0c0,.16.19.19.32.26s.13.06.1.15C179.68,66.43,179.14,66.14,178.59,66.13Zm6.84-28.49a.1.1,0,0,1,.14,0Zm-6,58.34ZM185,68.18a7.63,7.63,0,0,0,2.74.09.83.83,0,0,1,.27,0l.31.1h-.17l-.16,0a.44.44,0,0,0-.49.26l-.17.11a.52.52,0,0,1-.19.11,1.35,1.35,0,0,0-1.48-.38l-.15,0h0l-.1,0A3.34,3.34,0,0,1,185,68.18Zm7.46.42h.13a.15.15,0,0,1,.06.1,6.6,6.6,0,0,1-1.54,0,7,7,0,0,0-.79,0s0,0-.06,0a.18.18,0,0,0-.22,0,2.21,2.21,0,0,1-.34-.18,1.85,1.85,0,0,0-.83-.19h0a1.13,1.13,0,0,1,.68,0l.16,0A17.73,17.73,0,0,0,192.44,68.6Zm-7-3.14c-.09,0-.51-.21-.28.21,0,.09-.11,0-.17.06h0a.69.69,0,0,0-.49-.28v-.16c.29-.2.79-.22.92-.07a1.17,1.17,0,0,0,.53.27C185.76,65.49,185.52,65.46,185.4,65.46Zm2.16-.43h0Zm8.73-1.56s0,0,0,0h0Zm-3.08-26.61h0Zm-1,.45s-.08,0-.11-.07a.28.28,0,0,0-.11-.08H192c.21-.05.4,0,.62,0a.68.68,0,0,1,.76.46C193,37.5,192.68,37.15,192.19,37.31Zm-4.23.94a.32.32,0,0,0,.14,0l.08.06c-.1.14-.45.1-.37.31a.81.81,0,0,0,0,.11l-.1,0c-.05,0-.15-.06-.24-.08a6.68,6.68,0,0,0-.78-.13h-.35a.6.6,0,0,1-.28-.12,1.65,1.65,0,0,0,.31,0h.1a1.18,1.18,0,0,0,.53,0l.08,0c.09.05.22.06.24,0C187.52,38,187.76,38.24,188,38.25Zm-.33-.55c-.07.17-.28.07-.4.12h-.07A1.41,1.41,0,0,1,187.63,37.7Zm-4.09-.23a.91.91,0,0,0,.45,0c0,.19-.32,0-.43.12s-.21-.11-.35-.09l-.54,0,0,0h0A.81.81,0,0,1,183.54,37.47ZM167.19,9.56h0l0,0Zm-45.54-7a.24.24,0,0,1,.08.09h-.09A.22.22,0,0,1,121.65,2.51Zm-2.9-1,0,0h0Zm-.5,1.24h0Zm-.06,0Zm-8.61-.08-.09,0S109.54,2.65,109.58,2.67Zm-7.84-1c.37-.23.69.05,1,.09.08,0,0,.13,0,.21a1.88,1.88,0,0,0-.84,0,1.18,1.18,0,0,0,.87.15h0a.25.25,0,0,0,.21,0l0,0c.1.1.13.21,0,.3l-.09,0c-.38-.14-.8-.15-1.18-.27h0a1.31,1.31,0,0,0-.05-.48ZM98,2.21l0,0-.06,0ZM64.29,7.78a.58.58,0,0,1-.18,0C64.2,7.63,64.25,7.7,64.29,7.78ZM61.23,7.6l0,0h0c0,.09.15.1.19.17C61.29,7.74,61.27,7.65,61.23,7.6Zm.05-.91a.21.21,0,0,0,.11,0c-.13.2-.13.52-.56.45C61,7,61.39,7,61.28,6.69ZM60.05,7.82c.21.2.54.17.75.29-.13,0-.28-.13-.44,0v0a1.65,1.65,0,0,0-.37-.2S60,7.85,60.05,7.82ZM49.43,12.21h0ZM19.07,95.88c-.1,0-.22,0-.22-.12a5.79,5.79,0,0,0,.72,0,.91.91,0,0,1,.62.22,2.66,2.66,0,0,0,2.37-.2l0,0,.35,0a.39.39,0,0,0,.21,0,.8.8,0,0,0,.37.11,1.69,1.69,0,0,1-1.36.47c-.79-.1-1.6-.07-2.39-.15,0-.12.22-.13.33-.21Zm-3.5-1h0l-.11,0h0Zm-1.92,0h0ZM88.22,162a.38.38,0,0,1-.09-.09h.1A.19.19,0,0,1,88.22,162Zm2.9,1,0,0h0A0,0,0,0,0,91.12,163Zm.49-1.24Zm.07,0h0Zm8.61.08.09-.05A.07.07,0,0,1,100.29,161.83Zm7.83,1c-.36.23-.68-.05-1-.09-.08,0,0-.13,0-.2a2.27,2.27,0,0,0,.85,0,1.09,1.09,0,0,0-.87-.15h0a.26.26,0,0,0-.21,0l-.06,0c-.09-.11-.12-.21,0-.31l.09,0c.38.13.79.15,1.18.27h0a1.5,1.5,0,0,0,0,.47Zm3.78-.51,0,0,.06,0Zm33.68-5.58a.58.58,0,0,1,.18,0C145.67,156.86,145.62,156.79,145.58,156.71Zm3.06.19s0,0,0,0h0c0-.08-.15-.09-.19-.16C148.58,156.76,148.59,156.84,148.64,156.9Zm0,.91h-.11c.13-.2.13-.51.56-.44C148.87,157.5,148.48,157.47,148.59,157.81Zm1.22-1.13c-.2-.2-.53-.17-.74-.3.13,0,.27.13.44,0v0a2.15,2.15,0,0,0,.37.19A.13.13,0,0,0,149.81,156.68Zm1.48-46.31,0,0h.05S151.3,110.35,151.29,110.37Zm.32-.5h0Zm1.06,1.56v0h0Zm1.61,1.74.05-.06a.1.1,0,0,1,0,.08ZM157,106h0Zm3.47,46.3h0Zm2-43.63h0Zm.34-.15a.43.43,0,0,1,0,0h0Zm6.38-1.37,0,0h0Zm7.9-1h0Zm.65-2.17h0Zm13.74-6.56a.14.14,0,0,0,.1.07h0a.58.58,0,0,1-.62.11C191,97.42,191.25,97.5,191.44,97.44Zm-.8-.65Zm-2.1-.24Zm-10.84-6h0Zm-1.09.26s0,.06,0,.11h-.06A.62.62,0,0,1,176.61,90.83Zm-2.7-.46h0Zm-.81-.31,0,0h0S173.14,90,173.1,90.06Zm1.18-1.41h0Zm2.28-.78h0Zm.16,1.14a.08.08,0,0,0,0,0h0A0,0,0,0,1,176.72,89Zm6.17-2.5s0,0,0,0h0Zm1.35.21a.18.18,0,0,1,.16-.12Zm.31-1.53h0l0,0Zm8.76-1.55c-.19.18,0,.39-.1.57l-.33.16,0,0a1.21,1.21,0,0,1-.78.07.64.64,0,0,0-.55.1v0c-.55-.11-.88.3-1.37.32h0a.73.73,0,0,0-.66,0c-.06,0-.07.05-.06.08h-.08a.11.11,0,0,0-.06-.06c-.19-.08-.45,0-.62-.11a1.83,1.83,0,0,0-1.18-.15c-.13,0-.25,0-.3-.09h0a.38.38,0,0,0,.19-.13h.07c.3,0,.67,0,.83-.2a.86.86,0,0,1,.65-.31l0,0c-.13.1-.2.21-.06.32a.23.23,0,0,0,.25,0c.13-.07.27-.16.13-.3a.11.11,0,0,1,0-.11l.2,0c.25-.06.65,0,.43-.39h0c.1-.06.28-.05.28-.17l0,0a1,1,0,0,1,.42.08c-.3.32,0,.42.35.5a2.11,2.11,0,0,0,1.06.06c.3.12.3,0,.37-.19a.48.48,0,0,1,.64-.37h0c.11,0,.26,0,.35.08A2,2,0,0,0,193.31,83.64Zm.64,2.64a2.12,2.12,0,0,0,.11-.29.43.43,0,0,0,.06.29A.25.25,0,0,0,194,86.28Zm.7.2h0c0,.08,0,.14.05.19a.83.83,0,0,1-.3-.14c.07,0,.08-.08,0-.13A.19.19,0,0,1,194.65,86.48Zm1.67-3.07-.24.12.41.28h0c-.08.15-.33-.07-.41.08h0l0,0c-.1,0-.17,0-.18.12,0,.31-.3.41-.63.48a.3.3,0,0,0-.17-.18c0-.23.31-.19.5-.22s.38-.2.22-.26c-.33-.13-.15-.35-.29-.49-.23-.33-.72-.28-1.08-.42.11-.31.43-.32.76-.25.15,0,.28.14.44,0a1.48,1.48,0,0,1,.75.27C196.88,83.21,196.62,83.27,196.32,83.41Zm10.73-8.18v0h0Z"/><path class="cls-1" d="M199.23,34.28a1.91,1.91,0,0,1-1.25,0,1,1,0,0,0-.63,0,1.38,1.38,0,0,1-.63.09h-.27c-.19,0-.34.05-.36.2s.1.19.26.22a1.61,1.61,0,0,0,.37.07,11.13,11.13,0,0,0,2.65-.24c.15,0,.37,0,.3-.21A.36.36,0,0,0,199.23,34.28Z"/><path class="cls-1" d="M205.54,68.82a1.16,1.16,0,0,0-.85.39L207,69c.12,0,.2-.08.2-.16s-.12-.12-.23-.13A5.54,5.54,0,0,0,205.54,68.82Z"/><path class="cls-1" d="M199.56,63.73a1.47,1.47,0,0,1-.95,0c-.14,0-.32-.09-.38.05s.07.24.28.28a2.93,2.93,0,0,0,1,.06h.29c.2,0,.49,0,.53-.11s-.28-.21-.47-.26A.71.71,0,0,0,199.56,63.73Z"/><path class="cls-1" d="M194.94,67.07a.14.14,0,0,0,.21,0,1.37,1.37,0,0,1,1.19-.71.19.19,0,0,0,.17-.23,0,0,0,0,1,0,0,1.2,1.2,0,0,0-.72-.53c0-.1-.19-.1-.29-.15s-.11-.19-.25-.15a2.21,2.21,0,0,1-1.3.16.18.18,0,0,0-.21.16.1.1,0,0,0,.07.11l-.09,0c-.17,0-.35,0-.36.16s.15.17.3.16a3.33,3.33,0,0,1,1.1.16h0c.11.23.36.45,0,.71C194.67,66.87,194.81,67,194.94,67.07Zm-.33-1.31a3.87,3.87,0,0,1-.77-.13H194c.23,0,.46,0,.69,0a.22.22,0,0,0,.11,0Z"/><path class="cls-1" d="M181.22,88.74c.09-.16-.05-.21-.25-.21,0,0,0-.07-.07-.1-.11-.31-.44-.14-.68-.16s-.19.12-.18.22-.22.44.22.29a.66.66,0,0,1,.54,0C180.93,88.86,181.14,88.89,181.22,88.74Z"/><path class="cls-1" d="M208.36,92.24a7.53,7.53,0,0,0,2.12,0A7.53,7.53,0,0,0,208.36,92.24Z"/><path class="cls-1" d="M197.31,85.48a1.19,1.19,0,0,0-.22,0,1,1,0,0,0-.25.06c-.13.07-.43.08-.33.26s.33.08.51,0,.24-.15.31-.13.39.17.43,0S197.46,85.55,197.31,85.48Z"/><path class="cls-1" d="M199.44,67.39c-.05.25-.19.43-.15.65C199.73,68,199.77,67.84,199.44,67.39Z"/><polygon class="cls-1" points="199.29 68.04 199.28 68.04 199.28 68.04 199.29 68.04 199.29 68.04"/><path class="cls-1" d="M180.32,89.46c0,.12.19.12.3.14s.31,0,.31-.16-.17-.13-.3-.15S180.32,89.32,180.32,89.46Z"/><path class="cls-1" d="M201.36,97a1.52,1.52,0,0,0-.63-.06C200.75,97.27,200.75,97.27,201.36,97Z"/><polygon class="cls-1" points="200.73 96.95 200.72 96.96 200.73 96.96 200.73 96.95"/><path class="cls-1" d="M175.31,88.92c-.21,0-.23.15-.25.27s.05.18.21.2.45.1.52-.1-.17-.13-.31-.12S175.56,88.91,175.31,88.92Z"/><path class="cls-1" d="M206.26,80.85a.58.58,0,0,0,.57.14c.07,0,.1-.09,0-.13A.59.59,0,0,0,206.26,80.85Z"/><path class="cls-1" d="M192.89,89.53a2.15,2.15,0,0,0,.91,0A.83.83,0,0,0,192.89,89.53Z"/><path class="cls-1" d="M175.82,88.78c0,.08.05.18.16.19s.39,0,.27-.22C176.1,88.71,175.92,88.57,175.82,88.78Z"/><polygon class="cls-1" points="176.25 88.75 176.25 88.75 176.25 88.75 176.25 88.75 176.25 88.75"/><path class="cls-1" d="M204.74,76.53c.28,0,.47.11.58-.06a.13.13,0,0,0-.1-.2C205,76.25,205,76.43,204.74,76.53Z"/><path class="cls-1" d="M181.32,87.9a.18.18,0,0,0-.2-.09c-.12,0-.2,0-.2.16a.22.22,0,0,0,.24.11C181.27,88.06,181.35,88,181.32,87.9Z"/><path class="cls-1" d="M190.14,84c-.13,0-.21,0-.21.15s.11.21.28.2.23-.09.21-.19A.24.24,0,0,0,190.14,84Z"/><path class="cls-1" d="M4.69,117.56a1.8,1.8,0,0,0-.8-.32c-.36,0-.38.32-.48.54s0,.36.27.4l.47,0c.32,0,.64.07.8-.2S4.84,117.65,4.69,117.56Z"/><path class="cls-1" d="M192.13,111.55l-.58,0c-.12,0-.25,0-.31.12s.07.19.14.27a1.24,1.24,0,0,0,1.55.11c.11-.07.27-.14.24-.29s-.22-.17-.37-.19S192.28,111.56,192.13,111.55Z"/><path class="cls-1" d="M52.36,159.45a.92.92,0,0,1-1.13-.24c0-.05-.16,0-.31-.08a.63.63,0,0,0-.63.46c-.06.27.29.25.5.28a3.34,3.34,0,0,0,1.57-.06c.15-.05.18-.11.17-.23S52.45,159.41,52.36,159.45Z"/><path class="cls-1" d="M10.14,118.84c-1.71-.26-3.38-.48-5.19-.64A19.08,19.08,0,0,0,10.14,118.84Z"/><path class="cls-1" d="M173.9,147.77a1.88,1.88,0,0,0,1.38-.31,1,1,0,0,1,.81-.34c.38,0,.75-.57,1.13,0a.22.22,0,0,0,.1,0c.17-.15.3-.1.42,0s.17.08.18,0c.12-.54.61-.23.92-.33h.1l.15,0c.44,0,.65-.52,1.14-.47.06,0,0-.17-.12-.2a.75.75,0,0,0-.51.06c-.24.1-.25,0-.25-.19s.22-.16.33-.26a.66.66,0,0,0-.56-.07,30.54,30.54,0,0,1-3.45.87,1.66,1.66,0,0,0-.95.52c-.16,0-.29-.31-.31-.19-.06.41-.47.2-.64.38v.18C173.81,147.59,173.82,147.73,173.9,147.77Zm2.72-1,.21,0a1.55,1.55,0,0,1-.31,0Z"/><path class="cls-1" d="M132.69,162.1l-1.56.12c-.11,0-.28,0-.29.11a.23.23,0,0,0,.31.19,3.61,3.61,0,0,1,1.27,0,1.42,1.42,0,0,0,.36,0c.13-.06.41,0,.34-.25S132.86,162.09,132.69,162.1Z"/><path class="cls-1" d="M158.52,155.08c.08-.13.18,0,.27,0s.07.23.18.14a.93.93,0,0,0,.29-.47c0-.11-.11-.17-.26-.12a7.75,7.75,0,0,0-1.51.22c-.51,0-.36.27-.17.5h0C157.9,155.63,158.23,155.54,158.52,155.08Z"/><path class="cls-1" d="M144.31,159.86a5.2,5.2,0,0,0-2.33.26,13.76,13.76,0,0,0,2.31,0c.13,0,.26,0,.25-.16S144.42,159.87,144.31,159.86Z"/><path class="cls-1" d="M173.4,147.1a9.78,9.78,0,0,0-1.86.4c-.27.27-.68.2-1,.33a10,10,0,0,1-2.62.48c-.15,0-.37,0-.35.16s0,.32.34.37a4.91,4.91,0,0,0,1.22-.11c.34,0,.69.09,1-.19l.51-.1a1,1,0,0,0,.67,0c.13-.05.32,0,.34-.23s0-.36.43-.2a1,1,0,0,0,1.43-.47c.09-.08.15-.21.31-.19C173.75,147.1,173.59,147.07,173.4,147.1Z"/><polygon class="cls-1" points="173.78 147.31 173.78 147.31 173.78 147.31 173.78 147.31 173.78 147.31 173.78 147.31 173.76 147.31 173.77 147.32 173.77 147.32 173.77 147.32 173.78 147.31"/><path class="cls-1" d="M141.85,162.34c-.15-.39-.5-.26-.78-.2s-.17.34-.27.51.08.14.12.12c.36-.24.8-.1,1.25-.12C142,162.49,141.89,162.47,141.85,162.34Z"/><path class="cls-1" d="M5.27,91.92A7.55,7.55,0,0,0,7.19,92a4.69,4.69,0,0,0-1.9-.35c-.1,0-.23,0-.24.13S5.17,91.9,5.27,91.92Z"/><path class="cls-1" d="M20.56,127.38c0-.22-.45-.23-.75-.24s-.58-.06-.6.19.38.13.57.22a.17.17,0,0,0,.1,0C20.11,127.45,20.56,127.72,20.56,127.38Z"/><path class="cls-1" d="M13.12,100.87c0-.09-.07-.13-.17-.14a5.63,5.63,0,0,0-2,.28h2C13.07,101,13.12,101,13.12,100.87Z"/><path class="cls-1" d="M159.93,156.06c-.32,0-.68-.15-.93.13s-.31.38-.64.25a.13.13,0,0,0-.17.16c.29-.11.48.39.8.12a.86.86,0,0,1,.63.1c.19.1,0,.49.3.44s.06-.35.15-.52.34,0,.51-.05.32-.19.21-.23C160.5,156.34,160.43,155.79,159.93,156.06Z"/><path class="cls-1" d="M136.09,160.08a3.85,3.85,0,0,0-1.18.12,4.25,4.25,0,0,0,1.17.27.27.27,0,0,0,.29-.24C136.37,160.09,136.2,160.07,136.09,160.08Z"/><path class="cls-1" d="M36.82,158c-.1,0-.27,0-.24.12.15.52-.28.26-.54.31l.09.1a.5.5,0,0,0,.6.23c.28-.1.09-.42.28-.59S36.94,158.05,36.82,158Z"/><path class="cls-1" d="M129.14,163.07c.1.13.14.33.36.29a.33.33,0,0,0,.26-.41c0-.12,0-.23,0-.34a.46.46,0,0,0-.42.13C129.25,162.84,129,162.83,129.14,163.07Z"/><path class="cls-1" d="M140.05,158.74c-.26,0-.24.21-.27.34s0,.35.21.35.4-.1.37-.31S140.29,158.74,140.05,158.74Z"/><path class="cls-1" d="M14.63,99.3a2.2,2.2,0,0,1,1.29-.17.18.18,0,0,0,.22-.16c0-.13-.13-.12-.23-.12h-.69a1,1,0,0,0-.83-.06c-.12,0-.32,0-.32.15s.19.15.31.2S14.49,99.34,14.63,99.3Z"/><path class="cls-1" d="M7.82,116.76a8.79,8.79,0,0,0,1.78.18C8.2,116.49,8.2,116.49,7.82,116.76Z"/><path class="cls-1" d="M165.17,149.9l1.72-.27,0-.13a4.87,4.87,0,0,0-1.73.28Z"/><path class="cls-1" d="M155.8,160.08a.29.29,0,0,0-.36.21c.08.23.29.26.5.26s.35,0,.34-.21S156,160.13,155.8,160.08Z"/><path class="cls-1" d="M155.6,157.9a.2.2,0,0,0,.29-.19c0-.15-.11-.24-.31-.25-.51,0-.39.31-.46.58C155.3,158,155.39,157.82,155.6,157.9Z"/><path class="cls-1" d="M51.81,160.67c-.17.15-.23,0-.33-.08s-.27-.21-.47-.13a.11.11,0,0,0,0,.12.79.79,0,0,0,.4.29.88.88,0,0,0,.27,0,1.32,1.32,0,0,0,.2,0c.13,0,.33,0,.3-.18S51.92,160.58,51.81,160.67Z"/><path class="cls-1" d="M33.28,116.1c.25,0,.59.1.72-.22.07-.15-.14-.15-.23-.16a1.83,1.83,0,0,0-.74.17A.21.21,0,0,0,33.28,116.1Z"/><path class="cls-1" d="M24.27,115.62c0-.19-.19-.28-.35-.3a.34.34,0,0,0-.37.26c0,.2.22.13.34.2S24.25,115.81,24.27,115.62Z"/><path class="cls-1" d="M20.42,115.93a2.85,2.85,0,0,0,.51-.08c.15,0,.31-.13.12-.3-.13-.35-.51-.31-.8-.41C20.42,115.38,20,115.73,20.42,115.93Z"/><path class="cls-1" d="M19.41,132c0,.12.13.17.26.15a.57.57,0,0,0,.48-.35c0-.11-.13-.11-.25-.12A.56.56,0,0,0,19.41,132Z"/><path class="cls-1" d="M142.87,162c-.11,0-.28.09-.23.19a.6.6,0,0,0,.43.4c.1,0,.29-.08.23-.13S143.18,162,142.87,162Z"/><path class="cls-1" d="M121.26,163.36c-.12,0-.19.06-.15.18s-.16.42.25.35c.15,0,.4,0,.36-.18S121.47,163.41,121.26,163.36Z"/><path class="cls-1" d="M179.59,148.62c0,.12.15.12.25.12.28,0,.46-.11.45-.45-.24.06-.38.2-.59.17S179.56,148.54,179.59,148.62Z"/><path class="cls-1" d="M165.77,153.74c-.17,0-.32,0-.34.24s.07.23.22.23.34-.1.35-.28S165.91,153.73,165.77,153.74Z"/><path class="cls-1" d="M168,153.32a.26.26,0,0,0-.22.28c0,.18.16.19.3.19s.25-.06.23-.2S168.12,153.35,168,153.32Z"/><path class="cls-1" d="M194.69,125.23c0,.23.2.08.29.13s.41,0,.41-.18-.2-.16-.33-.15S194.71,125.09,194.69,125.23Z"/><path class="cls-1" d="M48.23,160c-.12,0-.25,0-.26.18s.27.16.43.18.22,0,.21-.14S48.41,160,48.23,160Z"/><path class="cls-1" d="M158.41,157.14a.33.33,0,0,0-.29.29.17.17,0,0,0,.16.21c.17,0,.31-.1.33-.26A.21.21,0,0,0,158.41,157.14Z"/><path class="cls-1" d="M139.57,162.33c-.12,0-.28.09-.34,0s-.36-.34-.52,0,.29.11.33.28a.18.18,0,0,0,.1.11c.3.07.61.24.85-.11.07,0,.19-.09.13-.16S139.77,162.3,139.57,162.33Z"/><path class="cls-1" d="M181.66,148c-.17,0-.3.09-.31.26s.12.14.23.14a.31.31,0,0,0,.34-.24C182,148,181.79,148,181.66,148Z"/><path class="cls-1" d="M132.4,163a.59.59,0,0,0,.69-.33c-.33.07-.6-.06-.77.18C132.28,162.89,132.33,163,132.4,163Z"/><path class="cls-1" d="M25.78,156.3c-.11,0-.21,0-.21.16s.11.27.29.27a.18.18,0,0,0,.2-.22C26.05,156.36,25.93,156.3,25.78,156.3Z"/><path class="cls-1" d="M45.92,159.8a.11.11,0,0,0,0,.2c.2.13.36,0,.57-.11A.42.42,0,0,0,45.92,159.8Z"/><path class="cls-1" d="M156.84,155.12c-.14,0-.31,0-.39.15a.27.27,0,0,0,.25.21c.16,0,.25-.07.3-.19S157,155.1,156.84,155.12Z"/><path class="cls-1" d="M120.3,163.22c-.13,0-.2,0-.2.14s.11.22.28.21.21,0,.21-.14S120.43,163.26,120.3,163.22Z"/><path class="cls-1" d="M41.37,158.91c-.11,0-.2,0-.22.14a.29.29,0,0,0,.29.21c.1,0,.17,0,.16-.14A.24.24,0,0,0,41.37,158.91Z"/><path class="cls-1" d="M39.09,158.19a.18.18,0,0,0-.19.18c0,.12.07.17.23.18s.2-.07.18-.21S39.2,158.19,39.09,158.19Z"/><path class="cls-1" d="M99.7,163.41a.21.21,0,0,0-.29.11.19.19,0,0,0,.2.18.26.26,0,0,0,.29-.14C99.94,163.43,99.78,163.44,99.7,163.41Z"/><path class="cls-1" d="M136.54,160.23a.74.74,0,0,0,.69,0,.09.09,0,0,0,0-.16C137,160,136.84,160.15,136.54,160.23Z"/><path class="cls-1" d="M26.64,127.57a.45.45,0,0,0-.5-.21c-.08,0-.1.1,0,.14A.43.43,0,0,0,26.64,127.57Z"/><path class="cls-1" d="M147.87,160.47c-.13,0-.25,0-.31.16a.26.26,0,0,0,.23.14c.13,0,.25,0,.26-.17S148,160.48,147.87,160.47Z"/><path class="cls-1" d="M167.34,153.51a.18.18,0,0,0-.2.16.2.2,0,0,0,.22.17.18.18,0,0,0,.18-.15C167.54,153.58,167.46,153.52,167.34,153.51Z"/><path class="cls-1" d="M5.24,125.89c-.19-.07-.37-.17-.57,0,0,0,0,.11,0,.12A.46.46,0,0,0,5.24,125.89Z"/><path class="cls-1" d="M139.27,159.17s0-.13,0-.17-.3,0-.46,0C138.94,159.13,139.07,159.28,139.27,159.17Z"/><path class="cls-1" d="M115.75,164.15c-.12,0-.16.09-.16.22s.07.14.2.12.15-.06.14-.15A.18.18,0,0,0,115.75,164.15Z"/><path class="cls-1" d="M2.71,122.5c0-.12-.13-.13-.23-.14s-.2,0-.22.14.13.13.23.14S2.71,122.62,2.71,122.5Z"/><path class="cls-1" d="M13.74,116.27a.44.44,0,0,0,.51,0c.07,0,0-.11,0-.14A.36.36,0,0,0,13.74,116.27Z"/><path class="cls-1" d="M157.51,5a.92.92,0,0,1,1.13.25s.16,0,.31.07a.63.63,0,0,0,.63-.45c0-.27-.29-.25-.51-.28a3.3,3.3,0,0,0-1.56,0c-.15.05-.18.12-.17.24A.12.12,0,0,0,157.51,5Z"/><path class="cls-1" d="M36,16.72a1.93,1.93,0,0,0-1.38.32,1,1,0,0,1-.81.34c-.38,0-.75.57-1.14,0,0,0-.07,0-.09,0s-.3.1-.42-.05-.17-.08-.18,0c-.12.55-.61.24-.92.33h-.1l-.15,0c-.44,0-.65.51-1.14.47-.07,0,0,.16.11.19a.74.74,0,0,0,.51-.05c.25-.1.26,0,.26.18s-.22.17-.34.27a.66.66,0,0,0,.56.06,31.22,31.22,0,0,1,3.46-.86,1.7,1.7,0,0,0,.95-.53c.16,0,.29.32.3.19.06-.41.48-.2.64-.38V17C36.05,16.91,36.05,16.77,36,16.72Zm-2.72,1H33l.31,0A.38.38,0,0,1,33.25,17.71Z"/><path class="cls-1" d="M77.18,2.39l1.56-.12c.11,0,.28,0,.29-.11s-.18-.22-.31-.18a3.61,3.61,0,0,1-1.27,0,1.42,1.42,0,0,0-.36,0c-.13.06-.41,0-.35.26S77,2.41,77.18,2.39Z"/><path class="cls-1" d="M51.35,9.41c-.08.13-.18,0-.27,0s-.07-.24-.18-.15a1,1,0,0,0-.3.47c0,.12.12.18.26.13a8.58,8.58,0,0,0,1.52-.23c.51,0,.36-.26.17-.5h0C52,8.87,51.64,9,51.35,9.41Z"/><path class="cls-1" d="M65.56,4.63a5.19,5.19,0,0,0,2.33-.25,11.92,11.92,0,0,0-2.31,0c-.13,0-.26,0-.25.16S65.45,4.63,65.56,4.63Z"/><path class="cls-1" d="M36.47,17.4a9.78,9.78,0,0,0,1.86-.4c.27-.27.68-.21,1-.34A10.44,10.44,0,0,1,42,16.19c.16,0,.37,0,.36-.16s0-.33-.34-.38a4.86,4.86,0,0,0-1.22.12c-.34,0-.69-.09-1,.18l-.51.11a1,1,0,0,0-.67,0c-.13.06-.32,0-.34.23s-.05.36-.43.21a1,1,0,0,0-1.43.47c-.09.08-.15.2-.32.19C36.12,17.4,36.28,17.42,36.47,17.4Z"/><polygon class="cls-1" points="36.09 17.18 36.09 17.18 36.09 17.18 36.09 17.18 36.09 17.18 36.09 17.18 36.1 17.19 36.1 17.18 36.1 17.18 36.1 17.18 36.09 17.18"/><path class="cls-1" d="M68,2.15c.15.4.5.27.77.21s.18-.35.28-.52S69,1.7,69,1.73c-.37.24-.8.09-1.26.11C67.82,2,68,2,68,2.15Z"/><path class="cls-1" d="M49.94,8.43c.32,0,.67.15.93-.13s.31-.37.64-.25a.13.13,0,0,0,.17-.16c-.3.11-.48-.39-.81-.12a.84.84,0,0,1-.62-.09c-.2-.11,0-.5-.3-.44s-.07.35-.15.52a4.21,4.21,0,0,0-.51,0c-.13,0-.33.19-.22.24C49.37,8.16,49.44,8.7,49.94,8.43Z"/><path class="cls-1" d="M73.78,4.42A4.11,4.11,0,0,0,75,4.29,3.76,3.76,0,0,0,73.78,4a.26.26,0,0,0-.28.23C73.5,4.4,73.67,4.42,73.78,4.42Z"/><path class="cls-1" d="M173.05,6.45c.1,0,.26,0,.23-.12-.14-.51.29-.25.55-.3l-.09-.11a.52.52,0,0,0-.61-.23c-.27.11-.08.42-.27.59S172.93,6.45,173.05,6.45Z"/><path class="cls-1" d="M80.73,1.42c-.1-.13-.14-.33-.36-.28a.33.33,0,0,0-.26.4c0,.13,0,.24,0,.35a.42.42,0,0,0,.41-.14C80.62,1.65,80.91,1.66,80.73,1.42Z"/><path class="cls-1" d="M69.81,5.76c.27,0,.25-.22.28-.35s0-.35-.21-.34-.4.1-.38.31S69.58,5.75,69.81,5.76Z"/><path class="cls-1" d="M44.7,14.59,43,14.86,43,15a4.77,4.77,0,0,0,1.72-.27Z"/><path class="cls-1" d="M54.07,4.41a.28.28,0,0,0,.35-.21C54.35,4,54.13,4,53.92,4s-.35,0-.33.2S53.89,4.37,54.07,4.41Z"/><path class="cls-1" d="M54.27,6.59a.21.21,0,0,0-.29.19c0,.15.11.24.31.25.51,0,.38-.31.46-.58C54.57,6.51,54.48,6.67,54.27,6.59Z"/><path class="cls-1" d="M158.06,3.82c.17-.14.23,0,.33.08s.27.22.47.13c0,0,0-.09,0-.12a.83.83,0,0,0-.4-.28,1.57,1.57,0,0,0-.27,0,1.31,1.31,0,0,0-.2,0c-.14,0-.33,0-.3.19S158,3.91,158.06,3.82Z"/><path class="cls-1" d="M190.2,32.3a.59.59,0,0,0-.48.36c0,.1.13.11.25.12a.58.58,0,0,0,.49-.32C190.5,32.34,190.33,32.28,190.2,32.3Z"/><path class="cls-1" d="M67,2.54c.11,0,.28-.09.23-.2a.6.6,0,0,0-.43-.4c-.11,0-.29.09-.23.13S66.69,2.53,67,2.54Z"/><path class="cls-1" d="M88.61,1.13c.12,0,.19,0,.15-.18-.19,0,.16-.42-.26-.34-.15,0-.39,0-.36.18A.58.58,0,0,0,88.61,1.13Z"/><path class="cls-1" d="M30.28,15.87c0-.11-.15-.11-.26-.11-.27,0-.46.11-.44.44.23-.06.37-.2.59-.16S30.31,16,30.28,15.87Z"/><path class="cls-1" d="M44.1,10.75c.16,0,.32-.05.34-.23s-.07-.24-.22-.23-.34.09-.35.28S44,10.76,44.1,10.75Z"/><path class="cls-1" d="M41.92,11.17a.25.25,0,0,0,.22-.28c0-.17-.16-.18-.3-.18s-.25.06-.23.19S41.75,11.14,41.92,11.17Z"/><path class="cls-1" d="M15.18,39.26c0-.22-.2-.08-.29-.13s-.41,0-.41.18.2.16.33.16S15.15,39.41,15.18,39.26Z"/><path class="cls-1" d="M161.64,4.51c.12,0,.25,0,.26-.18s-.27-.17-.43-.18-.22,0-.21.14S161.46,4.51,161.64,4.51Z"/><path class="cls-1" d="M51.45,7.35a.31.31,0,0,0,.29-.29.16.16,0,0,0-.15-.21c-.17,0-.31.1-.33.27A.2.2,0,0,0,51.45,7.35Z"/><path class="cls-1" d="M70.3,2.17c.11,0,.28-.09.34,0s.36.34.52,0-.29-.11-.34-.28a.15.15,0,0,0-.09-.1c-.3-.08-.62-.24-.85.1-.07,0-.19.1-.14.17S70.1,2.19,70.3,2.17Z"/><path class="cls-1" d="M28.21,16.55c.17,0,.3-.09.3-.26s-.11-.14-.23-.15a.32.32,0,0,0-.34.24C27.92,16.52,28.08,16.53,28.21,16.55Z"/><path class="cls-1" d="M77.47,1.52a.58.58,0,0,0-.69.32c.33-.07.6.07.77-.17C77.59,1.61,77.53,1.54,77.47,1.52Z"/><path class="cls-1" d="M184.09,8.19c.11,0,.21,0,.2-.16s-.11-.26-.29-.26a.19.19,0,0,0-.2.22C183.82,8.14,183.94,8.19,184.09,8.19Z"/><path class="cls-1" d="M164,4.7a.11.11,0,0,0,0-.2c-.19-.14-.35,0-.57.1A.44.44,0,0,0,164,4.7Z"/><path class="cls-1" d="M53,9.38c.14,0,.31,0,.39-.16S53.28,9,53.17,9s-.25.07-.3.19S52.91,9.39,53,9.38Z"/><path class="cls-1" d="M89.57,1.27c.13,0,.19,0,.2-.13a.23.23,0,0,0-.28-.22c-.1,0-.21,0-.21.15S89.44,1.24,89.57,1.27Z"/><path class="cls-1" d="M168.5,5.59c.1,0,.2,0,.22-.15a.3.3,0,0,0-.3-.21c-.09,0-.17,0-.15.14A.25.25,0,0,0,168.5,5.59Z"/><path class="cls-1" d="M170.78,6.3a.17.17,0,0,0,.18-.18c0-.12-.06-.16-.22-.17s-.2.07-.18.21S170.67,6.31,170.78,6.3Z"/><path class="cls-1" d="M110.17,1.08a.22.22,0,0,0,.29-.1.21.21,0,0,0-.2-.19c-.12,0-.26,0-.29.14S110.08,1.06,110.17,1.08Z"/><path class="cls-1" d="M73.33,4.26a.78.78,0,0,0-.7,0,.09.09,0,0,0,0,.16C72.86,4.46,73,4.35,73.33,4.26Z"/><path class="cls-1" d="M62,4c.13,0,.25,0,.3-.16a.24.24,0,0,0-.22-.14c-.13,0-.25,0-.26.18S61.91,4,62,4Z"/><path class="cls-1" d="M42.52,11a.18.18,0,0,0,.21-.16.19.19,0,0,0-.22-.16c-.09,0-.17.05-.18.14A.18.18,0,0,0,42.52,11Z"/><path class="cls-1" d="M204.63,38.6c.19.08.37.18.56,0,0,0,0-.12,0-.13A.47.47,0,0,0,204.63,38.6Z"/><path class="cls-1" d="M70.59,5.33s0,.13,0,.16.29,0,.46,0C70.93,5.37,70.8,5.21,70.59,5.33Z"/><path class="cls-1" d="M94.12.34c.12,0,.16-.09.16-.21a.16.16,0,0,0-.2-.13c-.09,0-.15.07-.14.16A.17.17,0,0,0,94.12.34Z"/></svg>