<svg id="Layer_1" data-name="Layer 1" xmlns="http://www.w3.org/2000/svg" viewBox="0 0 207.44 168.54"><defs><style>.cls-1{fill:#ffc033;}</style></defs><title>brush-strokes</title><path class="cls-1" d="M206.8,114.38a.76.76,0,0,0-.21,0l-1.66-.13v-.16l1.74-.54c.12,0,.32.12.34-.14s-.19-.19-.31-.24a.65.65,0,0,0-.3-.09,7.09,7.09,0,0,1-3.3-.51c-.08,0-.28,0-.29,0-.13.47-.35.14-.4,0s-.31-.2-.46-.3c-.52-.32-1.18,0-1.63-.57-.1-.08-.25,0-.32-.15-.2-.43-.52-.37-.85-.31l-.3,0c-.61-.19-1.23-.25-1.84-.47a.8.8,0,0,0-1,.25.17.17,0,0,1-.23.09c-.51-.23-1.06-.07-1.58-.25,0-.12.17-.24-.08-.35s-.69-.29-1,.13a6.45,6.45,0,0,1-2-.47c-.38-.17-.71-.61-1.2-.41,0,0-.08-.05-.1-.09-.19-.31-.5-.14-.75-.26-.09,0-.26,0-.24.21a.17.17,0,0,0,.25.13c.33-.25.57.12.86.15s.18.23.15.35-.16.24-.3.07-.55-.15-.59,0c-.22.7-.56.29-.86.18a1.8,1.8,0,0,0-1-.22,6.17,6.17,0,0,1-1.71.12l-.1-.23c.19-.16.09-.28-.06-.33s-.36,0-.37.19.19.1.3.15c0,.37-.28.16-.42.24a14.64,14.64,0,0,0-2.07-.26c-.2-.35-.17-.52.24-.49a2.52,2.52,0,0,0,1.22,0c.09-.12.33-.15.22-.39s-.21-.08-.31,0-.27,0-.4-.05c-.59-.07-1.16-.42-1.78-.21-.26.09-.34.17-.13.42,0,.15-.32.16-.25.33.21.6-.24.29-.38.4-.11,0-.2-.13-.34-.11a40.25,40.25,0,0,1-4.11,0,1.93,1.93,0,0,0,1-.5.68.68,0,0,1,.5-.22c.87,0,.87-.06,1-1.06,0,0,0,0,0-.06.24-.24.44-.58.84-.3.11.07.32,0,.35-.19.11-.53.48-.53.83-.62.18,0,.49.08.48-.35l.13-.21c.73-.32,1.51-.46,2.24-.82a5.69,5.69,0,0,0,1.4-.69c.54-.1.85-.57,1.18-1a4.92,4.92,0,0,0-1.49.49.19.19,0,0,0-.1,0h0c-.33,0-.55.29-.85.35h0c-.15,0-.26,0-.38.13a2.82,2.82,0,0,1-1.7.48h0c-.39-.26-.77-.52-1.25-.26a.21.21,0,0,1-.32-.08c-.09-.2.07-.29.18-.37s.54-.28.69-.6a1,1,0,0,1,.45.07c.35.16,1.61-.22,1.69-.59.18-.84.71-.77,1.25-.84.31,0,.71.07.91-.28a2.84,2.84,0,0,1,1.85-1.17,1.07,1.07,0,0,0,1.07-.87c.17-.53.44-.8.9-.85.17,0,.33,0,.3-.29a2.54,2.54,0,0,1,.23-.91c.66-.39,1-1.17,1.68-1.58.12-.08.13-.28.2-.41.28-.48.41-1.17,1-1.34,1.12-.32,1.76-1.42,2.63-2.15a5.09,5.09,0,0,1,.92-.76.86.86,0,0,0,.52-1,1.87,1.87,0,0,1,.51-1.76c.17-.2.32-.46.48-.67.27-.39.46-.93,1-1,.32.08.42-.33.7-.44a5.31,5.31,0,0,0,1.6-1.16c.16-.16,0-.9.53-.46,0,0,.06-.09.11-.11.66-.24.68-1,1-1.56.25-.38,0-.49-.24-.52a1.51,1.51,0,0,0-.36.06.93.93,0,0,1-1.12-.72s-.08-.11-.11-.1c-.3.14-.43-.11-.66-.27a1.59,1.59,0,0,1-.57-1,2.58,2.58,0,0,0-1.1-1.52h0c0-.26-.07-.3-.4-.36-.15,0-.39,0-.37-.22,0-.45-.22-.93,0-1.33.39-.74-.21-1.06-.48-1.42s-.25.27-.43.37a.37.37,0,0,1-.15,0,3.45,3.45,0,0,0-1.32.41,3.24,3.24,0,0,1-1.4.19c-.43-.06-.84-.22-1.25.06-.12.09-.28.12-.34-.1a5.58,5.58,0,0,1-.21-1.05c0-.52-.19-.75-.63-.73-.21-.19-.59-.12-.65-.56,0-.14-.12-.13-.19,0-.5.63-.94.34-1.36-.13h0c0-.06,0-.12,0-.17a.74.74,0,0,0,.31-.34c.16-.06.27-.35.45-.25.86.46,1.35-.57,2.07-.74.27-.06.61-.37,1-.45.19,0,.37-.06.47-.29.42-.34,1-.33,1.36-.73.2-.06.48-.06.47-.37s-.3-.13-.45-.2c-.45-.19-.77.19-1.15.28a30.74,30.74,0,0,0-3.35,1.27,11.45,11.45,0,0,1-1.36.46.84.84,0,0,0-1.11-.21.71.71,0,0,1,.54.28c-.27,0-.44,0-.56.28-.14-.18-.28-.46-.4.13,0,.1-.15.06-.23,0s-.08-.11-.09-.2c-.09-.87-.28-1.06-1-1.09l-.12,0a7.36,7.36,0,0,0,1.13-1.41c.23-.49.76-.61,1-1.08a33.14,33.14,0,0,0,2.62-3.15.62.62,0,0,0,.34-.5c.15-1,.89-1.77,1-2.83a.73.73,0,0,1,.26-.57c.1,0,.13-.1.18-.19a2.64,2.64,0,0,0-.28-2.22,2.73,2.73,0,0,0-1-1.46,4.16,4.16,0,0,0-1.93-1.47,4.14,4.14,0,0,1-1.26-.67,10.4,10.4,0,0,0-2.72-1.42,8.43,8.43,0,0,1-2.63-1.53c1.13-.19,2.11-.76,3.2-.64-.06.15-.39,0-.28.31s.29,0,.44,0,.24-.16.17-.36a5.91,5.91,0,0,0,2-.1,1.36,1.36,0,0,1,.77.1.38.38,0,0,1,.32.49.53.53,0,0,0,.16.58c.5.42,1,.25,1.53.36a7.47,7.47,0,0,0,4.87-.95,1.32,1.32,0,0,1,.65-.06c.45,0,.91.48,1.47,0-.51-.11-.93-.22-1.35-.28a.93.93,0,0,1-.49-.21c.21-.19-.09-.46,0-.6s.37-.11.54,0,.45,0,.71-.18a7.78,7.78,0,0,0-1.27-.31c-.5,0-.45-.45-.44-.8s.3-.25.51-.24h2.06a3.28,3.28,0,0,0-1.51-.21c-.17,0-.41,0-.41-.23s-.22-.53-.18-.88l1.88.14c.09,0,.23.08.25-.1s-.14-.16-.25-.16l-1.55-.08c-.34,0-.65,0-.39-.57.05-.13,0-.31-.07-.47-.09-.55-.46-1-.52-1.51a2.33,2.33,0,0,0-1.31-1.78,16.24,16.24,0,0,0-5.1-2.38c-.08-.21-.31-.08-.41-.25l.09,0a1.36,1.36,0,0,0,.35,0,1.8,1.8,0,0,0,1.2-1.16c.08-.2.32-.34.21-.61s-.33-.15-.51-.12l-.28-.06c-.16-.17-.35-.09-.52-.11a.81.81,0,0,0-.65-.22c-.16-.22-.13-.67-.53-.61l-.51-.25c-.39-.58-1-.26-1.48-.47l-.08,0a.89.89,0,0,0-.17-.91,3.65,3.65,0,0,1,1.33-.16.63.63,0,0,0,.61-.38c.6-.36,1.31-.34,2.06-.73a2.16,2.16,0,0,0-.89-.15c-.3-.27-.48-.51.09-.62.09,0,.23,0,.25-.16s-.14-.21-.23-.27a2,2,0,0,0-.33-.16c0-.08.2-.17,0-.2-.48-.1-.91-.5-1.43-.38h0c0-.51.44-1,.16-1.54-.06-.13.14-.39.37-.41s.23-.08.11-.22a.54.54,0,0,1,0-.7c.13-.2,0-.32-.12-.35-.41-.09-.31-.55-.46-.83.31-.16.27-.76.62-.78s.26-.28.34-.46-.1-.25.05-.32c.46-.23.11-.39,0-.55a.56.56,0,0,0-.63-.16l-.92-.26c-.08-.19-.39,0-.38-.28a.45.45,0,0,1,.34-.41.35.35,0,0,0,.19-.1c.21-.23.37-.46-.06-.64-.23-.1-.46-.23-.7-.36.17-.4.42-.59.76-.57a1.29,1.29,0,0,0,.9-.42,1.71,1.71,0,0,0,.49-.14c.18-.11.54,0,.48-.47s-.23-.6-.57-.6h0a5,5,0,0,0-1.88-1.22h0a3.07,3.07,0,0,0-1.16-.6c-.16,0-.34-.06-.38-.27s-.33-.35-.51-.51c-.44-.39-1.27-.11-1.38-1.06a.17.17,0,0,0-.12-.1c-.74,0-1.35-.47-2-.62a17.93,17.93,0,0,1-2.47-.64,4,4,0,0,0-2-.48c-.31-.06-.62-.15-.92-.19-1.41-.18-2.76-.79-4.2-.79a3.46,3.46,0,0,0-1.59-.22,34.47,34.47,0,0,1-3.65-.38,10.42,10.42,0,0,0-3-.35c-1.38-.12-2.74-.4-4.12-.49s-3-.38-4.55-.56a6,6,0,0,1-1.34-.09,9,9,0,0,0-3.37-.45h0a1.12,1.12,0,0,0-.78-.23,23.36,23.36,0,0,1-3.82-.5c-.52-.1-1.05-.1-1.57-.21a2,2,0,0,0-1.21,0h0c-.06,0-.14,0-.18-.11a.71.71,0,0,0-1-.32c-.13.06-.27,0-.4,0l-.23.05h-.18a6.59,6.59,0,0,1-1.47-.12c-.32-.24-.71,0-1-.23s-.46-.4-.83-.43a7.71,7.71,0,0,1-1.44-.12c-.25-.07-.34.1-.45.28-.75.06-1.47-.32-2.22-.23-.05,0-.15,0-.17-.08-.18-.49-.39-.11-.61,0,0-.43.34-.75.27-1.18a3.18,3.18,0,0,1,.33-1.61A4.55,4.55,0,0,0,133.34,9l.3-.1.09,0A1.35,1.35,0,0,0,135.1,9h0c.46-.09.75.37,1.15.48a9.84,9.84,0,0,0,4.72.71,1.53,1.53,0,0,1,.81.16,4,4,0,0,0,2.31.34l.5.14a36.22,36.22,0,0,0,3.68.72c.2.34.43.62.83.47h0c.5,0,1,.36,1.51,0,.07-.05.17,0,.23.14.12.41.4.37.68.26.13-.06.26-.17.39-.05.44.39.93.21,1.4.22h0a4.37,4.37,0,0,0,.72.06c.7,0,1.29.47,2,.44h0l1.88.36h.1a2,2,0,0,0,1.08.07c.1,0,.26,0,.27-.23s-.16-.17-.27-.2-.32,0-.38-.22a1.44,1.44,0,0,0-1.08-.81c-.43,0-.89.25-1.27-.18a1.49,1.49,0,0,0-1.25-.09.18.18,0,0,0-.06.08c.4.73-.24.34-.38.48l-.32-.11h0c-.74-.31-1.41-.83-2.27-.55a1.47,1.47,0,0,1-1-.23c.24-.17.49,0,.74-.2h-.84a.45.45,0,0,1-.48-.27A.66.66,0,0,0,149.3,11a.5.5,0,0,1-.7.13c-.23-.11.22-.21,0-.47-.59.41-1.19,0-1.81-.06l-.89-.09a2.59,2.59,0,0,1,.93-.51c-.36-.26-.64-.59-1-.4a1.45,1.45,0,0,1-.91.11.76.76,0,0,0-.58-.63c-.52-.2-.57.41-.89.54h0a1.29,1.29,0,0,1-.84.15c-.35,0-.71-.17-1,.08h0l-.82,0h0c-.07-.2-.46-.08-.32-.49.08-.23.25-.3.41-.41-.46-.1-.88-.22-1.31-.29-.2,0-.52-.14-.61.13s.31.17.39.38c0,0,0,.07,0,.22-.4-.53-.82.16-1.24-.12s-.64-.15-1-.24-.6-.14-.21-.56a.21.21,0,0,0,.07-.26c-.08-.15-.17,0-.26,0-.43,0-.7.5-1.14.44-.49-.54-1-.88-1.68-.38a.26.26,0,0,1-.37-.08.34.34,0,0,1,0-.28c.39-.44,0-.3-.17-.33-.3-.21-.21-.6-.15-.81.19-.74-.21-.69-.59-.66a3.8,3.8,0,0,1-1.82-.26,2,2,0,0,0-.55-.09c-.93-.09-1.85.32-2.77,0a.42.42,0,0,0-.4.09.81.81,0,0,1-.93.12,2.75,2.75,0,0,0-1,0c-.7-.15-1.44,0-2.11-.13a4.41,4.41,0,0,0-2.08.14c-.7-.2-1.41-.36-2.1-.61-.44-.16-.82.18-1.24.09-.09-.08-.25-.16-.26-.25,0-.47,0-.47-.38-.59h0l-.3-.13c.06-.39.15-.61.53-.28s1.18-.06,1.54-.45c-.78.11-1.48-.21-2.22,0a5,5,0,0,1-1.91-.17c-.17,0-.5-.13-.48.1,0,.39-.16.23-.25.21s-.45-.06-.67-.11c-1-.18-2,.06-2.86-.71,0,0-.13,0-.2,0a12.09,12.09,0,0,1-1.33-.17c-1.64-.32-3.28-.57-4.92-.88a15,15,0,0,0-3.76-.52.6.6,0,0,1-.5-.15A2.38,2.38,0,0,0,97.73.57,4.82,4.82,0,0,1,96.14.31,4.86,4.86,0,0,0,94.49.06C93.1,0,91.71,0,90.32,0A85.76,85.76,0,0,0,80.06.39c-1.43.19-2.88.22-4.31.46-2.11.37-4.2.87-6.3,1.3a1.3,1.3,0,0,1-.67.06,3.7,3.7,0,0,0-1.84.11c-.79-.15-1.54.33-2.32.17a1.41,1.41,0,0,0-1,.14,1.53,1.53,0,0,1-.91.18A22.69,22.69,0,0,0,59.15,3a11.64,11.64,0,0,0-1.77.06,9.2,9.2,0,0,1-2.66.49,6.31,6.31,0,0,0-1.57.34,6.45,6.45,0,0,0-1.87.44c-.29.07-.61-.11-.86.14a3.52,3.52,0,0,1-1.73.92c-1.18.3-2.31.7-3.49.06a.52.52,0,0,0-.75.33.77.77,0,0,1-.79.53,8.8,8.8,0,0,0-1.84.35L39.24,7a5.79,5.79,0,0,0-1.49.23c-.11,0-.18.07-.13.25.12.4-.14.55-.38.71l-.87.07v.16l.86.05c.28.22.29.24.21.32-.26.27-.46.6-.86.67s-.6,0-.81.32a2.1,2.1,0,0,0-1,.25,4.65,4.65,0,0,1-.83-.07,7.84,7.84,0,0,0-2.84.31H31l0,0c-.91-.05-1.8-.17-2.7-.27-1.25-.13-2.5.09-3.74-.14a9.45,9.45,0,0,0-2.81-.05,5.79,5.79,0,0,1-1.09.13c-1.8-.16-3.6-.41-5.4-.43a20.16,20.16,0,0,0-6.42,1,3.7,3.7,0,0,1-1.17-.42.93.93,0,0,0-.83-.19c-.23,0-.42.17-.15.47.11.13.27.33.18.47-.31.48,0,.57.28.74-.25.22-.57.09-.83.26-.3,0-.41.34-.23.4.44.17.6.77,1.08.81a3,3,0,0,1,1.6.37A.43.43,0,0,1,9,13.7c.23.88.37,1,1.12,1.07.6.07,1.17-.24,1.76-.14a.82.82,0,0,0,.61.09,6.67,6.67,0,0,1,1.86.19c-.58.21-1,.68-1.44.39a1,1,0,0,0-.88-.09c-.66.13-1.33.24-2,.36-.14-.25-.26-.36-.46,0a1.1,1.1,0,0,1-.76.42c-.26.06-.73-.19-.77.44L8,16.29c0-.18.07-.36-.18-.36.14-.25.24-.45-.18-.36s-.71.18-.7-.54c-.19.35-.12.7-.25,1l0,.06h0a.2.2,0,0,0,0,.11c-.12.46-.41.53-.81.37.22,0,.48,0,.45-.4s-.32-.23-.49-.31a.35.35,0,0,0-.38.11,1.19,1.19,0,0,0-1.24.24c-.19.2-.47-.1-.67.15-.43-.12-.89,0-1.3-.17l-.06.49a.27.27,0,0,0-.07.26.84.84,0,0,1-.25.09c-.21,0-.43.06-.42.3a.43.43,0,0,0,.43.34c.37,0,.74,0,1.11,0s.42.27.43.24c.27-.45.41,0,.56.13.21-.26,0-.45,0-.66a1.51,1.51,0,0,0,.55.09,3.94,3.94,0,0,1,2.17.26c.17.16-.14.48.18.6s0-.36.29-.25a.73.73,0,0,0,.47.64c-.07.09-.27.08-.22.26s.17.11.26.1L8.51,19l1.59,0a1.93,1.93,0,0,0,1.14-.11l.18,0a.83.83,0,0,0,1.33.4c.06-.05.16,0,.25,0h0c.16.31.35.11.52,0s.28-.22.38-.14c.41.35.79,0,1.19,0a.38.38,0,0,0,.53-.05c.28-.38.47-.28.76,0a.59.59,0,0,0,.85.05c.25-.23-.15-.31-.15-.5a4.56,4.56,0,0,1,1.52-.06,5.32,5.32,0,0,0,.79-.05c.25-.05.42.13.61.27a2.11,2.11,0,0,0,2.34-.24c.15-.17.33-.23.46-.06a.73.73,0,0,0,.72.25c.58-.06.92.39,1.33.71-.1.17-.18,0-.26.05-1.77.25-3.55.12-5.33.34-1.11.14-2.25.06-3.37.12s-2,.25-3,.24a12.2,12.2,0,0,0-2.56.32,1.8,1.8,0,0,0,.32.08,30.44,30.44,0,0,0,3.82,0c1.34-.12,2.69-.1,4-.1a5,5,0,0,1,2.36.05,1.19,1.19,0,0,0,.58,0c1.45-.3,2.92-.17,4.37-.37a18.62,18.62,0,0,1,2,.11c.09.09.24,0,.31.13l-.08.21c0,.35-.29.43-.43.65a8,8,0,0,1-1.89.11h-.82c-.28.06-.45.21-.34.57-.56.1-1-.53-1.62-.42.09.33.35.26.43.45l-.48.24-.11-.11a.6.6,0,0,0-.11-.51c-.14-.14-.42-.18-.38.07.08.42-.21.38-.34.54l-.31.24h0a2,2,0,0,0-1.14-.27s0,0,0,.06h0l0-.06c-.24-.49.38-.19.34-.53-.34-.11-.63-.08-.73.43-.51-.61-.52-.61-1-.12-.05.05-.06.06-.14,0-.29-.07-.61-.15-.82.23-.31,0-.64-.15-.94.08-.15-.12-.3,0-.44,0s-.31-.05-.32.18.15.25.29.25c.45,0,.91.18,1.33-.16.22.28.48.2.73.11h0a1.25,1.25,0,0,0,.83.12l.09,0c.2.24.37.07.54-.05s.22-.26.4-.17-.12.34,0,.51l.56-.06a.15.15,0,0,1,.09,0c.38.24.56-.09.76-.36l0-.05h0l0,.05c.1.22.18.53.43.13.06-.1.14-.15.26-.08a.83.83,0,0,0,.86-.08,2.21,2.21,0,0,1,.57,0c.09,0,.51.27.28-.27,0-.12.12,0,.18-.08a1,1,0,0,0,1,.35c.34.54.52.54.85,0a.23.23,0,0,1,.27-.11c.34.05.5.29.5.89.18-.4.34-.46.57-.43s.27-.22.22-.45c.43-.14.88.3,1.32-.09.08-.06.36,0,.39-.21s-.19-.24-.32-.33-.12-.07-.1-.19c.55-.32,1.08,0,1.63.07.08.16.42.34,0,.49-.1,0-.16.06-.1.2s.1.17.19.17a.87.87,0,0,0,.58-.35c.21-.21-.06-.25-.15-.37s.11-.16.11-.27l.2-.09c0,.23.27.33.2.58s-.16.44.07.58.29-.27.46-.35a5.25,5.25,0,0,1,1.16.26c.34.41.38-.06.53-.25h.22a1,1,0,0,1,.23.12c.4.42.77.38,1.2,0,.12-.1.35-.35.59-.13a.11.11,0,0,0,.17-.07.15.15,0,0,0-.11-.22l-.29-.09c-.12-.71-.12-.71.5-.71,0,.23-.07.57.31.49a3.94,3.94,0,0,0,1,.67l.26,0c.47,0,1,.24,1.37.1.81-.34,1.64,0,2.42-.34.1-.54.33-.66,1.1-.56-.57,0-.57,0-.76.22a9.06,9.06,0,0,0,2.36.75,5.16,5.16,0,0,0-1.44.52c-.32.25-.68,0-1,.16-.06-.25-.17-.41-.43-.32a1,1,0,0,0-1.07.13c-.6-.45-1.26.05-1.89-.14-.46-.13-1,.18-1.44.12-.32.08-.65-.14-1,0,.22.19.39.32.55.45a2.69,2.69,0,0,1-1.26.11c-.28,0,0-.11,0-.17s.19,0,.16-.09a.41.41,0,0,0-.36-.29,6.09,6.09,0,0,1-1.35,0c-.08,0-.19,0-.2.11a.2.2,0,0,0,.16.2h0c0,.13.21,0,.22.19l-.14.07c-.11.06-.34,0-.3.21s.22.1.35.1H36c-.11.1-.25.08-.32.22s-.2.12,0,.19a1.4,1.4,0,0,0,.76,0c.49-.07,1,.13,1.46-.11a1.53,1.53,0,0,0,1.15,0h.21A6.22,6.22,0,0,0,42,24.27c-.14-.29-.38-.1-.56-.18s-.41.09-.72-.07a10.75,10.75,0,0,1,5.37-.12c-1.29.33-2.52,0-3.71.36a4.8,4.8,0,0,0,1.38.2,7.53,7.53,0,0,1,1.49-.11c1.14,0,2.29.07,3.42,0a16.3,16.3,0,0,1,3.56,0c.26.06.46-.36.76-.19.17.55-.34.25-.44.48-.32,0-.62.24-1,.09-.1,0-.25-.29-.3,0,0,.14,0,.44.27.4a1.29,1.29,0,0,1,.72.22,2.13,2.13,0,0,0,1.23.26.34.34,0,0,0,.11.05,2.26,2.26,0,0,0,.91.2c.16,0,.43,0,.23-.36s-.2-.43.14-.4a25.88,25.88,0,0,1,2.65.3,7.4,7.4,0,0,1,1.66.33c-1.42.6-2.88.3-4.34.26a.48.48,0,0,0,.43.33c.66.14,1.33.29,2,.41a3.89,3.89,0,0,1,2.39.91c.05.05.21,0,.1.18s-.13,0-.19.05c-.13-.2-.23,0-.33,0a15.33,15.33,0,0,0-2.84.48,21.43,21.43,0,0,0-2.23.44c-.4.13-.83,0-1.21.28a4.71,4.71,0,0,0-2.41.73,4.72,4.72,0,0,0-3.35,1.22c-.92-.05-1.79.53-2.72.36,0,0-.13.05-.12.07,0,.55-.35.31-.55.31a1.79,1.79,0,0,0-.73.07,6.66,6.66,0,0,1-2.47.19c-1.37,0-2.73-.26-4.11-.18a7.25,7.25,0,0,1-1.14-.05,4.74,4.74,0,0,0-1.76,0,4.53,4.53,0,0,1-1.31.2,25.64,25.64,0,0,0-4.2-.19A1.48,1.48,0,0,1,27,31.71a1.27,1.27,0,0,0-1.11-.16,2.52,2.52,0,0,1-1.09.06,17.56,17.56,0,0,0-4.28-.23,4.74,4.74,0,0,0-1.4.16,3.19,3.19,0,0,0,.41.19c.74.15,1.5.27,2.24.44.57.13,1.12.39,1.69.48,1.41.23,2.82.38,4.24.57.12.18.48.13.44.42s-.34.11-.52.19l-.3.15c.17.16.31.32.46.44s.23.12.2.3-.17.18-.29.19a5.53,5.53,0,0,0-1.36.49c-.31,0-.62.15-.94,0-.14-.38-.44-.29-.68-.24a8.27,8.27,0,0,1-2.38.1,3.6,3.6,0,0,0-2.09.61,1.29,1.29,0,0,0,1.06.84c.81,0,1.62.14,2.43.15.38,0,.78-.23,1.14,0a.76.76,0,0,0,.65.1.06.06,0,0,1,.08,0c.11.87.42,1.5,1.26,1.58.31.12.58.45,1,.25.27,0,.42.08.59.41a1.85,1.85,0,0,0,1.66.94,13.78,13.78,0,0,1,2.31.4A15.93,15.93,0,0,0,35,41c1.61.07,3.13.76,4.74.79a5,5,0,0,1,.91.21A17.17,17.17,0,0,1,36,41.75c-1.55-.16-3.1-.39-4.66-.51s-3.07-.67-4.68-.72a2.34,2.34,0,0,0,1.77.77,32.31,32.31,0,0,1,3.91.69l.07,0c.39.2.9-.07,1.3.4-.39.17-.73,0-1.06.07h0c-.35-.31-.7-.19-1.14-.07a1,1,0,0,0,.71.31c.28.06.39.6.72.42a1.42,1.42,0,0,1,1-.07c.28.07.52.4.84.15h0c0,.23.4.43.07.63-.17.09-.29.46-.57.23a.13.13,0,0,0-.2.11.5.5,0,0,0,0,.28c.06.1.17.07.22,0,.18-.28.37-.06.5,0a.79.79,0,0,0,.78.14c0,.38-.34.45-.54.76h.55l.09.22c0,.12-.18.32.06.37s.21-.09.2-.29.12-.14.19,0,.16.2.29.1L37,46a.38.38,0,0,1,0,.1.14.14,0,0,0-.09,0c-.35,0-.55.39-.91.45-.16,0-.05.36.2.39a.56.56,0,0,1,.05.08s0,0,0,0c-.3.33-.69-.15-1,.13-.14-.16-.1-.53-.42-.49.06-.65.06-.65-.56-.61,0,0,0,0-.05-.07,0-.22.33-.06.32-.32A3.08,3.08,0,0,0,33.46,45c-.12.3-.36.12-.58.27.45-.07.12.58.49.57,0,.33.22.4.43.47s0,.16,0,.25c-.19-.08-.47-.08-.55-.23-.19-.35-.42-.32-.69-.26s-.61-.35-.87-.43a3.47,3.47,0,0,0-2.12-.33c-.19.06-.45.11-.55-.27a.25.25,0,0,0-.4-.11.36.36,0,0,1-.33.1,2.74,2.74,0,0,0-2,.08c-.11.06-.24.08-.25.26s.11.22.24.25.27.08.4.12.22.16.21.35c0,.35-.4.31-.44.62a2.11,2.11,0,0,1-.2-.29c-.18-.32-.41-.54-.73-.35a1,1,0,0,1-.65.07c-.26,0-.57-.14-.72.32,0,.14-.17,0-.19-.11s0-.27,0-.41a4.65,4.65,0,0,0,1.85-.83c-.34-.31-.62,0-.84,0-.5-.17-1-.52-1.38.17,0,0-.06,0-.1,0-.52-.08-1.07,0-1.52-.38l-1.14,0h0a.46.46,0,0,0-.72-.21c-.18.1-.49,0-.53.34h-.3c-.22,0-.51,0-.65-.08a.44.44,0,0,0-.62,0c-.19.13-.33.32-.46-.07a.16.16,0,0,0-.23-.07c-.15.06,0,.16,0,.23-.06.29.1.66-.31.81l.43.24-.37.07c.05.17.29,0,.26.22s-.26.31-.29.27c-.16-.24-.52.28-.53-.15s-.25-.42-.47-.49a6.77,6.77,0,0,0-4.2,0,1.77,1.77,0,0,1-1.6,0,.23.23,0,0,0-.33.1l.9.28c.18.06.32.08.26.43s.07.7.54.61c.22,0,.69-.18.45.49,0,.11,0,.28,0,.42-.6.09-1.15-.18-1.75-.09A1.4,1.4,0,0,1,11,49.48c-.16.65.18,1.19.22,1.75.08,1,.74.48,1,.79l0,0a1.38,1.38,0,0,0-1.14.71.09.09,0,0,0,0,.07h0l0-.06c-.11-.19-.37,0-.46-.23s-.17-.39-.39-.4-.18,0-.21.12.17.16.22.29-.29,0-.36.21l-.17,0c0-.12-.08-.3-.17-.35-.32-.19-.22-.39,0-.6s.27-.06.25-.23a.2.2,0,0,0-.26-.14c-.39.14-.82,0-1.21.2-.13.06-.35,0-.36.25s.28.07.34.25L8,52.33c-.08.06-.23.06-.17.23s.13.21.24.16.52-.1.39-.52c.23.17.87-.24.62.6l-.29,0c-.42-.1-.57.47-.91.57H7.77l-.47-.16c.38-.33.38-.33,0-.58,0-.26-.15-.63-.36-.54s-.73,0-.93.43c-.36,0-.81.12-1.06-.08-.68-.54-1.07-.61-1.61,0,.21.22.57-.2.66.07.21.68.73.35,1,.58a.83.83,0,0,0-.58.13A1.94,1.94,0,0,1,3,53.62c-.22,0-.53.16-.5-.38,0-.14-.2-.18-.35-.1-.49.27-1,.26-1.54.5-.2.11-.58-.09-.57.22s.42.21.64.3c.06,0,.14,0,.21,0l1.66.13v.16L.78,55c-.11,0-.31-.12-.33.14s.18.2.3.25a1.14,1.14,0,0,0,.3.09,6.93,6.93,0,0,1,3.3.51c.09,0,.28,0,.3,0,.12-.47.34-.14.39,0s.31.21.47.3c.51.32,1.17.05,1.63.58.09.08.24,0,.31.15.2.43.52.36.85.3l.3.05c.61.18,1.24.25,1.84.47a.8.8,0,0,0,1-.26.18.18,0,0,1,.23-.08c.51.22,1.06.06,1.58.24,0,.12-.17.25.08.36s.69.28,1-.14a6.41,6.41,0,0,1,1.95.48c.39.16.72.61,1.2.4,0,0,.08,0,.11.1.18.3.5.13.74.25a.17.17,0,0,0,.24-.2.16.16,0,0,0-.25-.13c-.33.24-.57-.12-.86-.15s-.18-.23-.15-.36.17-.23.31-.07.54.16.59,0c.22-.7.55-.29.85-.18a1.94,1.94,0,0,0,1,.23,6.12,6.12,0,0,1,1.71-.13l.09.24c-.19.15-.09.28.06.32a.28.28,0,0,0,.38-.19c0-.24-.2-.1-.31-.14,0-.37.28-.17.42-.25a14.67,14.67,0,0,0,2.07.27c.2.34.17.52-.24.49a2.52,2.52,0,0,0-1.22,0c-.09.12-.33.15-.22.4s.21.07.32,0,.26,0,.4.05c.59.07,1.15.42,1.77.21.27-.1.34-.18.13-.42.05-.16.32-.16.26-.34-.22-.6.23-.29.37-.39s.2.13.34.11a35.39,35.39,0,0,1,4.12,0,1.9,1.9,0,0,0-1,.49.66.66,0,0,1-.5.22c-.86.05-.86.06-1,1.06,0,0,0,0,0,.06-.24.25-.44.59-.84.31-.11-.08-.31,0-.35.19-.11.53-.48.53-.82.62-.19,0-.5-.09-.49.35l-.13.21c-.73.32-1.51.45-2.23.81a5.59,5.59,0,0,0-1.41.69c-.54.1-.85.57-1.18,1A5.22,5.22,0,0,0,22.09,64l.1-.05h0c.34.05.55-.3.85-.35h0c.15,0,.27-.06.38-.14a2.82,2.82,0,0,1,1.7-.48h0c.39.26.77.52,1.25.26a.23.23,0,0,1,.32.08c.09.2-.07.29-.18.38s-.53.27-.68.6a1.2,1.2,0,0,1-.46-.07c-.35-.17-1.6.21-1.69.59-.18.84-.71.77-1.24.83-.32,0-.72-.07-.92.28a2.77,2.77,0,0,1-1.85,1.17A1.08,1.08,0,0,0,18.6,68c-.16.54-.43.81-.9.85-.17,0-.33,0-.3.29a2.6,2.6,0,0,1-.23.92c-.65.38-1,1.17-1.67,1.58-.13.08-.13.28-.21.4-.28.48-.41,1.18-1,1.34-1.12.33-1.76,1.42-2.63,2.15a3.92,3.92,0,0,1-.92.76.87.87,0,0,0-.52,1,1.85,1.85,0,0,1-.51,1.76c-.17.2-.32.47-.47.68-.28.38-.47.92-1,1-.32-.07-.42.33-.69.44A5.11,5.11,0,0,0,6,82.39c-.17.16,0,.89-.53.45,0,0-.07.1-.12.11-.65.24-.68,1-1,1.56s0,.49.24.52A1.49,1.49,0,0,0,5,85a.93.93,0,0,1,1.12.71s.09.12.11.11c.31-.14.43.1.66.26a1.64,1.64,0,0,1,.58,1,2.58,2.58,0,0,0,1.09,1.53h0c0,.25.07.29.4.36.15,0,.39,0,.37.22,0,.45.22.92,0,1.32-.4.75.2,1.06.47,1.43s.25-.28.43-.37a.27.27,0,0,1,.15,0c.49,0,.88-.28,1.32-.42a3.41,3.41,0,0,1,1.41-.18c.43,0,.83.21,1.24-.07.13-.08.28-.11.34.11a4.18,4.18,0,0,1,.21,1c0,.52.19.76.63.73.22.2.59.13.66.57,0,.13.11.12.18,0,.5-.62.94-.33,1.37.13h0l0,.18a.65.65,0,0,0-.31.34c-.16,0-.27.34-.45.25-.86-.46-1.35.56-2.07.73-.27.06-.6.37-1,.46-.19,0-.37,0-.47.29-.41.33-1,.33-1.36.72-.2.06-.47.07-.46.38s.29.13.45.19c.44.19.77-.19,1.15-.28a29.36,29.36,0,0,0,3.34-1.27c.46-.16.91-.35,1.36-.46a.82.82,0,0,0,1.11.21.66.66,0,0,1-.54-.28c.27,0,.44,0,.57-.28.13.18.27.46.4-.12,0-.11.14-.06.22-.06s.09.12.1.21c.08.86.27,1,1,1.08l.12,0a7.43,7.43,0,0,0-1.13,1.42c-.23.49-.76.6-1,1.07a32.06,32.06,0,0,0-2.62,3.16.61.61,0,0,0-.34.5c-.15,1-.89,1.77-1,2.82a.76.76,0,0,1-.25.58c-.1,0-.14.09-.19.18a2.67,2.67,0,0,0,.28,2.23,2.77,2.77,0,0,0,1,1.46,4.18,4.18,0,0,0,1.92,1.46,4.27,4.27,0,0,1,1.26.68,11,11,0,0,0,2.72,1.42,8.2,8.2,0,0,1,2.64,1.53c-1.13.19-2.12.76-3.21.63.06-.14.39,0,.28-.31s-.29,0-.44,0-.24.16-.17.36a6.18,6.18,0,0,0-2,.09,1.36,1.36,0,0,1-.77-.1c-.2,0-.36-.14-.31-.49a.56.56,0,0,0-.17-.58c-.5-.41-1-.25-1.53-.36a7.47,7.47,0,0,0-4.87,1,1.28,1.28,0,0,1-.64.06c-.46,0-.92-.48-1.48,0,.51.11.93.22,1.35.29a.89.89,0,0,1,.49.2c-.21.2.09.47,0,.61a.43.43,0,0,1-.54,0c-.26-.16-.45-.06-.71.17a8,8,0,0,0,1.27.31c.51,0,.45.46.44.8s-.3.25-.51.25c-.68,0-1.37,0-2.05,0a3.38,3.38,0,0,0,1.5.21c.18,0,.41,0,.41.22s.22.53.19.88l-1.88-.14c-.1,0-.23-.07-.25.1s.13.16.24.17c.52,0,1,.06,1.55.07.34,0,.66,0,.4.58-.06.13,0,.31.06.46.09.56.46,1,.53,1.51A2.29,2.29,0,0,0,12.68,123a16.22,16.22,0,0,0,5.09,2.39c.09.2.32.07.42.24a.16.16,0,0,1-.1,0,2.06,2.06,0,0,0-.35,0,1.8,1.8,0,0,0-1.2,1.16c-.08.2-.32.34-.2.6s.32.15.5.13l.29,0c.15.18.34.09.52.11a.79.79,0,0,0,.64.23c.17.21.13.67.53.6l.51.26c.4.58,1,.25,1.48.46l.09,0a.85.85,0,0,0,.16.9,3.66,3.66,0,0,1-1.33.17.59.59,0,0,0-.6.37c-.61.37-1.32.34-2.07.74a2.32,2.32,0,0,0,.9.14c.29.27.48.52-.09.62-.1,0-.23,0-.26.17s.14.2.23.27a2,2,0,0,0,.33.15c0,.08-.2.18-.05.21.49.1.91.5,1.43.37h0c0,.51-.44,1-.16,1.53.06.13-.13.39-.37.42s-.23.07-.11.22a.54.54,0,0,1,0,.7c-.12.2,0,.31.12.35.41.09.31.55.46.82-.31.16-.27.77-.62.78s-.26.29-.33.46.09.25-.05.32c-.47.23-.12.39,0,.56a.6.6,0,0,0,.63.16l.92.26c.08.19.4,0,.38.28a.44.44,0,0,1-.34.4.46.46,0,0,0-.18.1c-.22.24-.37.46,0,.64.23.1.46.24.7.36a.79.79,0,0,1-.76.58,1.21,1.21,0,0,0-.89.42,1.54,1.54,0,0,0-.49.13c-.19.11-.55,0-.48.47s.22.61.57.61h0a5.21,5.21,0,0,0,1.88,1.22h0a2.93,2.93,0,0,0,1.16.6c.15,0,.33,0,.37.26s.33.36.52.52c.44.39,1.26.1,1.37,1,0,0,.09.11.13.1.73,0,1.34.47,2,.63a16.61,16.61,0,0,1,2.47.64,4.12,4.12,0,0,0,2,.47,9.37,9.37,0,0,0,.92.19c1.41.18,2.75.8,4.19.79a3.46,3.46,0,0,0,1.59.22,32.22,32.22,0,0,1,3.66.39,11.07,11.07,0,0,0,3,.35c1.37.12,2.73.4,4.11.49s3,.37,4.55.55a7.36,7.36,0,0,1,1.34.09,9,9,0,0,0,3.37.46h0c.22.24.5.21.77.24a22.55,22.55,0,0,1,3.83.49c.51.11,1,.1,1.56.22a2.07,2.07,0,0,0,1.21,0h0c.06,0,.15,0,.18.1a.72.72,0,0,0,1,.32c.13-.06.27,0,.41,0l.22-.05h.19a6.56,6.56,0,0,1,1.46.13c.32.24.71,0,1,.22s.46.41.84.43a6.92,6.92,0,0,1,1.43.13c.25.06.35-.11.46-.29.74-.06,1.46.32,2.21.24.06,0,.16,0,.17.07.18.49.4.12.61,0,0,.44-.34.75-.27,1.18a3.24,3.24,0,0,1-.33,1.62,4.78,4.78,0,0,0-.22,1.52l-.29.09-.1,0a1.35,1.35,0,0,0-1.37-.1h0c-.46.09-.75-.38-1.15-.48a10,10,0,0,0-4.72-.72,1.63,1.63,0,0,1-.81-.15,4,4,0,0,0-2.31-.35l-.5-.14c-1.21-.31-2.45-.52-3.68-.71-.2-.35-.42-.63-.83-.48h0c-.5,0-1-.35-1.5,0-.08,0-.18,0-.23-.15-.13-.4-.41-.37-.69-.25s-.26.16-.39,0c-.43-.38-.93-.21-1.4-.22h0a5.83,5.83,0,0,0-.72-.06c-.69,0-1.29-.47-2-.43v0L49.55,155l-.1,0a2,2,0,0,0-1.07-.06c-.11,0-.27,0-.27.22s.15.17.26.21.33,0,.38.21a1.41,1.41,0,0,0,1.08.81c.43,0,.89-.25,1.28.18a1.5,1.5,0,0,0,1.24.1.2.2,0,0,0,.06-.09c-.4-.73.24-.33.38-.47l.33.11h0c.73.3,1.4.82,2.26.55a1.42,1.42,0,0,1,1,.23c-.24.16-.48,0-.74.2h.84a.43.43,0,0,1,.48.26.66.66,0,0,0,1.16.06c.2-.31.5-.22.71-.13s-.23.2,0,.47c.59-.42,1.19,0,1.82.06l.88.09a2.84,2.84,0,0,1-.93.51c.37.25.65.58,1,.39a1.52,1.52,0,0,1,.91-.11.78.78,0,0,0,.58.64c.52.19.58-.42.89-.55h0a1.36,1.36,0,0,1,.84-.15c.35,0,.72.18,1-.08h0l.82,0h0c.07.2.47.08.32.5-.07.23-.24.29-.4.4a13.31,13.31,0,0,0,1.3.29c.21,0,.52.14.61-.12s-.31-.18-.38-.39c0,0,0-.07,0-.22.4.53.83-.15,1.25.12s.64.16,1,.24.6.15.2.56a.22.22,0,0,0-.07.26c.09.16.18,0,.26,0,.43,0,.7-.5,1.14-.44.49.53,1,.87,1.68.38a.26.26,0,0,1,.38.08.36.36,0,0,1,0,.27c-.39.45,0,.3.18.34.29.2.2.6.14.8-.19.75.21.69.59.66a4.06,4.06,0,0,1,1.82.26,1.78,1.78,0,0,0,.56.1c.92.08,1.84-.32,2.77,0a.43.43,0,0,0,.39-.09.81.81,0,0,1,.93-.13,2.75,2.75,0,0,0,1,0c.71.16,1.44,0,2.12.13a4.43,4.43,0,0,0,2.08-.14c.7.2,1.4.37,2.09.62.44.16.83-.18,1.24-.09.09.08.25.15.26.24,0,.47,0,.47.38.59h0l.3.13c-.06.39-.15.62-.53.28s-1.18.06-1.54.46c.79-.12,1.48.21,2.22,0a5.17,5.17,0,0,1,1.91.17c.17,0,.5.13.48-.09,0-.39.16-.24.25-.21s.45.06.67.1c1,.19,2,0,2.86.71,0,0,.13,0,.2,0,.45,0,.89.08,1.34.17,1.63.33,3.27.58,4.91.89a16,16,0,0,0,3.76.52.6.6,0,0,1,.5.15,2.35,2.35,0,0,0,1.84.65,5.2,5.2,0,0,1,1.6.26,4.58,4.58,0,0,0,1.64.26c1.39,0,2.78.07,4.17,0a87.9,87.9,0,0,0,10.26-.38c1.44-.2,2.89-.22,4.31-.47,2.11-.37,4.2-.86,6.3-1.3a1.3,1.3,0,0,1,.67-.06,3.59,3.59,0,0,0,1.84-.1c.79.14,1.54-.34,2.32-.18a1.35,1.35,0,0,0,1-.13,1.55,1.55,0,0,1,.91-.19,22.62,22.62,0,0,0,3.59-.21,9.53,9.53,0,0,0,1.77-.06,9.61,9.61,0,0,1,2.66-.49,6.31,6.31,0,0,0,1.57-.34,6.43,6.43,0,0,0,1.87-.43c.29-.07.61.1.86-.14a3.56,3.56,0,0,1,1.73-.92c1.18-.3,2.31-.7,3.5-.07a.51.51,0,0,0,.74-.32.76.76,0,0,1,.8-.53,9.07,9.07,0,0,0,1.84-.36l2.58-.26c.51.09,1-.2,1.48-.23.11,0,.18-.08.13-.25-.12-.4.14-.56.38-.72l.87-.07v-.15l-.86-.05c-.28-.22-.29-.24-.2-.33.25-.26.45-.59.85-.66s.6,0,.81-.33a2.17,2.17,0,0,0,1.05-.25,4.62,4.62,0,0,1,.82.07,7.62,7.62,0,0,0,2.84-.31h0l0,0c.91,0,1.81.17,2.7.26,1.25.13,2.5-.08,3.75.15a9.79,9.79,0,0,0,2.81.05,5.6,5.6,0,0,1,1.08-.14c1.8.16,3.6.42,5.4.43a20.27,20.27,0,0,0,6.43-1,3.91,3.91,0,0,1,1.17.43.94.94,0,0,0,.82.18c.24,0,.42-.17.15-.47-.11-.13-.26-.33-.18-.46.31-.48,0-.58-.27-.75.24-.22.56-.09.82-.25.3,0,.41-.34.23-.41-.44-.17-.6-.76-1.07-.81a3,3,0,0,1-1.61-.37.43.43,0,0,1-.29-.31c-.23-.87-.37-1-1.12-1.06-.6-.07-1.17.23-1.76.13a.93.93,0,0,0-.61-.09,7,7,0,0,1-1.86-.18c.58-.22,1-.68,1.44-.4a.91.91,0,0,0,.88.09l2-.36c.14.25.26.36.46.05a1.08,1.08,0,0,1,.76-.43c.26-.06.73.2.77-.44l.12.1c0,.18-.07.36.18.36-.14.25-.24.45.18.37s.71-.18.71.53c.18-.35.11-.7.24-1l0-.07h0a.2.2,0,0,0,0-.11c.11-.45.4-.52.8-.37-.22,0-.48,0-.45.41s.32.23.49.3a.32.32,0,0,0,.38-.11,1.21,1.21,0,0,0,1.24-.23c.19-.2.48.09.67-.15.43.11.89,0,1.31.17l.06-.49c.08-.07.07-.16.06-.26s.17-.1.25-.09.43-.07.42-.3a.42.42,0,0,0-.42-.35c-.37,0-.75,0-1.12,0s-.42-.28-.43-.25c-.27.46-.4,0-.55-.13-.22.26,0,.46,0,.67a1.38,1.38,0,0,0-.55-.09,4,4,0,0,1-2.18-.27c-.17-.15.14-.48-.18-.6s0,.36-.29.25a.7.7,0,0,0-.46-.63c.07-.1.26-.08.21-.27s-.16-.11-.26-.09l-.91.12-1.59,0a2,2,0,0,0-1.14.12H196a.84.84,0,0,0-1.33-.4c-.06,0-.16,0-.25,0h0c-.17-.32-.36-.12-.53,0s-.27.23-.37.14c-.41-.35-.8,0-1.2,0a.38.38,0,0,0-.53,0c-.28.39-.47.29-.76,0a.58.58,0,0,0-.85-.06c-.25.24.16.31.16.5a4.63,4.63,0,0,1-1.53.06,5.12,5.12,0,0,0-.78.06c-.26.05-.43-.14-.62-.28a2.11,2.11,0,0,0-2.34.25c-.15.17-.32.23-.46.06a.72.72,0,0,0-.71-.26c-.59.07-.92-.38-1.34-.7.1-.17.18,0,.26,0,1.77-.26,3.56-.13,5.33-.35,1.12-.14,2.25-.06,3.37-.12s2-.25,2.95-.23a12.37,12.37,0,0,0,2.57-.32,2.5,2.5,0,0,0-.33-.09,32.46,32.46,0,0,0-3.82,0c-1.34.13-2.69.11-4,.11a5.23,5.23,0,0,1-2.36-.05,1.07,1.07,0,0,0-.58,0c-1.44.3-2.92.18-4.37.37a16.26,16.26,0,0,1-2-.11c-.1-.08-.25,0-.32-.12l.08-.22c0-.34.3-.43.44-.65a7.89,7.89,0,0,1,1.88-.11h.83a.4.4,0,0,0,.33-.58c.56-.09,1,.54,1.62.42-.08-.32-.35-.26-.43-.45l.48-.23.11.11a.55.55,0,0,0,.12.5c.14.15.41.19.37-.06-.08-.42.21-.38.34-.54l.31-.25h0a2,2,0,0,0,1.14.28.64.64,0,0,0,0-.07h0l0,.06c.24.49-.38.19-.34.52.35.12.63.08.74-.42.5.61.51.61,1,.12.05-.05.06-.06.15,0,.29.06.61.15.81-.24.32,0,.64.16.94-.08.15.13.3,0,.45,0s.3.06.31-.17-.15-.26-.29-.26c-.45,0-.91-.17-1.33.16-.22-.28-.47-.19-.73-.11h0a1.29,1.29,0,0,0-.84-.11.32.32,0,0,0-.09,0c-.19-.23-.37-.06-.54,0s-.22.26-.4.17.12-.33,0-.51l-.56.06a.16.16,0,0,1-.1,0c-.38-.25-.56.09-.75.35l0,.06h0l0-.06c-.11-.22-.19-.52-.44-.13a.18.18,0,0,1-.26.09.81.81,0,0,0-.86.07c-.07.05-.42,0-.57,0s-.51-.28-.28.27c0,.11-.12,0-.18.07a1,1,0,0,0-.95-.34c-.34-.54-.52-.54-.86,0a.23.23,0,0,1-.27.12c-.34-.05-.5-.29-.5-.89-.18.39-.34.45-.57.43s-.26.21-.21.45c-.43.14-.89-.31-1.33.08-.08.07-.36,0-.39.22s.19.24.32.32.13.08.1.19c-.55.33-1.08,0-1.62-.06-.08-.17-.42-.35,0-.5.09,0,.15-.06.09-.19s-.1-.18-.19-.17a.92.92,0,0,0-.58.34c-.21.21.07.26.15.37s-.1.17-.11.28l-.2.09c0-.23-.27-.34-.2-.59s.16-.44-.07-.57-.28.27-.46.34a4.17,4.17,0,0,1-1.15-.26c-.35-.4-.39.07-.53.25H173a1.12,1.12,0,0,1-.24-.13.76.76,0,0,0-1.2,0c-.12.11-.35.36-.59.13,0,0-.14,0-.17.08a.15.15,0,0,0,.11.21l.29.09c.12.72.12.72-.5.71,0-.23.07-.57-.31-.49a4.51,4.51,0,0,0-1-.67,2.3,2.3,0,0,0-.26,0c-.46,0-1-.24-1.37-.1-.81.33-1.64,0-2.42.34-.1.54-.33.65-1.1.56.57,0,.57,0,.76-.23a9.51,9.51,0,0,0-2.35-.75,5.4,5.4,0,0,0,1.44-.51c.32-.26.67,0,1-.17.06.26.17.42.43.32a1,1,0,0,0,1.07-.12c.6.44,1.26-.06,1.9.13.46.14.94-.18,1.43-.11.32-.08.65.14,1,0l-.56-.45a2.84,2.84,0,0,1,1.26-.11c.28,0,0,.12,0,.17s-.19,0-.16.09.19.3.36.29a6.77,6.77,0,0,1,1.35,0c.08,0,.19,0,.2-.1s-.07-.17-.16-.21h0c0-.12-.2,0-.22-.19l.14-.06c.11-.06.34,0,.31-.22s-.23-.09-.36-.1h-1.64c.11-.1.24-.08.32-.21s.19-.13,0-.2a1.67,1.67,0,0,0-.77,0c-.48.07-1-.12-1.46.11a1.63,1.63,0,0,0-1.15,0h-.21a6.46,6.46,0,0,0-2.8.19c.13.29.37.11.55.19s.41-.1.73.06a10.79,10.79,0,0,1-5.38.13c1.29-.34,2.52,0,3.72-.37-.48,0-.94-.29-1.39-.19a7.52,7.52,0,0,1-1.49.1c-1.14,0-2.28-.06-3.42,0a15.7,15.7,0,0,1-3.56,0c-.25,0-.46.37-.76.19-.16-.55.35-.25.44-.47.32,0,.63-.25,1-.1.1,0,.26.3.3,0,0-.15,0-.45-.27-.41a1.24,1.24,0,0,1-.71-.22,2.36,2.36,0,0,0-1.24-.26.27.27,0,0,0-.11-.05,2.25,2.25,0,0,0-.91-.19c-.16,0-.43,0-.23.35s.2.44-.14.41c-.88-.09-1.77-.13-2.64-.3a7.39,7.39,0,0,1-1.67-.34c1.42-.6,2.88-.29,4.34-.25a.45.45,0,0,0-.43-.33c-.66-.15-1.33-.29-2-.41a3.84,3.84,0,0,1-2.38-.91c-.05-.06-.22,0-.11-.18s.13,0,.2-.06c.13.2.22,0,.33,0a15.36,15.36,0,0,0,2.83-.48,21.47,21.47,0,0,0,2.23-.45c.4-.12.83,0,1.21-.28a4.55,4.55,0,0,0,2.41-.72,4.78,4.78,0,0,0,3.35-1.23c.93.06,1.79-.53,2.72-.36,0,0,.13,0,.13-.06,0-.56.34-.31.55-.32a1.94,1.94,0,0,0,.72-.06,6.46,6.46,0,0,1,2.47-.2c1.37,0,2.74.26,4.11.18a6.23,6.23,0,0,1,1.14.06,5,5,0,0,0,1.76,0,4.9,4.9,0,0,1,1.31-.2,25.71,25.71,0,0,0,4.21.19,1.55,1.55,0,0,1,1.11.18,1.24,1.24,0,0,0,1.11.16,2.68,2.68,0,0,1,1.09-.05,18.62,18.62,0,0,0,4.28.23,5.47,5.47,0,0,0,1.4-.16,2,2,0,0,0-.41-.19c-.74-.15-1.49-.27-2.24-.45-.56-.13-1.11-.39-1.69-.48-1.4-.22-2.82-.38-4.23-.56-.13-.19-.49-.14-.45-.42s.35-.12.53-.19l.29-.16c-.17-.16-.31-.31-.46-.43s-.23-.13-.2-.3.18-.19.29-.2a5.51,5.51,0,0,0,1.36-.48c.31,0,.62-.15.94,0,.15.38.44.29.68.24a8.27,8.27,0,0,1,2.38-.09,3.52,3.52,0,0,0,2.09-.62,1.27,1.27,0,0,0-1.06-.83c-.81,0-1.61-.15-2.43-.16-.38,0-.78.24-1.14,0a.74.74,0,0,0-.64-.1.08.08,0,0,1-.09,0c-.1-.86-.42-1.5-1.26-1.57-.31-.13-.57-.45-.95-.26-.26,0-.41-.07-.59-.4a1.81,1.81,0,0,0-1.66-.94A13.78,13.78,0,0,1,175,128a17.1,17.1,0,0,0-2.62-.45c-1.61-.06-3.13-.76-4.74-.79a3.85,3.85,0,0,1-.91-.21,18,18,0,0,1,4.69.26c1.55.17,3.11.39,4.67.51s3.06.67,4.68.72a2.41,2.41,0,0,0-1.78-.77,32.63,32.63,0,0,1-3.91-.68l-.06,0c-.4-.19-.91.07-1.31-.4.39-.16.73,0,1.06-.06h0c.34.3.7.18,1.13.06a1.14,1.14,0,0,0-.71-.31c-.28,0-.39-.59-.72-.41a1.56,1.56,0,0,1-.95.07c-.27-.08-.51-.41-.83-.15h0c0-.22-.4-.43-.06-.62.16-.1.28-.47.57-.24.06,0,.18,0,.2-.11a.52.52,0,0,0,0-.28c-.06-.1-.17-.06-.22,0-.18.28-.37.07-.49,0a.81.81,0,0,0-.79-.15c0-.37.34-.45.55-.76h-.56a1.8,1.8,0,0,1-.08-.21c-.05-.12.18-.33-.07-.38s-.2.1-.2.3-.12.14-.19,0-.16-.2-.29-.1l-.61-.25a.27.27,0,0,1,0-.09h.09c.35,0,.55-.4.91-.46.16,0,.06-.36-.19-.38l-.06-.08s0,0,0-.06c.31-.32.69.15,1-.12.14.15.11.52.42.48-.06.65-.06.65.56.61,0,0,0,0,.05.08,0,.21-.33,0-.32.32a2.91,2.91,0,0,0,1.09.67c.12-.29.36-.12.58-.26-.45.07-.12-.59-.49-.58,0-.33-.21-.4-.43-.47s0-.16,0-.24c.19.07.47.07.55.23.19.35.42.32.7.26s.6.34.86.43a3.48,3.48,0,0,0,2.13.32c.18,0,.44-.1.54.28a.25.25,0,0,0,.41.1.36.36,0,0,1,.32-.09,2.69,2.69,0,0,0,2-.09c.11-.06.24-.07.25-.25s-.11-.23-.24-.26l-.4-.11c-.16,0-.21-.16-.21-.36s.41-.31.44-.62a2.51,2.51,0,0,1,.2.29c.18.32.41.54.73.36a.93.93,0,0,1,.65-.08c.26,0,.58.15.72-.32,0-.13.17,0,.2.11s0,.28,0,.42a4.59,4.59,0,0,0-1.84.82c.34.32.61,0,.83.06.5.17,1,.51,1.38-.17,0,0,.07,0,.1,0,.52.07,1.07,0,1.52.38h1.15a.46.46,0,0,0,.73.21c.17-.1.48,0,.52-.33h.3c.22,0,.51,0,.66.08a.43.43,0,0,0,.61,0c.2-.14.33-.33.46.06,0,.1.15.11.23.08s0-.17,0-.24c.06-.28-.1-.66.31-.8l-.43-.24.37-.08c0-.16-.29,0-.26-.22s.27-.3.29-.27c.16.24.52-.27.54.15s.24.42.46.5a6.77,6.77,0,0,0,4.2,0,1.8,1.8,0,0,1,1.6,0,.23.23,0,0,0,.34-.1l-.9-.28c-.19-.06-.33-.08-.27-.42s-.07-.7-.54-.62c-.22,0-.69.18-.45-.48a1.1,1.1,0,0,0,0-.43c.6-.09,1.15.19,1.75.09a1.42,1.42,0,0,1-.63-1.27c.16-.65-.17-1.19-.22-1.75-.08-1-.74-.47-1-.79,0,0,0,0,0,0a1.42,1.42,0,0,0,1.14-.71.11.11,0,0,0,0-.08h0l-.05.07c.12.18.38,0,.46.22s.17.39.39.41.18,0,.21-.13-.17-.16-.22-.28.29,0,.36-.22h.17c.06.12.09.3.17.35.33.19.22.38,0,.6-.09.06-.27.05-.25.23a.21.21,0,0,0,.26.14c.4-.15.83,0,1.21-.2.13-.07.35,0,.36-.25s-.27-.08-.34-.26a2.4,2.4,0,0,0,.27-.16c.08,0,.23-.06.17-.22s-.13-.22-.24-.17-.52.1-.39.53c-.23-.17-.87.24-.62-.6l.3,0c.42.09.56-.48.9-.58h.15l.47.17c-.38.32-.38.32,0,.57,0,.26.14.64.35.55s.73,0,.93-.43c.36,0,.81-.13,1.06.07.68.55,1.07.61,1.61,0-.21-.22-.57.2-.66-.07-.21-.67-.73-.35-1.05-.57a.83.83,0,0,0,.58-.14,2,2,0,0,1,1.48-.37c.22,0,.53-.15.5.38,0,.14.21.18.35.1.49-.26,1-.25,1.55-.5.19-.1.57.09.56-.21S207,114.48,206.8,114.38Zm-17.05-72h0ZM187.25,35Zm-30.92-22.4h0ZM13.52,17.43Zm1.9-.05-.11,0h0l.14,0ZM42,11h0Zm9.6,1.34h0l0,0Zm1.57-6.6,0,0h0Zm0,19.5h0Zm.85.46Zm.79-16s0,0,0,0l.07,0A.18.18,0,0,1,54.77,9.61ZM56.93,5.4l0,0h0v0l0,0Zm2.18,4.74,0,0v0ZM27.87,34h0Zm7.55,10.34h.1C35.51,44.42,35.48,44.43,35.42,44.38ZM11,53.27h0Zm4.05.91Zm8.18,3.26h-.11a.92.92,0,0,0-.52,0l-.07,0c-.1-.07-.22-.08-.25,0-.16.43-.4.12-.6.11h-.14l-.08-.06c.1-.18.45-.13.37-.41a1.3,1.3,0,0,0,0-.13l.1-.06s.15.08.23.11a5.14,5.14,0,0,0,.78.16l.35,0a.55.55,0,0,1,.28.15A.78.78,0,0,0,23.25,57.44Zm-5.56,68.78v0h0Zm2.5,7.37ZM51.11,156l0,0h0Zm142.81-4.88h0Zm-1.9.06.11,0,0,0-.15,0Zm-26.53,6.41h0Zm-9.59-1.34v0l0,0Zm-1.58,6.6,0,0h0Zm0-19.5h0Zm-.85-.46Zm-.8,16.05s0,0,0,0l-.07,0Zm-2.16,4.22,0,0h0l0,0Zm-2.18-4.74h0Zm31.25-23.91h0ZM172,124.17h-.1S172,124.11,172,124.17Zm4-95.07h0Zm-.65,2.78h0Zm-1.91-6.16s0,0,0,0h0Zm-4-2.19v0l0,0Zm-1.91,9.56v0l0,0Zm-1.69-6.67v0l0,0Zm-1.89.45v0h0Zm-2.73,7.93h0l0,.07A.14.14,0,0,0,161.23,34.8Zm-.34.25h0Zm-5.28-12.13h0Zm-.12,8.72h0Zm-2.63,9.13a.31.31,0,0,1,0,.1h-.06A.19.19,0,0,1,152.86,40.77Zm-1.64-2.17h0Zm-1-2h0Zm-.31.61s0,0,0,0l0,0Zm-2.42-16v0h0Zm-.52,9.62v.05l-.05,0ZM64.05,2.64a.28.28,0,0,1,.38,0,4.13,4.13,0,0,0-.49.07ZM50.62,29.92h0l0,0h0A.08.08,0,0,0,50.62,29.92ZM43.76,44.58h0Zm-2.34.29Zm-1.89-.7h0Zm-8.4,2.23a.14.14,0,0,0,0,.06h0Zm.31,93h0Zm.64-2.77v0h0ZM34,142.82v0h0ZM38,145v0l0,0Zm1.91-9.56v0l0,0Zm1.7,6.68v0Zm1.89-.46h0Zm2.72-7.93h0l0-.06S46.22,133.72,46.21,133.74Zm.35-.25h0Zm5.27,12.14h0Zm.13-8.72v0Zm2.63-9.13a.18.18,0,0,1,0-.11l.06,0ZM56.23,130l0,0h0Zm1,2v0h0Zm.3-.61s0,0,0-.05l0,.05ZM60,147.28l0,0h0Zm.51-9.61v-.06l.05,0Zm82.89,28.24a.3.3,0,0,1-.39,0,4.26,4.26,0,0,0,.5-.06Zm13.42-27.28h0l0,0h0ZM163.69,124h0Zm2.34-.29Zm1.88.71v0h0Zm8.4-2.24s0,0,0-.06h.05Zm9.31-10.59-.1,0s-.15-.07-.23-.1a5.31,5.31,0,0,0-.77-.17l-.35,0a.43.43,0,0,1-.28-.15,1,1,0,0,0,.3,0h.11a1.06,1.06,0,0,0,.53,0l.07,0c.09.07.21.08.24,0,.17-.43.4-.13.6-.11a.39.39,0,0,0,.15,0l.07.07c-.1.17-.45.12-.37.4A.44.44,0,0,1,185.62,111.55Zm6.72,2.83,0,0h0Zm4.08.9h0Z"/><path class="cls-1" d="M47.2,154.3c-.33-.27-.67,0-1,0a3.64,3.64,0,0,0-.57,0,7.8,7.8,0,0,1-1.72-.33l-1.68-.48c0-.05-.09-.12-.14-.16-.6-.53-1.29-.31-2-.34a18.41,18.41,0,0,1-3.08-.82,6.06,6.06,0,0,0-1.72-.4,6.41,6.41,0,0,0-1.26-.48,2,2,0,0,0-.81-.28,3.83,3.83,0,0,0-1.48-.47,3.41,3.41,0,0,0-1.46-.51c-.43-.1-.83-.57-1.32-.22,0,0-.13-.05-.2-.07-.45-.13-.9-.27-1.36-.37-.19,0-.48-.14-.52.18s.22.45.43.5a2.22,2.22,0,0,0,.73,0,1.33,1.33,0,0,1,1.45.91.57.57,0,0,0,.58.31,2.39,2.39,0,0,1,1.24.13c.14.75.65.58,1.09.59l.31,0c.59-.09.75,0,.85.73,0,.1.06.14.14.14.27,0,.51.16.81.11a4.92,4.92,0,0,1,1.52-.23h.31a1.56,1.56,0,0,0,1,.38,1.52,1.52,0,0,1,1.48.65.39.39,0,0,0,.27.15c.8,0,1.57.31,2.38.24.11,0,.23-.1.29.09s-.37.09-.43.4c.34.1.7,0,1,.16h0c.12.15.3.3.16.51s-.27,0-.42,0a2.29,2.29,0,0,0-1.69.26,3.37,3.37,0,0,0,1.91.26c.34-.08.77-.16.94.1.33.51.77.3,1.15.44a.15.15,0,0,0,.22-.1.16.16,0,0,0-.13-.21c-.4,0-.42-.4-.5-.71.13-.1.31-.11.36,0,.36.54,1,0,1.36.5.09.11.15-.09.22-.15.34-.27.47-.94,1.06-.74.13,0,.33.07.37-.2S47.33,154.41,47.2,154.3Zm-13.54-3h0v0ZM44,154.89a2.83,2.83,0,0,0,0-.4h0C44.26,154.81,44.15,154.88,44,154.89Z"/><path class="cls-1" d="M21.54,147c-.6-.36-1.16-.88-1.91-.66a.14.14,0,0,1-.18-.07c-.15-.35-.42-.36-.71-.38-.1,0-.28-.11-.3-.19-.13-.64-.52-.49-.86-.38a3.17,3.17,0,0,1-.86.11l-.41-.26c-.09-.29-.72-.22-.39-.8,0-.07,0-.14-.1-.16-.74-.23-1.47-.63-2.22,0a2.52,2.52,0,0,1-.57.21,1,1,0,0,1,.23.14,2.26,2.26,0,0,0,2.3.93h0a2.12,2.12,0,0,0,2.41.4c0,.12,0,.18,0,.2a.46.46,0,0,0-.26.56c.08.35.28.19.45.16s.19.06.19.24c0,.45.22.64.61.61a7,7,0,0,1,.92.08c.33,0,.48.47.8.38a3.4,3.4,0,0,1,1.31,0,1.3,1.3,0,0,0,.71-.07C22.22,147.71,21.65,147.67,21.54,147Z"/><path class="cls-1" d="M180.93,140.11a3.23,3.23,0,0,0-1.08-.37c-1.44.1-2.81-.43-4.22-.52a1.57,1.57,0,0,0-.93-.24c-.21,0-.58-.08-.57.19s.34.17.55.18a4.27,4.27,0,0,0,.6.21c1.72.27,3.44.57,5.17.73A.47.47,0,0,0,180.93,140.11Z"/><path class="cls-1" d="M202.8,122.08a1.61,1.61,0,0,0,.79.4c.36,0,.37-.41.48-.69s0-.46-.27-.5l-.47-.06c-.31,0-.64-.09-.79.26S202.65,122,202.8,122.08Z"/><path class="cls-1" d="M17.15,129.77l.57,0c.12,0,.25,0,.31-.15s-.07-.24-.15-.35a1,1,0,0,0-1.53-.13c-.11.08-.27.17-.24.36s.22.22.37.24S17,129.76,17.15,129.77Z"/><path class="cls-1" d="M197.4,120.44c1.69.33,3.34.62,5.14.81C202.12,120.84,197.92,120.24,197.4,120.44Z"/><path class="cls-1" d="M202.22,154.9a5.93,5.93,0,0,0-1.9-.09,3.61,3.61,0,0,0,1.88.45.2.2,0,0,0,.24-.16C202.45,155,202.32,154.92,202.22,154.9Z"/><path class="cls-1" d="M187.07,109.5c0,.29.45.3.75.32s.58.07.6-.25-.38-.17-.57-.28a.09.09,0,0,0-.1,0C187.52,109.42,187.08,109.07,187.07,109.5Z"/><path class="cls-1" d="M194.44,143.43a.17.17,0,0,0,.17.19,4.57,4.57,0,0,0,2-.36h-2A.15.15,0,0,0,194.44,143.43Z"/><path class="cls-1" d="M177.58,144.25c.19-.54-.19-.38-.38-.42s-.33-.06-.3.18.1.58.43.57C177.51,144.57,177.76,144.61,177.58,144.25Z"/><path class="cls-1" d="M193,145.45a1.75,1.75,0,0,1-1.28.21c-.1,0-.21.07-.21.21s.13.15.23.15h.68a.81.81,0,0,0,.82.08c.12,0,.31,0,.31-.2s-.18-.19-.3-.25S193.09,145.4,193,145.45Z"/><path class="cls-1" d="M199.7,123.1a6.88,6.88,0,0,0-1.76-.23C199.32,123.45,199.32,123.45,199.7,123.1Z"/><path class="cls-1" d="M174.48,124c-.25,0-.59-.14-.72.27-.06.2.14.2.24.22.27,0,.49-.15.73-.22C174.72,124,174.58,123.93,174.48,124Z"/><path class="cls-1" d="M183.41,124.56a.35.35,0,0,0,.34.38.36.36,0,0,0,.37-.33c0-.26-.22-.17-.34-.25S183.43,124.31,183.41,124.56Z"/><path class="cls-1" d="M187.21,124.16a2.13,2.13,0,0,0-.5.11c-.14.06-.3.16-.12.38.13.45.51.39.79.53C187.21,124.86,187.64,124.41,187.21,124.16Z"/><path class="cls-1" d="M188.22,103.55c0-.16-.13-.23-.26-.2a.61.61,0,0,0-.47.45c0,.13.12.14.24.16A.6.6,0,0,0,188.22,103.55Z"/><path class="cls-1" d="M174.27,160.48a1.29,1.29,0,0,0,1.28,0A1.8,1.8,0,0,0,174.27,160.48Z"/><path class="cls-1" d="M176.18,144.9c.71.3.71.3,1.08,0C176.93,144.6,176.61,144.86,176.18,144.9Z"/><path class="cls-1" d="M14.61,112.25c0-.28-.2-.09-.29-.16s-.4,0-.41.23.21.21.33.2S14.59,112.44,14.61,112.25Z"/><path class="cls-1" d="M185.55,146.55c-.14,0-.37.08-.24.45.19-.37.47-.25.77-.16C186,146.46,185.74,146.48,185.55,146.55Z"/><path class="cls-1" d="M93.71,165.12s0,.14,0,.16c.2.16.4.13.69-.09C94.11,165.11,93.92,164.88,93.71,165.12Z"/><path class="cls-1" d="M181.06,109.27c.14.23.3.32.5.27a.12.12,0,0,0,0-.19C181.44,109.21,181.28,109.1,181.06,109.27Z"/><path class="cls-1" d="M202.25,111.41c.19.09.37.23.56.06a.22.22,0,0,0,0-.16A.39.39,0,0,0,202.25,111.41Z"/><path class="cls-1" d="M204.76,115.76c0,.15.13.16.23.17a.2.2,0,0,0,.22-.18c0-.15-.13-.17-.24-.17S204.76,115.6,204.76,115.76Z"/><path class="cls-1" d="M193.83,123.72c-.18-.13-.34-.18-.5,0a.12.12,0,0,0,0,.19A.32.32,0,0,0,193.83,123.72Z"/><path class="cls-1" d="M160.24,14.24c.34.27.67,0,1,0a2.59,2.59,0,0,0,.56,0,7.91,7.91,0,0,1,1.73.34l1.68.47a1.09,1.09,0,0,0,.13.17c.6.52,1.29.3,2,.33a18.41,18.41,0,0,1,3.08.82,5.45,5.45,0,0,0,1.72.4,6.7,6.7,0,0,0,1.26.49,2.44,2.44,0,0,0,.81.28,4,4,0,0,0,1.48.46,3.43,3.43,0,0,0,1.46.52c.44.09.83.56,1.33.22,0,0,.12,0,.19.06.45.13.9.28,1.36.38.19,0,.48.14.53-.19s-.23-.44-.44-.5a2.47,2.47,0,0,0-.72,0,1.33,1.33,0,0,1-1.46-.91.55.55,0,0,0-.58-.3,2.46,2.46,0,0,1-1.23-.14c-.15-.75-.66-.58-1.1-.58a1.53,1.53,0,0,0-.3,0c-.6.08-.76-.05-.86-.74a.14.14,0,0,0-.14-.14c-.27,0-.51-.16-.81-.11a5.19,5.19,0,0,1-1.52.24h-.31a1.55,1.55,0,0,0-1-.37,1.55,1.55,0,0,1-1.48-.65.43.43,0,0,0-.28-.16c-.8,0-1.57-.31-2.37-.23-.12,0-.24.09-.3-.1s.37-.08.43-.4a5.6,5.6,0,0,1-1-.16h0c-.12-.14-.29-.29-.16-.51s.28,0,.42,0A2.33,2.33,0,0,0,167,13a3.46,3.46,0,0,0-1.91-.26c-.34.09-.77.17-.94-.1-.33-.5-.77-.29-1.15-.44a.16.16,0,0,0-.22.1.17.17,0,0,0,.14.22c.39,0,.41.39.49.7-.13.1-.31.12-.36,0-.36-.55-1,0-1.36-.5-.09-.11-.15.09-.22.15-.34.27-.47.93-1.06.73-.13,0-.33-.06-.37.2S160.12,14.14,160.24,14.24Zm13.54,3h0Zm-10.33-3.63a3,3,0,0,0,0,.4h0C163.19,13.73,163.29,13.67,163.45,13.65Z"/><path class="cls-1" d="M185.91,21.54c.6.36,1.16.88,1.91.66a.12.12,0,0,1,.17.08c.15.34.42.35.71.38.11,0,.28.1.3.19.13.63.53.48.86.37a3.23,3.23,0,0,1,.87-.1l.4.25c.09.29.72.23.39.81,0,.06,0,.13.1.16.74.23,1.47.62,2.22,0a1.83,1.83,0,0,1,.57-.21c-.09-.06-.17-.08-.22-.14a2.27,2.27,0,0,0-2.3-.94h0a2.16,2.16,0,0,0-2.42-.4c0-.12,0-.18,0-.19a.49.49,0,0,0,.27-.57c-.09-.34-.28-.19-.46-.15s-.18-.06-.18-.25c0-.45-.23-.64-.62-.6a5.62,5.62,0,0,1-.92-.09c-.33,0-.48-.47-.79-.37a3.39,3.39,0,0,1-1.31,0,1.43,1.43,0,0,0-.72.07C185.22,20.84,185.79,20.87,185.91,21.54Z"/><path class="cls-1" d="M26.52,28.44a3.13,3.13,0,0,0,1.08.36c1.43-.09,2.8.43,4.22.52a1.45,1.45,0,0,0,.92.24c.22,0,.58.08.58-.19s-.35-.16-.56-.17a3.29,3.29,0,0,0-.6-.21c-1.72-.27-3.43-.57-5.17-.73A.44.44,0,0,0,26.52,28.44Z"/><path class="cls-1" d="M4.65,46.47a1.71,1.71,0,0,0-.8-.41c-.35,0-.37.41-.47.7s0,.46.27.5l.46.05c.31,0,.64.1.79-.26S4.79,46.58,4.65,46.47Z"/><path class="cls-1" d="M190.29,38.77c-.25,0-.41,0-.56,0s-.26,0-.32.16.07.24.15.34a1,1,0,0,0,1.53.14c.11-.09.27-.17.24-.36s-.22-.22-.37-.25S190.45,38.79,190.29,38.77Z"/><path class="cls-1" d="M10.05,48.11c-1.7-.33-3.35-.62-5.15-.82C5.32,47.7,9.52,48.3,10.05,48.11Z"/><path class="cls-1" d="M5.22,13.65a5.67,5.67,0,0,0,1.9.08,3.71,3.71,0,0,0-1.88-.45.2.2,0,0,0-.24.17C5,13.59,5.12,13.62,5.22,13.65Z"/><path class="cls-1" d="M20.37,59c0-.28-.45-.29-.75-.32S19,58.66,19,59s.38.17.57.29a.17.17,0,0,0,.1,0C19.92,59.12,20.36,59.47,20.37,59Z"/><path class="cls-1" d="M13,25.11a.19.19,0,0,0-.17-.19,4.57,4.57,0,0,0-2,.37h2C13,25.29,13,25.23,13,25.11Z"/><path class="cls-1" d="M29.86,24.3c-.19.53.19.37.38.41s.33.07.3-.18-.1-.58-.43-.57C29.93,24,29.68,23.93,29.86,24.3Z"/><path class="cls-1" d="M14.49,23.09a1.75,1.75,0,0,1,1.28-.21c.1,0,.21-.07.21-.2s-.12-.15-.22-.16h-.68a.83.83,0,0,0-.83-.09c-.12,0-.31,0-.31.2s.19.19.3.26S14.36,23.15,14.49,23.09Z"/><path class="cls-1" d="M7.74,45.45a6.91,6.91,0,0,0,1.77.22C8.12,45.1,8.12,45.1,7.74,45.45Z"/><path class="cls-1" d="M33,44.6c.25-.05.59.13.72-.28.06-.2-.14-.19-.24-.21-.27,0-.49.15-.73.22C32.72,44.57,32.87,44.62,33,44.6Z"/><path class="cls-1" d="M24,44a.36.36,0,0,0-.72,0c0,.25.23.17.34.25S24,44.23,24,44Z"/><path class="cls-1" d="M20.23,44.39a4,4,0,0,0,.5-.11c.15-.06.3-.17.12-.39-.13-.45-.51-.39-.79-.52C20.23,43.68,19.81,44.13,20.23,44.39Z"/><path class="cls-1" d="M19.22,65c0,.15.13.22.26.2a.63.63,0,0,0,.48-.46c0-.13-.13-.14-.25-.15A.57.57,0,0,0,19.22,65Z"/><path class="cls-1" d="M33.17,8.07a1.27,1.27,0,0,0-1.28,0A1.86,1.86,0,0,0,33.17,8.07Z"/><path class="cls-1" d="M31.26,23.65c-.71-.31-.71-.31-1.08,0C30.51,23.94,30.83,23.69,31.26,23.65Z"/><path class="cls-1" d="M192.84,56.29c0,.29.19.1.28.16s.4,0,.41-.22-.2-.21-.33-.2S192.86,56.1,192.84,56.29Z"/><path class="cls-1" d="M21.89,22c.14,0,.37-.08.24-.45-.19.37-.46.26-.77.16C21.49,22.08,21.7,22.06,21.89,22Z"/><path class="cls-1" d="M113.74,3.43a.25.25,0,0,0,0-.17c-.21-.15-.41-.13-.7.09C113.33,3.43,113.52,3.66,113.74,3.43Z"/><path class="cls-1" d="M26.39,59.28c-.15-.24-.31-.33-.5-.27a.11.11,0,0,0,0,.19C26,59.34,26.16,59.45,26.39,59.28Z"/><path class="cls-1" d="M5.19,57.13c-.19-.09-.37-.22-.56-.05,0,0,0,.14,0,.15A.39.39,0,0,0,5.19,57.13Z"/><path class="cls-1" d="M2.68,52.79c0-.16-.13-.17-.22-.17a.2.2,0,0,0-.23.18c0,.15.13.16.24.16S2.69,52.94,2.68,52.79Z"/><path class="cls-1" d="M13.61,44.82c.18.14.34.18.5,0a.1.1,0,0,0,0-.18A.32.32,0,0,0,13.61,44.82Z"/></svg>