<svg id="Layer_1" data-name="Layer 1" xmlns="http://www.w3.org/2000/svg" viewBox="0 0 216.57 165.23"><defs><style>.cls-1{fill:#ff8dd5;}</style></defs><title>brush-strokes</title><polygon class="cls-1" points="182.01 157.68 182.01 157.68 182.01 157.68 182.01 157.68"/><path class="cls-1" d="M102,162.15l-.8-.07c-.51,0-.73.1-.66.49s.44.23.7.24.32.05.43-.05-.29-.13-.32-.27a1,1,0,0,1,.65,0c.17,0,.26,0,.26-.16S102.09,162.16,102,162.15Z"/><path class="cls-1" d="M139.67,164c-.49,0-.47.17-.19.41s.07.19,0,.26-.3.14-.35,0c-.14-.31-.45-.1-.66-.19s-.21,0-.21.09.08.16.2.15c.44,0,.28.11.18.25s0,.27.18.26.62.06.77-.18l.11-.05.22,0c.12-.18-.06-.37,0-.55C140.12,164.26,140,164.1,139.67,164Z"/><path class="cls-1" d="M198.44,133.43a1,1,0,0,0-.81.31h2.26c.11,0,.19-.06.19-.14s-.12-.12-.23-.14A5.56,5.56,0,0,0,198.44,133.43Z"/><path class="cls-1" d="M192.64,128.15a1.34,1.34,0,0,1-.92-.08c-.13,0-.3-.11-.36,0s.07.24.28.29a2.71,2.71,0,0,0,1,.13l.28,0c.2,0,.47.06.51-.07s-.27-.22-.45-.28A.72.72,0,0,0,192.64,128.15Z"/><path class="cls-1" d="M188.21,131c.1.06.17,0,.21,0a1.18,1.18,0,0,1,1.14-.58.16.16,0,0,0,.16-.2.13.13,0,0,1,0-.06,1.26,1.26,0,0,0-1.82-.39,6.87,6.87,0,0,1-.87-.21c-.17,0-.34,0-.35.12s.15.18.3.18A3.79,3.79,0,0,1,188,130h0c.1.23.35.46,0,.67C188,130.77,188.09,130.91,188.21,131Z"/><path class="cls-1" d="M120.74,163.43c-.23,0-.31-.11-.43-.21a.38.38,0,0,0-.19-.05c-.08,0-.08.07-.08.12a.94.94,0,0,0,.84.64c.09-.07.36.2.33-.06S121.23,163.4,120.74,163.43Z"/><path class="cls-1" d="M170.12,159.64c-.33,0-.69-.33-1,0-.3.12-.6-.25-.94,0,.41,0,.46.29.73.4.46.18.77-.18,1.22-.11C170.2,159.87,170.22,159.66,170.12,159.64Z"/><path class="cls-1" d="M12.77,143.6c0-.14.05-.28-.24-.31a6.85,6.85,0,0,0-1.49-.15c-.22,0-.6,0-.56.2s.38.25.66.23c.36.4.85.23,1.29.24s.93.28,1.42.34c.32,0,.62.08.85-.14C14,144.1,13.42,143.7,12.77,143.6Z"/><path class="cls-1" d="M104.47,162.51a.45.45,0,0,0-.54-.12c-.12,0-.13.12-.08.2s.3.14.47.15a6.45,6.45,0,0,1,1.33,0C105.18,162.43,104.83,162.33,104.47,162.51Z"/><path class="cls-1" d="M163.16,148.43c.09-.15,0-.2-.24-.22,0,0,0-.06-.07-.1-.11-.3-.43-.16-.66-.2s-.17.09-.17.19-.21.4.22.3a.61.61,0,0,1,.52.07C162.88,148.52,163.09,148.56,163.16,148.43Z"/><path class="cls-1" d="M191.37,154a7.83,7.83,0,0,0-2-.18A7.05,7.05,0,0,0,191.37,154Z"/><path class="cls-1" d="M178.42,146.47a1.57,1.57,0,0,0-.23,0c-.13.06-.42.05-.32.22s.32.11.49.07.23-.12.3-.1.38.19.41,0-.29-.09-.43-.17S178.5,146.5,178.42,146.47Z"/><path class="cls-1" d="M145.63,162.33c-.1,0-.33,0-.3.15s0,.26.26.24.5,0,.52-.15S145.8,162.39,145.63,162.33Z"/><path class="cls-1" d="M137.65,164.49c-.24,0-.58,0-.53.37l.54-.08c.12,0,.17-.08.16-.16A.14.14,0,0,0,137.65,164.49Z"/><path class="cls-1" d="M192.56,131.62c-.05.23-.18.39-.15.6C192.83,132.19,192.87,132.07,192.56,131.62Z"/><polygon class="cls-1" points="192.41 132.22 192.41 132.22 192.41 132.22 192.41 132.22 192.41 132.22"/><path class="cls-1" d="M153,162.89c-.17,0-.35,0-.36.15s.18.14.31.19.32,0,.31-.18S153.13,162.9,153,162.89Z"/><path class="cls-1" d="M175.72,129.31c-.13,0-.24,0-.24.15a.31.31,0,0,0,.32.17c.12,0,.27,0,.26-.11S175.89,129.32,175.72,129.31Z"/><path class="cls-1" d="M12.3,145.13c-.12,0-.32,0-.3.14s.18.12.3.14a3.69,3.69,0,0,0,1,.09c.33,0,.63.24,1,.13a1.43,1.43,0,0,0-1-.29A2.35,2.35,0,0,0,12.3,145.13Z"/><path class="cls-1" d="M162.3,149c0,.12.18.13.29.15s.3,0,.29-.12-.16-.14-.28-.16S162.29,148.91,162.3,149Z"/><path class="cls-1" d="M182.62,157.79a1.46,1.46,0,0,0-.61-.11C182,158,182,158,182.62,157.79Z"/><polygon class="cls-1" points="182.01 157.68 182.01 157.68 182.01 157.68 182.01 157.68"/><path class="cls-1" d="M157.47,148.16c-.2,0-.23.12-.24.23s.05.18.2.21.44.13.5,0-.16-.14-.3-.15S157.71,148.17,157.47,148.16Z"/><path class="cls-1" d="M174.41,150.05a2,2,0,0,0,.88.08A.83.83,0,0,0,174.41,150.05Z"/><path class="cls-1" d="M158,148.07c0,.07,0,.17.15.18s.38,0,.26-.18C158.23,148,158.06,147.87,158,148.07Z"/><polygon class="cls-1" points="158.37 148.07 158.38 148.07 158.37 148.07 158.37 148.07 158.37 148.07"/><path class="cls-1" d="M174.93,128.69v-.11l-.73-.11A.74.74,0,0,0,174.93,128.69Z"/><path class="cls-1" d="M197.73,140.68c.27.07.45.14.55,0a.13.13,0,0,0-.09-.2C198,140.43,198,140.6,197.73,140.68Z"/><path class="cls-1" d="M108.73,162c.21.06.39.1.51,0s0-.13-.08-.16A.33.33,0,0,0,108.73,162Z"/><path class="cls-1" d="M137.5,164a.2.2,0,0,0-.19-.2c-.1,0-.16.05-.14.12s.05.22.23.23S137.51,164.08,137.5,164Z"/><path class="cls-1" d="M163.25,147.64a.2.2,0,0,0-.2-.1c-.11,0-.19,0-.19.13a.24.24,0,0,0,.24.13C163.21,147.79,163.28,147.73,163.25,147.64Z"/><path class="cls-1" d="M202,107.62c.08,0,.16-.05.13-.13s-.13-.07-.21-.08-.13,0-.12.09S201.85,107.61,202,107.62Z"/><path class="cls-1" d="M140.23,164.62a.13.13,0,0,0-.17,0c-.09.12,0,.18.15.24h.1C140.31,164.8,140.38,164.7,140.23,164.62Z"/><path class="cls-1" d="M151.19,163.31c-.12,0-.19,0-.19.08s.07.17.17.16.21,0,.2-.12S151.27,163.32,151.19,163.31Z"/><path class="cls-1" d="M140.83,160.89c-.13,0-.21,0-.21.11s.07.12.19.12.21,0,.21-.11S140.92,160.91,140.83,160.89Z"/><path class="cls-1" d="M171.72,144.63c-.13,0-.21,0-.2.12a.26.26,0,0,0,.27.22c.13,0,.22-.07.2-.17A.27.27,0,0,0,171.72,144.63Z"/><path class="cls-1" d="M144,164.49a2.83,2.83,0,0,0-.6,0l.37.07Z"/><path class="cls-1" d="M142.05,164c.08-.07-.08-.12-.15-.16a1.28,1.28,0,0,1-.84-.06c-.21,0-.23.09-.21.21l.11.05,1,.19A.47.47,0,0,1,142.05,164Z"/><path class="cls-1" d="M142.86,164.25h0c.2,0,.32,0,.28-.21a.35.35,0,0,1,0-.18l-.54-.06C142.72,163.93,142.76,164.12,142.86,164.25Z"/><path class="cls-1" d="M144.15,163.9c-.07,0-.41-.05-.93-.14a.18.18,0,0,0-.07.1A3.57,3.57,0,0,0,144.15,163.9Z"/><path class="cls-1" d="M194.1,144a8.58,8.58,0,0,0-1.6-.37.19.19,0,0,1-.06.12C193.42,143.88,194.06,144,194.1,144Z"/><path class="cls-1" d="M140.4,164.34c.06,0,.09,0,.1-.06s.18,0,.28,0,.29,0,.31-.06-.05-.11-.13-.14l-.52-.1c-.1.08-.12.2-.22.28S140.29,164.35,140.4,164.34Z"/><path class="cls-1" d="M139.66,163.52c-.16,0-.12.3-.42.21l1.2.23a.34.34,0,0,1,.17-.06,4.8,4.8,0,0,0-.9-.48h0Z"/><path class="cls-1" d="M2.24,78.46c-.22.17.12.43,0,.55a.55.55,0,0,1-.59,0,.66.66,0,0,0-.77.13,11.74,11.74,0,0,0,1.4.34c.55.05.51.42.51.74s-.32.21-.54.2L0,80.31a4.12,4.12,0,0,0,1.65.25c.19,0,.44,0,.46.23s.26.49.24.8L.29,81.38c-.1,0-.25-.07-.26.08s.15.16.27.17L2,81.76c.37,0,.71,0,.46.53-.06.12,0,.28.09.43.12.5.54.93.64,1.39a2.46,2.46,0,0,0,1.5,1.66,21.11,21.11,0,0,0,5.66,2.37c.1.19.34.09.46.24a.16.16,0,0,1-.1,0,1.21,1.21,0,0,0-.38,0,1.62,1.62,0,0,0-1.26,1c-.07.17-.33.29-.2.53s.36.16.56.14l.31.06c.18.16.38.1.58.12a1,1,0,0,0,.71.23c.19.2.17.61.6.57l.57.26c.46.53,1.1.27,1.63.48l.1,0a.71.71,0,0,0,.21.83,4.7,4.7,0,0,1-1.44.09.64.64,0,0,0-.64.32c-.64.3-1.42.25-2.22.57a3,3,0,0,0,1,.17h0c.33.26.54.49-.08.56-.1,0-.24,0-.26.14s.15.19.26.25a2.32,2.32,0,0,0,.36.16c0,.07-.2.15,0,.18.53.11,1,.49,1.57.4h0c0,.47-.43.85-.1,1.39.07.12-.13.34-.38.36s-.26,0-.12.19a.43.43,0,0,1,0,.64c-.12.17,0,.28.15.32a.46.46,0,0,1,.38.37c-.17.06-.18.17-.06.43a.56.56,0,0,1,0,.12c-.14.21-.17.52-.47.52s-.26.25-.34.4.11.23,0,.29c-.5.19-.1.35.06.5a.74.74,0,0,0,.69.18l.74.2c-.09.56-.83,1-.6,1.61,0,0,0,.06-.08.1-.27.32-.16.53.28.62a1.85,1.85,0,0,0-.33.21,2.17,2.17,0,0,0-.53.1c-.2.1-.59,0-.5.41a.64.64,0,0,0,.65.57h0a4.21,4.21,0,0,0,.77.56l0,.2c0,.43-.08.49.54.49a9.45,9.45,0,0,1,1.07.08,3.66,3.66,0,0,0,1,.44c.17,0,.36.07.42.26s.27.32.46.41a6.63,6.63,0,0,1-1,.39,3,3,0,0,0-2-.62.16.16,0,0,1-.19-.08c-.18-.32-.48-.34-.79-.37-.12,0-.31-.1-.34-.19-.17-.57-.59-.45-1-.37a4.21,4.21,0,0,1-.94.06L9.63,106c-.11-.27-.79-.23-.46-.74,0-.06,0-.13-.12-.15-.81-.24-1.62-.63-2.42-.13a2.33,2.33,0,0,1-.61.17,1.42,1.42,0,0,1,.25.13,2.91,2.91,0,0,0,2.55.94h0a2.8,2.8,0,0,0,2.65.47c0,.1,0,.16,0,.17-.2.1-.35.23-.26.5s.31.19.51.16.2.06.21.23c0,.41.27.59.69.57a8.44,8.44,0,0,1,1,.12c.27,0,.44.26.65.35-.11,0-.22-.07-.25,0a.93.93,0,0,0,.09.93c.29.19.46-.06.7,0,0,.38-.48.61-.49,1a1.45,1.45,0,0,1-.52,1.13c-.28.26-.56.51-.45.9,0,.13-.11.19-.23.26s-.24.13-.14.28.16.28.41.28a.47.47,0,0,1,.37.11c.28.28.2.43-.48.51-.52.06-.55.27-.35.52s.06.67-.08.91,0,.38.25.44a3.32,3.32,0,0,0,.89.15c.61,0,1.12.4,1.74.34a7.67,7.67,0,0,0,3.25.75,7.24,7.24,0,0,1,1.81.33,1.61,1.61,0,0,0,1.21.09.92.92,0,0,1,.69,0,13.26,13.26,0,0,0,1.53.41,2,2,0,0,0,1.24,0,1.21,1.21,0,0,1,1.21,0,3.66,3.66,0,0,0,1,.34c.16,0,.41-.06.5,0a3.43,3.43,0,0,0,2,.51c.54,0,.83.3,1.24.45.74.28,1.53.46,2.26.76a2.4,2.4,0,0,0,1.3.2,6,6,0,0,1,1.67.23.24.24,0,0,1,.13.13c.15.3.46.33.83.35a7.74,7.74,0,0,1,1.92.42,13.74,13.74,0,0,1,1.92.58c.21.1.3,0,.34-.16s-.13-.13-.26-.18a2,2,0,0,1-1-.68c.42.12.86,0,1.24.26a.55.55,0,0,0,.54,0,1.21,1.21,0,0,1,1.06-.14c.08.06.24.12.23.15a.2.2,0,0,1-.26.13.8.8,0,0,0-.92.35c-.22.2-.28.34.17.53.27.11.43.49.77.47.67,0,1.09.33,1.63.48l-.64,0c-.1,0-.28,0-.24.06.14.33-.25.24-.42.27a6,6,0,0,1-1.7-.25,31.24,31.24,0,0,0-4.2-.25c-2.25.06-4.51.15-6.76.23a24.33,24.33,0,0,0-2.57.09,3.66,3.66,0,0,0-1.29.13l-.41,0a29.79,29.79,0,0,0-3.41,0,21.51,21.51,0,0,0-4.71.39,18,18,0,0,0-5.5,1.21,6.08,6.08,0,0,1-1,.3c-.66.16-1.42.23-1.71.79a1.32,1.32,0,0,0-.53.1c-.35.13-.52.26-.56.47-.07,0-.11.08-.05.15l.05.05a.59.59,0,0,0,0,.13.23.23,0,0,1-.08.13c-.14.11-.17.21.08.29s.12.11.11.19c-.08.54.3.94,1,1.1.18,0,.37,0,.46.23s.29.14.46.15a19.1,19.1,0,0,0,2.6.68c.57.07,1.13.17,1.69.24a19.58,19.58,0,0,1,3.15,1c-.28.07-.39.18-.45.36s-.7.37-.95.24c-.51-.27-.66-.12-.77.23-.06.18-.14.32.08.49s.12.2,0,.25c-.41.19.12.77-.56.85.25.37-.37.57-.19,1a.36.36,0,0,1-.3.5.74.74,0,0,1-.75-.3,1.09,1.09,0,0,0-.57-.43c.36.44.75.82.47,1.26-.06.1.06.19.15.28s.17.15.14.25a7.21,7.21,0,0,0-.08,1.47c-.2.13,0,.5-.51.44a17.87,17.87,0,0,0-3.5-.09,17,17,0,0,0-2.13.19,4.37,4.37,0,0,0,1.64.31,4.74,4.74,0,0,1,1.45.22,7.65,7.65,0,0,0,2.31.38,2.13,2.13,0,0,1,.87.19c.37.67,1.39.89,1.92,1.45.56.29,0,.33-.15.42s-.37,0-.48.15c-.5.18-1.07-.16-1.59,0a3.54,3.54,0,0,0-1.34.05,1.55,1.55,0,0,1-1.14,0,1.09,1.09,0,0,0-.37,0c-.14,0-.28,0-.32.13s.13.17.24.22c.45.22.9.07,1.35.12a.15.15,0,0,1,.09,0v.15c.1.44.6.31.95.39h0c.22.2.45.38.76.14h0a6.55,6.55,0,0,0,1.17.23c-.06.21-.26.48.18.59s.05.44.38.56c0,0,0,0,0,0,.34-.1.59.18.9.18h0a.4.4,0,0,0,.51.24c.41-.08.49.09.38.3s0,.28.29.32a2.37,2.37,0,0,1,1.26.18,2.1,2.1,0,0,0,1,.21,7.41,7.41,0,0,1,1.41.14.73.73,0,0,0,.46.05c.21,0,.07.09.11.13a1.54,1.54,0,0,1-1.31.35c-.77-.16-1.54-.19-2.3-.32,0-.11.21-.1.32-.18l-1-.19c-.11,0-.23,0-.22-.14s-.25-.25-.45-.28a5,5,0,0,0-1.71-.24s-.1,0-.14-.05a2,2,0,0,0-1.5-.18c-.09,0-.21.06-.17.16a.26.26,0,0,0,.25.13c.26,0,.45,0,.48.27,0,.08.17.09.27.1l1.17.13c.14.14-.2.34.05.39s-.06-.27.21-.3c0,0,0,0,.08,0h0c.29.19.42.36,0,.52,0,0,0,.07,0,.1a7.24,7.24,0,0,0-1.17.36c-.1.07-.26,0-.4,0a.59.59,0,0,0-.17,0c-.36-.1-.72-.35-1.16-.11a7.83,7.83,0,0,0,1.22.35c.19,0,.45.06.4.29,0,.64,0,.66.83.71a3.27,3.27,0,0,1,.56.09.16.16,0,0,1,.06.15.47.47,0,0,0-.06-.15.74.74,0,0,0,0,.83l-.07,0h0l-.6,0-.93.07c0,.41.42.8.33,1.18a2.24,2.24,0,0,0,.36,1.53.67.67,0,0,0,.27.29c.82.51,1.6,1.05,2.47,1.52a11.28,11.28,0,0,0,4.32,1.36c1,.1,2,.19,3,.33.63.09,1.29.11,1.91.18a26.87,26.87,0,0,0,3,.36l.16,0a8.61,8.61,0,0,0,2.85.27c.18,0,.33-.21.46-.1a2.06,2.06,0,0,0,1.68.41c.12,0,.27.1.45,0s.56-.44.92,0a.75.75,0,0,0,.44.23,16.57,16.57,0,0,1,2.22.49c.13,0,.27.08.29,0,.06-.28.32-.13.48-.07a3.84,3.84,0,0,1,.58.28c.13-.46.17-.46.66-.14.07.05.23.38.39.05,0-.06,0,0,0,0a2,2,0,0,0,1,.48,1.45,1.45,0,0,0,1.22-.11.63.63,0,0,1,1,0,.19.19,0,0,0,.23.06c.29-.17.35,0,.41.16a.51.51,0,0,0,.55.36c.69,0,1.4.06,2.08,0,.3,0,.75.2.76-.23,0,0,.13,0,.19,0a3.13,3.13,0,0,1,1.14,0c-.13.16-.32.32.14.42-.11.12-.15.29,0,.37s.2-.11.26-.21.2,0,.32,0a2.63,2.63,0,0,0,1.18.06c.22,0,.35.12.52.19.5.23.93.11.91-.23.43.08.79.42,1.23.35a4.85,4.85,0,0,1,1.75.07,1,1,0,0,0,1-.2,2.24,2.24,0,0,1,.89.17l0,0c-.09.1-.34.06-.28.22a.22.22,0,0,0,.16.09c.47-.07,1.05.17,1.44-.13.17.33.5.35.88.33.1,0,.25.14.33.12s.5.15.56-.08.08-.29.45-.12.49.23.75,0,.44-.15.55.16a.75.75,0,0,0,.65.38c.3,0,.75.17.92-.16s.32-.1.42,0a.73.73,0,0,0,.79.18,1.18,1.18,0,0,1,.67.05,5.13,5.13,0,0,0,2.94.35h.16a4.27,4.27,0,0,0,1.87.25.53.53,0,0,1,.2,0,9,9,0,0,0,1.91.39c1.09.13,2.18.06,3.28.22.17,0,.25,0,.28-.14s.2-.23.39,0a.89.89,0,0,0,.84.21,2.08,2.08,0,0,1,.74,0c1.57.27,3.15.43,4.73.62.42,0,.67-.08.72-.26s.49-.4-.11-.61a.65.65,0,0,1-.43-.53c0-.17.37,0,.56-.06s.26,0,.37,0,.55-.09.59,0c.17.47.72.49,1.17.64,0,0,0,.05,0,.11-.42-.1-.72.14-1.16.09-.19,0-.48.07-.47.26s.3.25.51.3a2.35,2.35,0,0,1,.83.31.87.87,0,0,0,.61.11,7.59,7.59,0,0,1,1.28-.08c.65.07,1.3.07,2,.18.24,0,.51-.1.74.1a1.31,1.31,0,0,0,.83.27c.69,0,1.38,0,2.06,0s1.43.34,1.88-.22c0,0,.11,0,.16,0s.28,0,.29-.08-.17-.13-.3-.18c-.38-.16-.79,0-1.17-.17.14-.27.63-.21.79-.45,0-.06.16,0,.23,0a2.89,2.89,0,0,0,2.13.38.68.68,0,0,1,.61.19.51.51,0,0,0,.77,0,2.7,2.7,0,0,1,.33-.22c.25-.12.33-.24,0-.4-.19-.08-.43-.24-.28-.37.42-.35,0-.51-.32-.71.26-.06.52-.18.8.05a.25.25,0,0,0,.19,0,.79.79,0,0,1,.73.06c.15.06.31.12.43,0a.17.17,0,0,1,.25,0,.57.57,0,0,0,.82.14.46.46,0,0,1,.36,0,2.09,2.09,0,0,0,.78.12c.34,0,.68,0,.39.34-.06.08,0,.12.1.16a1.48,1.48,0,0,0,.79.32c0,.07.1.18,0,.19a3.71,3.71,0,0,1-1.24-.08c-.14,0-.19-.13-.06-.21s.3-.11.1-.22a1.16,1.16,0,0,0-.75-.17c-.28.07.1.21,0,.31a5.25,5.25,0,0,0-.8,0c-.17,0-.17,0-.23-.15.12-.07.48.05.39-.18s-.31-.12-.49-.08-.29,0-.42,0-.17.1,0,.2.3.23.22.4-.33.1-.45-.1-.35-.19-.4-.1-.29.51,0,.79a.85.85,0,0,0,.73.14.16.16,0,0,0,.09-.26c-.09-.14-.1-.13,0-.18a2.38,2.38,0,0,1,.75.15.07.07,0,0,1,0,.06l0,0c.35.17.61.72,1.09.17h0c0,.41.26.53.77.5a.15.15,0,0,1,.09,0,3.2,3.2,0,0,0,1.31,0l.17,0c0-.13.11-.13.26,0s.4.16.45,0,.34-.46.12-.54c-.41-.17-.46-.56-.89-.66s-.35-.25-.3-.45c.26.09.4.3.69.25s.65-.07.94.16c-.1.14-.6.1-.3.42s.42.38.63,0c.15,0,.22.05.32.11s.37.07.56.1.57.05.55.18c-.06.33.41.49.47.76,0,.07.15.14,0,.21s-.17,0-.27,0c-.26-.12-.43,0-.65.07.08.12.12.32.24.36a1.19,1.19,0,0,0,.85.11.63.63,0,0,1,.77.08.93.93,0,0,0,1,0c.26-.14.19-.32,0-.5,0-.13-.15-.21-.22-.32s-.14-.19-.26-.28c-.34-.24-.61-.51-.59-.87.26.18.51,0,.76,0s.28,0,.41.05.2.34-.21.29c-.15,0-.24,0-.27.11s0,.12.12.16a.46.46,0,0,0,.5-.08h0c.25-.42.76-.29,1.24-.22-.12.32-.8.51-.3,1-.1.15-.11.34.13.39s.28-.11.28-.26h0a2.25,2.25,0,0,1-.08-.24c.44,0,.81,0,1,.44a.31.31,0,0,0,.51.11.09.09,0,0,1,0-.06c.2.19.33.43.73.44s.26-.23.41-.42c0,.27.08.38.4.28a.44.44,0,0,1,.38,0,.41.41,0,0,0,.61-.15l.76.07c.21.05.2.39.55.27.12,0,.26-.07.24-.2s-.07-.26-.2-.26-.48-.29-.69,0c-.15,0-.33.15-.42,0-.23-.32-.74-.43-1-.77l1.22.09c.13,0,.3.08.41,0l.32-.06a1.57,1.57,0,0,0,1.7.28c.13.06.22,0,.32,0l0,.15c0,.2.32.38.41.22.19-.33.32-.12.54,0a.9.9,0,0,0,.48.12c.46-.12.63.14.84.35s.19.29.46.3.24-.14.23-.27a2.28,2.28,0,0,0-.11-.41l.56,0,.19,0a1.48,1.48,0,0,0,1,0h0c.13,0,.17-.21.35,0a.17.17,0,0,0,.15.22,2.81,2.81,0,0,1,1,.49.22.22,0,0,0,.26.07.62.62,0,0,1,.72.23l.41.19c.13.14.32.1.49.12a9,9,0,0,0,1.27,0c.28,0,.34,0,.22-.21s0-.3.33-.34c-.27.18-.31.3.07.33l.48,0a.33.33,0,0,0,.5.28,1.31,1.31,0,0,1,.5-.15c.12,0,.22-.09.16-.19a.2.2,0,0,0-.3-.05c-.24.19-.49-.05-.73,0h0c-.13-.06-.44.07-.34-.2l.42-.12.46,0h.07c.25,0,.65.18.5-.24-.05-.13.19,0,.27-.08a.72.72,0,0,1,.52.14c.15.28-.12.62.37.84a.11.11,0,0,1,.07,0c.46.09.89.48,1.39.18h.21s.14,0,.15,0a2.49,2.49,0,0,0,.49-.69.72.72,0,0,1,.74-.5,4,4,0,0,1,1.14.18c0,.08-.09.11-.21.12s-.29,0-.21.13,0,.25.21.29.19-.07.26-.13.13-.07.19-.11c.31,0,.41-.13.32-.35h.11c-1.52-.3-3.09-.61-4.29-.87a.39.39,0,0,1,.18,0c.38.08.46,0,.44,0l1,.15a.35.35,0,0,0,.15.07.39.39,0,0,0,.16,0l2.82.41h0c1.09.15,2.11.29,2.9.38-.11-.13-.27-.21-.62-.15l-.09-.05s0,0,0-.08l-3.76-.68c.22,0,.39,0,.49-.18a.29.29,0,0,1-.1,0c1.16.21,2.31.41,3.23.59.16-.21-.07-.28-.35-.32a.25.25,0,0,0-.21-.11l-.12-.14s0,0,0,0a3.22,3.22,0,0,1,.69-.2,1.74,1.74,0,0,0,.83.24c.21,0,.38-.17.64-.1s.38,0,.55-.1a.65.65,0,0,0,.29.17c.57.12,1,0,1.13-.32.06-.11.09-.27.32-.22a5.07,5.07,0,0,0,1.4,0c-.06.29.31.16.44.26.07.43.2.51.71.41a1.67,1.67,0,0,0,.68.29c.33.07.66.19.95,0l.2-.07c.35,0,.57-.33,1-.07a2.51,2.51,0,0,0,1.43.13c.09,0,.1-.06.07-.12s-.1-.13-.13-.1c-.27.24-.49-.1-.74-.08-.11-.14-.48-.28-.29-.4.54-.32,0-.31-.24-.42,0-.05-.07-.12,0-.14s.15-.19-.07-.24-.3,0-.29.16a1.13,1.13,0,0,1,0,.18,3.55,3.55,0,0,1-.57,0c-.41-.1-.46-.26-.15-.44s.21-.5.08-.78c-.11-.12-.38-.15-.33-.34s0-.2.19-.17c.41.06.49-.08.3-.32s0-.26.19-.2a2.13,2.13,0,0,0,.9,0h0c.12.23.19.45-.07.62a.13.13,0,0,0,0,.21.38.38,0,0,0,.33.11c.11,0,.19-.11.33,0,0,.14-.41.05-.35.25a.4.4,0,0,0,.37.26c.43,0,.37.22.39.4v.24c-.1.19.2.37.13.58s.2.12.26.06.28-.22.54,0c.09.09.44.15.55,0s-.17-.2-.32-.26a.26.26,0,0,1-.09-.05c.19-.07,0-.15,0-.23.23-.14.63-.15.64-.41.41.07.22.32.35.49.16,0,0-.26.31-.2-.17.27.09.29.37.32a1.13,1.13,0,0,0,.95-.24.34.34,0,0,1,.51,0,.72.72,0,0,0,.68.21c.35-.06.32.22.5.32s0,.2-.19.24-.33.07-.17.23a.35.35,0,0,0,.42,0c.22-.15.61-.2.5-.53,0,0,0-.11.07-.11s.18,0,.16.08.24.33,0,.45c-.07,0-.12.06,0,.1a1.37,1.37,0,0,0,.72.09c.21,0,.18-.13.14-.26s-.12-.38.09-.36.59-.11.89-.09.65.15.57.41c-.14.43.27.57.67.73.13,0,.14.16.33.12-.15-.19.05-.28.19-.39a1.7,1.7,0,0,0,1.53.09.21.21,0,0,1,.28,0c.26.45.92.48,1.38.82-.06-.3-.53-.48-.25-.73.11,0,0,.41.36.09a1.92,1.92,0,0,1,1.18-.39c.52,0,.48-.14.32-.39.43.07.48-.1.63-.36s-.2-.4-.31-.57a.68.68,0,0,0-.69-.22c-.48.09-.6-.09-.6-.38.15-.22.42-.12.58,0,.36.24.68.44,1.1.18,0,0,.1,0,.15,0a11.85,11.85,0,0,0,1.79,0l.08-.08c-.36-.08-.35-.28-.36-.47s-.07-.09-.15-.1l-.32,0a2,2,0,0,0-1.27,0c-.08,0-.2,0-.18.09s.1.15.23.11c.3-.1.2,0,.16.13l-.21.07c-.21.07-.36-.07-.54-.12,0-.21.36-.47-.32-.52-.15,0-.13-.24,0-.24.58,0,.4-.29.34-.54a.46.46,0,0,1,.5.12.33.33,0,0,0,.49,0c.15-.16,0-.22-.2-.28s-.31-.11-.19-.19c.27-.18-.18-.29-.09-.46.38.17.35,0,.36-.21s-.15-.25-.34-.32h0a.26.26,0,0,1-.12-.37c.22,0,.26.29.52.18.24.08.53,0,.74.16a2,2,0,0,0,1,.1l.06,0h.1c.08.72.58.11.87.2s.25-.08.28-.2-.14-.19-.28-.25-.37,0-.41-.2a3.64,3.64,0,0,0,1.31.07,1.06,1.06,0,0,1,.71.17l.28.11,1.5-.42c.15,0,.19-.13,0-.23s-.26-.16-.29-.28a.37.37,0,0,1,.56.17s0,0,0,.06c.26.2.24.35-.08.45-.14,0-.23.12-.16.24a.27.27,0,0,0,.27.11c.45,0,.9,0,1.35-.07.2,0,.2-.13.26-.23s-.12-.11-.2-.15-.14-.08.13-.16.16-.27.43-.18h0c0,.3.19.48.62.5a3.23,3.23,0,0,1,1,0,.15.15,0,0,0,0,.07.69.69,0,0,0-.59.45,2.21,2.21,0,0,1,.81,0,.56.56,0,0,0,.61.15,1.52,1.52,0,0,1,.88-.11c.23,0,.32-.06.2-.23.15-.06.38,0,.44-.18.65.15,1-.19,1.55-.32a.87.87,0,0,1,.37-.07.48.48,0,0,1,.62-.37c.45.15.4,0,.45-.22a.73.73,0,0,1,.06-.21s.26,0,.11-.14-.24-.24-.32-.19c-.34.23-.75,0-1.12,0-.82,0-1.62-.3-2.45-.34-.15,0-.43-.13-.36-.24s-.19-.31-.24-.26c-.24.25-.3-.32-.5-.07s-.2-.06-.32-.07v-.39c.4-.16.78.19,1.17.11a40.11,40.11,0,0,0,6.57.08,8.07,8.07,0,0,0,1.64-.14,8,8,0,0,1,1.31.21,1.65,1.65,0,0,0,1,.13c.22,0,.24,0,.21-.16a.59.59,0,0,1-.13-.69c.21,0,.45,0,.6-.19a8.41,8.41,0,0,0-2-.56c-.5,0-1.08-.1-1.28-.59-.06-.13-.21-.14-.34-.17a3.9,3.9,0,0,0-1.22-.1c-.93,0-1.87-.06-2.81-.1a1.78,1.78,0,0,1-.8-.15c.22-.19.6-.14.82-.32a2.13,2.13,0,0,0-.88-.2,9.57,9.57,0,0,1-1.85-.16,6.7,6.7,0,0,0-1.08-.23.71.71,0,0,0-.49-.11c-.19,0-.21-.08-.16-.18h0a3.72,3.72,0,0,1,.61.09c.3.1.37,0,.46-.15.27,0,.38-.23.63-.14a.56.56,0,0,0,.65-.15s.08.08.12.08a9.81,9.81,0,0,1,1.44-.05c.19,0,.07-.13,0-.21h0c.93.09,1.9.35,2.66-.18h0a2.66,2.66,0,0,0,1.45-.27.63.63,0,0,1,.45,0h.06a1.08,1.08,0,0,0,.4,0,5.19,5.19,0,0,0,1.88-.36s0-.07,0-.11.34,0,.5,0a8.11,8.11,0,0,0,2.13-.35c.09,0,.21,0,.13-.19a6.82,6.82,0,0,0-2.26,0c-1.86.37-3.85.35-5.74.62a20,20,0,0,1-2.48.16,24.54,24.54,0,0,1-3.11.11,8.28,8.28,0,0,0-2,.19c-.63.05-1.29,0-1.93.05a5.49,5.49,0,0,1-2.83-.26,5.05,5.05,0,0,0-2-.49,2.26,2.26,0,0,0-.64-.19,19.82,19.82,0,0,0-2.77-.12,10.13,10.13,0,0,0-2.4,0h-.19a2.39,2.39,0,0,0-.57-.11c-.67,0-1.33.08-2,.12-1.12-.05-2.22-.32-3.35-.33.22-.09.46,0,.74-.09a5.84,5.84,0,0,1-2-.3,5.52,5.52,0,0,0-1.39-.27s0,0,0-.06-.24-.18-.1-.22.44-.24.75,0a.65.65,0,0,0,.6-.1c.06-.07,0-.14-.14-.19s-.37-.09-.48.06-.14.07-.22,0,0-.11,0-.16,0-.24.14-.2A7.59,7.59,0,0,0,157,148l.61.05c.18-.27-.14-.51-.2-.77a1.56,1.56,0,0,0,.42-.08.42.42,0,0,1,.54.06c.14.21.6.43,0,.61-.11,0,0,.16,0,.25.4.06,0,.3.23.41h0v.07h0l-.42-.14c0,.2,0,.34.32.36s.35.16.51,0a1.31,1.31,0,0,0,1.14,0,.29.29,0,0,1,.37,0,2,2,0,0,0,1.2.24c.15,0,.3,0,.28-.16s-.19-.08-.31-.11c-.41-.07-.84-.15-.85-.55,0-.21-.14-.32-.43-.28s-.45-.08-.66-.13c-.37-.08-.43-.28-.16-.44.11-.07.29-.1.24-.24s.11-.41.37-.38c.53.06,1-.34,1.56.06-.06.13-.45,0-.38.19s.33.09.5.15,0,.16,0,.25.26.2.34.09.25-.23.11-.4-.27-.17-.41-.25c.19-.16.19-.16-.35-.45.09-.11.31-.16.21-.34.29-.16.13.22.33.17.08.39.46.41.86.4-.11.14,0,.25.2.27a.66.66,0,0,1,.54.38c0,.09-.28.12,0,.23a1.59,1.59,0,0,1,.56.53c0,.06.12.15.18.11.25-.21.69-.09.93-.21a.61.61,0,0,1,.64,0,.62.62,0,0,0,.38.18c.32.07.77,0,.7.45,0,0,0,.1.12.11s.16,0,.16-.1.22-.12.35-.17a2.27,2.27,0,0,1,1.52.09s.11,0,.17-.06c.31-.12.55.21.85.14s.33-.07.56,0c-.07.22-.47.26-.34.52h-.08c-.13,0-.32-.16-.35.06s.39.61.72.65.32,0,.3-.18c0-.31-.41-.69.19-.88.08,0-.15-.13,0-.19.46.42.58.44,1.31.28a.68.68,0,0,1,.8.34l-.81-.06c.21.09.43.16.37.31-.18.46.44.49.76.7-.12-.19,0-.33,0-.5v-.2c-.08-.25.1-.28.37-.26.06.14-.24.11-.15.25,1,0,1,0,1.08-.19-.22-.09-.36.12-.61,0l.41-.43c.13.23.49.43.6.36.26-.18.91,0,.86-.42h0c.08-.22-.29-.3-.34-.49,0,0-.15-.09-.09-.09.3,0,.4-.26.78-.17s.86.28,1.25,0l.35,0c.08,0,.17-.06.14-.12s-.18-.06-.28-.07c.08-.35.08-.35-.22-.4-.22-.23-.62,0-.85-.25h0c-.13-.27-.51-.31-.78-.46s-.34-.26,0-.33h0c0,.19.24.26.44.31a.33.33,0,0,0,.39-.11c.05-.08.07-.22,0-.28a.28.28,0,0,0-.39,0l-.11,0c0-.12.06-.23.29-.18.07,0,.23.07.16,0-.21-.33.14-.27.36-.36s.6-.2.68-.46h.21c.12.18.42,0,.55.18,0,.18.07.32.31.24s.41,0,.53-.16a.26.26,0,0,0,0-.29c0-.11,0-.17.15-.15s.34,0,.51,0l.2.05c.38,0,.72.43,1.09.25a3.53,3.53,0,0,1,1-.3c.26,0,.08-.36.41-.23h0c.17.19-.24.21-.17.37-.33.21.12.2.19.3a5.7,5.7,0,0,1,.58.06,2.07,2.07,0,0,0,.9-.06c.46-.08.12-.35.12-.54,0,0,0-.11.1-.12s.14.36.47.36c.13,0,.26.16.4,0l.74.14h0c0,.16-.11.38.31.41a.31.31,0,0,0,.23.08c.46.32.67.11.86-.15l.42-.06h0c.89,0,1.55-.19,1.72-.59a2,2,0,0,1,.72.46c.18-.11.09-.21,0-.32s0-.18.22-.17c.36,0,.8.11.73-.33,0-.19.27-.1.35-.21-.2-.14-.36-.33-.67-.18a.23.23,0,0,1-.33-.09c0-.07-.13-.14-.18-.05s-.45.13-.65.08c-.68-.19-1.36-.36-2.06-.5-.09,0-.25,0-.27-.15,0-.33,0-.33-.47-.16h-.13l-.1,0c-.2-.09-.34-.28-.57-.26a1.14,1.14,0,0,1-.37,0l-.26-.1a1.78,1.78,0,0,1-.38-.25,1.82,1.82,0,0,0-.67-.3l2.65.44a.47.47,0,0,0,.38.07h0l4.62.77,0,0-4.62-.76a.06.06,0,0,0,0-.09.6.6,0,0,0-.6-.06l.1.07-2.84-.47-.46-.13a2.47,2.47,0,0,1-.84-.25c-.25-.13,6.22,1,9.32,1.57,0-.13-.28-.17-.42-.25s.24-.1.31-.19l.32-.13a1.16,1.16,0,0,0,.74-.26c.62.08.92-.15,1.06-.53.39-.09.37-.48.78-.57.06,0,0-.15-.09-.16-.44-.06-.67-.44-1.13-.45,0-.05-.21-.06-.16-.13.18-.26,0-.41-.33-.53-.09,0-.14-.11-.22-.18l.7-.19h0c.26,0,.63,0,.72-.21s.3-.13.49-.1a1.53,1.53,0,0,0,.34.09,16.19,16.19,0,0,0,2.61-.05c0,.14-.23.13-.24.33.12-.15.34.11.4-.13s.16-.1.3-.08a2.73,2.73,0,0,0,1.4-.11c.21-.08.59-.2.71-.08.29.33.53.18.8.11.12,0,.22-.05.31.07a.14.14,0,0,0,.21,0c.06-.07,0-.13-.08-.16-.25-.08-.3-.22-.28-.38a1.6,1.6,0,0,0,.5-.21,2.36,2.36,0,0,0,1-.16l.11-.07c.24,0,.34-.26.65-.09h0c.31,0,.62-.34,1,.06h0c.24-.14.38,0,.56.12a.73.73,0,0,0,1.12-.25c.05-.17,0-.36.19-.49.44-.22.51-.44.14-.55s-.77-.4-1.19-.17l0,0h0l0,0a2.66,2.66,0,0,0-.94-.33c-.34-.1-.63-.39-1-.09,0-.34,0-.36-.35-.31s-.47.05-.41-.23c0-.08-.09-.13-.16-.19a1.73,1.73,0,0,0-1-.35h-.1c-.26,0-.32-.22-.51-.29l-.87-.53h0c-.24-.12-.16-.17,0-.25s.57.07.81-.16c-.59-.12-1.15-.3-1.65-.36a27.86,27.86,0,0,0-3-.2,7.91,7.91,0,0,1-.84-.06c-.18,0-.23-.08-.09-.17a.9.9,0,0,1,.49,0c.21.06.26,0,.21-.18.17-.34-.87-.23-.51-.64l-.15,0a2.23,2.23,0,0,0-.45,0,1.58,1.58,0,0,1-1-.21h.1a.52.52,0,0,0,.53-.15c-.32-.05-.54-.27-.85-.17l-.85-.07-.22-.09c-.12-.16-.45-.07-.53-.28-.11,0-.24.1-.34,0a1.72,1.72,0,0,0-1.27-.15h0c-1.09-.1-2.17-.32-3.26-.41a15.56,15.56,0,0,1-2-.29,29.76,29.76,0,0,0-4.3-.65l-1.16-.13a.52.52,0,0,1-.3-.06,2.72,2.72,0,0,0-1.66-.4,6,6,0,0,1-1-.06c-1.08-.25-2.18-.27-3.26-.47a6.8,6.8,0,0,0-1-.11,10.33,10.33,0,0,1-1.92-.27,1.4,1.4,0,0,0-.17-.09c-.32-.1-.71-.1-.74-.48,0-.16-.22-.32-.49-.15a.91.91,0,0,1-.62.09l0-.14a.68.68,0,0,1,.29-.23l.25.1a.56.56,0,0,0,.72-.14.58.58,0,0,1,.23.09,1.29,1.29,0,0,0,.61.19c-.14,0-.15.18-.33.17s-.18-.09-.18,0,.1.14.15.14c.39,0,.85.1,1.09-.17a.33.33,0,0,1,.44-.11.42.42,0,0,0,.36-.09,1.21,1.21,0,0,1,.75.16.73.73,0,0,0,.71-.16c.21-.14-.24-.19-.33-.36.52,0,.94.27,1.42.34h0c.14.1.27.22.42.31s.43.33.58.25c.37-.2.71,0,1,0h.19c.41.27.86-.07,1.29.15.1,0,.14-.15.06-.23a.74.74,0,0,0-.48-.3v-.16a.9.9,0,0,1,.88,0c.17.21.41.23.61.34l.52.18c-.1.19-.43.12-.55.28a.51.51,0,0,0,.7,0c.14-.09.21-.26.49-.19h0c0,.19-.14.43.25.53s.86.19,1-.26c.13.14.2.32.4.16s.34-.18.48.07c0,.06.22,0,.21,0-.11-.36.3-.06.39-.15l.31.05c.06.22.29.16.47.19.38,0,.76.06,1.14.12s.61,0,.6-.23-.3-.32-.61-.29h-.1c-.05-.26-.49-.19-.59-.37-.23-.39-.49-.24-.71-.09a.65.65,0,0,1-.61.05c-.22-.06-.47-.07-.66-.13-.53-.17-1.15-.11-1.6-.46l.34-.05,4,.21c.71.12,1.41,0,2.12.09l.27,0c1,.2,1.88-.12,2.86,0,.1,0,.29-.09.2-.16-.4-.27-.17-.42,0-.62a.3.3,0,0,0,0-.4c-.22-.28-.58-.16-.87-.23a.25.25,0,0,1,0-.07c.24-.25-.33-.23-.3-.41a.75.75,0,0,0,.4-.06c.08,0,.14-.05.16-.09.3-.15.61-.28.6-.6a18.72,18.72,0,0,0,1.79-.55,15.76,15.76,0,0,0,2.06,0,7.63,7.63,0,0,1,1.18-.08c2,.22,3.93.53,5.9.62a25.24,25.24,0,0,0,6.95-.64,5.15,5.15,0,0,1,1.29.43,1.26,1.26,0,0,0,.91.21c.25,0,.45-.14.14-.42-.12-.12-.3-.31-.21-.43.31-.42-.07-.52-.34-.68.26-.2.62-.07.89-.2s.43-.29.23-.36c-.48-.17-.69-.71-1.21-.77a4.05,4.05,0,0,1-1.76-.41.48.48,0,0,1-.33-.29c-.28-.8-.45-.9-1.27-1-.65-.09-1.26.16-1.91,0a1.13,1.13,0,0,0-.67-.11,9.41,9.41,0,0,1-2-.25c.62-.17,1.1-.57,1.55-.3a1.2,1.2,0,0,0,1,.12c.72-.09,1.45-.16,2.17-.24.16.24.29.34.5.06a1.15,1.15,0,0,1,.8-.35c.29,0,.81.21.83-.37l.13.1c0,.16,0,.33.21.33-.14.23-.24.4.22.34s.76-.13.79.51c.18-.3.09-.62.22-.87l0-.05a.18.18,0,0,0,0-.1c.11-.41.42-.46.87-.31-.24,0-.53,0-.47.35s.35.22.54.3a.4.4,0,0,0,.41-.08,1.45,1.45,0,0,0,1.33-.16c.2-.18.53.1.73-.11a8.65,8.65,0,0,1,1.43.21l0-.44c.09-.06.08-.15.07-.24a.77.77,0,0,1,.26-.07c.23,0,.46,0,.44-.25s-.22-.32-.47-.33c-.41,0-.82,0-1.22-.08a1.19,1.19,0,0,1-.48-.24c-.27.4-.44,0-.61-.14-.22.22,0,.41,0,.6a1.89,1.89,0,0,0-.6-.1,5.31,5.31,0,0,1-2.39-.34c-.19-.14.13-.42-.22-.55s0,.33-.3.22a.75.75,0,0,0-.54-.59h0c.07-.09.29-.07.23-.24s-.19-.1-.29-.09l-1,.07-1.74-.09a2.36,2.36,0,0,0-1.24.06h-.19a1,1,0,0,0-1.47-.42.53.53,0,0,1-.26,0h0c-.19-.29-.39-.11-.57,0s-.3.19-.41.11c-.46-.33-.87,0-1.29,0a.48.48,0,0,0-.59,0c-.28.34-.49.24-.82,0a.76.76,0,0,0-.93-.09c-.26.2.18.29.19.46a5.77,5.77,0,0,1-1.66,0h-.12l-.55-.13c-.34-.08-.66-.14-1-.19a2.94,2.94,0,0,0-1.88-.09,3.19,3.19,0,0,1-.74-.13c.08-.07-.43-.09-.06-.18a.68.68,0,0,0,.3-.17,1.24,1.24,0,0,1,.66-.25h.48c.82.13,1.64.18,2.46.25a1.16,1.16,0,0,0,.78-.32c.85,0,1.7.06,2.55,0,1.07,0,2.13-.14,3.2-.08a15.6,15.6,0,0,0,2.78-.19,2.18,2.18,0,0,0-.35-.08,41.52,41.52,0,0,0-4.17-.16c-1.31,0-2.64,0-4-.06-.14-.2,0-.31.13-.46s.36-.14.34-.29c-.06-.44.35-.46.79-.48.23,0,.41,0,.35-.25a1,1,0,0,0,0-.16c.06,0,.1,0,.11-.15s-.1-.2-.22-.23a1.28,1.28,0,0,0-.65-.36c1-.1,1.08-.59,1.07-1.13,0-.22,0-.48-.47-.47a.32.32,0,0,1-.32-.29c0-.16.23-.06.39,0s.46.16.46-.14c0-.14.22-.17.39-.2s.43-.06.37-.27-.31-.22-.54-.22a1.43,1.43,0,0,0-.5-.14c0-.12-.17-.17-.23-.26-.22-.34-.64-.63-.65-1H199c.51,0,1,.36,1.49.26s.93.08,1.29-.15c.09-.06.19,0,.28.07s.47.25.33-.12c0,0,.12-.12.2-.13.26,0,.5.17.81.09.13,0,0,.24.23.33.22-.3.63-.1,1-.13a.83.83,0,0,1,.8.28c.45.15.73-.12,1.09-.18.16,0,.1-.19.07-.3s-.17-.12-.29-.14-.39.06-.7.05a1.17,1.17,0,0,1,1.1-.11c.14,0,.3,0,.32-.09s-.09-.19-.26-.19-.25,0-.27-.11h0a.25.25,0,0,0,0-.07c.16,0,.41.1.46,0s-.18-.2-.34-.26a1.53,1.53,0,0,1-.25-.16h0c-.31.13-.66-.11-1,0-.55.13-1-.17-1.56-.25-.28,0-.76,0-1-.3a.46.46,0,0,0-.2,0c-.21.26-.73.11-1,.35-.06.07-.25.1-.25,0,0-.32-.3-.25-.54-.32s-.73.09-.61-.34c0-.07-.09-.05-.16-.05-.23,0-.3-.16-.44-.22s-.21-.63-.69-.26c-.06,0-.17,0-.24,0a2.81,2.81,0,0,0-.88-.33,9.1,9.1,0,0,0-2.77-.43s-.05,0-.07,0a5.55,5.55,0,0,0,1.44-.09,2.21,2.21,0,0,0-.46-.18c-.81-.17-1.64-.31-2.45-.5-.15,0-.29-.08-.43-.12.13-.47.12-.47-.62-.53a3.42,3.42,0,0,0-.72,0c-.54-.21-1.17-.11-1.71-.35,0,0-.15,0-.21.06a.73.73,0,0,1-.25.08l-2.57-.37c-.14-.17-.53-.14-.5-.39s.37-.1.56-.15l.31-.13-.39-.32a.71.71,0,0,1,.63-.26c.23,0,.53-.19.08-.42h0c.24-.07.48-.17.72-.23s.68-.11,1,0c.18.35.5.28.76.24a10.69,10.69,0,0,1,2.59,0,4.19,4.19,0,0,0,2.24-.46,1.5,1.5,0,0,0-1.18-.8c-.89,0-1.77-.2-2.66-.25-.42,0-.84.18-1.24,0a1,1,0,0,0-.71-.11.12.12,0,0,1-.1,0,1.29,1.29,0,0,0-.06-.21.41.41,0,0,0,.15.07,1.27,1.27,0,0,0,.36.09,10.86,10.86,0,0,0,2.55,0c.15,0,.37,0,.29-.18a.38.38,0,0,0-.42-.2,1.82,1.82,0,0,1-1.21-.1.91.91,0,0,0-.61,0,1.22,1.22,0,0,1-.6,0l-.26,0a.32.32,0,0,0-.31.11,1.45,1.45,0,0,0-1.31-1.06c-.35-.13-.65-.43-1.05-.27a.72.72,0,0,1-.66-.39,2.32,2.32,0,0,0-1.85-.92,18.28,18.28,0,0,1-2.54-.46,22.19,22.19,0,0,0-2.87-.52c-1.75-.12-3.44-.81-5.19-.91a5.16,5.16,0,0,1-1-.23,23.18,23.18,0,0,1,5.11.44c1.7.21,3.4.48,5.11.65s3.36.74,5.12.85a3.09,3.09,0,0,0-2-.77,42.31,42.31,0,0,1-4.28-.79l-.07,0c-.44-.19-1,0-1.44-.42a4.94,4.94,0,0,1,1.15,0h0a1.38,1.38,0,0,0,1.24.1,1.49,1.49,0,0,0-.79-.31c-.3-.06-.45-.55-.8-.4a1.9,1.9,0,0,1-1,0c-.3-.08-.58-.38-.91-.17h0c0-.21-.45-.41-.1-.57.18-.08.3-.41.61-.19a.13.13,0,0,0,.21-.09.4.4,0,0,0-.06-.26.14.14,0,0,0-.23,0c-.19.25-.4,0-.55,0a1,1,0,0,0-.85-.17c0-.33.35-.39.55-.66l-.6,0a1.86,1.86,0,0,1-.1-.2c-.06-.11.18-.29-.09-.34s-.22.07-.21.26-.12.12-.2,0-.18-.19-.32-.1l-.68-.25a.14.14,0,0,1,0-.09h.09c.39,0,.59-.33,1-.37.17,0,0-.32-.23-.35l-.07-.08s0,0,0-.05c.32-.28.76.17,1.08-.07.17.15.14.48.48.46,0,.58,0,.58.64.57,0,0,0,0,.06.07,0,.2-.36,0-.33.28a3.53,3.53,0,0,0,1.22.65c.11-.26.38-.09.61-.21-.48,0-.16-.53-.56-.54,0-.3-.25-.37-.48-.45s0-.14,0-.22c.21.08.52.09.61.23a.67.67,0,0,0,.77.27c.37,0,.67.33,1,.42a4.53,4.53,0,0,0,2.32.39c.2,0,.48-.08.61.27a.3.3,0,0,0,.44.11.41.41,0,0,1,.35-.07,3.54,3.54,0,0,0,2.16,0c.12,0,.26-.06.26-.22s-.13-.21-.27-.24l-.44-.12a.31.31,0,0,1-.24-.34c0-.31.43-.26.45-.54a1.94,1.94,0,0,1,.23.27c.21.3.47.51.81.35a1.2,1.2,0,0,1,.7,0c.29,0,.64.16.78-.25,0-.13.18,0,.21.1v.38a5.21,5.21,0,0,0-2,.66c.39.3.68,0,.92.09.55.18,1.08.51,1.49-.1,0,0,.07,0,.11,0a3.21,3.21,0,0,1,1.67.41l1.25.06h0a.57.57,0,0,0,.8.22c.19-.08.53,0,.56-.28h.32c.25,0,.56,0,.72.1a.55.55,0,0,0,.67,0c.21-.12.35-.28.51.07a.19.19,0,0,0,.25.08c.16,0,0-.14,0-.21,0-.26-.13-.6.3-.72l-.48-.23.4,0c-.06-.15-.32,0-.29-.21s.27-.27.3-.23c.19.22.55-.23.59.15s.29.39.53.47a8.93,8.93,0,0,0,4.58.17,2.24,2.24,0,0,1,1.74.09.27.27,0,0,0,.36-.08l-1-.29c-.21-.06-.36-.09-.31-.39s-.11-.64-.62-.58c-.23,0-.74.13-.51-.46,0-.1-.05-.26-.07-.39.64,0,1.26.22,1.91.16a1.35,1.35,0,0,1-.74-1.18c.14-.58-.25-1.08-.32-1.59-.13-.88-.83-.46-1.16-.76l0,0a1.44,1.44,0,0,0,1.21-.6.09.09,0,0,0,0-.06h0l0,.06c.13.18.4,0,.51.23s.2.36.44.38c.09,0,.2,0,.22-.1s-.19-.16-.25-.27.32,0,.38-.18h.19c.06.11.1.28.2.32.36.19.25.36.07.55s-.29,0-.26.2a.26.26,0,0,0,.29.14c.42-.12.89,0,1.31-.13.14-.06.38,0,.38-.22s-.31-.08-.39-.24a2.59,2.59,0,0,0,.29-.14c.08,0,.25,0,.18-.19a.25.25,0,0,0-.28-.16c-.21.08-.55.07-.4.46-.25-.16-.93.18-.7-.57h.33c.46.11.59-.4,1-.48H208l.52.17c-.4.28-.4.28.06.52.06.23.19.58.41.51s.8,0,1-.35c.39,0,.87-.08,1.15.11.77.52,1.2.6,1.76.07-.24-.21-.62.15-.72-.09-.26-.62-.82-.35-1.18-.57a1,1,0,0,0,.63-.1,2.4,2.4,0,0,1,1.59-.27c.25,0,.58-.11.57.37,0,.12.23.17.38.1.53-.22,1.14-.18,1.66-.39.21-.08.64.11.61-.17s-.46-.2-.71-.3c-.07,0-.15,0-.23,0L213.67,86l0-.15,1.87-.41c.12,0,.35.12.36-.11s-.21-.19-.34-.24a1.35,1.35,0,0,0-.33-.09,9.41,9.41,0,0,1-3.62-.6c-.1,0-.31,0-.32,0-.12.42-.37.11-.43,0s-.35-.2-.52-.3c-.58-.31-1.29-.09-1.8-.59-.11-.07-.27,0-.35-.14-.23-.4-.59-.36-.94-.32l-.33,0c-.67-.19-1.36-.28-2-.5-.32-.11-.84-.22-1.12.19a.19.19,0,0,1-.24.06c-.57-.22-1.16-.1-1.73-.28,0-.11.17-.22-.1-.33-.42-.17-.77-.29-1.07.08a8.42,8.42,0,0,1-2.15-.51c-.43-.17-.81-.58-1.32-.42,0,0-.1,0-.13-.09-.22-.28-.55-.14-.82-.26-.1,0-.29,0-.25.18a.19.19,0,0,0,.27.12c.36-.21.64.14.95.17s.2.22.18.33-.17.21-.33,0-.6-.16-.64,0c-.21.62-.59.24-.93.12a2.58,2.58,0,0,0-1.07-.24,8.24,8.24,0,0,1-1.86,0l-.11-.21c.2-.14.09-.25-.08-.3s-.39,0-.4.16.22.1.34.14c0,.33-.3.14-.45.2a19.37,19.37,0,0,0-2.27-.32c-.23-.32-.2-.48.24-.44a3.38,3.38,0,0,0,1.34.07c.09-.11.35-.12.22-.35s-.23-.08-.35,0-.29,0-.43-.06a5.21,5.21,0,0,0-1.95-.27c-.28.07-.36.14-.12.38,0,.14-.34.13-.26.29.26.55-.24.25-.39.34s-.23-.12-.38-.11c-1.48.09-3-.13-4.48-.18a2,2,0,0,0,1-.4.74.74,0,0,1,.54-.18c.94,0,.93,0,1-.92l0,0c.25-.21.45-.51.9-.24a.27.27,0,0,0,.36-.16c.1-.48.5-.46.88-.53.2,0,.54.1.51-.29l.13-.19c.78-.25,1.62-.35,2.4-.64a6.43,6.43,0,0,0,1.5-.56,2,2,0,0,0,1.24-.87,6,6,0,0,0-1.6.39.2.2,0,0,0-.11,0h0c-.36,0-.58.25-.9.29h0a.51.51,0,0,0-.4.1,3.37,3.37,0,0,1-1.83.36,1.47,1.47,0,0,0-1.37-.28.3.3,0,0,1-.36-.09c-.11-.19.07-.26.18-.33s.57-.22.72-.51a1.45,1.45,0,0,1,.5.08c.38.16,1.74-.13,1.81-.46.16-.76.74-.67,1.32-.71.34,0,.78.1,1-.21a2.84,2.84,0,0,1,2-1,1,1,0,0,0,1.12-.75.94.94,0,0,1,.94-.73c.19,0,.36,0,.32-.25s.14-.54.21-.81c.7-.33,1.07-1,1.75-1.36.14-.07.13-.25.21-.36.29-.43.39-1,1-1.17,1.21-.25,1.86-1.21,2.78-1.84a4,4,0,0,1,1-.65.69.69,0,0,0,.52-.88,1.4,1.4,0,0,1,.49-1.57c.17-.18.32-.41.48-.59.28-.34.46-.82,1-.91.36.08.45-.28.74-.36a5.33,5.33,0,0,0,1.69-1c.18-.14-.06-.81.56-.39,0,0,.07-.09.11-.1.71-.19.7-.91,1-1.37s0-.44-.29-.48a2.58,2.58,0,0,0-.39,0,1.12,1.12,0,0,1-1.24-.7.29.29,0,0,0-.13-.1c-.33.12-.48-.11-.74-.27a1.6,1.6,0,0,1-.66-.9,2.7,2.7,0,0,0-1.26-1.42h0c-.05-.24-.09-.27-.45-.35-.17,0-.43,0-.42-.21,0-.4-.27-.84-.06-1.2.4-.66-.27-1-.58-1.31s-.26.24-.45.32a.47.47,0,0,1-.17,0,4,4,0,0,0-1.42.32,4.29,4.29,0,0,1-1.52.11,2,2,0,0,0-1.35,0c-.13.07-.3.09-.37-.11a2.49,2.49,0,0,0-.11-.29,1.05,1.05,0,0,0,.3-.15c.17-.13.47,0,.63-.12a11,11,0,0,1,1.29.06c0-.09,0-.2,0-.31s.06-.1.05-.16a.63.63,0,0,1,.22-.07c.21,0,.42-.05.39-.2s-.22-.2-.44-.2-.72,0-1.09,0a1.32,1.32,0,0,1-.43-.13c-.22.29-.4,0-.55-.06-.19.17,0,.28,0,.41a1.93,1.93,0,0,0-.53,0h-.11a.6.6,0,0,0-.67-.43c-.24-.18-.65-.13-.74-.53,0-.13-.12-.12-.2,0-.52.54-1,.26-1.49-.18h0a3.21,3.21,0,0,1-.19-1c0-.59-.62-.92-1.39-.67.51,0,.62.38.89.49-.16.41-.46.21-.73.12h0c-.19,0-.44-.72-.59,0,0,.09-.15,0-.24,0s-.1-.11-.11-.19c-.14-.78-.35-1-1.17-1-.32-.07-.63,0-.94-.29s-.8-.17-.89.08c-.14.43-.45.39-.77.43-.06-.17-.34-.22-.31-.45.08-.52-.31-.39-.58-.4-.1,0-.23.18-.28.07-.31-.55-.62-.1-.85,0s-.52.12-.62.38c0,.08.06.13.13.17a1,1,0,0,0,.81,0c.06,0,.09-.11.15-.15s.25-.11.35,0,.52.37.7.64l-.11,0c0-.11-.13-.15-.26-.11a5,5,0,0,1-.66.18c-.34-.19-.73-.06-1.08-.23,0-.08-.15-.14-.16-.09-.11.35-.38.24-.64.18a6.7,6.7,0,0,1-.76-.24c-.29-.12-.27-.35,0-.42a.76.76,0,0,0,.61-.71c0-.11.24,0,.16-.19a.26.26,0,0,0-.31-.1c-.49.21-1,0-1.54,0-.24-.19-.39,0-.58.15.19-.47.08-.64-.37-.5a.4.4,0,0,1-.24-.25l-.22-.34c-.07-.14-.21-.23-.31-.13-.38.41-.84.12-1.28.06-.14-.52-.26-.58-.61-.32,0,.27-.1.34-.34.3a1.1,1.1,0,0,0-.87.19c-.2.09-.1.27-.09.42v.23c-.28.08-.12.37-.24.53a1.09,1.09,0,0,1-.91-.23l-.08,0c0-.11-.05-.21,0-.3.39-.41.38-.4-.22-.61a1.32,1.32,0,0,0-.43-.12,3.11,3.11,0,0,1,.28-.23c.19-.16.08-.34,0-.53-.39.24-.49-.38-.82-.33s-.36.4-.69.2c-.12-.06-.25-.34-.34,0,0,.13-.09.25-.14.37a1.22,1.22,0,0,0-.33,0,12.68,12.68,0,0,1-1.63,0,.61.61,0,0,1-.16-.16c.12-.12.46-.05.35-.39-.05-.14-.05-.31-.23-.35s-.41.06-.42.16c0,.3-.39.37-.4.66h0l-.31,0c-.2-.26-.44-.08-.67-.09,0,0,0,0,0,0l-.63,0H171c0-.1,0-.21.07-.34s.05-.27-.1-.34-.33-.12-.4.05c-.19.48-.4.16-.62,0,0-.59-.42-.27-.68-.27s-.27-.23-.47-.2c-.08-.3-.25-.31-.44-.15s-.19.2-.36.21c-.31-.14-.64-.24-.95-.39h.28a7.38,7.38,0,0,0,1.7-.05l.48-.09a.13.13,0,0,0,0,.11.3.3,0,0,0,.26.26c.12,0,.22,0,.23-.16a.32.32,0,0,0-.29-.24,4.07,4.07,0,0,1,.61,0,39.83,39.83,0,0,0,4.09,0,2.17,2.17,0,0,1,1.1.07,1.77,1.77,0,0,0,1.09.05,4,4,0,0,1,1-.07,27.63,27.63,0,0,0,4.17,0,7.33,7.33,0,0,0,1.34-.15,2.91,2.91,0,0,0-.41-.1c-.73-.07-1.47-.11-2.2-.19-.57-.06-1.12-.2-1.68-.24-1.39-.08-2.77-.13-4.16-.19-.13-.11-.48-.06-.47-.24s.33-.09.5-.14l.27-.11c-.18-.09-.32-.18-.48-.25s-.24-.07-.22-.18.15-.12.27-.13a6.61,6.61,0,0,0,1.27-.35,5.5,5.5,0,0,1,.91,0c.17.23.46.16.68.12a12.58,12.58,0,0,1,2.3-.15,4.76,4.76,0,0,0,2-.45,1.41,1.41,0,0,0-1.09-.48c-.79,0-1.58,0-2.37,0-.37,0-.74.18-1.11,0a1.14,1.14,0,0,0-.63,0h-.09a1.27,1.27,0,0,0-1.35-.93c-.31-.07-.59-.26-.94-.12a.66.66,0,0,1-.6-.23,2.32,2.32,0,0,0-1.7-.52,21.46,21.46,0,0,1-2.27-.16,24.85,24.85,0,0,0-2.57-.18c-1.57,0-3.1-.35-4.66-.31a5.63,5.63,0,0,1-.9-.1,27.77,27.77,0,0,1,4.56,0c1.52,0,3.05.13,4.57.14s3,.3,4.59.27a3.26,3.26,0,0,0-1.78-.41c-1.29-.1-2.58-.08-3.85-.28l-.06,0c-.4-.1-.88.08-1.3-.2a7.59,7.59,0,0,1,1-.08h0a1.54,1.54,0,0,0,1.1,0,1.63,1.63,0,0,0-.71-.17c-.28,0-.43-.35-.73-.22a2.4,2.4,0,0,1-.92.08c-.27,0-.53-.24-.82-.07h0c0-.14-.43-.25-.12-.39.15-.06.24-.29.53-.16.07,0,.18,0,.18-.08a.18.18,0,0,0-.06-.17.15.15,0,0,0-.21,0c-.15.18-.35.06-.49,0a1.23,1.23,0,0,0-.76-.06c0-.23.29-.29.46-.48l-.54,0-.1-.13c-.06-.08.14-.21-.1-.23s-.19.06-.17.19-.1.09-.18,0a.21.21,0,0,0-.29,0l-.62-.13v-.06h.09c.34,0,.5-.27.84-.32.15,0,0-.22-.22-.22l-.06,0s0,0,0,0c.26-.21.67.07.95-.11.15.09.15.32.45.28,0,.41,0,.4.59.36,0,0,0,0,.06,0s-.32,0-.28.21a3.75,3.75,0,0,0,1.11.38c.09-.19.34-.09.54-.19-.43.06-.17-.35-.52-.33,0-.21-.25-.24-.46-.28s0-.1,0-.15c.19,0,.46,0,.55.12a.7.7,0,0,0,.7.14,6.09,6.09,0,0,1,.87.23,5.25,5.25,0,0,0,2.09.12c.17,0,.42-.08.55.15a.3.3,0,0,0,.4,0,.48.48,0,0,1,.31-.07,4,4,0,0,0,1.92-.12c.1-.05.22-.06.22-.17s-.13-.14-.26-.15l-.39-.06c-.16,0-.22-.09-.23-.21s.36-.21.37-.4L175,34a.63.63,0,0,0,.73.19,1.45,1.45,0,0,1,.62-.07c.26,0,.58.07.68-.22,0-.09.16,0,.2.06l0,.26a5.3,5.3,0,0,0-1.72.58c.35.18.6,0,.81,0,.5.09,1,.28,1.32-.16h.1a3.51,3.51,0,0,1,1.51.17l1.11,0h0a.6.6,0,0,0,.72.11c.16-.07.47,0,.48-.23l.29,0c.22,0,.49-.05.64,0a.58.58,0,0,0,.6,0c.18-.09.29-.21.45,0,0,.06.16.06.23,0s0-.1,0-.15-.15-.4.23-.51l-.44-.13.36-.06c-.07-.1-.29,0-.28-.13s.24-.2.26-.18c.18.15.48-.19.54.08s.27.25.49.29a10.29,10.29,0,0,0,4.07-.17,2.56,2.56,0,0,1,1.55,0,.29.29,0,0,0,.32-.08l-.9-.14c-.18,0-.32,0-.3-.25s-.12-.43-.57-.36c-.21,0-.65.14-.47-.28,0-.07-.06-.18-.09-.27.57-.07,1.13.08,1.7,0-.32-.06-.77-.51-.71-.77s-.27-.72-.36-1.07c-.16-.6-.76-.27-1.07-.45l0,0a1.43,1.43,0,0,0,1.05-.48.08.08,0,0,0,0,0h0l0,0c.12.11.35,0,.46.12s.2.24.41.24.18,0,.19-.09-.18-.09-.23-.16.28,0,.32-.15h.17c.06.07.11.18.19.2.34.11.25.23.09.37s-.25,0-.22.16a.28.28,0,0,0,.27.07,11,11,0,0,0,1.15-.17c.12,0,.34,0,.33-.16s-.28,0-.35-.15l.25-.11c.07,0,.21,0,.14-.14a.22.22,0,0,0-.25-.1c-.19.07-.49.08-.33.34-.24-.09-.82.18-.65-.35l.29,0c.41,0,.5-.31.82-.39h.15l.47.08c-.34.22-.34.22.08.36.07.16.19.38.39.32s.71,0,.87-.3a2.88,2.88,0,0,1,1,0c.71.31,1.1.33,1.57-.06-.23-.13-.54.14-.65,0-.26-.41-.74-.19-1.07-.32a1.13,1.13,0,0,0,.55-.1,2.56,2.56,0,0,1,1.41-.28c.22,0,.5-.12.51.21,0,.09.22.1.35.05.46-.18,1-.2,1.46-.37.18-.07.57,0,.53-.15s-.42-.12-.65-.17a1.41,1.41,0,0,0-.2,0h-1.62l0-.1,1.65-.4c.11,0,.31.06.31-.1s-.19-.11-.31-.14a1.65,1.65,0,0,0-.3,0,11.08,11.08,0,0,1-3.25-.19c-.08,0-.27,0-.28,0-.08.3-.32.1-.38,0s-.32-.11-.48-.17c-.52-.17-1.14,0-1.62-.29-.1-.05-.24,0-.32-.08-.23-.26-.54-.21-.85-.16h-.3c-.6-.1-1.21-.12-1.82-.23-.29-.05-.76-.1-1,.2a.21.21,0,0,1-.21.06c-.51-.12-1,0-1.55-.09,0-.08.14-.16-.11-.22s-.69-.15-.94.12a9.69,9.69,0,0,1-1.94-.22c-.38-.09-.74-.35-1.19-.21,0,0-.08,0-.11-.05-.21-.18-.5-.07-.74-.13s-.26,0-.22.14.18.1.25.07c.3-.17.57.05.85.06s.19.13.17.21-.14.15-.29.06-.54-.08-.57,0c-.15.44-.51.2-.81.14a3.08,3.08,0,0,0-1-.1,8.93,8.93,0,0,1-1.64.14.76.76,0,0,1-.11-.14c.17-.1.06-.18-.09-.2s-.35,0-.35.13.2.06.31.08c0,.23-.26.12-.39.17-.67-.07-1.35-.08-2-.09-.22-.2-.21-.31.19-.31a3.64,3.64,0,0,0,1.19,0c.08-.07.31-.1.18-.25s-.21,0-.31,0-.26,0-.39,0a5.64,5.64,0,0,0-1.74-.07c-.24.07-.31.12-.09.27,0,.09-.29.11-.21.21.25.37-.21.19-.34.26a1.14,1.14,0,0,0-.33-.05c-1.32.15-2.66.09-4,.15a2.25,2.25,0,0,0,.9-.34.74.74,0,0,1,.47-.16c.83-.06.83-.07.86-.69a.08.08,0,0,1,0,0c.21-.16.37-.38.78-.22.11,0,.3,0,.32-.13.07-.33.42-.35.75-.41.18,0,.49,0,.44-.24l.11-.13c.68-.23,1.42-.34,2.1-.59a6.31,6.31,0,0,0,1.3-.48,1.83,1.83,0,0,0,1.06-.66,6.33,6.33,0,0,0-1.41.35l-.09,0h0c-.33,0-.5.2-.79.25h0a.5.5,0,0,0-.36.1,3.79,3.79,0,0,1-1.6.35h0a1.64,1.64,0,0,0-1.23-.11.29.29,0,0,1-.32,0c-.11-.12,0-.18.14-.23s.49-.19.61-.4a1.37,1.37,0,0,1,.45,0c.35.08,1.54-.2,1.58-.43.11-.53.63-.51,1.14-.57.3,0,.7,0,.87-.2a2.83,2.83,0,0,1,1.69-.8.92.92,0,0,0,1-.58.82.82,0,0,1,.8-.55c.17,0,.32,0,.27-.2s.1-.38.14-.57c.61-.26.91-.76,1.5-1,.11-.05.1-.18.16-.26.23-.31.3-.74.82-.86a7.58,7.58,0,0,0,2.38-1.43,3.93,3.93,0,0,1,.82-.51c.36-.12.55-.37.42-.63-.23-.47,0-.79.35-1.11.14-.13.27-.3.4-.44s.37-.59.85-.68c.31,0,.38-.22.63-.3a4.87,4.87,0,0,0,1.46-.78c.14-.1-.09-.55.47-.3,0,0,.06-.06.1-.07.62-.18.57-.67.85-1s0-.31-.28-.32c-.11,0-.23,0-.34.05a1.06,1.06,0,0,1-1.14-.4s-.1-.07-.12-.06c-.29.1-.43-.05-.67-.14a1.21,1.21,0,0,1-.63-.58,2.12,2.12,0,0,0-1.19-.9h0c-.06-.16-.1-.18-.42-.21-.15,0-.38,0-.38-.12s-.29-.57-.11-.82c.32-.48-.29-.65-.58-.87s-.23.18-.39.25a.36.36,0,0,1-.15,0,4.9,4.9,0,0,0-1.24.31,5.41,5.41,0,0,1-1.34.17,2.3,2.3,0,0,0-1.2.08c-.12.06-.27.08-.34-.05a2.47,2.47,0,0,1-.3-.64c-.05-.32-.24-.46-.67-.43-.22-.11-.58,0-.68-.32,0-.09-.12-.08-.18,0-.43.41-.88.25-1.33,0h0a1.52,1.52,0,0,1-.22-.65c-.08-.4-.59-.59-1.26-.37.45,0,.56.22.81.28-.13.3-.4.17-.64.13h0c-.17,0-.43-.47-.52,0,0,.06-.14,0-.22,0s-.09-.07-.11-.12c-.15-.53-.35-.65-1.08-.64a1.86,1.86,0,0,1-.86-.14c-.25-.14-.72-.07-.78.11s-.38.29-.66.34c-.06-.12-.31-.13-.3-.29,0-.36-.3-.25-.54-.24-.08,0-.19.14-.24.07-.3-.37-.55,0-.76,0s-.45.11-.52.3,0,.08.12.1a1.17,1.17,0,0,0,.72-.07s.07-.08.12-.11a.24.24,0,0,1,.31,0c.21.19.58.23.72.47,0,.07.11.15-.07.16-.26-.16-.58,0-.85-.13s-.69,0-1-.11c0,0-.14-.08-.15,0-.08.25-.32.19-.55.16s-.47-.06-.69-.11-.25-.23-.06-.29.5-.26.51-.52c0-.08.21,0,.13-.14a.24.24,0,0,0-.28,0,5.68,5.68,0,0,1-1.37.12c-.21-.12-.34,0-.5.13.14-.33,0-.44-.36-.31a.38.38,0,0,1-.22-.16l-.21-.22c-.07-.09-.2-.15-.28-.07-.32.3-.75.13-1.14.12-.15-.35-.26-.39-.56-.19.07.18-.06.24-.28.23a1.23,1.23,0,0,0-.77.18c-.16.08-.07.19-.05.3V3c-.24.08-.09.27-.18.38a1.16,1.16,0,0,1-.82-.1h-.07c0-.07-.05-.14,0-.21.32-.3.32-.3-.23-.4a1.26,1.26,0,0,0-.38-.06l.23-.18c.16-.11.05-.24,0-.36-.34.19-.46-.23-.75-.17s-.3.29-.6.17c-.12,0-.24-.21-.31,0a4.63,4.63,0,0,1-.29.65.2.2,0,0,1-.19.16c-.41,0-.81.35-1.23,0,.46-.33-.13-.37-.28-.53.1-.09.4-.06.29-.29s-.06-.21-.22-.23-.37.07-.37.14-.32.28-.32.47-.15.16-.28,0-.41,0-.62,0c.11.21-.33.28-.22.49,0,0,.06,0,.09,0,.27.12.73,0,.82.33a.39.39,0,0,1-.24,0c-1-.21-1.15-.36-1-1,0-.09,0-.19-.11-.23s-.29-.06-.34.06c-.15.34-.36.13-.55,0-.09-.4-.39-.16-.62-.14a.69.69,0,0,0-.43-.11c-.09-.2-.24-.2-.4-.08s-.16.16-.31.17a6.44,6.44,0,0,1-1.38-.4l.19-.16.21.08c.21.22.39.26.51,0l0-.15c0-.1,0-.22-.11-.26a.73.73,0,0,0-.88.45c-.31.12.14.25,0,.38-.3-.09-.57-.1-.72.18,0-.08.11-.13,0-.19-.31-.25-.6,0-.88,0s-.09.16,0,.26,0,.13-.05.15c-.38.13-.15.17.06.23s.23.12.14.25.1.2,0,.17a2.4,2.4,0,0,0-1,.18A.33.33,0,0,1,150.5,3c-.06-.08,0-.17.08-.23.31-.22.31-.24-.05-.47s.11-.14.06-.23c.19-.26.3-.5-.26-.6-.27-.12-.47-.15-.39.16,0,.13.07.28-.21.11s-.48-.21-.6.08c-.15,0-.26.14-.48,0a.85.85,0,0,0-.73,0,1,1,0,0,1-1.21.22c-.09,0-.26-.06-.29,0-.37.32-.7.07-1.06-.05a.82.82,0,0,0-.44,0,2.59,2.59,0,0,1-.83.1c0-.24.25-.23.48-.25s.46-.23.21-.41-.66-.59-1.24-.39A.67.67,0,0,0,143,.93c-.41,0-.81,0-1.05-.3-.05-.08-.22-.09-.24,0a.7.7,0,0,0-.06.45c0,.09.21.14.39.11s.31,0,.44,0a.46.46,0,0,1,.61.28l0,.15-.26.13c.07.08.2.07.29.11s.42-.08.55.1c-.28.13-.65.06-.92.21A3.84,3.84,0,0,0,141.54,2c-.33-.16-.12-.39-.18-.59,0,0,0-.07,0-.07a8.64,8.64,0,0,0-1.59-.15c-.23,0-.32,0-.45-.14a4.52,4.52,0,0,0,.72,0c.14,0,.35.06.41-.07s-.19-.16-.27-.25a1.5,1.5,0,0,1,0-.22c0-.1.1-.23-.11-.29s-.25.09-.31.2-.09,0-.13.05c-.27,0-.52,0-.56.24-.34-.16-.67,0-1,0a3.19,3.19,0,0,0-1.31-.16,1.1,1.1,0,0,1-.87-.12l0-.09c.06-.06.12-.13,0-.17a2.32,2.32,0,0,0-.59,0,2.13,2.13,0,0,1-1.12,0h0c-.32-.07-.64-.17-.91.05-.15,0,0,.32-.28.15-.09-.16-.24-.34-.4-.11s-.43.22-.71.24-.37,0-.49.06c0,.17.32.09.36.26-.22.11-.38.27-.73.18a2,2,0,0,0-.6,0c-.24,0-.16-.36-.49-.2s0,.29-.14.38a2.06,2.06,0,0,1-1.34-.26.84.84,0,0,0-.68-.28.77.77,0,0,1-.7-.22c-.16-.24-.3-.13-.47,0-.61.33-.7.32-1.18-.08-.08.09-.15.18-.23.26s-1.08.21-1.17,0-.43-.38-.81-.36l-.14,0c-.52.12-.61.21-.33.36s-.37.32,0,.51a.65.65,0,0,0,.38.07c.2,0,.38-.08.58-.1l.15,0V1l-.14,0c-.3,0-.62.08-.35.41,0,0-.06.06-.1.07l-.24.07-.42-.05-.06-.05c-.48,0-1-.1-1.34.23a.45.45,0,0,1-.38.06A5.44,5.44,0,0,0,119,1.6c-.21,0-.38-.06-.24-.26a.18.18,0,0,0,0-.1,1.63,1.63,0,0,1,.35-.23h.19c.2,0,.19.09.25.18a1.14,1.14,0,0,0,1.58.15.39.39,0,0,1,.38-.1c.2,0,.4,0,.37-.17s0-.37-.4-.31c-.11.16-.19.29-.49.1a1.49,1.49,0,0,0-.82-.16,5.37,5.37,0,0,1-.84-.15c.18-.05.27-.1.29-.08.27.16.59,0,.87.12s.28,0,.29-.12-.46-.46-.64-.38a1.4,1.4,0,0,1-.81,0c-.39,0-.73,0-.83.33a1.19,1.19,0,0,0-1.11-.11c-.14,0,.06.28-.23.16-.07-.14-.29-.21-.77-.24-.26,0-.5.17-.78,0s-.37,0-.33.11c.11.31-.19.27-.41.31a.66.66,0,0,0-.39-.06l-1.68.08c-.17,0-.34,0-.46-.1.1-.08.25,0,.36-.08s.48,0,.42-.19-.31-.13-.47-.1c-.84.16-1.73-.36-2.56,0,0,0,0,0,0,0A1.66,1.66,0,0,0,109.2.1c-.56-.07-1.07.1-1.62.06-1,0-1.9,0-2.86-.1a3.36,3.36,0,0,0-.77.05,2.11,2.11,0,0,1-.84.11c-.56-.13-1.13.06-1.7-.07-.13,0-.35.05-.19.14.64.35.35.6,0,.87a3.45,3.45,0,0,0-1.11,0,3.24,3.24,0,0,0-1,0c0-.11.27-.19.08-.32a.47.47,0,0,0-.5,0L98.3.9,98.2.83a1.48,1.48,0,0,0-.43-.29h0C97.5.4,97.5.32,97.84.31c.12,0,.28,0,.28-.11s-.18-.1-.31-.12a5.17,5.17,0,0,0-1,0,12.21,12.21,0,0,0-3.68.32A3.28,3.28,0,0,0,95,.31c.22.29-.08.58.1.85.2,0,.18-.13.21-.2s.32-.31.48-.45.39.13.61.17-.09.22,0,.32c.17.34.46.12.71.1.21.18.52.17.78.26H98s0,0,0,0a1.92,1.92,0,0,1-1.45.44,14.56,14.56,0,0,0-2.19,0c-.13-.28-.52-.34-.78-.52,0-.29-.37-.38-.61-.39-.53,0-.73-.33-1.06-.53a.74.74,0,0,0-.6-.26c-.46,0-.89.05-1.32,0-.87,0-1.73.07-2.6,0-.22,0-.41,0-.35.25s-.16.14-.28.19S86.6.55,86.55.49a.29.29,0,0,0-.3-.1L86,.46a.61.61,0,0,0-.34-.13.75.75,0,0,0-.68.08c-.12.06.13.14.18.23s-.45.23-.41.44c.07.38-.29.43-.63.51,0-.19-.28-.09-.37-.19s.28-.12.27-.26.1-.18,0-.2c-.3-.06-.18-.06,0-.15s.21-.24.11-.36a.39.39,0,0,0-.45,0c-.29.19-.72.26-.86.56.06.1-.14.19,0,.28.37.22.15.31-.12.4l-.09,0a.74.74,0,0,0-.51.09c.15.05.34,0,.41.12a.88.88,0,0,1-1-.11c-.28-.21-.63.17-1-.1.44-.06.39-.64,1-.45,0,0,.06,0,.1-.07.3-.18,0-.27-.11-.41s-.25-.22-.45-.09c-.41-.25-.6,0-.88.17.14.12.39.19.34.38l-.06.1c-.11.15-.65.23-.13.49,0,.05,0,.17-.12.2h0A.25.25,0,0,1,80,2c-.3-.16-.53-.25-.55.13,0,0-.16.06-.25.09s-.48,0-.78-.06c.2-.11.43-.09.55-.22-.23,0-.57-.08-.64,0-.37.38-.78.19-1.19.05a1.48,1.48,0,0,0-.47-.42l.39-.1a.93.93,0,0,0,.47,0c0-.24-.35-.05-.49-.18a.6.6,0,0,1,.08-.08c.09-.07.22-.13.08-.24S77.08.71,77,.75s-.21.18-.15.28,0,.17,0,.24h-.19c.06-.11.18-.26-.08-.29s-.18.18-.24.29-.12.15,0,.24l-.06.38a.47.47,0,0,1-.28.1c-.28,0-.16.34-.49.25-.16-.08-.4,0-.52-.15s-.43-.19-.64-.29c0-.09-.08-.2.05-.28,0,.09.12.21.22.12s.27-.26.24-.44-.14-.18-.32-.14a2.11,2.11,0,0,1-.53.08c-.3,0-.45.12-.13.31-.09,0-.18.08-.2.16-.28-.13-.52,0-.79,0a.54.54,0,0,0-.7.09.9.9,0,0,0,.73.06l1,0,.14.05c.09.2.37.23.55.35s-.27.2-.39.22a14.68,14.68,0,0,0-2.3.21s-.06,0-.09,0c.06-.22.15-.46-.39-.36-.06,0-.18,0-.22-.13h0c-.14-.1-.31-.25-.46-.08s-.08.31.17.41.29,0,.25.19,0,.1-.08.12.3.23-.06.27c-.21,0-.33,0-.34-.19s-.14-.09-.24-.11c-.48-.1-.85.14-1.28.19s-.76-.06-1,.22a.39.39,0,0,1-.41-.23.14.14,0,0,0-.16-.12.11.11,0,0,0-.11.14c.05.35-.25.32-.55.24a.8.8,0,0,0-.57,0,.6.6,0,0,1-.62.09.14.14,0,0,0-.19.12c0,.07.06.11.16.12.58,0,1.16.08,1.75.09.14,0,.49-.07.42-.16-.18-.24.06-.19.19-.25a.45.45,0,0,0,.57.27c.26-.23.41-.2.79-.11a8.22,8.22,0,0,0,1.58.05c-.13.2-.31.41.2.5.22,0,.17.17.1.27s-.18.1-.33,0S70.73,4,70.53,4l-.18-.12c-.08-.07-.16-.15-.29-.11A.1.1,0,0,0,70,4c.07.13.19.12.33.08s.07,0,.1,0c0,.25-.51.16-.49.41s-.33.19-.37.13c-.28-.36-.58-.19-.9-.1s-.5,0-.45-.14,0-.42.43-.39c.13,0,.3,0,.23-.17a.32.32,0,0,0-.38-.12,8.87,8.87,0,0,1-1.37.2c-.18,0-.48,0-.43.22s.34.1.52.06.24-.07.37-.08.41-.09.53.11a6.4,6.4,0,0,1-1.64.18c-.41.06-.75,0-.51.5a.36.36,0,0,0-.48-.13c-.16.1.07.17.1.26s.19.33.1.33c-.41,0-.6.35-1,.24-.08,0-.23,0-.24-.07s.13-.1.19-.15c.23-.1.57-.15.26-.43a2.25,2.25,0,0,0-1.06-.13c-.09.06-.08.13,0,.21l.09.28c-.34.05-.69.09-1,.15s-.5-.12-.59.08.36.1.39.28a.38.38,0,0,1-.32.07,2.17,2.17,0,0,0-1,0A2.19,2.19,0,0,1,60,5.87a1.29,1.29,0,0,0-.77-.21c-.48.09-1.08,0-1.43.33-.08.08-.22,0-.32,0a1.54,1.54,0,0,0-1.14.45c.1.1,0,.32.32.28a5.52,5.52,0,0,0,1.28-.14,2.07,2.07,0,0,1,.83-.13c-.17.08-.41.11-.35.26s.28.11.45.12a12.87,12.87,0,0,1,1.65-.06.16.16,0,0,0,.2-.17c0-.21.19-.22.4-.24.46-.05.91.1,1.36.06.16,0,.18.08.14.19s-.43.35-.88.26c.07-.07.18-.13.17-.23a.18.18,0,0,0-.15-.18c-.11,0-.26,0-.25,0s-.16.27-.2.41l-.13.1c-1.12.11-2.27.14-3.4.21-.21,0-.31-.07-.35-.22a.26.26,0,0,0-.27-.19.32.32,0,0,0-.28.13h0c0-.22-.17-.23-.59-.2-.17.06-.35.16-.43-.08s.5-.25,0-.37a.28.28,0,0,1,0-.3c.24-.09.29-.3.1-.39a1.15,1.15,0,0,0-1,.15c.37,0,.51.1.54.33s-.38.2-.59.27-.34.17-.56.17-.34-.08-.36-.22-.17-.38-.51-.21c-.11-.17-.15-.44-.49-.11-.11.12-.32.19-.4.34a.42.42,0,0,1-.45.19c-.52-.12-.86,0-1,.36-.37.14-.91,0-1.14.37.08.06.24,0,.29.11s-.32.22-.09.42a1.1,1.1,0,0,1,.71-.23.64.64,0,0,0,.72.07h0V7.55h0c.52-.09.38.17.37.37s-.12.16-.3.19-.54-.2-.84-.11c-.69.2-1.46.22-2.14.45-.25.08-.57-.08-.83.07-.19,0-.27.11-.44.13-.33,0-.32.06-.31.28.44.11.76-.16,1.17-.16a.91.91,0,0,0,.23,0,.3.3,0,0,1,.4,0c.24.22.41.44-.09.58a0,0,0,0,1,0,0c-.37.37-1,0-1.42.25l-.09,0c-.1,0-.19,0-.18.09.05.34-.3.29-.53.25s-.45.29-.77.09c-.26-.36-.86,0-1.14-.31,0,0-.14,0-.15.11,0,.32-.26.18-.46.1.07-.15,0-.17-.2-.14-.42.06-.41.44-.74.56h0c-.2,0-.42,0-.61-.06s-.21,0-.22.08c-.22.2-.67.11-.87.34h-.51c0-.34.42-.29.65-.39s-.1-.41.4-.29c-.22-.1-.44-.11-.57-.23s.08-.14.22-.08.57,0,.83.24c0-.18,0-.28.06-.36s0-.29-.26-.27c-.09,0-.18.1-.27.06-.52-.24-.87.11-1.3.14-.17.09-.36,0-.54,0s-.39,0-.38.23h0c-.18.1.18.26,0,.33s-.27.26-.34.42c-.16.32-.78.63-1.07.48s-.32,0-.45.05a1.14,1.14,0,0,1-.3.18,6,6,0,0,1-.61.09,2,2,0,0,1,0-.42c0-.07.21-.11.11-.21s-.19-.05-.29,0-.23.08-.2.21,0,.3-.28.18c-.1,0-.12,0-.08.07s0,.17-.19.14a1.67,1.67,0,0,0-1.08.17c-.21.11-.55-.12-.65.16a3.11,3.11,0,0,1-1,.2h0c-.61.12-1.22.26-1.84.36-.32.05-.46.15-.41.39L29,13c-.06,0-.15,0-.19,0a.51.51,0,0,0-.78.13.72.72,0,0,1-.56.24c-.15,0-.32,0-.32.16l-.27.1a.68.68,0,0,0-.61.26c.3-.17.72,0,1-.2l1-.13c.28.08.39-.15.62-.16v.07c.09.27-.23.58-.67.64-.62.07-.62.07-.94.41a4.38,4.38,0,0,0,.61-.12A6.18,6.18,0,0,0,29.22,14a2.28,2.28,0,0,0,.6-.12l1.35-.21c.4,0,.52.09.39.36-.23.06-.48.14-.69.21s-.68,0-.89.23a1.65,1.65,0,0,1-.36.11,21.3,21.3,0,0,0-2.66.57,2.67,2.67,0,0,0-.93.3h0l-.64.11a1.75,1.75,0,0,0-1,.28c-.07.07-.24.13-.14.23a.39.39,0,0,0,.38,0c.43-.12.89-.2,1.3-.35a7.53,7.53,0,0,0,1.67-.5c.81,0,1.45-.44,2.27-.45.07,0,.13-.06.2-.09A17.32,17.32,0,0,1,32,14.28,4.44,4.44,0,0,1,34.12,14a.44.44,0,0,0,.37-.15,7.1,7.1,0,0,0,2-.29h0c.39-.07.86.05,1.19-.2l1-.2a5.59,5.59,0,0,1,2.19.14l-.2.16a19.72,19.72,0,0,0-2,.34,5.63,5.63,0,0,1-1.68.26c-.33,0,.12.26-.09.34,0,0-.12.07,0,.07a3.17,3.17,0,0,0,.87,0c.36-.1.76-.11,1.11-.19.72-.17,1.53.07,2.21-.25a.39.39,0,0,1,.37.07,4.68,4.68,0,0,1-1.36.38,1.62,1.62,0,0,0-1,.32,4.07,4.07,0,0,0-.78,0,13.2,13.2,0,0,0-1.83.28c-.82.21-1.69.26-2.51.45-.44.1-.46.13-.6.4a6.75,6.75,0,0,1,1.76-.33A31.05,31.05,0,0,1,38.79,15c.14,0,.3,0,.44,0h.11a.3.3,0,0,1,.22.26,8,8,0,0,0-1.93.23,6.94,6.94,0,0,1-1.49.21c-1.23.17-2.42.42-3.64.6-.47.19-1.08.12-1.56.35.1.09.46,0,.21.24a1,1,0,0,1-.49.09c-.53-.26-.6-.25-.93.16,0,0-.06.06-.11,0-.23-.06-.47.05-.69-.06-.66-.13-.77.24-.94.56a1.88,1.88,0,0,0-.92.2.23.23,0,0,1-.33-.05c-.16-.26-.15-.26-.47-.1A3,3,0,0,0,25,18c-.13,0-.19.16-.06.28s.17.09.25.14v0a3.28,3.28,0,0,1-1.1.26,1.44,1.44,0,0,0-.89.26c-.55-.3-.54-.29-.86.13-.05.06-.19.17-.27.07-.3-.36-.41,0-.72.05.32,0,.5.06.49.25l-.36.17a1,1,0,0,0-.8.34c.35-.1.68,0,.9-.19h0l.2,0a.49.49,0,0,1-.05.39h0c-.44.06-.63.41-1.05.49h0c-.28.09-.58.14-.67.4-.19.07-.36-.22-.48-.09-.27.29-.78.29-1.09.52h0a.6.6,0,0,0-.72.1,1.76,1.76,0,0,1-1.05.23c-.23,0-.42,0-.5.19s-.16.21-.24,0-.1-.07-.15,0a2.62,2.62,0,0,1-1.13.4c-.21.05-.55.11-.65.33-.16,0-.24.23-.42.18-.88-.26-1.26.4-1.94.53-.26.05-.56.25-.89.31-.17,0-.35.05-.42.2-.38.22-.92.24-1.26.5-.19,0-.46.06-.42.25s.3.07.45.1c.45.1.73-.14,1.09-.21,1.11-.21,2.08-.63,3.14-.91a8.16,8.16,0,0,1,1.79-.4c.29,0,.47,0,.58-.22a5.34,5.34,0,0,1,.82-.31,10.91,10.91,0,0,0,2-.55,5,5,0,0,0,1.55-.37l.85,0c.16,0,.4-.18.48,0s-.26.2-.42.28-.24,0-.34.06-.46.08-.48.3c-.39.14-.8.22-1.2.33s-1,.2-1.09.5c-.23.59-1,.84-1.31,1.37-.18.31-.69.4-.89.7a23.58,23.58,0,0,0-2.27,2,.39.39,0,0,0-.29.32c-.05.65-.71,1.13-.7,1.79a.36.36,0,0,1-.2.36c-.09,0-.12.07-.16.12-.31.53.14,1,.46,1.37a2.14,2.14,0,0,0,1.06.87,4.69,4.69,0,0,0,2,.83,6.34,6.34,0,0,1,1.28.37,13.62,13.62,0,0,0,2.76.78,10.7,10.7,0,0,1,2.68.85,16.43,16.43,0,0,1-3.06.51c.06-.09.38,0,.25-.2s-.28,0-.43,0-.21.11-.13.23a9,9,0,0,0-1.94.14,1.89,1.89,0,0,1-.75,0c-.21,0-.37-.07-.35-.29,0-.06.06-.22-.21-.35a3.94,3.94,0,0,0-1.51-.16,10.46,10.46,0,0,0-4.64.76,1.64,1.64,0,0,1-.62.06c-.45,0-.93-.26-1.43.07.5.05.92.1,1.33.12a1.14,1.14,0,0,1,.49.11c-.19.13.13.28,0,.37a.57.57,0,0,1-.53,0,.71.71,0,0,0-.67.14c.47,0,.86.14,1.25.14s.48.26.5.48-.27.16-.47.17l-2,.08a5.28,5.28,0,0,0,1.48.07c.17,0,.4,0,.42.13s.25.32.25.53H7.71c-.1,0-.23,0-.24.07s.15.09.26.09h1.5c.33,0,.64,0,.43.34,0,.08.07.19.11.28.13.34.53.61.63.92a1.94,1.94,0,0,0,1.42,1A22.51,22.51,0,0,0,17,42.08c.1.12.31,0,.42.13l-.08,0c-.12,0-.24,0-.34,0a1.44,1.44,0,0,0-1.07.77c-.06.12-.28.22-.15.38s.33.08.5.05l.28,0c.16.1.34,0,.52.05a1.08,1.08,0,0,0,.64.11c.18.13.18.41.56.36l.52.14c.43.34,1,.12,1.47.23h.09c-.12.22,0,.4.23.55a5.59,5.59,0,0,1-1.27.16c-.25,0-.46.07-.56.25-.55.25-1.24.26-1.94.53a3.7,3.7,0,0,0,.88.06c.31.15.51.3,0,.38-.1,0-.22,0-.23.12s.15.12.24.16a3.18,3.18,0,0,0,.33.08s-.17.11,0,.13a5.1,5.1,0,0,0,1.41.18h0c0,.32-.34.6,0,1,.07.07-.1.24-.33.26s-.22.06-.09.15.17.29,0,.43,0,.19.15.21c.4,0,.34.33.51.5-.25.09-.22.37-.44.46h-.06a.3.3,0,0,0-.35.26.13.13,0,0,0,0,.11c0,.06.1.13,0,.18-.43.16-.07.24.08.34a.88.88,0,0,0,.62.08l.92.12a.18.18,0,0,0,.15,0,.11.11,0,0,0,0,.13.23.23,0,0,0,.16.1.38.38,0,0,1-.23.14.67.67,0,0,0-.17.07c-.19.15-.32.3.1.4.24,0,.47.12.71.19,0,0-.07.07-.1.11a.76.76,0,0,1-.35.05c-.05,0,0,.09.06.16a.94.94,0,0,1-.3.07,1.43,1.43,0,0,0-.83.29,2.21,2.21,0,0,0-.46.1c-.17.08-.53,0-.43.31a.55.55,0,0,0,.61.35h0a5.82,5.82,0,0,0,1.78.65.31.31,0,0,0,.06.2c0,.14.19.15.27.24v0a2.65,2.65,0,0,1-1.15.26.93.93,0,0,0-.67-.17c-.1,0-.28,0-.31-.11-.18-.39-.55-.28-.86-.2a4.59,4.59,0,0,1-.83.1l-.41-.14h0c-.12-.18-.72-.12-.45-.49,0,0,0-.08-.11-.09a3.14,3.14,0,0,0-2.16.06A3.5,3.5,0,0,1,14,54a1,1,0,0,1,.23.08,3.12,3.12,0,0,0,2.31.49h0a3.09,3.09,0,0,0,2.37.16c0,.07,0,.11,0,.12l-.09,0c-.22-.12-.31,0-.58.4-.05.08-.22.22-.31.07-.3-.55-.45-.07-.8,0,.35.08.56.14.52.42l-.42.21a1,1,0,0,0-.92.41c.4-.11.76.07,1-.19h.23a1,1,0,0,1-.08.56h0c-.51.05-.74.54-1.22.62-.32.09-.66.15-.78.5-.23.08-.39-.35-.54-.17-.32.4-.89.35-1.26.65h0a.56.56,0,0,0-.82.06c-.31.32-.79.24-1.19.24s-.47-.08-.57.22-.2.28-.28,0c0-.11-.09-.1-.16,0a2.34,2.34,0,0,1-1.29.48c-.25.05-.63.11-.77.42-.18,0-.28.3-.48.21-1-.46-1.45.45-2.22.57-.29,0-.64.31-1,.37-.2,0-.4,0-.49.25-.44.28-1,.25-1.45.6-.22,0-.52,0-.49.31s.33.14.5.2c.49.19.82-.14,1.24-.2a35.76,35.76,0,0,0,3.58-1,7.24,7.24,0,0,1,2-.4c.33,0,.53,0,.66-.27a6,6,0,0,1,1-.36,10.08,10.08,0,0,0,2.33-.59c.67.13,1.17-.29,1.76-.39l1,0c.19,0,.46-.22.54,0s-.3.27-.49.36-.27,0-.38,0-.53.07-.57.39c-.45.16-.92.24-1.38.36s-1.1.19-1.26.62c-.31.83-1.19,1.12-1.57,1.85-.23.44-.81.52-1.06.93A29.31,29.31,0,0,0,7.56,66.4a.51.51,0,0,0-.35.44c-.11.92-.89,1.56-.93,2.51a.55.55,0,0,1-.25.51c-.11,0-.15.08-.19.16-.39.73.08,1.4.4,2a2.88,2.88,0,0,0,1.12,1.36,5.06,5.06,0,0,0,2.16,1.4,5.47,5.47,0,0,1,1.4.67,14.34,14.34,0,0,0,3,1.4,10.41,10.41,0,0,1,2.93,1.49,14.33,14.33,0,0,1-3.46.44c.06-.13.42,0,.29-.27s-.31,0-.48-.05-.25.14-.17.32a8,8,0,0,0-2.18,0,1.72,1.72,0,0,1-.84-.12c-.23-.06-.41-.14-.37-.46a.46.46,0,0,0-.2-.53c-.57-.4-1.13-.27-1.69-.39A9.21,9.21,0,0,0,2.52,78a1.65,1.65,0,0,1-.7,0c-.5,0-1-.47-1.6,0,.56.12,1,.24,1.48.32A1.14,1.14,0,0,1,2.24,78.46Zm8,10.47v0h0Zm3.05,6.77Zm1,13.12h-.06a.36.36,0,0,0,.23,0,2.48,2.48,0,0,1,.47,0A1.12,1.12,0,0,1,14.31,108.82ZM136.12,164.2h0Zm2.21-1.14h0v0Zm50.46-7.72h-.07s0,0,0,0Zm-8,0a1.79,1.79,0,0,1-.61,0Zm-5.78,1.9Zm-1.92.23a.13.13,0,0,0,.1.07h0a.55.55,0,0,1-.6.06C172.63,157.39,172.89,157.48,173.07,157.44Zm-.77-.67Zm-2-.39Zm-3.59,2.88Zm0,0h0Zm-.11.21h0Zm-.55-1.81h0Zm-1.5-1.25h0Zm-.17,5.15a.44.44,0,0,0,.44-.28h.08v0c.46,0,.66.61,1.24.38-.13.13-.23.24.06.34h0c.05.07.08.17,0,.15-.35-.06-.27.12-.28.24h0s0,.06,0,.08,0,.17.1.25h0c.05,0,0,0,0,0s-.33-.22-.52-.32c.1-.33.06-.41-.31-.45h0c-.23-.06-.46,0-.69-.1l-.16,0-.14-.05C164,161.67,164,161.57,164.33,161.55Zm-.39.78v0h0c-.1.07-.1.2-.23.26C163.66,162.45,163.68,162.33,163.94,162.33Zm-.63-7.08h0Zm-1.8-.09h0Zm-1.46,4h0l0,0Zm-.27-9.26h0l0,0Zm-1,.16a.12.12,0,0,1,0,.11h-.06A.44.44,0,0,1,158.74,150.06Zm-.51,6.09Zm-2.09-6.72h0v0Zm-.79-.36h0C155.31,149,155.38,149.06,155.35,149.07Zm21-1.45h0Zm0-.4-.11,0a.58.58,0,0,0,0-.1S176.29,147.18,176.35,147.22Zm18.82-5.59.05,0h-.05Zm-1.1-.21,0,0h0ZM200,139.6v0Zm-9.34-11.26h0Zm12.71-9.49h0Zm-2.07,0a.53.53,0,0,0,.12,0l0,0-.16,0Zm-8.33-13.89c.06-.06.08,0,.12.07l-.15,0Zm-3.41,22.71h0S189.51,127.65,189.51,127.64ZM187,103.22h0Zm-4.77,2h0Zm-1.09,23.24h0ZM180,105.21h0Zm-1.75-11.66h-.11S178.2,93.5,178.27,93.55Zm26.17-7h0Zm-4.45-1h0Zm-9.05-3.29h.12a1.1,1.1,0,0,0,.57,0l.08,0c.11.06.24.08.26,0,.16-.38.43-.09.65-.07h.16l.08.06c-.1.16-.48.1-.38.35,0,0,0,.09,0,.12l-.11,0s-.16-.07-.26-.1a8,8,0,0,0-.85-.19l-.38,0a.73.73,0,0,1-.31-.14A1.19,1.19,0,0,0,190.94,82.25Zm1.7-32.51Zm-4-1.37.19,0c0,.06,0,.11-.14.1a.45.45,0,0,0-.12-.06Zm-5.8,43.48,0,.05s0,0,0-.05Zm-9.08,1.72h0Zm.07-48.4,1.55.07c0,.09-.09.18-.12.27s-.09.2-.23.22c-.46,0-.94.41-1.37-.17C173.91,45.39,173.93,45.27,173.87,45.17Zm-2.15,47.68Zm-.11-47.8c-.11.11-.24.2-.18.39,0,0,.06,0,.09.06.3.19.82,0,.89.56-.09,0-.18,0-.27,0-.84-.31-1.13-.51-1.13-1Zm-2.37,48h0Zm5.27-51.31Zm-9.75,104.73,0,0h0Zm1.3.3a.14.14,0,0,1,.15-.1Zm.28-1.43h0l0,0Zm8.43-.82c-.18.16,0,.38-.1.54l-.31.12,0,0a1.19,1.19,0,0,1-.75,0,.55.55,0,0,0-.53,0h0c-.53-.14-.84.22-1.32.21h0a.7.7,0,0,0-.63,0c-.06,0-.07.05-.06.08l0,0h0l-.06-.06c-.19-.09-.43,0-.61-.15a1.77,1.77,0,0,0-1.13-.23.27.27,0,0,1-.29-.11h0a.38.38,0,0,0,.19-.11h.07c.29,0,.65.08.8-.13a.75.75,0,0,1,.62-.24l0,0c-.13.08-.19.17-.06.29a.23.23,0,0,0,.25,0c.12-.06.26-.13.12-.27s-.05-.08,0-.11H171c.25,0,.63,0,.42-.33l0,0c.1,0,.28,0,.28-.14l0,0a1.17,1.17,0,0,1,.41.1c-.29.29,0,.4.33.5a2.14,2.14,0,0,0,1,.15c.29.12.29,0,.35-.16a.44.44,0,0,1,.62-.3h0c.11,0,.25,0,.33.1Zm.63,2.56a1.53,1.53,0,0,0,.11-.27.47.47,0,0,0,.05.28A.22.22,0,0,0,175.4,147.05Zm.68.24h0c0,.08,0,.14.05.19a.84.84,0,0,1-.28-.15q.09,0,0-.12A.18.18,0,0,1,176.08,147.29Zm1.59-2.79-.23.1.39.29h0c-.08.13-.33-.1-.4,0h0l0,0c-.1,0-.17,0-.17.1,0,.29-.29.37-.61.4a.29.29,0,0,0-.16-.17c0-.22.3-.16.48-.17s.37-.16.21-.24c-.32-.14-.15-.34-.28-.49-.22-.32-.7-.31-1-.47.1-.29.42-.27.73-.18.15,0,.27.15.43.05a1.51,1.51,0,0,1,.73.32C178.21,144.35,178,144.4,177.67,144.5Zm4-2.54h0Zm3.56-8.43s0,0,0,0Zm1.42-.53h0Zm2.23,8.42h.06v0Zm.92.22h.05l0,0Zm-7.41-9.89a1.15,1.15,0,0,1,.66.05l.15,0a15.64,15.64,0,0,0,2.63.41.63.63,0,0,0,.51-.11v0l0,0h0l.06.06.16,0c.18.13.31.33.57.23a2.77,2.77,0,0,1,.56-.11,1.55,1.55,0,0,1,.31,0,3.4,3.4,0,0,1,.78.1,1.92,1.92,0,0,0,1.34,0h.09c.07.21.14.23.53.28a3,3,0,0,1,1.3.3,1.63,1.63,0,0,1-.62.08c-.16,0-.38,0-.4.13h0a.43.43,0,0,0-.2-.07h0a.73.73,0,0,0-.88-.11.92.92,0,0,1-1.08-.06.49.49,0,0,0-.25-.07,10,10,0,0,0-2.61-.07h0a1.29,1.29,0,0,0-1.22-.5l-.11,0c-.15,0-.28,0-.32.11l-.09.06a.16.16,0,0,1,.06-.09.3.3,0,0,0-.4.14.49.49,0,0,1-.7.06l-.06,0h0c.24,0,.27-.21.51-.2s.12-.07.06-.14a.2.2,0,0,0-.23-.05c-.08,0-.11.21-.25.09s-.37-.06-.5.06a.05.05,0,0,1,0,0s0,0,0,.06l-.37.17h-.07c-.07-.15-.29-.14-.46-.18s-.26-.1-.28-.21.11-.14.23-.17.35,0,.33-.17a.15.15,0,0,0-.06-.09A.81.81,0,0,0,182.38,131.75Zm-13.56-3h0a.26.26,0,0,0,.2,0c-.09,0-.2.09-.29,0Zm-.23-80.63h0Zm-2.34-4.77h.16a.17.17,0,0,1,0,.11.91.91,0,0,0-.29-.1Zm-.63,0h.23a.49.49,0,0,0-.3.29C165.58,43.5,165.69,43.43,165.62,43.34Zm-2.35.39c-.27-.2.13-.19.08-.33a.21.21,0,0,0,0-.06h1.05c0,.08.1.19.17.29a.13.13,0,0,1-.07.22c-.43.14-.18.23.05.34s.25.2.14.38.09.29-.07.24c-.44-.14-.75.1-1.12.16-.19,0-.29-.1-.36-.23a.27.27,0,0,1,.1-.34C163.65,44.13,163.65,44.1,163.27,43.73Zm-.49,85.38c.23,0,.49,0,.71,0,1.82.24,3.64.54,5.45.77a4,4,0,0,1,1.24.08l.2,0a2,2,0,0,0,.26.06,1.65,1.65,0,0,0,.32,0l.45.07.1,0a.83.83,0,0,0,.73.14.47.47,0,0,1,.16,0l.46.06.13,0a7.07,7.07,0,0,0,1.52.23,6.6,6.6,0,0,1,1.72.3,2.09,2.09,0,0,0,.92.17,4.07,4.07,0,0,1,1.15.1,8.85,8.85,0,0,0,3,.37.78.78,0,0,1,.26,0,2,2,0,0,0,.34.13.62.62,0,0,1-.2,0l-.16,0c-.52-.09-.41.38-.75.44a1.44,1.44,0,0,0-1.49-.52l-.14,0h0a4.15,4.15,0,0,0-2.13-.1h0c-.4,0-.8-.19-1.2-.1h0l-.21-.09c-.48-.18-1.06-.07-1.49-.32a3.06,3.06,0,0,0-1.67-.3,2.65,2.65,0,0,1-1.33-.21,1,1,0,0,0-.66-.06,1.39,1.39,0,0,0-.83.47.8.8,0,0,1-.72-.21l0,0a3.65,3.65,0,0,0-.41-.56,3.05,3.05,0,0,0-1.27-.2,1,1,0,0,0-.85,0h-.1l-.07-.06a3.81,3.81,0,0,0-1.07-.33l-.16-.05a2.34,2.34,0,0,0-1.2-.09,2.56,2.56,0,0,1-.78,0l-.63-.11Zm3.54-93.52h-.1S166.26,35.56,166.32,35.59Zm22.89-6.41h0Zm-4-.41ZM177,27.06h.11a1.39,1.39,0,0,0,.5,0l.07,0c.1,0,.22,0,.24,0,.12-.27.37-.09.57-.09l.14,0,.07,0c-.08.12-.42.1-.32.27a.59.59,0,0,1,0,.08l-.09,0s-.15,0-.24-.06a6.31,6.31,0,0,0-.76-.07H177a.65.65,0,0,1-.28-.08A1.35,1.35,0,0,0,177,27.06Zm-6.68,7.08,0,0,0,0Zm6.58-29.51ZM162.35,35.87h0Zm-1.66,91.91h0v0l0,0Zm-.22-92.27Zm-1.64,112.81v0s0,0,0,0Zm-.15-1.07h0Zm-.4-111.47h0Zm-1.8,112h0ZM155.48,5h0Zm-.75,155.84h0Zm-.21-.33Zm0-2.2v0h0Zm-.48-8.58h0Zm-.88,9h0l-.05,0A.1.1,0,0,1,153.13,158.72Zm-.32-9.66Zm-2.91,9.43h0Zm-.31-.47h0l0,0,0,0Zm-.15,1.94v0h0Zm-10.73,1.72h0a.05.05,0,0,0,0,0Zm.47.06h0s0,0,0,0,0,0,0,0Zm1.45.29a.6.6,0,0,1,.26,0A.72.72,0,0,1,140.63,162Zm3.27.2v0l0-.08H144C144.08,162.15,144,162.19,143.9,162.23Zm.28-.7h0Zm4.88-4.87h0Zm-.61.79Zm-.26-.26h0v0ZM146.32,160a.77.77,0,0,0-.51-.18,2.29,2.29,0,0,1-.78-.06c0-.09-.31-.17-.15-.27s.22.09.34.11l.15,0a4,4,0,0,0,.47.05c.16,0,.41,0,.39-.15s-.26-.05-.41-.09h-.26c-.08-.12-.25,0-.39-.16a.41.41,0,0,0-.59.07h-.18a.51.51,0,0,1,.14-.43h.26a5.29,5.29,0,0,0,2.46.15,1.23,1.23,0,0,1,.44-.09h0a.26.26,0,0,1,.15.13c.12.22.27.17.43.07s.18-.14.34-.13c.25.26.1.53.11.79l0,.06h-.05c-.46-.41-.67.06-1,.09-.1,0-.28.07-.21.21a.4.4,0,0,0,.39.18,2.05,2.05,0,0,1,.78.07c0,.13-.19.31.23.29h0a.57.57,0,0,1-.12.18.61.61,0,0,1-.27,0c-.33-.08-.17-.33-.4-.37s0,.4-.41.35a.34.34,0,0,0-.14,0c-.13.1-.06.25,0,.36s.2.06.3,0a1,1,0,0,1,.86.29c.19.21-.13.23-.18.35s0,0,0,.07v0c-.12.06-.38,0-.4.14l0,0c.09.08-.2.4.28.23.15.17.37.11.56.12l0,0c-.07,0-.1.06-.07.13a.15.15,0,0,0-.13,0h0c-.32-.15-.72-.15-1-.33h0c.19-.08.33-.17.06-.35l-.05,0v0h0c.06-.11-.18-.17-.16-.27s.11-.15,0-.2a.24.24,0,0,0-.26.08,3.36,3.36,0,0,1-.29.24l-.13.11,0,0a1.79,1.79,0,0,0-1.22-.3s0,0,0,.06v0a.4.4,0,0,0-.47.21c-.23,0-.52.27-.68-.12l0-.08a.53.53,0,0,1,.44-.23c.15-.16.06-.45.42-.5a1.27,1.27,0,0,0,.43-.35,1,1,0,0,1,.24-.05C146.43,160.48,146.51,160.38,146.32,160Zm-2.95,1.15.06,0h0c.29.07.31-.16.44-.26.15.05.28-.41.43,0V161c-.14.13-.05.31-.15.45a1.17,1.17,0,0,0-.49-.11,1.12,1.12,0,0,1-.22-.1h-.08s0,0,0-.06Zm-3.54-.57c.37,0,.65.24,1,.22.17,0,.08-.18.29-.14.43.09.25-.11.18-.26.2-.14.42.1.63,0s.25.26.34.41.42.27.72.24c.16.14.09.3.13.46s-.08.08-.09.12l-4.58-.81A9.63,9.63,0,0,0,139.83,160.56ZM135,163.35c-.07,0-.07-.09,0-.14A.32.32,0,0,1,135,163.35Zm.09-1.08s0,0,0,0a.29.29,0,0,1,.12.07Zm1.76-1.93v0h0Zm-.32,1.94.72.13v.07a.16.16,0,0,0,.14,0l.28,0c0,.13,0,.25.19.31l-1.12-.21a.46.46,0,0,0-.14-.05h-.11l-1-.18a.12.12,0,0,1,.08,0A.94.94,0,0,0,136.49,162.28Zm-1.16-2.61Zm0,0Zm-.32-1Zm.48,1.17c.06-.14.14.1.26.1s.36,0,.54,0c.26.24-.12.18-.19.18s-.37,0-.33.22l-.93-.16C134.77,159.94,135.4,160,135.49,159.84Zm-.91.32Zm-.44,2.41.55.09s0,0,0,0a.2.2,0,0,0-.14.08l-.63-.13Zm-.75-2.61c.19-.07.28,0,.35.06l-.35-.06Zm-.38-.11h0Zm.09,1.84,0-.06.68.15h0c-.09.06-.08.15,0,.22a5.29,5.29,0,0,1-.79-.17C133.05,161.84,133.12,161.78,133.1,161.69Zm-.23.64.32.06-.08.06c-.16,0-.25-.07-.24-.08Zm-3,1.28h0l0,0Zm.06.38a.37.37,0,0,1-.1-.25C129.86,163.81,129.92,163.89,130,164ZM111,1.06l.09.07H111A.15.15,0,0,1,111,1.06Zm-2.08,158.63h0Zm0,0ZM108.11.35l0,0h0Zm-.34,1h0Zm-.06,0h0ZM91.82,1.15c.32-.2.66,0,1,0,.08,0,0,.11,0,.16a2.34,2.34,0,0,0-.81.07,1.32,1.32,0,0,0,.86.08h0a.38.38,0,0,0,.21,0,.1.1,0,0,1,0,0c.1.08.14.16.07.24l-.09,0c-.38-.09-.78-.09-1.16-.17h0a1,1,0,0,0-.09-.37Zm-3.57.55,0,0-.06,0ZM64.75,4.93h0ZM56.53,7.36a1.13,1.13,0,0,1-.18,0C56.43,7.24,56.48,7.29,56.53,7.36ZM54,95.19l0,0H54ZM53.75,7.41c-.1,0-.13,0-.18-.09l0,0h0C53.58,7.35,53.71,7.35,53.75,7.41Zm-.23-.81h.1c-.09.16-.06.41-.48.37C53.29,6.85,53.66,6.86,53.52,6.6Zm-1.05.94c.21.15.53.11.74.21-.12,0-.27-.1-.42,0v0a1.49,1.49,0,0,0-.37-.14A.1.1,0,0,0,52.47,7.54Zm0,86.36v0l0,0Zm-1.83-2.09-.05.08a.1.1,0,0,1,0-.09Zm-7.84-80.4h0ZM32.06,13.68c.17-.13.45-.1.53-.26.2.12.49,0,.7.12C32.89,13.58,32.51,13.67,32.06,13.68Zm2.1-.39h0c.13.11.39.14.41.33A3,3,0,0,1,34.16,13.29ZM38.93,12h0Zm2-2.18,0,.07h0l-.05,0h0Zm-.34.12v0a.67.67,0,0,1,.22,0c-.14,0-.13.14-.08.24a.16.16,0,0,0,.22.1s.07,0,0,0A.34.34,0,0,1,40.62,10ZM17,42.62h0Zm3,4.47Z"/><path class="cls-1" d="M141.86,163.52l1.36.24a.58.58,0,0,1,.5-.06,7.66,7.66,0,0,0-2-.48l0,0C141.57,163.4,141.78,163.45,141.86,163.52Z"/><path class="cls-1" d="M141.81,164.55c.25.2.74-.05.89.36a1,1,0,0,1,.66-.39l-1.43-.27a.86.86,0,0,1-.12.3Z"/><path class="cls-1" d="M143.85,165.09c.27.18.47,0,.66-.05s-.09-.18-.24-.23,0-.1,0-.12l-.56-.1C143.42,164.74,143.47,164.81,143.85,165.09Z"/><path class="cls-1" d="M144.29,164.69l.17,0A.29.29,0,0,0,144.29,164.69Z"/><path class="cls-1" d="M211.69,93a2.19,2.19,0,0,0,.88.4c.39,0,.39-.36.49-.61s0-.42-.32-.47l-.5-.07c-.34,0-.7-.11-.86.2S211.53,92.84,211.69,93Z"/><path class="cls-1" d="M9.86,92.12h.61c.14,0,.28,0,.34-.13s-.09-.22-.18-.31A1.26,1.26,0,0,0,9,91.48c-.12.07-.29.14-.25.31S9,92,9.12,92,9.69,92.1,9.86,92.12Z"/><path class="cls-1" d="M205.74,91.24c1.85.37,3.67.7,5.64,1A20.09,20.09,0,0,0,205.74,91.24Z"/><path class="cls-1" d="M212.52,122.63a7.67,7.67,0,0,0-2.07-.16,4.76,4.76,0,0,0,2.06.49c.12,0,.26,0,.26-.14S212.64,122.65,212.52,122.63Z"/><path class="cls-1" d="M194,80.92c0,.26.5.28.83.32s.63.08.63-.21-.41-.16-.63-.27a.14.14,0,0,0-.11,0C194.49,80.86,194,80.53,194,80.92Z"/><path class="cls-1" d="M203.54,111.93a.2.2,0,0,0,.2.17,5.5,5.5,0,0,0,2.14-.24l-2.17-.08C203.59,111.77,203.54,111.82,203.54,111.93Z"/><path class="cls-1" d="M175.55,44.28l-.11-.13c-.17-.22-.38-.4-.66-.29s-.07.48-.27.67c0,0,.09.19.22.21s.28,0,.25-.13C174.79,44,175.27,44.32,175.55,44.28Z"/><path class="cls-1" d="M202,113.69a2.19,2.19,0,0,1-1.39.14.17.17,0,0,0-.22.17c0,.16.15.15.25.15l.75,0a1.07,1.07,0,0,0,.9.11c.13,0,.34,0,.33-.17s-.21-.18-.34-.24A.21.21,0,0,0,202,113.69Z"/><path class="cls-1" d="M208.36,93.75a9.23,9.23,0,0,0-1.93-.28C208,94.05,208,94.05,208.36,93.75Z"/><path class="cls-1" d="M180.17,93.68c-.06.17.16.18.26.2a1.9,1.9,0,0,0,.79-.17.25.25,0,0,0-.29-.25C180.67,93.49,180.29,93.31,180.17,93.68Z"/><path class="cls-1" d="M190.68,94.39c0,.22.22.33.39.36a.34.34,0,0,0,.39-.29c0-.23-.25-.16-.38-.24S190.69,94.16,190.68,94.39Z"/><path class="cls-1" d="M194.81,94.18a4.68,4.68,0,0,0-.54.08c-.16,0-.32.14-.11.34.16.42.57.38.88.51C194.84,94.82,195.28,94.43,194.81,94.18Z"/><path class="cls-1" d="M195,75.57c0-.13-.15-.2-.28-.18a.58.58,0,0,0-.51.39c0,.11.15.13.28.15S194.93,75.81,195,75.57Z"/><path class="cls-1" d="M6.31,76.16c0-.25-.22-.09-.32-.16s-.44-.06-.43.19.23.2.36.2S6.29,76.33,6.31,76.16Z"/><path class="cls-1" d="M186.62,46.71c-.14,0-.22.1-.2.25a.3.3,0,0,0,.32.25c.12,0,.23,0,.21-.18S186.82,46.72,186.62,46.71Z"/><path class="cls-1" d="M172,44.29a.21.21,0,0,0,.24.18c.14,0,.19-.09.19-.21s-.08-.19-.25-.21S172,44.12,172,44.29Z"/><path class="cls-1" d="M187.44,80.45a.53.53,0,0,0,.56.26.09.09,0,0,0,0-.16A.47.47,0,0,0,187.44,80.45Z"/><path class="cls-1" d="M211.24,83.36a.17.17,0,0,0,0-.15.46.46,0,0,0-.59.07C210.83,83.37,211,83.5,211.24,83.36Z"/><path class="cls-1" d="M213.77,87.17c-.11,0-.23,0-.22.15s.14.15.25.16.21,0,.23-.15S213.89,87.17,213.77,87.17Z"/><path class="cls-1" d="M201.45,94c-.07.06,0,.13,0,.17a.37.37,0,0,0,.51-.1C201.79,93.94,201.62,93.89,201.45,94Z"/><path class="cls-1" d="M196.41,32.61c-.3,0-.63,0-.75.19s.15.29.3.35a2,2,0,0,0,.8.22c.35,0,.33-.26.4-.44s0-.29-.3-.3Z"/><path class="cls-1" d="M16.73,44.84l.54-.05c.12,0,.25,0,.3-.1s-.09-.15-.17-.21a1.38,1.38,0,0,0-1.5,0c-.1.06-.25.12-.2.23s.23.13.37.14S16.58,44.84,16.73,44.84Z"/><path class="cls-1" d="M145.69,1.74a1.06,1.06,0,0,1,1.11.15s.16,0,.31.05a.54.54,0,0,0,.56-.38c0-.22-.31-.19-.52-.2a3.55,3.55,0,0,0-1.49.1c-.14,0-.17.1-.14.19A.12.12,0,0,0,145.69,1.74Z"/><path class="cls-1" d="M190.59,32.34c1.67.14,3.3.26,5,.31A23,23,0,0,0,190.59,32.34Z"/><path class="cls-1" d="M30.32,15.48a2,2,0,0,0-1.3.3.89.89,0,0,1-.74.3c-.35,0-.65.48-1.09.05l-.08,0a.29.29,0,0,1-.42,0s-.16-.06-.17,0c-.05.44-.55.21-.84.3h-.1a.76.76,0,0,0-.15,0c-.42,0-.56.43-1,.41-.06,0,0,.13.13.15A.78.78,0,0,0,25,16.9c.23-.09.25,0,.27.14s-.2.13-.29.22a.78.78,0,0,0,.54,0,30.31,30.31,0,0,1,3.22-.81A1.59,1.59,0,0,0,29.6,16c.15,0,.31.23.31.13,0-.32.44-.17.57-.32l0-.14C30.42,15.63,30.39,15.51,30.32,15.48Zm-2.51.88-.2,0a1.45,1.45,0,0,1,.29,0Z"/><path class="cls-1" d="M68.19,2.31c-.12,0-.4,0-.31.21s.27.11.44.09l1.48-.15c.11,0,.28,0,.27-.1s-.2-.17-.32-.13a4.51,4.51,0,0,1-1.22,0A1.27,1.27,0,0,0,68.19,2.31Z"/><path class="cls-1" d="M44,9.12c-.11,0-.1-.18-.19-.11a.73.73,0,0,0-.24.39c0,.09.13.13.27.09a9.7,9.7,0,0,0,1.43-.24c.49-.05.31-.22.11-.4h0c-.58-.18-.9-.1-1.13.27C44.22,9.23,44.11,9.12,44,9.12Z"/><path class="cls-1" d="M59.62,4.53a13.48,13.48,0,0,0-2.22.07c-.13,0-.25,0-.23.13s.13.08.24.09A5.94,5.94,0,0,0,59.62,4.53Z"/><path class="cls-1" d="M30.87,16a11.25,11.25,0,0,0,1.74-.39c.23-.22.63-.19.94-.3A10.93,10.93,0,0,1,36,14.84c.15,0,.36,0,.32-.15s0-.25-.36-.28a5.34,5.34,0,0,0-1.16.14c-.33,0-.68-.05-.9.18l-.49.1a1.12,1.12,0,0,0-.63.05c-.12,0-.31,0-.3.2s0,.29-.39.18q-1-.28-1.32.42c-.08.07-.13.17-.29.16C30.53,16,30.69,16,30.87,16Z"/><polygon class="cls-1" points="30.49 15.84 30.48 15.84 30.48 15.84 30.48 15.84 30.48 15.84 30.48 15.84 30.48 15.84 30.49 15.84 30.49 15.83 30.49 15.83 30.49 15.84"/><path class="cls-1" d="M60.27,2.89c.25-.05.13-.28.2-.41s-.09-.11-.12-.09c-.33.2-.76.1-1.19.14.14.12.29.13.35.23C59.68,3.07,60,3,60.27,2.89Z"/><path class="cls-1" d="M180.42,26.13c.19-.05.56,0,.55-.18s-.38-.09-.57-.15a.17.17,0,0,0-.1,0c-.2.09-.66-.11-.63.16S180.12,26.13,180.42,26.13Z"/><path class="cls-1" d="M189.67,46.68c0,.07.09.1.18.11a6.56,6.56,0,0,0,1.89-.3l-1.93.07C189.7,46.57,189.66,46.61,189.67,46.68Z"/><path class="cls-1" d="M42.83,8.4c.31,0,.66.09.88-.14A.48.48,0,0,1,44.29,8c.1,0,.19,0,.15-.13-.27.09-.5-.29-.79-.07a1,1,0,0,1-.61,0c-.2-.07,0-.39-.33-.34s0,.28-.09.42a3.7,3.7,0,0,0-.48.06c-.13,0-.3.16-.19.19C42.25,8.2,42.38,8.63,42.83,8.4Z"/><path class="cls-1" d="M65.27,4.34a4.57,4.57,0,0,0,1.12-.14A4.57,4.57,0,0,0,65.24,4a.22.22,0,0,0-.25.2C65,4.34,65.17,4.35,65.27,4.34Z"/><path class="cls-1" d="M161,2.18c-.19-.4.25-.21.5-.26l-.11-.08a.57.57,0,0,0-.6-.16c-.26.09,0,.34-.2.48s.09.12.2.13S161,2.26,161,2.18Z"/><path class="cls-1" d="M71.62,1.71c-.11-.1-.17-.25-.38-.21a.25.25,0,0,0-.21.33c0,.1,0,.18,0,.27A.45.45,0,0,0,71.46,2C71.54,1.9,71.82,1.89,71.62,1.71Z"/><path class="cls-1" d="M61.27,5.26a.35.35,0,0,0,.34.29c.26,0,.21-.18.23-.29s0-.27-.24-.26S61.22,5.09,61.27,5.26Z"/><path class="cls-1" d="M193.05,33.9a9.66,9.66,0,0,0-1.73-.07C192.71,34.13,192.71,34.13,193.05,33.9Z"/><path class="cls-1" d="M38.46,13.47l-1.62.28,0,.1a5.46,5.46,0,0,0,1.63-.28Z"/><path class="cls-1" d="M46.36,5.06a.24.24,0,0,0,.31-.18c-.09-.17-.3-.19-.5-.18s-.34,0-.3.18S46.18,5,46.36,5.06Z"/><path class="cls-1" d="M46.53,6.94c0,.12.13.19.32.19.49,0,.34-.26.38-.47-.17,0-.24.18-.45.12S46.49,6.81,46.53,6.94Z"/><path class="cls-1" d="M146.09.76c.15-.12.22,0,.33.05s.28.16.46.08c0,0,0-.07,0-.09a.88.88,0,0,0-.42-.21,1.28,1.28,0,0,0-.26,0H146c-.13,0-.31.05-.27.16S146,.83,146.09.76Z"/><path class="cls-1" d="M168,35.56c0,.13.15.12.25.13a2.25,2.25,0,0,0,.69-.17.22.22,0,0,0-.27-.15C168.44,35.41,168.1,35.31,168,35.56Z"/><path class="cls-1" d="M177.38,35.41c0,.16.21.22.36.23s.34-.11.34-.22-.23-.1-.35-.15S177.38,35.26,177.38,35.41Z"/><path class="cls-1" d="M181,35a3.7,3.7,0,0,0-.48.09c-.14,0-.28.11-.08.24s.52.22.81.3C181.1,35.46,181.47,35.16,181,35Z"/><path class="cls-1" d="M180.27,22.23c0-.09-.14-.13-.26-.11a.5.5,0,0,0-.43.3c0,.08.14.08.26.08S180.23,22.39,180.27,22.23Z"/><path class="cls-1" d="M58.56,3.1c.11,0,.26-.08.2-.16a.6.6,0,0,0-.45-.3c-.1,0-.27.08-.21.11S58.27,3.11,58.56,3.1Z"/><path class="cls-1" d="M79.15,1.19c.12,0,.18-.05.12-.15S79.39.7,79,.78c-.14,0-.37,0-.32.15S78.94,1.16,79.15,1.19Z"/><path class="cls-1" d="M24.76,15c-.05-.09-.15-.09-.25-.08-.27,0-.44.1-.39.36.22-.05.34-.17.56-.15A.08.08,0,0,0,24.76,15Z"/><path class="cls-1" d="M37.48,10.45c.15,0,.3,0,.29-.2a.21.21,0,0,0-.23-.17c-.18,0-.31.09-.31.24S37.34,10.47,37.48,10.45Z"/><path class="cls-1" d="M35.42,10.87c.15,0,.21-.13.19-.24s-.17-.14-.31-.13-.23.06-.2.16S35.26,10.85,35.42,10.87Z"/><path class="cls-1" d="M12.46,34.27c.14,0,.33-.06.33-.18s-.2-.05-.29-.08-.39,0-.38.15S12.34,34.28,12.46,34.27Z"/><path class="cls-1" d="M149.6,1.16c.12,0,.24,0,.23-.15s-.27-.12-.43-.12-.21,0-.19.11S149.43,1.18,149.6,1.16Z"/><path class="cls-1" d="M44.16,7.49c.17,0,.25-.12.25-.24s0-.15-.17-.16-.29.09-.29.22A.19.19,0,0,0,44.16,7.49Z"/><path class="cls-1" d="M61.69,2.69c.11,0,.26-.09.32,0s.38.25.51,0-.3-.07-.36-.21a.16.16,0,0,0-.1-.08c-.29,0-.62-.16-.81.12-.06,0-.16.08-.11.13A.66.66,0,0,0,61.69,2.69Z"/><path class="cls-1" d="M22.85,15.63c.16,0,.28-.09.26-.22s-.12-.11-.23-.1-.29.09-.3.2S22.72,15.62,22.85,15.63Z"/><path class="cls-1" d="M68.5,1.91a.55.55,0,0,0-.63.28c.32-.07.58,0,.72-.17C68.63,2,68.57,1.92,68.5,1.91Z"/><path class="cls-1" d="M171.55,3.25c.1,0,.2,0,.17-.13a.32.32,0,0,0-.3-.2c-.13,0-.2.08-.17.18S171.4,3.26,171.55,3.25Z"/><path class="cls-1" d="M151.84,1.23c.07,0,.07-.11,0-.16s-.34,0-.53.1A.47.47,0,0,0,151.84,1.23Z"/><path class="cls-1" d="M45.89,9c.14,0,.3,0,.36-.13s-.15-.15-.26-.16a.21.21,0,0,0-.26.16C45.7,9,45.78,9.05,45.89,9Z"/><path class="cls-1" d="M80.09,1.27c.13,0,.18,0,.17-.12S80.14,1,80,1s-.21,0-.2.12S80,1.24,80.09,1.27Z"/><path class="cls-1" d="M156.3,1.77c.1,0,.19,0,.2-.13a.31.31,0,0,0-.31-.15c-.09,0-.16,0-.13.11A.25.25,0,0,0,156.3,1.77Z"/><path class="cls-1" d="M158.57,2.25c.12,0,.16-.07.15-.15s-.08-.13-.23-.13-.18.06-.15.17S158.46,2.26,158.57,2.25Z"/><path class="cls-1" d="M99.83.35c.12,0,.23,0,.27-.09S100,.13,99.89.12s-.24,0-.26.12S99.75.34,99.83.35Z"/><path class="cls-1" d="M64.83,4.23a.91.91,0,0,0-.68,0,.07.07,0,0,0,0,.12C64.39,4.41,64.55,4.31,64.83,4.23Z"/><path class="cls-1" d="M173.82,26a.54.54,0,0,0,.5.15c.07,0,.08-.09,0-.12A.51.51,0,0,0,173.82,26Z"/><path class="cls-1" d="M53.93,4.46c.12,0,.23,0,.27-.14a.28.28,0,0,0-.23-.1c-.13,0-.24,0-.23.15S53.84,4.46,53.93,4.46Z"/><path class="cls-1" d="M36,10.69a.15.15,0,0,0,.18-.13.2.2,0,0,0-.23-.12c-.09,0-.16.05-.16.12S35.88,10.69,36,10.69Z"/><path class="cls-1" d="M195.08,26.59s0-.09,0-.1a.53.53,0,0,0-.53.09C194.72,26.63,194.91,26.7,195.08,26.59Z"/><path class="cls-1" d="M62.32,5.18s0,.1,0,.13.29,0,.44,0C62.64,5.2,62.49,5.08,62.32,5.18Z"/><path class="cls-1" d="M84.35.36c.12,0,.15-.07.13-.17S84.4.07,84.28.1s-.14,0-.12.12A.18.18,0,0,0,84.35.36Z"/><path class="cls-1" d="M197.33,29.17c0,.09.14.1.23.1s.19,0,.2-.12-.14-.1-.24-.1S197.31,29.07,197.33,29.17Z"/><path class="cls-1" d="M187.41,34.51a.53.53,0,0,0-.49,0c-.06,0,0,.1,0,.12A.4.4,0,0,0,187.41,34.51Z"/></svg>