<svg id="Layer_1" data-name="Layer 1" xmlns="http://www.w3.org/2000/svg" viewBox="0 0 209.45 159.83"><defs><style>.cls-1{fill:#41d6f8;}</style></defs><title>brush-strokes</title><path class="cls-1" d="M81.69,1.44a1.65,1.65,0,0,0,.73.09,6.6,6.6,0,0,1,2,.1.56.56,0,0,0,.39,0,3.5,3.5,0,0,1,1.33-.46,1.05,1.05,0,0,1,.53.07,1.1,1.1,0,0,0,1.27,0,1.25,1.25,0,0,1,1.45,0,2.54,2.54,0,0,0,1.79.3c.19,0,.46,0,.47-.22.15,0,.14-.27.41-.13,0,.24.48.09.56.31a.14.14,0,0,0,.19.07c.1-.05,0-.16,0-.19-.25-.09-.33-.28-.51-.41s-.13-.13-.08-.16a.57.57,0,0,1,.27,0c.12,0,.16.09.23.14s.17.1.27,0a.15.15,0,0,0,0-.2c-.09-.16-.27-.17-.46-.2-.36,0-.59.18-.92.19A9.87,9.87,0,0,0,89.8.52a4.57,4.57,0,0,0-1.28,0,6.42,6.42,0,0,0-1.88.22s0,0,0,0a8.12,8.12,0,0,0-2.09,0c-.28.05-.47.26-.81.17a.48.48,0,0,0-.56.16c-.16.2-.33.16-.44-.08a.2.2,0,0,0-.2-.09c-.25,0-.5,0-.74,0s-.34,0-.33.14S81.44,1.36,81.69,1.44Z"/><path class="cls-1" d="M73.43,1.58A10.85,10.85,0,0,0,76,1.73c.52-.09,1.11.12,1.5-.12.26,0,.44.08.55-.05s0-.1-.09-.15a1.42,1.42,0,0,0-1.49-.31c-.08,0-.23,0-.34,0-.91-.07-1.78.09-2.69,0-.16,0-.42,0-.41.16S73.27,1.57,73.43,1.58Z"/><polygon class="cls-1" points="197.84 59.36 197.84 59.36 197.84 59.36 197.84 59.36"/><path class="cls-1" d="M209.22,37.75c-.35-.1-.73-.35-1.12-.12l0,0h0l0,0a2.83,2.83,0,0,0-.89-.29c-.32-.08-.6-.35-.94-.05-.05-.32-.05-.34-.34-.29s-.44.07-.39-.2c0-.08-.09-.13-.16-.18a1.55,1.55,0,0,0-1-.3h-.1c-.23,0-.3-.2-.49-.26l-.83-.48h0c-.23-.11-.15-.16,0-.24s.54,0,.76-.19c-.56-.09-1.08-.24-1.56-.28a24.5,24.5,0,0,0-2.84-.09c-.26,0-.53,0-.79,0s-.22-.07-.08-.16a.75.75,0,0,1,.45,0c.2,0,.24,0,.19-.18.15-.33-.82-.19-.49-.59l-.15,0a2.86,2.86,0,0,0-.42,0,1.35,1.35,0,0,1-1-.17h.09a.49.49,0,0,0,.49-.17c-.29,0-.51-.24-.8-.14l-.8,0-.2-.08c-.12-.15-.43-.05-.51-.25-.1,0-.22.1-.32,0a1.55,1.55,0,0,0-1.19-.1h0c-1-.06-2-.24-3.06-.29a13.73,13.73,0,0,1-1.93-.21,26.18,26.18,0,0,0-4-.47l-1.1-.09a.56.56,0,0,1-.28-.05,2.48,2.48,0,0,0-1.56-.33,5.31,5.31,0,0,1-1,0c-1-.21-2-.19-3.06-.34a6,6,0,0,0-.94-.08,8.5,8.5,0,0,1-1.81-.19.48.48,0,0,0-.16-.08c-.3-.08-.67-.07-.71-.43,0-.16-.22-.31-.46-.14a.81.81,0,0,1-.58.11l0-.13a1.12,1.12,0,0,1,1.38-.23,1.22,1.22,0,0,0,.58.17c-.13,0-.13.18-.3.17s-.17-.08-.17,0,.1.14.15.13c.37,0,.8.07,1-.19a.31.31,0,0,1,.41-.13.33.33,0,0,0,.33-.1,1.21,1.21,0,0,1,.71.13A.67.67,0,0,0,178,30c.19-.14-.24-.18-.33-.34a13.4,13.4,0,0,1,1.35.28h0a4,4,0,0,0,.4.28c.18.1.41.31.55.22.34-.19.66,0,1,0h.18c.39.25.8-.09,1.22.11.09,0,.12-.15,0-.23a.69.69,0,0,0-.46-.27v-.15a.78.78,0,0,1,.82,0c.17.2.4.21.59.31l.48.15c-.08.19-.39.13-.5.28a.47.47,0,0,0,.65,0c.13-.1.2-.26.46-.21h0c0,.19-.12.42.25.5s.81.16.89-.28c.13.13.21.3.39.14s.31-.18.45.05c0,.06.21.05.19,0-.11-.34.28-.07.36-.16l.3,0c.06.21.28.14.44.16.36,0,.72,0,1.07.08s.58,0,.56-.24-.3-.3-.58-.26h-.1c-.06-.24-.47-.16-.57-.33-.22-.37-.46-.22-.66-.06a.6.6,0,0,1-.57.07c-.21-.06-.44-.05-.62-.11-.5-.14-1.08-.07-1.51-.39l.32-.06,3.77.07c.67.09,1.32,0,2,0l.25,0c.92.16,1.76-.18,2.67-.07.1,0,.28-.09.18-.15-.37-.25-.16-.41,0-.6a.29.29,0,0,0,0-.39c-.21-.25-.55-.13-.82-.19l0-.06c.21-.25-.32-.21-.3-.38a.79.79,0,0,0,.38-.08.27.27,0,0,0,.15-.09c.27-.15.55-.29.54-.6a10.17,10.17,0,0,0,1.78-.65,1,1,0,0,1,.56-.08,2,2,0,0,0,1.5-.32c.12-.06.26-.09.39-.15a13,13,0,0,0,2.17-1,2.17,2.17,0,0,1,.51-.31c.29-.09.4-.18.17-.42s-.18-.39.25-.4c.17,0,.36,0,.33-.21-.08-.43-.13-.46-.62-.25,0-.28.26-.48.21-.74-.11-.61.48-1,.52-1.63,0-.24,0-.37-.32-.36a.31.31,0,0,1-.33-.17c-.09-.13.08-.15.17-.17.41-.11.56-.25.23-.58a.41.41,0,0,1,0-.47c.13-.2,0-.24-.2-.27a4,4,0,0,0-.6,0,4.56,4.56,0,0,1-1.23-.15,6.77,6.77,0,0,0-1.33-.19,8.41,8.41,0,0,1-2.06-.08c.07-.08-.41-.08-.06-.18a.57.57,0,0,0,.27-.17,1.31,1.31,0,0,1,1.07-.27c.76.09,1.53.12,2.3.16.44,0,1.05-.51.81-.73s-.1-.39,0-.56.34-.14.31-.28c-.06-.42.32-.46.72-.49.22,0,.39-.06.33-.26.1-.4-.13-.67-.73-.84.9-.12,1-.59,1-1.12,0-.21,0-.46-.45-.43a.3.3,0,0,1-.31-.27c0-.15.21-.07.36,0s.44.14.42-.16c0-.13.21-.17.36-.2s.4-.07.35-.27-.3-.21-.52-.2a1.53,1.53,0,0,0-.47-.11c0-.12-.17-.16-.23-.24-.22-.32-.62-.59-.64-1h.09c.47,0,.92.31,1.39.2s.88,0,1.21-.19c.08-.06.18,0,.27.05s.44.23.29-.12c0,0,.11-.12.19-.14.24,0,.47.16.76.07.12,0,0,.23.23.3.19-.29.58-.11.89-.15a.76.76,0,0,1,.76.24c.44.13.68-.14,1-.21.15,0,.09-.19.06-.29s-.16-.11-.28-.13-.36.08-.65.08a1.08,1.08,0,0,1,1-.15c.13,0,.28,0,.3-.09S208.18,10,208,10s-.23,0-.26-.1h0s0,0,0-.06.39.08.43-.06-.18-.19-.33-.25a1.16,1.16,0,0,1-.24-.14h0c-.28.14-.62-.08-.9,0-.51.15-1-.13-1.46-.19-.27,0-.71.08-.91-.25a.39.39,0,0,0-.18,0c-.19.25-.69.12-.89.36-.05.07-.23.11-.23,0,0-.3-.29-.23-.52-.28s-.68.11-.58-.31c0-.06-.09-.05-.15,0-.22,0-.29-.14-.42-.2s-.23-.59-.65-.23a.21.21,0,0,1-.23,0,2.33,2.33,0,0,0-.84-.29,8.56,8.56,0,0,0-2.6-.33,3.9,3.9,0,0,0-1.18-.21h0l-.13-.07a6.16,6.16,0,0,0-2.3-.26c.21-.08.51-.07.5-.32l0,0h0l0,0c.31-.06.69.27,1-.06.09-.1.09.19.27.12.1-.47.1-.47-.6-.5a2.5,2.5,0,0,0-.67.06c-.51-.19-1.09-.07-1.61-.29,0,0-.14,0-.2.07a.89.89,0,0,1-.49.11,10.94,10.94,0,0,0-2.29,0s-.05-.05-.07-.05c-1.23.1-2.49,0-3.74,0s-2.48,0-3.71,0a1.42,1.42,0,0,1-.73-.09A2.2,2.2,0,0,0,179.85,6a9.45,9.45,0,0,1-2,0c-.58-.14-1.16,0-1.74-.08a.14.14,0,0,0-.18.13l-.68,0c-1.57,0-3.15-.06-4.72,0-.09-.24.65-.17.23-.51-.16-.12-.27-.18-.45-.07h0c-.21-.06,0-.27-.25-.32a.55.55,0,0,1,.42,0,3.71,3.71,0,0,0,1.2,0c.18,0,.59-.06.61.08,0,.3.23.16.35.14a8.2,8.2,0,0,1,2-.16h0v0h0v0c.19.08.43.1.57.3-.09-.32,0-.41.42-.32s.91-.21,1.41,0h0a.55.55,0,0,0,.5,0c.57-.27,1.33.11,1.92-.15l.07,0c.1.07.21.11.27,0s0-.16-.12-.22a.63.63,0,0,0-.77.11c-.14-.16-.3-.29.08-.31.06,0,.1-.06.15-.09h0a.69.69,0,0,1,.75,0,1.47,1.47,0,0,0,.53,0l.39,0c.08.12.39,0,.37.21s-.28.06-.4.13-.24,0-.29.08c.65.24.67.25,1-.15.17-.22.27-.15.32,0,.12.36.48.33.78.29s.71-.41,1.24-.28c0,0,0,0,0,0a.74.74,0,0,1,.57-.14h0a4.57,4.57,0,0,0,2.05,0c.29,0,.28-.23,0-.38a2.32,2.32,0,0,0-.47-.13c-.26,0-.58,0-.75-.21-.33-.35-.48-.18-.67,0s-.12.26-.38.16a1.66,1.66,0,0,0-1,0,4.86,4.86,0,0,1-1.2-.14c-.18-.43-.49-.07-.73-.1s-.23.22-.35.24c-.35.08,0-.21-.26-.29a2.66,2.66,0,0,0-1.65.11h0s0,0,0,.06l-.16.09L178.76,4c-.06-.08.16-.18,0-.25s-.27,0-.36.12-.18.24-.41.19-.13-.26-.31-.21c-.49.12-1.17-.09-1.48.35,0-.07,0-.16-.12-.21s-.58-.2-.64.16c0,.09-.13,0-.19,0L174.88,4h0a4.71,4.71,0,0,1-1.63-.35h0c-.17,0-.46-.14-.48.14s-.29.45-.71.22a.58.58,0,0,0-.5-.08h0c-.34-.11-.71-.5-1,0h0a8.38,8.38,0,0,1-1.33-.21c-.11,0-.15-.23-.34-.12s.06.2.06.33c-.13,0-.3,0-.37-.08s-.24-.18-.28,0-.28.34-.48.47c-.19-.12,0-.23-.08-.33s0-.24-.19-.28-.21.07-.27.16-.26.1-.43,0c-.43-.34-.67-.33-1,0h0c-.26,0-.4.22-.16.33.49.21.13.25,0,.34h0c-.25-.11-.42-.23-.31-.47s0-.36-.24-.49-.36-.08-.33,0-.23.18-.33.28h0a9.47,9.47,0,0,1-1.59-.29.33.33,0,0,0-.31-.15h0c-.17,0-.5-.11-.46.09.07.42-.28.13-.43.16a.75.75,0,0,1-.44-.15c-.29-.28-.64-.18-1-.13a1.81,1.81,0,0,1-1.39.23c-.14.1-.15.25.06.28.62.11.44.43.47.7-.24,0-.68,0-.69-.06,0-.35-.64-.43-.64-.8s-.25-.42-.63-.25a1.46,1.46,0,0,1-.83,0c-.57-.11-1.15,0-1.72-.15l-.15-.13-.47.05h0c-.27.13-.66-.09-.9.11s-.25.11-.45.06-.66-.41-.92,0l-.34.06c-.58,0-.64.09-.33.44,0,.06-.08.1-.17.13h-.1c-.08-.07-.07-.21-.17-.26a.81.81,0,0,0-.6-.25l-1.19,0-.14,0-.42,0a1.24,1.24,0,0,0-.47,0h-.2c-.36,0-.72-.14-1.09-.14-1.26,0-2.53-.27-3.79-.16a.88.88,0,0,1-.79-.27l-.05-.07c.05,0,0-.1,0-.15-.39-.22-.07-.21.11-.26h.13l.4,0a4.9,4.9,0,0,0,.54,0h.08c.22,0,.44.06.66.08a1.17,1.17,0,0,1,.59.33.35.35,0,0,0,.29.08l.1,0c.06,0,0,0,.05,0a2.58,2.58,0,0,0,.78.11A13.84,13.84,0,0,1,148,3.06h0c.16.13.32,0,.48-.05l.3,0a1.58,1.58,0,0,0,.62-.08,2.72,2.72,0,0,1,1.11-.16,1.17,1.17,0,0,1,.24.09.55.55,0,0,0,.58.23.82.82,0,0,1,.44,0,.63.63,0,0,0,.9-.14h0l.14.06a2.55,2.55,0,0,0,1.76.09.17.17,0,0,1,.1,0,4.69,4.69,0,0,0,2.14,0,1.71,1.71,0,0,1,.39,0,1.93,1.93,0,0,0,.34,0,1.51,1.51,0,0,1,.89.09c.14,0,.33,0,.37-.1s-.19-.1-.27-.17-.24-.19-.12-.32h1.08l.33.2c0,.37.37.28.59.3.57.07,1.14,0,1.71.09.1,0,.25,0,.25,0s-.18-.26-.37-.33-.15,0-.17-.07H162c.13-.08.38-.08.38-.23s-.2-.14-.32-.13c-.54.07-1.09,0-1.63,0-.13,0-.3,0-.31-.16a.38.38,0,0,1,.43.06.27.27,0,0,0,.31,0s.14-.07.08-.14a.37.37,0,0,0-.29-.14,23.48,23.48,0,0,0-2.65,0c-.2,0-.4-.1-.6,0a2.56,2.56,0,0,0-.39,0,5.37,5.37,0,0,0-1.5,0h0a4.4,4.4,0,0,0-.73-.07,3.34,3.34,0,0,1-1.1-.06,2,2,0,0,0-.76,0h-.29a1,1,0,0,1-.24,0,.19.19,0,0,0-.19.13l-.2.06c-.24,0-.67-.22-.68.19,0,.18.24.15.31.25l-.11.06a.75.75,0,0,1-.39-.09c-.09-.21-.11-.49-.48-.52-.56,0-1.12-.11-1.67-.16-.18,0-.37-.05-.51.07a.17.17,0,0,1-.21,0,.59.59,0,0,0-.71-.14,6.14,6.14,0,0,1-2.1.13c-.21,0-.33-.22-.59-.11s-.33,0-.27-.2.14-.18,0-.26a.27.27,0,0,0-.12,0c0,.11-.24.15-.14.28s.1.18-.09.17a9.35,9.35,0,0,1-1.83,0c-.24-.06-.48-.07-.45-.33s-.15-.1-.26-.1-.44-.09-.53.07.16.13.26.2.34.07.21.24-.56-.08-.8,0l-1.48,0c-.63-.15-.75-.28-.61-.71,0-.1,0-.13-.15-.14h-.44l-.73,0c-.25.11-.24.21,0,.32s.46.15.78.26c-.39.12-.75-.07-1,.08h0c-.42-.15-.59.14-.88.22a.23.23,0,0,1-.21-.06c-.21-.2,0-.45-.22-.66s-.17-.34-.4-.28-.05.27,0,.42a2.21,2.21,0,0,0,.05.25c0,.27-.23.33-.54.32s-.8,0-1.19,0a6.82,6.82,0,0,1-1.65-.31c.43,0,.53-.11.4-.22a.62.62,0,0,0-.56-.06c-.22.05-.19.16-.07.29a7.94,7.94,0,0,1-1.59-.29,3.59,3.59,0,0,1-1.08-.06c-.31-.1-.46-.18,0-.34-.18,0-.28-.08-.39,0-.36.1-.7-.08-1-.08s-.38.4-.72,0c0,0-.08,0-.1.07-.19.19-.31.15-.36-.08s-.07-.11-.17-.09a2.54,2.54,0,0,1-1.22-.14c-.15-.05-.38,0-.2.13s.23.51.54.68c0,0,0,.06,0,.07a1.61,1.61,0,0,1-1.37-.2,1.21,1.21,0,0,0-1-.34.57.57,0,0,1-.38,0c-.38-.37-.79-.23-1.21-.15-.18,0-.41.16-.55-.12s-.28-.13-.42,0a3,3,0,0,1-1.74.16.34.34,0,0,0-.46,0c-.15.11,0,.26.06.4h0c0,.17.15.17.3.17a1.55,1.55,0,0,1,.72.19c-.33,0-.67,0-.41.38.09.12-.06.22-.27.21h-.6a3,3,0,0,1-.89-.11c.14-.07.33-.11.14-.3s0-.22.21-.2a3.21,3.21,0,0,1,.3.21c.06.05.09.15.22.12s0-.12.06-.18c.12-.36-.16-.65-.36-.95a.34.34,0,0,0-.46-.11,1.84,1.84,0,0,1-.75.06c-.39,0-.74-.25-1.13-.13a1.92,1.92,0,0,1-.55.09c-.37,0-.74-.1-1.07-.06a13,13,0,0,1-2.26.17C111,.22,110.34.23,109.7.14a6.61,6.61,0,0,0-2.13,0,14.59,14.59,0,0,1-1.62,0,1.11,1.11,0,0,0-1,.36c-.29.45-.43.11-.63,0s-.26-.37-.41-.31c-.4.18-.81,0-1.21,0a2.48,2.48,0,0,1-1.3-.1c-.38-.23-.42,0-.56.11s0,.27.16.37.22,0,.18.15l-.32.06c-.07,0-.14.06-.09.14a.18.18,0,0,0,.2.08c.38-.22.72.05,1.07.11s.52,0,.79,0,.19.09.09.18h0c-.5.06-.5.06-.14.4l0,.05h-.09c-.12-.07-.21,0-.32,0s-.38,0-.57,0l-.84-.05c-.15,0-.38,0-.44-.12s-.28-.19-.47-.21l-.58-.08c.16-.16.67-.24.18-.42-.25-.1-.54-.2-.81-.29-.46,0-.92-.24-1.36-.15A4.56,4.56,0,0,1,96.05.33h-.24c-.49,0-1,.21-1.48-.06a.63.63,0,0,0-.63.07c-.2.17.06.27.16.38s-.17.12-.16.22h0c-.47,0-.21.4-.44.54l0,.13h0a2.83,2.83,0,0,1-.69.27,10.12,10.12,0,0,0-2.27,0c-1.46.16-3,0-4.44.18-.76.07-1.54,0-2.3.13a2.28,2.28,0,0,1-.64,0A6.7,6.7,0,0,1,81,2.11h0a7.38,7.38,0,0,1-2.49.13,4.86,4.86,0,0,0-2,.09.78.78,0,0,1-.54,0,6.26,6.26,0,0,0-2.32-.06c-.57,0-1.15,0-1.71.09a.42.42,0,0,1-.39-.15c-.15-.17-.27-.13-.44,0a1.53,1.53,0,0,1-1.56.16,1,1,0,0,0-.58,0,1.65,1.65,0,0,1-.91.06,6.26,6.26,0,0,0-2.68-.21c-.82,0-.94,0-.91-.66,0-.09.07-.2-.13-.24a.43.43,0,0,0-.44.07.39.39,0,0,0,0,.56c.2.22.09.28-.18.31a11.82,11.82,0,0,1-2.22-.13c-.31,0-.1-.13,0-.21.25-.2.19-.35-.18-.46a1.67,1.67,0,0,1-.5-.15c-.49-.33-.49.13-.69.24s-.1.28.11.39.39.4.07.45a9.8,9.8,0,0,1-1.76.3,5.11,5.11,0,0,0-1.7,0,.63.63,0,0,1-.56-.05A2.18,2.18,0,0,0,55,2a5.5,5.5,0,0,1-2.1-.48c-.12-.06-.45-.19-.41.13,0,.12-.24.15-.41.06-.49-.26-.51-.26-.69.12,0,.09,0,.25-.22.23s-.2-.14-.25-.26-.15-.57-.49-.13a.19.19,0,0,1-.22,0,2,2,0,0,0-1.29-.05,13.93,13.93,0,0,1-1.86.2c-.49,0-.94-.09-1.41-.09-.66,0-1.31,0-2,0-1,.09-2-.05-3,0a15.18,15.18,0,0,0-3.33.31,2.26,2.26,0,0,0-1.18.32A3.28,3.28,0,0,0,35,2.82a2.76,2.76,0,0,1-2.07.29,1,1,0,0,0-1,.26,2.08,2.08,0,0,1-.94.51,4.45,4.45,0,0,0-1.26.6.64.64,0,0,1-.53.12.5.5,0,0,0-.43.1,11,11,0,0,1-2,1.19c-.21.09-.16.25,0,.42.24.32.14.45-.33.47s-.59.1-.41.48a1,1,0,0,1,.1.4c0,.11,0,.2.23.2.36.13.47-.13.78-.29a4.3,4.3,0,0,0-.39,1.67c0,.61-.77,1-.52,1.69,0,0,0,.06-.07.09-.28.37-.12.59.48.63a.48.48,0,0,1,.41.2c.07.1-.09.17-.19.22a1.3,1.3,0,0,1-.32.14c-.44.13-.53.29-.2.55s.21.57.21.82c0,.42-.06.47.51.45.73,0,1.45.1,2.17.15.54,0,1.1.34,1.73.35a13.52,13.52,0,0,1-2.28,1.05c-.29.07-.13.22-.06.36.24.47.09.61-.59.53-.11,0-.26-.1-.29,0a.93.93,0,0,0,.12.89c.28.18.43-.07.65-.07,0,.36-.43.6-.42,1a1.46,1.46,0,0,1-.44,1.1c-.26.26-.51.51-.4.88,0,.13-.09.19-.21.26s-.22.13-.11.27.15.27.39.26a.39.39,0,0,1,.35.1c.27.25.2.4-.44.5-.47.07-.5.28-.3.52s.08.63-.05.87,0,.36.26.41a2.87,2.87,0,0,0,.83.11c.57-.06,1.06.35,1.64.28a7.11,7.11,0,0,0,3.07.61,6.47,6.47,0,0,1,1.7.25,1.49,1.49,0,0,0,1.13.05.91.91,0,0,1,.65,0,10.37,10.37,0,0,0,1.44.34A1.82,1.82,0,0,0,38.72,25a1.13,1.13,0,0,1,1.14,0,3.2,3.2,0,0,0,1,.3c.15,0,.38-.07.47,0a3.12,3.12,0,0,0,1.89.42c.5,0,.79.27,1.17.4.71.23,1.45.39,2.15.65a2.06,2.06,0,0,0,1.21.14,5.57,5.57,0,0,1,1.58.17.22.22,0,0,1,.13.12c.15.29.44.31.78.31a7.33,7.33,0,0,1,1.81.34,13.94,13.94,0,0,1,1.82.49c.2.09.28,0,.31-.17S54,28,53.9,28a1.92,1.92,0,0,1-.95-.61c.39.09.8,0,1.17.2a.52.52,0,0,0,.51,0,1.12,1.12,0,0,1,1-.16c.07,0,.22.1.22.13a.2.2,0,0,1-.24.14.72.72,0,0,0-.85.36c-.2.2-.26.34.17.5.26.1.42.46.74.43.62-.07,1,.28,1.54.4a4,4,0,0,1-.6,0c-.09,0-.26,0-.22.07.14.31-.23.23-.39.26a5.1,5.1,0,0,1-1.6-.17,28.71,28.71,0,0,0-3.93-.11c-2.11.14-4.21.3-6.32.45a20.83,20.83,0,0,0-2.39.18,3.41,3.41,0,0,0-1.21.16h-.38a25.92,25.92,0,0,0-3.19.16,19.19,19.19,0,0,0-4.39.53,16.44,16.44,0,0,0-5.11,1.34,4.49,4.49,0,0,1-.89.32c-.62.19-1.32.28-1.57.82a1.15,1.15,0,0,0-.5.12c-.33.13-.48.26-.51.47-.06,0-.09.08,0,.14a.1.1,0,0,0,0,0,.69.69,0,0,0,0,.13s0,.09-.07.12-.15.21.09.28.12.1.11.18c-.06.51.31.89,1,1,.17,0,.35,0,.44.21s.27.12.44.12a16.77,16.77,0,0,0,2.45.57c.53,0,1.06.13,1.59.18a17.5,17.5,0,0,1,3,.82.5.5,0,0,0-.41.36c0,.22-.64.38-.88.27-.49-.25-.63-.1-.72.24,0,.18-.11.32.1.47s.12.19,0,.24c-.38.2.13.73-.5.83.25.35-.32.56-.14.92a.35.35,0,0,1-.27.49.67.67,0,0,1-.71-.26,1,1,0,0,0-.55-.4c.36.42.73.77.49,1.2-.06.1.06.19.14.27s.17.13.14.23a7.49,7.49,0,0,0,0,1.42.28.28,0,0,0-.09.19c-.85-.08-1.69-.2-2.54-.31-1.27-.17-2.54,0-3.82-.28a12,12,0,0,0-2.86-.16,6.71,6.71,0,0,1-1.1.08c-1.84-.21-3.69-.51-5.53-.6a23.53,23.53,0,0,0-6.5.61,4.32,4.32,0,0,1-1.21-.41,1.2,1.2,0,0,0-.85-.2c-.24,0-.42.13-.14.41.12.11.29.29.2.41-.29.4.06.5.32.66-.24.18-.58.06-.83.19-.31,0-.41.28-.22.34.45.17.65.69,1.13.75a3.55,3.55,0,0,1,1.65.39.43.43,0,0,1,.31.28c.27.77.42.87,1.19,1,.61.09,1.18-.16,1.79,0a1.06,1.06,0,0,0,.62.11,8.59,8.59,0,0,1,1.9.23c-.58.17-1,.55-1.45.29a1.09,1.09,0,0,0-.9-.11l-2,.23c-.15-.23-.28-.33-.48-.06a1,1,0,0,1-.75.34c-.26,0-.76-.2-.77.35l-.12-.09c0-.16,0-.31-.2-.32.13-.22.22-.38-.2-.33s-.71.13-.74-.49c-.18.29-.09.6-.21.84l0,0a.16.16,0,0,0,0,.1c-.1.39-.39.44-.81.29.22,0,.5,0,.44-.34s-.33-.21-.51-.28a.34.34,0,0,0-.38.08,1.32,1.32,0,0,0-1.25.15c-.19.17-.49-.1-.68.1a8.65,8.65,0,0,1-1.34-.19l0,.42c-.08.05-.07.14,0,.22A.63.63,0,0,1,.42,49C.2,49,0,49,0,49.22s.21.31.45.32.76,0,1.14.08.43.25.45.23c.25-.39.41,0,.57.13.2-.21,0-.39,0-.57a2.37,2.37,0,0,0,.56.1,4.62,4.62,0,0,1,2.23.32c.18.13-.12.41.21.52s0-.31.29-.2a.71.71,0,0,0,.5.57h0c-.07.08-.27.06-.22.22s.18.1.28.09L7.36,51,9,51.05a2.17,2.17,0,0,0,1.16,0h.18a1,1,0,0,0,1.37.4.52.52,0,0,1,.25,0h0c.18.28.37.11.54,0s.27-.19.37-.11c.44.32.82,0,1.22,0a.43.43,0,0,0,.54,0c.27-.33.47-.23.77,0a.68.68,0,0,0,.87.08c.25-.19-.17-.27-.17-.44a5.75,5.75,0,0,1,1.55,0,7.15,7.15,0,0,0,.8,0c.25,0,.43.13.63.26a2.42,2.42,0,0,0,2.38-.12c.14-.14.32-.19.46,0a.88.88,0,0,0,.75.25c.58,0,1,.37,1.38.66-.09.15-.18,0-.26,0-1.79.15-3.62,0-5.42.09-1.13.07-2.28,0-3.43,0-1,0-2,.14-3,.09a13.73,13.73,0,0,0-2.61.17,2.53,2.53,0,0,0,.34.09c1.3.08,2.6.2,3.9.15s2.73,0,4.1.07a6.36,6.36,0,0,1,2.41.13,1.16,1.16,0,0,0,.58.07c1.47-.21,3,0,4.45-.15a19.48,19.48,0,0,1,2,.18c.1.08.25,0,.33.12l-.08.18c0,.3-.28.36-.41.55a8.71,8.71,0,0,1-1.91,0l-.85,0h0c-.27,0-.44.17-.32.49-.56.06-1.05-.51-1.67-.43.11.28.37.24.47.41l-.48.18-.12-.1a.48.48,0,0,0-.14-.44c-.15-.14-.43-.18-.38,0s-.2.32-.32.45l-.31.2a2.55,2.55,0,0,0-1.17-.28l0,.05h0l0-.05c-.27-.44.38-.15.32-.44-.36-.12-.64-.1-.73.34-.54-.55-.55-.56-1-.15-.05,0-.06.05-.15,0-.29-.07-.62-.15-.81.17-.33,0-.67-.16-1,0-.16-.11-.3,0-.45,0s-.32-.06-.32.14.16.22.31.23c.45,0,.93.19,1.35-.09a.68.68,0,0,0,.75.13h0a1.52,1.52,0,0,0,.86.13.32.32,0,0,0,.09,0c.21.21.38.07.55,0s.21-.22.4-.14-.11.29,0,.45l.56,0a.16.16,0,0,1,.1,0c.4.23.56-.06.76-.29h0c.11.2.21.47.44.14a.19.19,0,0,1,.27-.07.92.92,0,0,0,.87,0,3.11,3.11,0,0,1,.58,0c.09,0,.53.26.28-.22-.06-.11.12,0,.17-.06A1.24,1.24,0,0,0,25,55c.37.48.56.49.87,0a.24.24,0,0,1,.27-.08c.35.06.53.27.55.79.17-.33.33-.38.56-.35s.27-.18.2-.38c.44-.11.92.3,1.36,0,.07-.06.36,0,.38-.17s-.2-.22-.34-.3-.13-.07-.11-.17c.55-.26,1.11.08,1.66.12.09.15.44.32,0,.43-.1,0-.16,0-.09.17s.11.16.2.16a.83.83,0,0,0,.54-.25.84.84,0,0,1,.12.5,2.25,2.25,0,0,0,.39,1.46.67.67,0,0,0,.26.27c.79.46,1.54,1,2.37,1.38a10.49,10.49,0,0,0,4.09,1.15c.93.07,1.87.12,2.81.22.6.07,1.21.06,1.8.11a23.34,23.34,0,0,0,2.78.25.35.35,0,0,1,.14,0,7.83,7.83,0,0,0,2.68.15c.17,0,.31-.21.42-.11a1.9,1.9,0,0,0,1.59.34c.11,0,.26.09.42,0s.52-.45.87,0a.68.68,0,0,0,.42.21,14.8,14.8,0,0,1,2.09.39c.12,0,.25.07.27,0,0-.27.29-.13.44-.08a2.83,2.83,0,0,1,.4.17c-.34,0-.68.09-1,.16a4.86,4.86,0,0,0-1.22.19,5,5,0,0,0-2.43.54,5,5,0,0,0-3.37.93c-.94-.09-1.79.39-2.76.2,0,0-.12,0-.12,0,0,.49-.34.26-.55.25a2.54,2.54,0,0,0-.73,0,7.54,7.54,0,0,1-2.51.07c-1.4,0-2.8-.33-4.2-.32a7.57,7.57,0,0,1-1.16-.1,6.1,6.1,0,0,0-1.8-.09,5.36,5.36,0,0,1-1.33.13A29.53,29.53,0,0,0,27.92,63a1.88,1.88,0,0,1-1.15-.21,1.48,1.48,0,0,0-1.13-.18,3.18,3.18,0,0,1-1.11,0,21.56,21.56,0,0,0-4.37-.37,5.83,5.83,0,0,0-1.42.08,3.72,3.72,0,0,0,.42.18c.77.16,1.54.29,2.3.48.59.13,1.16.38,1.74.48,1.45.25,2.9.45,4.35.67.13.16.5.13.47.38s-.35.09-.53.14-.18.08-.29.13c.18.14.32.28.49.39s.24.12.21.27-.17.16-.29.16a6.21,6.21,0,0,0-1.36.37c-.32,0-.63.1-1,0-.16-.34-.46-.27-.7-.24a9.41,9.41,0,0,1-2.43,0,3.89,3.89,0,0,0-2.1.45,1.42,1.42,0,0,0,1.11.77c.83,0,1.66.19,2.49.24.39,0,.79-.18,1.16,0a1,1,0,0,0,.66.11.08.08,0,0,1,.09,0,1.5,1.5,0,0,0,1.35,1.42c.32.12.61.41,1,.26a.67.67,0,0,1,.62.37,2.12,2.12,0,0,0,1.73.89,16,16,0,0,1,2.37.44,19.78,19.78,0,0,0,2.69.49c1.64.12,3.22.79,4.86.88a5.33,5.33,0,0,1,.94.22,21.49,21.49,0,0,1-4.79-.41c-1.59-.21-3.18-.47-4.78-.64s-3.15-.7-4.8-.81a2.88,2.88,0,0,0,1.85.74,39.81,39.81,0,0,1,4,.75l.07,0c.41.18.92,0,1.34.4a4.81,4.81,0,0,1-1.07,0h0a1.3,1.3,0,0,0-1.16-.1,1.36,1.36,0,0,0,.74.3c.29.06.42.53.75.39a1.74,1.74,0,0,1,1,0c.29.08.54.38.86.17h0c0,.2.43.4.1.55-.17.08-.28.39-.58.18a.12.12,0,0,0-.19.09.43.43,0,0,0,0,.25.15.15,0,0,0,.23,0c.17-.24.37,0,.5,0a1,1,0,0,0,.81.16c0,.32-.33.37-.52.63l.56,0c0,.06.07.12.1.19s-.17.28.08.33.2-.08.19-.25.12-.12.19,0,.17.17.3.09l.64.24v.09a.27.27,0,0,0-.09,0c-.36,0-.55.33-.91.36-.16,0,0,.31.21.34,0,0,.05,0,.06.08s0,0,0,0c-.29.27-.7-.16-1,.07-.15-.14-.13-.46-.44-.44,0-.56,0-.56-.6-.55,0,0,0-.05-.06-.07,0-.18.34,0,.31-.26a3.24,3.24,0,0,0-1.14-.63c-.1.25-.36.09-.57.2.45,0,.14.52.52.52,0,.29.23.36.45.43s0,.14,0,.21c-.2-.07-.48-.08-.57-.22a.6.6,0,0,0-.72-.25c-.34,0-.63-.33-.9-.41a4.22,4.22,0,0,0-2.18-.37c-.19,0-.45.07-.57-.26a.29.29,0,0,0-.42-.11.38.38,0,0,1-.32.07,3.21,3.21,0,0,0-2,0c-.11.05-.24.06-.24.21s.12.2.25.23L27,75a.29.29,0,0,1,.22.32c0,.3-.39.25-.42.52l-.22-.26c-.19-.28-.44-.49-.75-.34a1.07,1.07,0,0,1-.66,0c-.27,0-.59-.15-.72.25,0,.12-.18,0-.21-.1v-.36a4.66,4.66,0,0,0,1.85-.65c-.36-.28-.63,0-.86-.08-.51-.17-1-.49-1.39.1h-.1a3,3,0,0,1-1.57-.39L21,74h0a.53.53,0,0,0-.75-.22c-.17.08-.49,0-.52.27h-.31c-.23,0-.51,0-.67-.1a.5.5,0,0,0-.63,0c-.19.11-.32.27-.47-.07a.2.2,0,0,0-.24-.08c-.15,0,0,.14,0,.21-.05.24.12.57-.29.69l.45.22-.37,0c.05.15.29,0,.27.2s-.26.26-.28.23c-.18-.22-.52.22-.56-.16s-.26-.37-.49-.45a8.11,8.11,0,0,0-4.28-.15,2.15,2.15,0,0,1-1.63-.09.24.24,0,0,0-.34.07l.93.28c.19.06.33.09.29.38s.1.61.57.56c.23,0,.7-.13.48.44,0,.1.05.25.07.37-.6.05-1.18-.21-1.78-.15a1.28,1.28,0,0,1,.68,1.13c-.13.56.24,1,.3,1.53.12.85.78.45,1.09.73,0,0,0,0,0,0a1.32,1.32,0,0,0-1.13.57.09.09,0,0,0,0,.07h0l0-.06c-.13-.16-.38,0-.48-.21s-.19-.35-.41-.37-.19,0-.21.1.18.15.23.26-.29,0-.35.17H10c-.06-.11-.1-.26-.19-.31-.34-.18-.23-.35-.06-.53s.27,0,.24-.19a.24.24,0,0,0-.27-.13c-.4.11-.84,0-1.23.13-.13,0-.35,0-.35.2s.28.08.36.24a2.21,2.21,0,0,0-.27.12c-.08,0-.23,0-.17.19s.14.2.26.15.52-.06.37-.44c.24.16.88-.17.66.55h-.3c-.43-.1-.56.39-.9.46H8l-.49-.16c.37-.27.37-.27-.06-.5-.06-.23-.17-.56-.38-.49s-.75,0-.93.34c-.37,0-.82.07-1.08-.11-.72-.5-1.12-.57-1.65-.06.23.19.58-.16.68.08.24.6.76.33,1.09.55a.85.85,0,0,0-.58.09,2.19,2.19,0,0,1-1.49.26c-.23,0-.54.11-.53-.35,0-.12-.22-.17-.36-.1-.49.21-1.07.18-1.55.37-.2.08-.6-.1-.57.17s.43.19.66.29c.07,0,.14,0,.21,0l1.7.18,0,.14L1,82c-.12,0-.33-.12-.34.1s.2.18.32.23a1.21,1.21,0,0,0,.31.09A8.65,8.65,0,0,1,4.66,83c.09,0,.29,0,.3,0,.11-.4.34-.11.4,0s.32.19.49.28c.54.3,1.2.09,1.68.57.1.07.25,0,.33.14.22.39.55.34.88.31l.31,0c.62.19,1.27.27,1.9.49.3.1.78.21,1-.18a.18.18,0,0,1,.23-.07c.53.22,1.09.1,1.62.28,0,.1-.16.21.1.31s.72.28,1-.07a7.57,7.57,0,0,1,2,.49c.4.16.75.56,1.24.4,0,0,.08,0,.11.08.21.28.52.15.77.26.09,0,.27,0,.24-.17a.18.18,0,0,0-.26-.12c-.33.2-.59-.13-.89-.17s-.19-.21-.16-.31.16-.2.3-.05.57.15.61,0c.19-.6.55-.23.86-.12a2.29,2.29,0,0,0,1,.23,7.23,7.23,0,0,1,1.74,0l.11.21c-.19.13-.09.24.07.29s.37,0,.38-.15-.21-.1-.32-.14c0-.32.28-.14.42-.2a15.26,15.26,0,0,0,2.12.31c.22.31.2.46-.22.42a2.94,2.94,0,0,0-1.25-.06c-.09.1-.33.12-.21.33s.22.08.33,0,.27,0,.41.06a4.5,4.5,0,0,0,1.81.26c.27-.07.34-.14.12-.36,0-.14.32-.13.24-.28-.24-.54.23-.25.37-.33s.21.12.35.11c1.39-.09,2.79.12,4.2.17a1.93,1.93,0,0,0-1,.38.65.65,0,0,1-.5.18c-.88,0-.88,0-.95.88,0,0,0,0,0,0-.24.2-.43.49-.85.23a.25.25,0,0,0-.34.15c-.09.46-.47.45-.82.51-.19,0-.51-.09-.48.28l-.12.18c-.73.25-1.52.34-2.25.62a6,6,0,0,0-1.4.54,1.9,1.9,0,0,0-1.16.83,5.31,5.31,0,0,0,1.5-.36l.1,0h0c.34,0,.54-.24.85-.27h0a.47.47,0,0,0,.38-.11A3.12,3.12,0,0,1,26.12,90h0a1.36,1.36,0,0,0,1.29.27.26.26,0,0,1,.33.09c.1.17-.06.25-.17.31s-.53.22-.67.5a1.29,1.29,0,0,1-.47-.08c-.36-.16-1.63.12-1.7.44-.15.73-.69.65-1.23.68-.32,0-.73-.09-.93.21a2.67,2.67,0,0,1-1.83.94,1,1,0,0,0-1,.71.89.89,0,0,1-.88.71c-.18,0-.34,0-.3.24s-.13.52-.19.78c-.66.31-1,1-1.65,1.31-.12.07-.12.24-.19.35-.27.4-.37,1-.93,1.12-1.13.24-1.74,1.17-2.6,1.77a3.79,3.79,0,0,1-.9.62.68.68,0,0,0-.49.85,1.37,1.37,0,0,1-.45,1.51c-.16.17-.31.39-.45.57s-.44.79-.94.87c-.33-.08-.42.27-.69.35a4.9,4.9,0,0,0-1.58,1c-.17.14,0,.78-.53.38,0,0-.06.08-.11.09-.66.18-.65.87-1,1.32s0,.42.27.46a2.19,2.19,0,0,0,.36,0,1,1,0,0,1,1.17.66s.09.11.12.1c.3-.11.44.11.68.26a1.53,1.53,0,0,1,.63.86,2.61,2.61,0,0,0,1.17,1.38h0c.06.22.09.26.43.33.15,0,.39,0,.39.2,0,.39.26.81,0,1.15-.37.64.26.94.55,1.27s.25-.24.42-.31a.44.44,0,0,1,.16,0,3.7,3.7,0,0,0,1.32-.31,4.05,4.05,0,0,1,1.43-.1c.44.06.85.22,1.26,0,.13-.07.28-.09.35.1a4.11,4.11,0,0,1,.26.92c0,.45.23.67.68.66.22.18.6.14.68.52,0,.12.12.12.2,0,.48-.52.94-.25,1.39.17h0a3,3,0,0,1,.18.93c.05.56.58.87,1.3.64-.48,0-.58-.37-.83-.47.15-.4.43-.2.68-.12h0c.18,0,.41.69.55,0,0-.09.15-.05.23,0s.09.1.1.18c.13.76.32.93,1.09,1,.3.07.6,0,.89.28s.75.16.83-.07c.13-.41.42-.38.71-.42.06.17.33.21.3.43-.08.51.29.38.54.39.09,0,.21-.17.27-.07.28.53.57.1.79,0s.49-.11.57-.37c0-.07-.05-.12-.11-.16a1,1,0,0,0-.76,0c-.06,0-.09.11-.14.14s-.23.12-.33,0-.59-.37-.72-.71c0-.11-.1-.22.09-.22.26.24.6.06.88.26s.72.07,1.07.25c0,.07.14.12.15.08.1-.34.36-.23.6-.17a4.52,4.52,0,0,1,.71.23c.27.11.25.33,0,.4a.72.72,0,0,0-.57.68c0,.11-.23,0-.15.19a.23.23,0,0,0,.29.09c.46-.2,1,0,1.44,0,.22.19.36,0,.54-.13-.18.44-.08.6.35.47a.4.4,0,0,1,.22.24l.21.32c.06.14.19.23.29.13.36-.39.79-.11,1.2-.06.13.5.25.56.57.32,0-.27.09-.33.32-.3a1,1,0,0,0,.81-.17c.18-.1.09-.27.08-.41v-.22c.26-.08.11-.36.22-.51h0a1,1,0,0,1,.85.22.12.12,0,0,1,.08,0c0,.1,0,.2,0,.29-.36.39-.36.38.21.58a1.1,1.1,0,0,0,.39.12l-.25.22c-.18.15-.07.33,0,.51.36-.23.45.36.76.31s.26-.22.43-.24c-.27.44.09.85.34,1.23a1.91,1.91,0,0,0,.89.86,4.32,4.32,0,0,0,1.72.88,5.17,5.17,0,0,1,1.12.42,13.34,13.34,0,0,0,2.41.88,9.18,9.18,0,0,1,2.34.94,15.36,15.36,0,0,1-2.76.27c.05-.08.34,0,.23-.17s-.25,0-.38,0-.2.09-.13.2a8.53,8.53,0,0,0-1.75,0,1.89,1.89,0,0,1-.67-.07c-.18,0-.32-.09-.29-.29s.07-.2-.16-.33a3.78,3.78,0,0,0-1.34-.25,9.19,9.19,0,0,0-4.2.41,1.76,1.76,0,0,1-.56,0c-.39,0-.81-.3-1.28,0,.45.07.82.15,1.18.19a1.07,1.07,0,0,1,.44.13c-.18.11.09.27,0,.34a.52.52,0,0,1-.47,0,.61.61,0,0,0-.62.08c.42.08.77.18,1.12.21s.41.27.41.46-.25.14-.43.13l-1.79-.06a4,4,0,0,0,1.32.16c.15,0,.35,0,.36.14s.21.31.19.5l-1.64-.12c-.08,0-.2-.05-.21.05s.12.09.22.1l1.35.08c.29,0,.57,0,.36.34,0,.07.05.17.07.26.1.32.44.59.51.88a1.76,1.76,0,0,0,1.2,1,20.23,20.23,0,0,0,4.51,1.49c.08.12.28,0,.37.15h-.08a1.5,1.5,0,0,0-.3,0,1.26,1.26,0,0,0-1,.63c-.06.11-.27.18-.16.33s.28.1.44.09l.25,0c.14.1.3.06.46.07a.92.92,0,0,0,.57.15c.15.12.13.38.47.36l.46.16c.36.33.87.17,1.3.3h.07c-.11.19,0,.36.18.52a4.49,4.49,0,0,1-1.15.06.55.55,0,0,0-.51.2c-.51.19-1.13.16-1.77.36a2.88,2.88,0,0,0,.78.11c.27.16.44.3-.05.35-.09,0-.2,0-.21.08s.12.12.2.16a1.42,1.42,0,0,0,.29.1s-.16.09,0,.11a4.42,4.42,0,0,0,1.25.26h0c0,.29-.35.53-.08.87.06.07-.11.21-.31.22s-.2,0-.09.12.13.28,0,.4,0,.18.11.2c.36.07.29.32.43.49-.26.08-.2.42-.51.42s-.21.16-.27.25.09.15,0,.18c-.4.12-.09.22,0,.32a.71.71,0,0,0,.55.11l.8.17c.08.11.35,0,.35.17s-.12.19-.28.22a.38.38,0,0,0-.16,0c-.18.13-.3.25.07.37.21.06.41.14.62.22a.65.65,0,0,1-.64.31,1.26,1.26,0,0,0-.76.21,2.65,2.65,0,0,0-.42.06c-.16.06-.47,0-.4.26a.5.5,0,0,0,.52.36h0a5.49,5.49,0,0,0,1.67.74h0a3.62,3.62,0,0,0,1,.37c.13,0,.29,0,.33.16s.31.21.47.31c.39.23,1.1.09,1.23.63,0,0,.08.06.11.07a10.57,10.57,0,0,1,1.79.4c.73.13,1.45.24,2.17.43a5.24,5.24,0,0,0,1.72.32c.27.05.54.1.81.13,1.23.14,2.42.53,3.66.57a4.72,4.72,0,0,0,1.39.16c1.07.11,2.14.13,3.19.32a13.91,13.91,0,0,0,2.64.27c1.2.11,2.39.3,3.6.39s2.64.29,4,.44a9,9,0,0,1,1.17.08,11.84,11.84,0,0,0,3,.35h0a1.33,1.33,0,0,0,.68.15,31.34,31.34,0,0,1,3.34.39c.45.07.91.08,1.36.16a2.86,2.86,0,0,0,1,.05h0c.05,0,.12,0,.16.06a.83.83,0,0,0,.9.21c.11,0,.24,0,.35,0l.19,0h.17a7.88,7.88,0,0,1,1.27.11c.29.14.62,0,.91.15a2,2,0,0,0,.74.27,10.37,10.37,0,0,1,1.25.11.36.36,0,0,0,.39-.15c.64,0,1.28.22,1.93.19a.23.23,0,0,1,.15.05c.17.28.35.07.53,0,0,.24-.27.42-.2.66a1.24,1.24,0,0,1-.22.91,1.8,1.8,0,0,0-.14.86l-.25,0h-.08a1.78,1.78,0,0,0-1.2-.1h0c-.4,0-.66-.23-1-.3a13.33,13.33,0,0,0-4.12-.53,2.15,2.15,0,0,1-.71-.11,5.51,5.51,0,0,0-2-.26l-.43-.09c-1.07-.21-2.15-.36-3.22-.5a.73.73,0,0,0-.74-.29h0c-.44,0-.88-.23-1.31-.06a.15.15,0,0,1-.2-.09c-.13-.23-.37-.22-.61-.16s-.22.09-.34,0a2.33,2.33,0,0,0-1.22-.16c-.21,0-.42-.06-.62-.06-.61,0-1.14-.3-1.74-.3h0L70,150.25h-.08a2.49,2.49,0,0,0-.94-.06c-.09,0-.22,0-.22.12s.14.1.23.12.28,0,.34.13a1.45,1.45,0,0,0,1,.49c.37,0,.76-.12,1.11.14a2,2,0,0,0,1.09.09s0-.05,0-.05c-.37-.43.2-.19.32-.26l.28.07h0a4.09,4.09,0,0,0,2,.37,1.83,1.83,0,0,1,.89.16c-.2.08-.42,0-.63.09l.73,0a.45.45,0,0,1,.42.16.76.76,0,0,0,1,.06.59.59,0,0,1,.61-.05c.2.06-.19.1,0,.26.49-.22,1,0,1.57.08h0l.77.08a2.53,2.53,0,0,1-.79.26c.33.16.58.35.89.25a2,2,0,0,1,.78,0c.08.21.24.3.53.38.46.12.48-.22.75-.29h0a1.77,1.77,0,0,1,.73-.06,1.65,1.65,0,0,0,.91,0h0l.71,0h0c.06.11.4.05.3.29s-.21.16-.34.21c.39.08.76.16,1.14.21.18,0,.46.09.52-.06s-.27-.11-.34-.23,0,0,0-.12c.36.31.71-.07,1.08.1s.56.1.84.16.53.1.2.32c0,0-.1.09,0,.15s.15,0,.23,0c.37,0,.59-.27,1-.22a1.37,1.37,0,0,0,1.47.26.31.31,0,0,1,.33.06s0,.13,0,.15c-.32.24,0,.17.17.2a.33.33,0,0,1,.16.46c-.14.42.2.39.53.39a5,5,0,0,1,1.59.19,2,2,0,0,0,.49.07,12.09,12.09,0,0,1,2.4.1.55.55,0,0,0,.34,0,1,1,0,0,1,.8,0,3.93,3.93,0,0,0,.9.06c.62.1,1.25,0,1.84.13a6,6,0,0,0,1.8,0c.62.13,1.24.24,1.84.4.39.11.71-.07,1.08,0,.08,0,.22.09.23.14,0,.27,0,.27.35.35l.27.08c0,.22-.11.34-.45.14a1.88,1.88,0,0,0-1.32.22c.67,0,1.29.16,1.93.08a6.75,6.75,0,0,1,1.66.15c.15,0,.44.09.41,0s.13-.13.21-.12.39.05.59.08a6.47,6.47,0,0,1,2.5.48s.12,0,.18,0c.39,0,.77.07,1.16.13,1.43.23,2.87.42,4.3.63a20.25,20.25,0,0,0,3.29.4.69.69,0,0,1,.43.1,3,3,0,0,0,1.63.42,6,6,0,0,1,1.39.19,6.84,6.84,0,0,0,1.44.19c1.2.05,2.41.11,3.62.13,3,.06,5.95.23,8.89.06,1.24-.07,2.5,0,3.73-.15,1.82-.16,3.61-.38,5.42-.58a1.62,1.62,0,0,1,.58,0,4.77,4.77,0,0,0,1.6,0c.68.1,1.32-.15,2,0a1.65,1.65,0,0,0,.83-.05,1.74,1.74,0,0,1,.79-.08,29.12,29.12,0,0,0,3.1,0,13,13,0,0,0,1.53,0,12.38,12.38,0,0,1,2.3-.2,8.85,8.85,0,0,0,1.35-.15,8.44,8.44,0,0,0,1.61-.2c.25,0,.53.07.74-.06a3.55,3.55,0,0,1,1.47-.48,5.88,5.88,0,0,1,3,.06.5.5,0,0,0,.64-.17c.13-.25.38-.27.67-.28a11.59,11.59,0,0,0,1.58-.15l2.23-.08a9.22,9.22,0,0,0,1.29-.09c.09,0,.15,0,.1-.14s.1-.32.31-.4l.74,0v-.08l-.75-.06c-.24-.13-.26-.14-.19-.19a1.44,1.44,0,0,1,.72-.35,1.17,1.17,0,0,0,.7-.16,2.59,2.59,0,0,0,.89-.12c.24,0,.48,0,.72.06a9.61,9.61,0,0,0,2.46-.1h.08c.78,0,1.57.14,2.35.22,1.09.11,2.16,0,3.25.18a12.53,12.53,0,0,0,2.45.1c.31,0,.61-.07.93-.05,1.57.14,3.14.33,4.71.39a25.48,25.48,0,0,0,5.54-.4,5.17,5.17,0,0,1,1,.27,1.19,1.19,0,0,0,.72.13c.21,0,.36-.08.12-.26s-.24-.2-.17-.27c.25-.26-.05-.33-.27-.43.2-.12.49,0,.71-.13s.34-.18.18-.22c-.38-.11-.55-.45-1-.49a3.78,3.78,0,0,1-1.41-.25.39.39,0,0,1-.26-.18c-.23-.51-.36-.57-1-.64s-1,.1-1.53,0a1.2,1.2,0,0,0-.53-.07,9,9,0,0,1-1.62-.15c.5-.11.88-.36,1.24-.19a1.24,1.24,0,0,0,.77.08c.57-.06,1.15-.1,1.72-.15.13.14.24.21.4,0a1.11,1.11,0,0,1,.64-.22c.23,0,.65.13.66-.23l.11.06c0,.1-.05.21.16.21-.11.14-.19.25.17.22s.61-.09.64.32c.14-.2.07-.4.17-.55l0,0h0a.06.06,0,0,0,0-.06c.09-.25.34-.29.69-.19-.19,0-.42,0-.37.22s.28.14.43.19a.41.41,0,0,0,.33-.05,1.42,1.42,0,0,0,1.06-.11c.16-.1.42.07.58-.06a8.65,8.65,0,0,1,1.14.13c0-.08,0-.18,0-.28s.07-.09,0-.15a1.55,1.55,0,0,1,.21,0c.19,0,.38,0,.36-.16s-.18-.2-.38-.21l-1,0a1.2,1.2,0,0,1-.39-.16c-.21.26-.34,0-.48-.08-.18.14,0,.25,0,.37a2.17,2.17,0,0,0-.48-.06,5.38,5.38,0,0,1-1.91-.21c-.15-.09.11-.27-.17-.35s0,.21-.24.14c0-.18-.19-.3-.43-.37.06-.06.22,0,.18-.15s-.15-.06-.23-.06l-.79.05-1.38-.06a2.53,2.53,0,0,0-1,0H197a.94.94,0,0,0-1.17-.26.7.7,0,0,1-.21,0h0c-.15-.18-.31-.07-.46,0s-.23.12-.32.07c-.37-.21-.69,0-1,0a.46.46,0,0,0-.47,0c-.23.21-.39.15-.65,0a.71.71,0,0,0-.74,0c-.21.12.14.18.15.29a7.28,7.28,0,0,1-1.32,0,5.12,5.12,0,0,0-.68,0,1,1,0,0,1-.55-.17,2.6,2.6,0,0,0-2,.07.28.28,0,0,1-.39,0,.92.92,0,0,0-.64-.16,2.22,2.22,0,0,1-1.18-.43c.08-.1.16,0,.22,0,1.53-.09,3.09,0,4.62-.05,1-.05,1.95,0,2.92,0s1.7-.09,2.55-.06a15.28,15.28,0,0,0,2.22-.11l-.28-.06c-1.11,0-2.22-.13-3.33-.09s-2.32,0-3.49,0a6.76,6.76,0,0,1-2-.09,1.51,1.51,0,0,0-.5,0c-1.25.13-2.53,0-3.79.09-.57,0-1.14-.1-1.71-.11-.09-.05-.22,0-.28-.08l.06-.12c0-.19.24-.23.36-.35a8.87,8.87,0,0,1,1.63,0l.71,0c.24,0,.38-.11.28-.33.48,0,.9.34,1.42.29-.09-.19-.31-.16-.39-.27l.4-.12.1.07a.28.28,0,0,0,.12.28c.13.09.37.12.32,0s.17-.21.28-.3l.26-.13a2.46,2.46,0,0,0,1,.18l0,0h0l0,0c.23.29-.32.1-.28.29.31.08.55.07.63-.22.46.36.47.36.85.1,0,0,0,0,.12,0,.26,0,.54.1.7-.11a1.52,1.52,0,0,0,.82,0c.13.08.25,0,.38,0s.27,0,.27-.09-.14-.15-.26-.16a2.23,2.23,0,0,0-1.15.06.7.7,0,0,0-.64-.08h0a1.65,1.65,0,0,0-.73-.09l-.08,0c-.18-.14-.32,0-.47,0s-.18.14-.34.08.09-.18,0-.29l-.48,0a.11.11,0,0,1-.08,0c-.34-.15-.48,0-.65.19l0,0h0l0,0c-.09-.13-.18-.31-.38-.09a.18.18,0,0,1-.22,0,1.07,1.07,0,0,0-.75,0,3,3,0,0,1-.49,0c-.08,0-.45-.17-.23.15,0,.07-.11,0-.16,0a1.22,1.22,0,0,0-.84-.22c-.31-.32-.47-.33-.74,0a.24.24,0,0,1-.23.06A.48.48,0,0,1,183,148a.43.43,0,0,1-.47.23c-.26,0-.23.11-.18.25-.36.07-.77-.2-1.15,0-.06,0-.3,0-.32.11s.17.14.28.2.11,0,.1.11a3.42,3.42,0,0,1-1.42-.08c-.07-.1-.37-.21,0-.28.08,0,.13,0,.07-.11a.22.22,0,0,0-.17-.1.85.85,0,0,0-.49.18c-.17.11.07.14.14.21s-.08.09-.08.15l-.17.05c0-.13-.25-.2-.2-.34s.13-.24-.08-.33-.24.15-.39.19h0a5.78,5.78,0,0,1-1-.18c-.31-.24-.33,0-.45.13h-.19a.74.74,0,0,1-.21-.07.87.87,0,0,0-1,0,.47.47,0,0,1-.51.05.11.11,0,0,0-.14,0c0,.07,0,.11.1.13l.26.06c.12.41.12.41-.41.39,0-.13,0-.33-.29-.29a4.37,4.37,0,0,0-.93-.41l-.23,0a5.2,5.2,0,0,0-1.19-.1c-.69.17-1.42,0-2.09.13-.07.31-.26.37-.93.29.49,0,.49,0,.65-.11a11.88,11.88,0,0,0-2.07-.48,6.74,6.74,0,0,0,1.23-.26c.27-.13.59,0,.86-.07a.3.3,0,0,0,.38.2,1.2,1.2,0,0,0,.93-.05c.54.27,1.09,0,1.65.13.4.09.81-.08,1.24,0a6.43,6.43,0,0,0,.9,0l-.5-.27a4,4,0,0,1,1.09,0c.25,0,0,.07,0,.1s-.16,0-.13.05a.39.39,0,0,0,.32.17,9.37,9.37,0,0,1,1.18,0c.07,0,.16,0,.17,0s-.07-.1-.15-.12h0c0-.08-.18,0-.2-.11l.12,0c.1,0,.29,0,.26-.11s-.2-.06-.31-.07l-1.43,0c.09-.06.21,0,.27-.12s.16-.06,0-.11a2.53,2.53,0,0,0-.67-.05,5.87,5.87,0,0,0-1.26,0,2.12,2.12,0,0,0-1,0h-.18a8.23,8.23,0,0,0-2.43,0c.12.17.33.07.49.12s.35,0,.63.06a14.3,14.3,0,0,1-4.66-.07c1.1-.16,2.19,0,3.21-.11a6.56,6.56,0,0,0-1.21-.15,9.26,9.26,0,0,1-1.29,0c-1,0-2-.09-3-.11a21.33,21.33,0,0,1-3.09-.1c-.22,0-.39.19-.66.09-.16-.32.3-.14.37-.26a2.55,2.55,0,0,1,.83,0c.09,0,.23.18.26,0s0-.25-.25-.24a1.74,1.74,0,0,1-.63-.14,2.85,2.85,0,0,0-1.08-.18.19.19,0,0,0-.1,0,2.69,2.69,0,0,0-.8-.14c-.13,0-.36,0-.18.2s.19.25-.11.22c-.77-.07-1.54-.12-2.3-.24a9.05,9.05,0,0,1-1.46-.23,12.79,12.79,0,0,1,3.76,0c-.08-.15-.24-.17-.39-.2l-1.75-.29a4.62,4.62,0,0,1-2.1-.58s-.19,0-.1-.1.11,0,.17,0,.19,0,.28,0a22.07,22.07,0,0,0,2.45-.2c.64-.06,1.29-.09,1.92-.2a4.48,4.48,0,0,0,1-.12,5.43,5.43,0,0,0,2.07-.35,5.2,5.2,0,0,0,2.86-.61c.8.06,1.53-.25,2.35-.13,0,0,.11,0,.11,0,0-.32.29-.17.46-.17a2.21,2.21,0,0,0,.63,0,8.49,8.49,0,0,1,2.14,0c1.18,0,2.38.22,3.57.21a8.22,8.22,0,0,1,1,.06,6.6,6.6,0,0,0,1.53.06,6.08,6.08,0,0,1,1.13-.08,34.56,34.56,0,0,0,3.66.22,2,2,0,0,1,1,.13,1.57,1.57,0,0,0,1,.12,3.7,3.7,0,0,1,.94,0,23.25,23.25,0,0,0,3.72.24,7.25,7.25,0,0,0,1.21-.05,3,3,0,0,0-.36-.12c-.65-.11-1.31-.19-2-.31-.5-.09-1-.25-1.48-.32-1.23-.16-2.47-.29-3.7-.43-.12-.11-.43-.09-.41-.25s.3-.06.45-.1l.25-.08-.41-.26c-.09,0-.21-.07-.18-.17s.14-.1.24-.11a5.64,5.64,0,0,0,1.17-.23,4.39,4.39,0,0,1,.81,0c.14.22.4.18.6.16a10.91,10.91,0,0,1,2.06,0,4,4,0,0,0,1.79-.29,1.25,1.25,0,0,0-.94-.5c-.71,0-1.41-.12-2.12-.15-.33,0-.67.11-1,0a1,1,0,0,0-.56-.07.11.11,0,0,1-.08,0,1.14,1.14,0,0,0-1.15-.93c-.27-.08-.51-.27-.83-.17a.6.6,0,0,1-.53-.24,2,2,0,0,0-1.47-.58,18.89,18.89,0,0,1-2-.29,20.32,20.32,0,0,0-2.29-.32c-1.4-.08-2.75-.52-4.15-.57a7.32,7.32,0,0,1-.79-.15,24.14,24.14,0,0,1,4.07.27c1.36.14,2.72.31,4.08.42s2.68.46,4.08.53a2.87,2.87,0,0,0-1.57-.49c-1.14-.17-2.29-.23-3.42-.49l-.05,0c-.35-.12-.79,0-1.15-.26a5.71,5.71,0,0,1,.92,0h0a1.31,1.31,0,0,0,1,.07A1.28,1.28,0,0,0,178,137c-.24,0-.36-.35-.63-.26a1.94,1.94,0,0,1-.83,0c-.24-.05-.46-.25-.73-.11h0c0-.13-.36-.26-.08-.36s.23-.26.49-.12c.06,0,.16,0,.17-.06a.24.24,0,0,0-.05-.16.14.14,0,0,0-.19,0c-.15.15-.32,0-.43,0a1.09,1.09,0,0,0-.69-.1c0-.21.28-.25.45-.42H175l-.08-.13c0-.07.15-.18-.07-.21s-.17.05-.16.16-.1.08-.16,0a.2.2,0,0,0-.26-.06l-.54-.16v0h.08c.3,0,.46-.21.77-.23.14,0,0-.2-.18-.22,0,0,0,0-.05-.05a0,0,0,0,1,0,0c.25-.18.6.1.85,0,.14.1.12.3.39.29,0,.37,0,.37.51.36,0,0,0,0,0,0s-.28,0-.26.17a3.15,3.15,0,0,0,1,.41c.09-.16.31-.06.49-.14-.39,0-.12-.33-.44-.33,0-.19-.2-.24-.39-.28s0-.09,0-.14c.16,0,.41.05.48.14a.59.59,0,0,0,.61.17,4.31,4.31,0,0,1,.77.27,4.66,4.66,0,0,0,1.86.24c.16,0,.38-.05.48.17a.28.28,0,0,0,.36.07.39.39,0,0,1,.27,0,3.62,3.62,0,0,0,1.73,0c.09,0,.2,0,.2-.14s-.1-.13-.21-.15l-.35-.08c-.14,0-.2-.09-.2-.21s.34-.16.36-.34a1.62,1.62,0,0,1,.19.17.55.55,0,0,0,.64.22,1.18,1.18,0,0,1,.56,0c.23,0,.51.1.62-.16,0-.08.14,0,.17.06v.24a4.92,4.92,0,0,0-1.58.42c.31.19.54,0,.73.05.44.11.86.32,1.19-.06h.08a3.2,3.2,0,0,1,1.34.26l1,0h0a.54.54,0,0,0,.65.14c.14-.06.41,0,.44-.18h.26a1.65,1.65,0,0,1,.57.07.51.51,0,0,0,.53,0c.17-.07.28-.17.41,0,0,.06.13.07.2.05s0-.09,0-.13-.11-.38.24-.45l-.38-.15.31,0c0-.1-.25,0-.23-.13s.22-.17.24-.15.44-.14.47.1.23.24.43.29a8.79,8.79,0,0,0,3.64.11,2.35,2.35,0,0,1,1.39,0,.25.25,0,0,0,.29,0l-.79-.19c-.16,0-.29-.05-.25-.24s-.08-.4-.49-.37c-.19,0-.59.08-.41-.29,0-.06,0-.16-.06-.24.52,0,1,.14,1.53.1-.29-.07-.66-.51-.59-.74s-.2-.68-.26-1c-.1-.55-.65-.29-.92-.47l0,0a1.27,1.27,0,0,0,1-.37.13.13,0,0,0,0,0h0l0,0c.1.1.32,0,.41.13s.16.23.35.25.16,0,.18-.07-.16-.1-.2-.17.25,0,.3-.11h.15c.05.07.08.17.16.2.29.11.2.22.05.34s-.23,0-.2.13.13.1.23.08c.33-.07.71,0,1-.08.11,0,.31,0,.31-.13s-.25,0-.31-.16l.23-.08c.06,0,.2,0,.14-.12a.2.2,0,0,0-.22-.1c-.17,0-.44,0-.32.28-.2-.1-.75.12-.56-.35H198c.37.07.47-.25.77-.3h.12l.42.1c-.32.18-.32.18.05.33,0,.15.15.37.33.32s.63,0,.79-.22a2.67,2.67,0,0,1,.92.07c.61.33,1,.38,1.4,0-.19-.13-.49.1-.57-.05-.21-.39-.65-.22-.94-.36a1,1,0,0,0,.5-.06,2.35,2.35,0,0,1,1.27-.17c.2,0,.46-.07.45.23,0,.08.18.11.31.07.42-.14.9-.12,1.32-.25.17,0,.51.07.49-.11s-.37-.12-.57-.19-.12,0-.18,0l-1.45-.12,0-.09,1.5-.25c.1,0,.27.07.28-.07s-.16-.12-.27-.15a.82.82,0,0,0-.26-.06,9.45,9.45,0,0,1-2.89-.38c-.07,0-.24,0-.25,0-.1.26-.29.07-.35,0s-.27-.12-.41-.18c-.46-.19-1-.06-1.43-.37-.09,0-.22,0-.28-.09-.19-.25-.47-.22-.75-.2l-.27,0c-.53-.12-1.08-.18-1.61-.32-.26-.06-.67-.13-.89.12a.18.18,0,0,1-.2,0c-.45-.14-.92-.06-1.38-.18,0-.07.14-.13-.08-.2s-.61-.18-.85,0a8.41,8.41,0,0,1-1.72-.32c-.34-.11-.64-.37-1.05-.26,0,0-.07,0-.1-.06-.17-.18-.44-.09-.65-.17s-.23,0-.2.12.15.11.22.08c.28-.14.5.08.75.1s.16.14.14.21-.13.13-.26,0-.48-.1-.51,0c-.17.39-.47.15-.74.08a2.37,2.37,0,0,0-.85-.15,8.12,8.12,0,0,1-1.48,0l-.09-.13c.16-.09.07-.16-.07-.19s-.31,0-.32.1.18.06.27.09c0,.21-.23.08-.35.13-.6-.11-1.21-.16-1.81-.21-.18-.2-.17-.3.19-.27a3.43,3.43,0,0,0,1.06,0c.08-.07.29-.08.18-.22s-.18,0-.28,0a.65.65,0,0,1-.34,0,5.08,5.08,0,0,0-1.55-.16c-.23,0-.29.09-.1.23,0,.09-.27.08-.21.19.21.34-.19.15-.31.21a.94.94,0,0,0-.3-.07c-1.18.06-2.38-.08-3.57-.11a1.89,1.89,0,0,0,.82-.26.77.77,0,0,1,.43-.11c.75,0,.75,0,.81-.57a.08.08,0,0,0,0,0c.2-.13.36-.32.72-.15.1,0,.27,0,.29-.1.08-.3.4-.29.7-.33s.44.06.41-.18l.1-.12c.63-.16,1.3-.22,1.92-.4a5.86,5.86,0,0,0,1.19-.36,1.61,1.61,0,0,0,1-.54,5.8,5.8,0,0,0-1.28.24l-.08,0h0c-.29,0-.46.16-.72.18h0a.49.49,0,0,0-.32.07,3.5,3.5,0,0,1-1.46.23h0a1.43,1.43,0,0,0-1.09-.19c-.09,0-.22,0-.28,0s0-.16.14-.2.45-.15.57-.33a1.75,1.75,0,0,1,.4,0c.31.11,1.38-.08,1.44-.29.13-.47.6-.42,1.06-.44.27,0,.62.06.78-.13a2.5,2.5,0,0,1,1.57-.62A.82.82,0,0,0,189,123a.74.74,0,0,1,.75-.45c.15,0,.29,0,.26-.16s.11-.34.16-.52c.56-.2.86-.63,1.4-.85.11,0,.1-.16.16-.22.23-.27.32-.66.8-.74a6.54,6.54,0,0,0,2.21-1.15,3.52,3.52,0,0,1,.77-.41c.33-.09.51-.3.41-.55-.17-.44,0-.71.39-1a4.44,4.44,0,0,0,.38-.37c.23-.21.37-.51.8-.57s.36-.18.59-.23a4.38,4.38,0,0,0,1.35-.62c.14-.08-.05-.51.44-.24,0,0,.06-.06.1-.06.56-.12.55-.57.82-.86s0-.28-.23-.31a1.71,1.71,0,0,0-.31,0,.94.94,0,0,1-1-.44s-.08-.07-.1-.06c-.26.07-.38-.07-.59-.17a1,1,0,0,1-.53-.57,1.92,1.92,0,0,0-1-.89h0c0-.15-.08-.17-.36-.22s-.34,0-.34-.13-.22-.53,0-.75c.31-.41-.22-.61-.47-.83s-.21.16-.36.2a.3.3,0,0,1-.13,0,3.83,3.83,0,0,0-1.13.2,4.46,4.46,0,0,1-1.21.07,2,2,0,0,0-1.08,0c-.11,0-.24.06-.3-.07a2.43,2.43,0,0,1-.22-.6c0-.29-.19-.43-.57-.43-.19-.11-.52-.08-.59-.34,0-.07-.1-.07-.16,0-.42.34-.81.16-1.19-.11h0a0,0,0,0,1,0,0c.31-.28.77-.28,1.08-.55a.52.52,0,0,0,.77-.06c.3-.3.74-.22,1.12-.23s.43.08.53-.21.19-.27.26,0c0,.11.09.1.15,0a2.25,2.25,0,0,1,1.21-.46c.24,0,.59-.1.72-.4.16,0,.26-.29.45-.2.9.44,1.35-.44,2.08-.56.27,0,.6-.3.95-.36.19,0,.37,0,.46-.23.41-.27,1-.24,1.36-.57.2,0,.48,0,.46-.31s-.31-.13-.47-.19c-.46-.18-.77.14-1.16.19a35,35,0,0,0-3.36,1,6.61,6.61,0,0,1-1.91.38c-.31,0-.49,0-.62.26a5.28,5.28,0,0,1-.89.34,9,9,0,0,0-2.18.57c-.63-.12-1.09.28-1.65.38l-.89,0c-.18,0-.44.21-.51,0s.28-.26.46-.34.25,0,.36,0,.49-.07.53-.38c.41-.16.86-.23,1.28-.35s1-.18,1.19-.59c.28-.8,1.11-1.08,1.47-1.78.21-.42.75-.5,1-.9a27.57,27.57,0,0,0,2.54-2.64.48.48,0,0,0,.32-.42c.11-.89.84-1.5.87-2.42a.54.54,0,0,1,.24-.49c.1,0,.13-.07.17-.15.37-.7-.07-1.35-.37-2a2.77,2.77,0,0,0-1.05-1.31,4.78,4.78,0,0,0-2-1.35,5,5,0,0,1-1.31-.64,12.41,12.41,0,0,0-2.83-1.34,9.82,9.82,0,0,1-2.75-1.44,13,13,0,0,1,3.24-.42c-.06.12-.4,0-.27.25s.29,0,.45,0,.23-.13.15-.3a7,7,0,0,0,2.05,0,1.66,1.66,0,0,1,.79.12c.21.06.38.14.34.44a.46.46,0,0,0,.19.51c.53.38,1.06.26,1.58.37a8.33,8.33,0,0,0,4.92-.63,1.63,1.63,0,0,1,.66,0c.46,0,.95.45,1.5,0-.53-.12-.95-.23-1.39-.3a1.07,1.07,0,0,1-.51-.2c.21-.16-.1-.41,0-.52a.48.48,0,0,1,.55,0c.28.14.46.06.72-.12a10.46,10.46,0,0,0-1.31-.33c-.52,0-.48-.41-.48-.71s.29-.2.51-.19l2.09.08a3.94,3.94,0,0,0-1.54-.24c-.18,0-.42,0-.43-.22s-.24-.47-.23-.77l1.93.2c.1,0,.24.07.25-.08s-.15-.14-.26-.15l-1.58-.13c-.35,0-.67,0-.43-.51.06-.11,0-.27-.08-.41-.12-.49-.51-.9-.6-1.34a2.35,2.35,0,0,0-1.41-1.6,19.71,19.71,0,0,0-5.3-2.28c-.09-.18-.32-.08-.43-.23a.16.16,0,0,1,.1,0,2,2,0,0,0,.35,0,1.56,1.56,0,0,0,1.18-1c.07-.17.31-.28.18-.51s-.33-.15-.52-.13l-.29-.06c-.16-.16-.35-.09-.53-.12a1,1,0,0,0-.67-.22c-.18-.19-.16-.59-.56-.55l-.54-.24c-.42-.52-1-.26-1.52-.47l-.09,0a.7.7,0,0,0-.21-.79,3.88,3.88,0,0,1,1.35-.09.6.6,0,0,0,.6-.31c.6-.29,1.33-.24,2.08-.55a2.56,2.56,0,0,0-.92-.16c-.31-.25-.51-.47.06-.54.1,0,.24,0,.25-.13s-.14-.19-.24-.25a2,2,0,0,0-.34-.14c0-.07.19-.15,0-.18-.5-.11-.94-.47-1.47-.39h0c0-.44.41-.81.1-1.33-.07-.12.12-.33.35-.34s.24-.06.11-.19a.43.43,0,0,1,0-.61c.12-.17,0-.27-.13-.31-.43-.1-.34-.49-.51-.74.31-.13.24-.65.6-.65s.25-.24.32-.39-.1-.22,0-.27c.46-.18.1-.34-.06-.49a.68.68,0,0,0-.65-.16l-.94-.27c-.09-.16-.41,0-.41-.26s.14-.29.33-.33a.54.54,0,0,0,.19-.08c.21-.2.36-.39-.08-.56-.25-.1-.48-.23-.73-.34a.7.7,0,0,1,.75-.47,1.27,1.27,0,0,0,.89-.33,2,2,0,0,0,.5-.1c.18-.09.55,0,.47-.39a.61.61,0,0,0-.61-.55h0a6,6,0,0,0-2-1.14h0a3.68,3.68,0,0,0-1.2-.57c-.16,0-.35-.06-.4-.24s-.35-.32-.54-.47a1.19,1.19,0,0,0-.46-.2.27.27,0,0,1,.19,0c.16,0,.23-.08.26-.2s-.14-.17-.27-.23-.35,0-.39-.17a3.35,3.35,0,0,0,1.22,0H188a.85.85,0,0,1,.32.45,2.88,2.88,0,0,0,2,.65.15.15,0,0,1,.18.08.82.82,0,0,0,.74.36c.11,0,.29.1.31.18.17.55.56.44.89.35a4.37,4.37,0,0,1,.88,0l.43.24c.11.25.74.22.43.71,0,.06,0,.12.11.15.76.23,1.52.6,2.27.12a2.31,2.31,0,0,1,.57-.16,1.73,1.73,0,0,1-.24-.13,2.69,2.69,0,0,0-2.38-.9h0a2.56,2.56,0,0,0-2.48-.45c0-.11,0-.16,0-.17.19-.1.33-.22.25-.48s-.3-.18-.48-.15-.18-.06-.19-.23a.6.6,0,0,0-.15-.37l.34,0c.19,0,.19-.14.24-.23s-.12-.1-.19-.14-.13-.07.11-.17.14-.26.4-.18h0c0,.29.19.45.6.46s.61,0,.91,0v.06a.67.67,0,0,0-.54.45,1.94,1.94,0,0,1,.76,0,.52.52,0,0,0,.57.12,1.34,1.34,0,0,1,.82-.14c.22,0,.3-.07.18-.23.14-.06.35,0,.41-.19.61.12,1-.22,1.43-.36a1,1,0,0,1,.35-.08c.07-.22.24-.46.56-.37s.38-.06.42-.23a.65.65,0,0,1,.05-.2c0-.05.24,0,.1-.14s-.23-.23-.31-.17c-.31.23-.71,0-1,0-.76.06-1.52-.24-2.3-.25-.14,0-.41-.11-.34-.22s-.19-.29-.24-.24c-.21.25-.29-.3-.47-.05s-.19,0-.3-.06v-.37c.36-.17.73.16,1.1.06a35.86,35.86,0,0,0,6.14-.14,7,7,0,0,0,1.53-.19A8.27,8.27,0,0,1,204,57a1.52,1.52,0,0,0,.89.09c.21,0,.23-.05.19-.16a.6.6,0,0,1-.14-.66c.19,0,.42,0,.55-.2a7.78,7.78,0,0,0-1.93-.47,1.18,1.18,0,0,1-1.22-.52c-.06-.12-.2-.13-.32-.16a3.67,3.67,0,0,0-1.14-.05c-.87.07-1.76,0-2.64,0a1.54,1.54,0,0,1-.75-.12c.2-.19.56-.16.76-.33a2.14,2.14,0,0,0-.84-.17,9.27,9.27,0,0,1-1.74-.09,5.78,5.78,0,0,0-1-.18c-.13-.13-.31-.09-.47-.09s-.19-.07-.15-.17h0a2.79,2.79,0,0,1,.58.07c.28.09.34,0,.42-.17.26.05.35-.23.58-.15a.53.53,0,0,0,.61-.16s.08.07.11.06a10,10,0,0,1,1.35-.09c.17,0,.06-.13,0-.2h0a3.53,3.53,0,0,0,2.48-.26h0a2.48,2.48,0,0,0,1.35-.31.54.54,0,0,1,.42,0H202a1.15,1.15,0,0,0,.37,0,5,5,0,0,0,1.75-.41s0-.07,0-.11.31,0,.47,0a7.34,7.34,0,0,0,2-.42c.09,0,.2,0,.12-.18a6.13,6.13,0,0,0-2.11.12c-1.73.41-3.59.46-5.35.78a19,19,0,0,1-2.31.24,22.9,22.9,0,0,1-2.91.21,7.83,7.83,0,0,0-1.84.25c-.59.07-1.2,0-1.8.11a5,5,0,0,1-2.66-.15,4.46,4.46,0,0,0-1.91-.4,2,2,0,0,0-.61-.17,18.66,18.66,0,0,0-2.59,0,9.39,9.39,0,0,0-2.25.09h-.18a2,2,0,0,0-.53-.09c-.63.05-1.24.12-1.87.19-1,0-2.09-.24-3.14-.21.2-.09.43,0,.68-.11a5.15,5.15,0,0,1-1.83-.22,5,5,0,0,0-1.31-.22s0,0,0-.06-.22-.16-.1-.2.41-.25.7-.08a.62.62,0,0,0,.56-.11c.06-.07,0-.13-.14-.18s-.34-.07-.44.07-.13.07-.21,0,0-.1,0-.16,0-.23.13-.19a7.24,7.24,0,0,0,1.47,0l.57,0c.16-.26-.14-.49-.21-.73a1.38,1.38,0,0,0,.39-.09.39.39,0,0,1,.51,0c.13.2.57.39,0,.58-.1,0,0,.16,0,.24.37,0,0,.29.23.39h0v.07h0l-.4-.12c0,.19,0,.33.31.33s.33.15.48,0a1.16,1.16,0,0,0,1.06,0,.29.29,0,0,1,.35,0,1.79,1.79,0,0,0,1.14.19c.13,0,.28,0,.25-.16s-.18-.08-.3-.09c-.38-.06-.78-.12-.81-.51,0-.19-.14-.3-.41-.25a1.31,1.31,0,0,1-.62-.1c-.35-.07-.42-.25-.17-.42.1-.07.28-.11.22-.24s.09-.4.34-.38c.49,0,.94-.36,1.46,0-.06.13-.43,0-.35.19s.31.08.47.13,0,.16,0,.24.24.19.32.07.22-.23.09-.39l-.39-.22c.17-.16.17-.16-.35-.42.08-.1.28-.16.18-.33.27-.17.14.2.32.15.09.37.44.38.82.35-.1.15,0,.24.2.26s.39.19.51.35-.25.12,0,.22a1.49,1.49,0,0,1,.54.48c0,.06.12.15.16.11.23-.21.65-.11.87-.24a.57.57,0,0,1,.6,0,.5.5,0,0,0,.36.16c.31.06.73,0,.67.41,0,0,0,.1.12.11s.15-.05.15-.11.2-.12.32-.17a2.1,2.1,0,0,1,1.42,0s.1,0,.16-.06c.28-.12.52.18.8.11s.31-.08.52-.07c-.06.22-.43.28-.3.52h-.08c-.12,0-.3-.15-.32.07s.39.57.69.6.3,0,.28-.19-.4-.64.15-.85c.07,0-.14-.11,0-.18.45.4.56.4,1.24.23a.62.62,0,0,1,.76.3l-.76,0c.2.08.41.13.36.28-.16.46.42.46.72.65-.11-.18.05-.32,0-.48v-.19c-.08-.24.09-.27.34-.26.06.13-.22.11-.13.24,1-.07,1-.07,1-.22-.21-.07-.33.13-.56.05l.36-.42c.13.21.48.39.57.32.24-.18.86,0,.8-.43h0c.07-.22-.29-.28-.34-.46s-.15-.08-.09-.08c.28,0,.37-.27.73-.2s.81.25,1.17,0l.32,0c.08,0,.17-.06.13-.12s-.17,0-.26,0c.06-.34.06-.34-.22-.39-.22-.2-.58,0-.8-.21h0c-.14-.25-.5-.28-.75-.41s-.33-.24,0-.32h0c0,.18.23.25.42.29a.33.33,0,0,0,.36-.12c0-.08.06-.22,0-.28a.27.27,0,0,0-.37,0h-.1c0-.12,0-.22.26-.18s.22.06.15,0c-.2-.31.12-.27.33-.36s.56-.21.62-.47h.19c.13.16.4,0,.53.16,0,.17.07.3.29.22s.39,0,.49-.18a.28.28,0,0,0,0-.28c0-.1,0-.16.13-.15a3.73,3.73,0,0,0,.47,0l.19.05c.36,0,.7.38,1,.2a3.16,3.16,0,0,1,1-.32c.24,0,.06-.35.37-.24h0c.17.18-.21.21-.14.37-.3.21.12.18.19.27a4.93,4.93,0,0,1,.54,0,2,2,0,0,0,.84-.09c.43-.1.1-.34.09-.53s0-.1.09-.11.15.34.45.32c.13,0,.25.15.38,0l.7.11h0c0,.15-.09.37.3.39a.32.32,0,0,0,.22.07c.44.28.63.08.8-.18l.39-.07h0c.84,0,1.44-.23,1.58-.63a1.75,1.75,0,0,1,.7.42c.16-.11.07-.2,0-.31s0-.17.2-.17.75.08.67-.34c0-.18.25-.1.32-.22-.19-.12-.35-.3-.64-.15a.2.2,0,0,1-.31-.07c0-.07-.12-.13-.17,0s-.42.14-.6.09c-.65-.15-1.29-.29-1.95-.4-.09,0-.23,0-.25-.14-.05-.31-.06-.31-.45-.14h-.12l-.1,0c-.19-.07-.32-.25-.54-.23a.77.77,0,0,1-.34,0l-.25-.08a2,2,0,0,1-.37-.23,4,4,0,0,0-1.32-.43,2.27,2.27,0,0,1-.8-.22,1.38,1.38,0,0,0-1-.08l-.41.07-1.17-.22c.24-.28-.15-.29-.33-.39s.23-.1.29-.19l.3-.14a1.07,1.07,0,0,0,.68-.26c.58,0,.85-.18,1-.55.37-.1.33-.48.71-.58.05,0,0-.14-.09-.15-.41,0-.64-.39-1.07-.39-.05,0-.2,0-.16-.13.16-.25,0-.39-.32-.49-.08,0-.14-.1-.22-.16l.65-.22h0c.25,0,.59,0,.67-.22s.28-.13.45-.11.19.08.33.07a14.15,14.15,0,0,0,2.44-.13c0,.13-.21.13-.22.32.11-.14.33.1.37-.13s.15-.1.28-.09a2.6,2.6,0,0,0,1.31-.15c.19-.09.54-.22.66-.1.28.3.5.15.75.08s.2-.06.29.05a.13.13,0,0,0,.2,0c.05-.06,0-.12-.09-.15a.31.31,0,0,1-.27-.35,1.7,1.7,0,0,0,.47-.22,2.2,2.2,0,0,0,.9-.19l.09-.07c.23,0,.32-.27.61-.11h0c.29,0,.57-.35.89,0a0,0,0,0,0,0,0c.22-.14.35,0,.53.11a.68.68,0,0,0,1-.29c0-.16,0-.34.15-.47C209.51,38.06,209.57,37.85,209.22,37.75Zm-15.65-8.46h0Zm-1-.64h0l0,0S192.52,28.66,192.52,28.65Zm-.23-21.54h0Zm-7.4.27Zm-.22,22.37h0ZM183.77,7Zm-.9.44h0Zm3.6-2.83h0Zm-1.24-.29h0l0,0Zm-8.62.48.06,0s-.08.07-.15.06S176.6,4.82,176.61,4.78Zm-5-.63h0Zm-5.8-.24v0s0,0,0,0Zm-5.44-1.49h0v0Zm-1.51-.09h0ZM151.37,2l0,0s0,0,0,0Zm-1,.07h0Zm-1.06.56h0ZM12.4,49.82Zm1.94,0-.12,0,0,0,.15,0Zm7,4.93h0l0,0Zm6.38,10.08h0Zm8.13,9.3H36S35.91,74.21,35.85,74.16Zm-24.5,6.75h0Zm4.16,1h0l0,0S15.53,81.86,15.51,81.87ZM24,85h-.11a1,1,0,0,0-.53,0l-.07,0C23.17,85,23,85,23,85c-.15.37-.4.1-.61.08a.32.32,0,0,0-.14,0,.27.27,0,0,1-.08-.07c.09-.14.45-.09.36-.33l0-.12.1,0s.15.08.24.11a7.43,7.43,0,0,0,.79.17l.36,0a.61.61,0,0,1,.29.14A1.1,1.1,0,0,0,24,85ZM22.39,116.3h0Zm9.14-40.51,0,0a.17.17,0,0,0,0,0ZM41.3,133h0Zm2.42,4.26Zm27.64,13.53h0Zm123.82,1Zm-1.65,0,.1,0h0l-.13,0Zm-22.81,2.95Zm-8.37-1h0l0,0Zm-1.13,3.7h0v0Zm-.7-11.07h0Zm-.76-.28Zm-.12,9.09,0,0h-.06Zm-1.72,2.34,0,0h0Zm-2.07-2.75h0ZM182.13,142h0ZM175.21,136h-.09S175.16,135.91,175.21,136Zm20.87-4.41Zm-3.55-.63Zm-7.22-2.06h.1a1.36,1.36,0,0,0,.45,0l.06,0c.09,0,.19,0,.22,0,.12-.24.34-.06.51,0h.13l.06,0c-.08.1-.38.06-.3.22l0,.08a.11.11,0,0,0-.08,0s-.14,0-.21-.07c-.23,0-.45-.09-.68-.12h-.3a.69.69,0,0,1-.25-.1A1.1,1.1,0,0,0,185.31,128.85Zm7.76-50.25v0h0Zm-2.85-6.51ZM204.1,56.88H204s0,0,0,0Zm-7.51.25a1.81,1.81,0,0,1-.57,0Zm-5.34,2Zm-.84.21,0,0c.25.18.23.33-.06.44,0,0,0,0,0,0l-.37-.06a.29.29,0,0,1-.1,0l.29-.1c.14,0,.17-.14,0-.22a.59.59,0,0,1-.28-.26C190.18,59,190.3,59.2,190.41,59.36Zm-.85.14h0l-.07,0a.41.41,0,0,0-.3-.08c.1,0,.21,0,.31,0A.15.15,0,0,0,189.56,59.5Zm-.84-.69h0Zm-1.91-.3Zm-13.6-28.12h0a.27.27,0,0,0,.19,0c-.09,0-.19.09-.28,0Zm-7-24.8c.33,0,.59-.2.92-.19a14.68,14.68,0,0,0,2.11-.12c.22,0,.35,0,.4.2h0c-.26,0-.43.08-.41.3S169.17,6,169,6s-.33,0-.49,0-.44,0-.42-.25-.19-.19-.37-.19a3.83,3.83,0,0,0-.58.07c-.15,0-.29,0-.31.18s.18.16.3.22a3.51,3.51,0,0,0-.49.13h-.05c0-.08-.17-.08-.25-.13S166.08,5.6,166.26,5.59Zm-.47-1h0l0,0Zm1.49,24.65c0,.1.22.11.33.17s.25.05.16.18,0,.32.18.45a.53.53,0,0,1-.12,0l-.56-.12a1.33,1.33,0,0,0-.34-.05,25.15,25.15,0,0,1-3.47-.32l-.2,0s0,0,0-.07.16-.14.33-.07.29.1.31,0-.12-.2-.3-.21-.15.05-.23-.06l.42,0h.12A29,29,0,0,1,167.28,29.22ZM153.33,5.28h0a1.7,1.7,0,0,0,.64.13,9.75,9.75,0,0,0,2.3-.16,7.79,7.79,0,0,1,2.21,0,5.46,5.46,0,0,0,1.63-.08h0c0,.21.1.25.4.21s.69,0,1,0c.87,0,1.76.09,2.62,0a3.32,3.32,0,0,1,1,.14.3.3,0,0,1,.26.33c0,.14-.09.21-.27.19-.82-.07-1.57.2-2.4.09a1,1,0,0,0-.48,0s0,0,0,0a1.22,1.22,0,0,0-.33,0h-.67A.76.76,0,0,1,161,5.9c0-.07.13-.14,0-.22s-.27,0-.4,0h0l-.54,0c-.12,0-.27,0-.25.11s.16.1.27.11.4,0,.55.13a3.18,3.18,0,0,1-.33.08h-.06a10.39,10.39,0,0,1-1.37.07,4.45,4.45,0,0,0-2.06.13.7.7,0,0,1-.38,0L156,6.2a1.52,1.52,0,0,0-.59-.12,2.22,2.22,0,0,0-.51,0l-.13.05-.22.07-.29,0,.08-.12s0,0,0,0A4.92,4.92,0,0,1,156,5.79c-.46,0-.89-.19-1.32-.16a4.91,4.91,0,0,1-1-.07.82.82,0,0,0-.31-.08h-.15l-.38,0C152.92,5.27,153.2,5.38,153.33,5.28Zm16.78,46.77.12,0h0Zm1.24.58h0Zm-12.63-24Zm19.86,29ZM157.67,67.92h0Zm20.29,1h0Zm-7.94.75h0v0Zm8.49-3.13h0ZM168,63.8h0v.05Zm-1.88.33h0Zm-2.45,6.78h0l-.05,0Zm-.34.2h0ZM152.5,72h0Zm-.31.55a.08.08,0,0,0,0,0h.06S152.2,72.57,152.19,72.59Zm1.48,1.23h0v0Zm1.73,1.94a.2.2,0,0,1,0,.09l-.07,0Zm-6.5-8.83,0,0s0,0,0,0ZM140.44,2.22v0l0,0ZM138,1.88v0h0Zm-17,1a.19.19,0,0,0,.07.15,1.13,1.13,0,0,1-.54-.22A1.1,1.1,0,0,0,121,2.85ZM106.13,1.37l0,0,0,0Zm-.34-1.1h0Zm0,1.75c.1,0,.2,0,.25-.07a.25.25,0,0,1,.29,0c0,.19.24.18.33.29-.09.15-.23.31.21.29a1.72,1.72,0,0,1,1,0,.81.81,0,0,0,.22.07h0a1,1,0,0,0,.62,0l.11,0,.26,0h.06a.69.69,0,0,0,.63,0H110a.86.86,0,0,0,.54.19,2.22,2.22,0,0,0,1.93-.51c.11.34.41.45.72.54s.83,0,.84-.14-.24-.37-.51-.48l-.06,0a8.46,8.46,0,0,0,1.59,0,1.47,1.47,0,0,1,.78.07.92.92,0,0,0,.91,0,1.28,1.28,0,0,1,1.45.22l.1.11c0,.1.1.17.23.2a.65.65,0,0,0,.62-.19c.17-.26.44-.17.62-.07a1.18,1.18,0,0,0,.3.1.46.46,0,0,0,.21.05l.14,0,.09,0v.09l-.8.11c-.16,0-.24.09-.24.19s.16.09.27.11,0-.12.08-.15a.28.28,0,0,0-.08.15,1.6,1.6,0,0,0,.63.19c.06,0,.11,0,0,.11a1.62,1.62,0,0,1-1.39.08,1.88,1.88,0,0,0-1.47,0,.57.57,0,0,1-.56,0,1,1,0,0,0-1-.06.7.7,0,0,1-.57,0,1.34,1.34,0,0,0-.63-.09.87.87,0,0,1-.57-.11,1.23,1.23,0,0,0-1.07-.18.19.19,0,0,1-.18,0c-.61-.23-.63-.22-.8.22l-.13,0a.26.26,0,0,1,0-.18c0-.1.09-.25-.09-.29a.26.26,0,0,0-.33.24.38.38,0,0,1-.12.24.9.9,0,0,1-.21-.08l-.13-.14a.42.42,0,0,0-.38-.15c-.14,0-.16.1-.17.19a.28.28,0,0,1,0,.18.17.17,0,0,1-.18,0l-.22-.07-.06,0c-.24-.18-.29-.17-.36,0l0,.1-.23.17a.93.93,0,0,1-.57,0,5.33,5.33,0,0,1-1.2-.5l-.09,0a.86.86,0,0,0-.33-.11l-.19,0h-.13c-.21,0-.43,0-.65,0h-.61a3.35,3.35,0,0,1-.77-.13l.11-.14c-.16-.31-.43-.29-.74-.19h-.33a1,1,0,0,1,1.14,0C105,2,105.4,2,105.79,2ZM104,1.14c.38,0,.79.15,1.09-.09h.1a.7.7,0,0,0-.16.53h0l-.73,0-.07,0c.08-.14,0-.24-.27-.23,0,0,0,0,0,0l.07,0a.21.21,0,0,0-.15-.19A1.13,1.13,0,0,0,104,1.14Zm-.61,1.08s0,0,0,0l-.11,0Zm-3.14.23-.36,0-.06,0-.13-.05c-.2-.12-.51-.13-.59-.35a2.48,2.48,0,0,1,.77,0,3.16,3.16,0,0,0,1.22.2h0a.17.17,0,0,0,.12,0h0c.47,0,.93-.07,1.4-.07v0c.23.45.45.55.91.39v0l.14,0h0c.37.3.82.11,1.23.18,0,.08-.19.06-.28.08h-.08c-.37.13-.36.35-.16.66a14.38,14.38,0,0,1-2.13-.3,1.9,1.9,0,0,0-1-.1,5,5,0,0,1-2.4-.23,1.39,1.39,0,0,0,.68,0,1,1,0,0,1,.24-.07,1.2,1.2,0,0,0,.5,0c.12,0,.29-.06.28-.17S100.34,2.46,100.22,2.45ZM96.91,1.12a3,3,0,0,0,.68,0A2.22,2.22,0,0,0,98.23,1a.2.2,0,0,0,.08,0s.08,0,0,.08a1,1,0,0,0-.07.46s0,0,0,0a.85.85,0,0,1-.22.09l-.23,0c-.14,0-.28,0-.42,0h-.55c0-.07,0-.16-.09-.24S96.67,1.14,96.91,1.12ZM94.22.82h0s0,0,0,0ZM93.74,1h0Zm-.06,1.83s0,.07,0,.11S93.65,2.86,93.68,2.83ZM56.15,61.22l-.56.06C55.68,61,55.75,61,56.15,61.22Zm-5.41,1h0l0,0h0ZM44.35,74.67h0ZM42,74.83ZM40,74.14h0ZM53.7,140.92h0Zm.46-1.56h0ZM56,142.91l0,0h0Zm3.54,1.34h0l0,0Zm1.32-5.37v0h0Zm1.71,3.83v0Zm1.63-.21h0Zm2.08-4.43h0l0,0Zm.29-.13h0ZM71.42,140h0Zm.2,4.95h0Zm1.76-10.07a.06.06,0,0,1,0-.06h0Zm1.5,1.28h0Zm1,1.15Zm.25-.33v0l0,0Zm2.67,9.12h0Zm.11-5.45v0l0,0Zm73,18.23a.37.37,0,0,1-.34,0l.43,0Zm10.69-15.14h0l0,0h0Zm5.43-8.15h0Zm2-.1Zm1.66.45h0Zm7.21-1.05,0,0h0Zm-2.08-82.27Zm-1,.19s0,.05,0,.1h0Zm-2.45-.53,0,0v0ZM172.6,52v0h0S172.63,52,172.6,52Zm1-1.24h0Zm2-.62h0Zm.2,1s0,0,0,0h0Zm5.47-2,0,0h0Zm1.23.24a.15.15,0,0,1,.13-.1Zm.21-1.38h0l0,0Zm1.74-14.72a1.33,1.33,0,0,0-1.41-.46l-.14,0h0a3.77,3.77,0,0,0-2,0h0c-.38,0-.76-.16-1.13-.06h0l-.2-.07c-.45-.17-1,0-1.4-.27a2.71,2.71,0,0,0-1.58-.22,2.57,2.57,0,0,1-1.25-.16.88.88,0,0,0-.62,0,1.32,1.32,0,0,0-.76.48.73.73,0,0,1-.68-.18,0,0,0,0,1,0,0,4.07,4.07,0,0,0-.41-.52,2.55,2.55,0,0,0-1.19-.15.93.93,0,0,0-.8,0h-.09l-.07-.06a3.88,3.88,0,0,0-1-.28l-.15,0a2.17,2.17,0,0,0-1.13,0,2,2,0,0,1-.73,0,10.91,10.91,0,0,0-2-.19c-.48,0-.91.18-1.32-.18h0a16.48,16.48,0,0,1-1.87-.25c-.6,0-1.2-.17-1.8-.17a.3.3,0,0,1-.3-.14,1.39,1.39,0,0,1,.76,0c.69.09,1.37.23,2.07.27s1.51.26,2.24.26,1.44.08,2.17.15c2,.19,3.88.45,5.82.64a3.48,3.48,0,0,1,1.16,0l.19,0,.24.05a1.51,1.51,0,0,0,.3,0l.43.05.09,0a.81.81,0,0,0,.69.11.44.44,0,0,1,.15-.05l.43,0,.12,0a6.28,6.28,0,0,0,1.43.17,6.21,6.21,0,0,1,1.62.23,2,2,0,0,0,.87.14,3.57,3.57,0,0,1,1.08.05,8,8,0,0,0,2.79.26.54.54,0,0,1,.25,0,1.28,1.28,0,0,0,.31.11.53.53,0,0,1-.18,0l-.15,0C184.69,32.76,184.81,33.2,184.49,33.28Zm6,14.17-.29.13,0,0a1,1,0,0,1-.7,0,.56.56,0,0,0-.49.07h0c-.5-.12-.78.24-1.23.25h0a.68.68,0,0,0-.59,0c-.06,0-.06.05,0,.08l0,0h0a.09.09,0,0,0-.06-.06c-.18-.08-.41,0-.57-.13a1.66,1.66,0,0,0-1.07-.18c-.11,0-.23,0-.27-.1h0a.27.27,0,0,0,.17-.11h.06c.27,0,.61.05.74-.15a.68.68,0,0,1,.58-.25l0,0c-.11.09-.17.18,0,.29a.24.24,0,0,0,.23,0c.11-.07.24-.14.11-.27s-.06-.07-.05-.11h.18c.23,0,.59,0,.38-.33h0c.08,0,.25,0,.25-.15l0,0a1,1,0,0,1,.38.08c-.26.29,0,.39.33.48a2,2,0,0,0,1,.1c.27.11.27,0,.32-.17s.17-.41.57-.3h0c.1,0,.23,0,.32.08v.23C190.45,47.09,190.66,47.3,190.54,47.45Zm-1.83-13s0,0,0,0Zm1.3-.56h0Zm1.28,15.47c0-.09.07-.18.09-.27a.46.46,0,0,0,.06.28A.2.2,0,0,0,191.29,49.37Zm1,.51h-.08v0Zm-.09-.38h-.11c0-.05,0-.1,0-.1A.25.25,0,0,0,192.19,49.5Zm-.46,0a.17.17,0,0,1,.2.07h0c0,.08,0,.13.06.18a.74.74,0,0,1-.28-.14C191.76,49.59,191.77,49.55,191.73,49.51Zm1.59-2.66-.21.09.38.27h0c-.07.13-.3-.08-.37.05h0l0,0c-.1,0-.16,0-.16.1,0,.28-.26.36-.56.41a.27.27,0,0,0-.16-.17c0-.21.28-.16.45-.18s.34-.17.19-.23c-.31-.13-.15-.32-.28-.46-.22-.31-.67-.28-1-.42.09-.28.38-.27.68-.2.14,0,.26.14.4,0a1.32,1.32,0,0,1,.69.28C193.82,46.68,193.59,46.73,193.32,46.85Zm-.92-4.93h0s0,0,0,0Zm.87.18h0l0,0Zm1.23-8.25c-.15,0-.35,0-.36.15h0a.38.38,0,0,0-.19-.05h0a.66.66,0,0,0-.83-.08.86.86,0,0,1-1,0,.38.38,0,0,0-.24-.06,9.06,9.06,0,0,0-2.44,0h0a1.19,1.19,0,0,0-1.16-.44l-.1,0c-.14,0-.26,0-.3.12l-.08.06a.28.28,0,0,1,.05-.09.3.3,0,0,0-.37.15c-.15.2-.36.25-.65.08l-.05,0h0c.22,0,.24-.21.47-.21s.11-.07.05-.14a.18.18,0,0,0-.21,0c-.07,0-.1.2-.24.1s-.34,0-.46.07a.05.05,0,0,1,0,.05.14.14,0,0,1,0,.06l-.33.17h-.07c-.07-.15-.27-.13-.43-.16s-.25-.09-.27-.2.1-.13.2-.16.33,0,.3-.18a.13.13,0,0,0,0-.09.68.68,0,0,0,.31,0,1,1,0,0,1,.62,0l.14,0a16,16,0,0,0,2.48.3.54.54,0,0,0,.47-.13h0l.05.05.16,0c.17.12.3.3.54.2a2.47,2.47,0,0,1,.52-.13l.29,0a3,3,0,0,1,.73.07,1.83,1.83,0,0,0,1.25-.07h.1c.06.2.13.22.5.26a2.71,2.71,0,0,1,1.22.23A1.27,1.27,0,0,1,194.5,33.85Zm3.8,8.06,0,0h-.05S198.3,41.92,198.3,41.91Zm-1-.16h0Zm5.43-1.94h0Z"/><path class="cls-1" d="M191.42,2.59a1,1,0,0,0,.34.07,9.52,9.52,0,0,0,2.39-.11c.13,0,.33,0,.26-.18A.37.37,0,0,0,194,2.2a1.77,1.77,0,0,1-1.13-.06.86.86,0,0,0-.57,0,1.07,1.07,0,0,1-.56.06h-.25c-.17,0-.3,0-.31.16S191.28,2.55,191.42,2.59Z"/><path class="cls-1" d="M187.6,4.55c.19,0,.37,0,.56,0a.67.67,0,0,1,.73.54c0,.1,0,.22.13.26s.24-.06.3-.16a.71.71,0,0,1,.69-.45c.21,0,.48-.2.06-.4l0,0c-.18-.07-.23-.29-.44-.29a2.15,2.15,0,0,0-1.14.24h0l-.84,0c-.13,0-.24,0-.23.12A.2.2,0,0,0,187.6,4.55Zm2.32-.18Zm-1.26-.06h0Z"/><path class="cls-1" d="M202.4,33.9a4.93,4.93,0,0,0-1.33,0,.94.94,0,0,0-.75.33l2.12-.07c.1,0,.18-.07.17-.14S202.5,33.92,202.4,33.9Z"/><path class="cls-1" d="M195.47,29a1.28,1.28,0,0,1-.86-.05c-.13,0-.29-.09-.34,0s.07.22.26.26a2.66,2.66,0,0,0,.92.1l.27,0c.18,0,.44.05.47-.08s-.26-.2-.43-.25A.62.62,0,0,0,195.47,29Z"/><path class="cls-1" d="M58.32,1.55a3.64,3.64,0,0,0,.47.14.49.49,0,0,0,.56-.19c.11-.21-.21-.21-.35-.29a.81.81,0,0,0-.44-.07h-.19c-.24,0-.37.06-.4.22S58.19,1.5,58.32,1.55Z"/><path class="cls-1" d="M191.42,31.91a.13.13,0,0,0,.19,0,1.12,1.12,0,0,1,1-.61.14.14,0,0,0,.14-.19.11.11,0,0,1,0-.05,1.15,1.15,0,0,0-1.71-.32,7,7,0,0,1-.82-.17c-.16,0-.32,0-.32.12s.14.17.28.17a3,3,0,0,1,1,.18h0c.1.22.34.43,0,.65C191.18,31.71,191.31,31.84,191.42,31.91Z"/><path class="cls-1" d="M57.19,2c.24,0,.34,0,.32-.22s-.39-.47-.75-.48c-.15,0-.37,0-.28.15A.91.91,0,0,0,57.19,2Z"/><path class="cls-1" d="M165.92,3.18c.34-.25.73,0,1.08,0s.51.17.61,0,.75-.39.55-.83c0,0,.09-.07.14-.12a3.35,3.35,0,0,0-.68-.16c-.25-.06-.53-.16-.62.09s-.19.43.29.5c.07,0,.28.06.23.2-.52,0-.53,0-.71-.3-.06-.08-.11-.14-.22-.12s-.22.07-.23.16,0,.14.16.18.27,0,.37.08h0c-.32,0-.64.11-1,0a.42.42,0,0,0-.45,0c-.07,0-.07.1,0,.16S165.86,3.22,165.92,3.18Z"/><path class="cls-1" d="M55,1.78c.1,0,.42,0,.41-.12s-.3-.3-.55-.34-.34,0-.3.21S54.62,1.81,55,1.78Z"/><path class="cls-1" d="M179.89,51.11c.07-.14-.06-.19-.24-.21,0,0,0-.06-.06-.09-.12-.28-.41-.14-.63-.17s-.16.1-.15.19-.18.39.21.28a.55.55,0,0,1,.49,0C179.63,51.21,179.82,51.24,179.89,51.11Z"/><path class="cls-1" d="M204.55,55.36a6.48,6.48,0,0,0,1.91.1A6.82,6.82,0,0,0,204.55,55.36Z"/><path class="cls-1" d="M194.3,48.77a.93.93,0,0,0-.21-.05.78.78,0,0,0-.21,0c-.12.06-.39.06-.3.22s.31.09.47.05.21-.12.28-.1.35.17.38,0S194.43,48.84,194.3,48.77Z"/><path class="cls-1" d="M164.51,2.66a2.21,2.21,0,0,1,.68-.05c.11,0,.21,0,.18-.12s-.11-.07-.19-.05a2.42,2.42,0,0,1-.71,0,.22.22,0,0,0-.28,0c-.05,0-.07.1,0,.13A.43.43,0,0,0,164.51,2.66Z"/><path class="cls-1" d="M62.73,1.6c.08,0,.15,0,.16-.07s-.43-.48-.5-.48a.18.18,0,0,0-.19.21C62.22,1.52,62.56,1.49,62.73,1.6Z"/><path class="cls-1" d="M79.36,1.54c.15,0,.36,0,.34-.18s-.25-.1-.4-.14-.43-.1-.43.09S79.18,1.51,79.36,1.54Z"/><path class="cls-1" d="M70.47,1.52c.25.32.6.13.91.16s.24-.05.2-.17a.2.2,0,0,0-.27-.15.39.39,0,0,1-.35,0l-.43-.07c-.11,0-.27,0-.3.06S70.32,1.49,70.47,1.52Z"/><path class="cls-1" d="M195.51,32.37c0,.23-.16.39-.12.59C195.79,32.91,195.82,32.79,195.51,32.37Z"/><polygon class="cls-1" points="195.39 32.96 195.39 32.96 195.39 32.96 195.39 32.96 195.39 32.96"/><path class="cls-1" d="M179.68,30.73c-.12,0-.22,0-.22.14s.16.16.31.16.25,0,.24-.12S179.84,30.73,179.68,30.73Z"/><path class="cls-1" d="M179.1,51.73c0,.11.18.11.28.13s.28,0,.27-.13-.16-.12-.28-.14S179.09,51.6,179.1,51.73Z"/><path class="cls-1" d="M177.14,5.71c0,.09.12.13.21.13s.32,0,.34-.15-.16-.11-.27-.12S177.14,5.57,177.14,5.71Z"/><path class="cls-1" d="M198.41,59.45a1.29,1.29,0,0,0-.57-.09C197.87,59.64,197.87,59.64,198.41,59.45Z"/><polygon class="cls-1" points="197.84 59.36 197.84 59.36 197.84 59.36 197.84 59.36"/><path class="cls-1" d="M174.56,51c-.19,0-.21.13-.23.23s.07.17.2.19.42.11.47-.06-.15-.13-.28-.13S174.78,51,174.56,51Z"/><path class="cls-1" d="M202.2,44.9a.57.57,0,0,0,.53.16c.06,0,.08-.08,0-.12A.55.55,0,0,0,202.2,44.9Z"/><path class="cls-1" d="M190.46,52.28a1.79,1.79,0,0,0,.83,0A.78.78,0,0,0,190.46,52.28Z"/><path class="cls-1" d="M175,50.94c0,.07.05.16.15.17s.35,0,.24-.19C175.26,50.88,175.09,50.74,175,50.94Z"/><polygon class="cls-1" points="175.4 50.92 175.4 50.92 175.4 50.92 175.39 50.92 175.4 50.92"/><path class="cls-1" d="M178.92,30.15v-.1l-.68-.08A.66.66,0,0,0,178.92,30.15Z"/><path class="cls-1" d="M200.66,40.91c.25.05.42.12.51,0a.13.13,0,0,0-.09-.19C200.88,40.66,200.86,40.83,200.66,40.91Z"/><path class="cls-1" d="M140.26,1.17a.34.34,0,0,0,.1,0c.11.05.23.07.3,0s0-.11,0-.16-.23,0-.32,0-.55-.12-.53.08S140.09,1.09,140.26,1.17Z"/><path class="cls-1" d="M130.91.83c.11,0,.2,0,.21-.11s-.14-.11-.27-.13-.2,0-.16.11A.23.23,0,0,0,130.91.83Z"/><path class="cls-1" d="M176.35,5.79s.08.08.12.08a.21.21,0,0,0,.22-.15c0-.06-.05-.13-.13-.12A.21.21,0,0,0,176.35,5.79Z"/><path class="cls-1" d="M179.94,50.35a.16.16,0,0,0-.18-.09c-.11,0-.18,0-.18.13a.24.24,0,0,0,.23.11C179.91,50.49,180,50.43,179.94,50.35Z"/><path class="cls-1" d="M203.46,9c.08,0,.16-.05.13-.12s-.13-.07-.21-.07-.12,0-.1.09A.18.18,0,0,0,203.46,9Z"/><path class="cls-1" d="M26.63,6.58c0-.06,0-.14-.1-.14s-.11.08-.13.1,0,.13.08.14S26.63,6.65,26.63,6.58Z"/><polygon class="cls-1" points="154.73 3.28 154.73 3.28 154.74 3.28 154.73 3.28"/><polygon class="cls-1" points="185.25 4.3 185.25 4.3 185.25 4.3 185.25 4.3 185.25 4.3"/><path class="cls-1" d="M158.93,5.76c-.27-.09-.51-.19-.75,0-.06,0,0,.13.06.16A.54.54,0,0,0,158.93,5.76Z"/><path class="cls-1" d="M150,2.89c0,.07,0,.15.16.17s.19,0,.19-.11a.19.19,0,0,0-.19-.15A.12.12,0,0,0,150,2.89Z"/><path class="cls-1" d="M101.63,2.45c0-.13-.2-.11-.33-.11s-.2,0-.19.11a.33.33,0,0,0,.33.12C101.54,2.56,101.66,2.53,101.63,2.45Z"/><path class="cls-1" d="M187.76,47.17c-.12,0-.19,0-.18.12a.23.23,0,0,0,.26.2c.12,0,.21-.07.18-.17A.24.24,0,0,0,187.76,47.17Z"/><path class="cls-1" d="M166.65,5.64c-.21,0-.38,0-.48.14C166.52,5.85,166.52,5.85,166.65,5.64Z"/><path class="cls-1" d="M26.11,59.93a4,4,0,0,0,1.11.36,39.41,39.41,0,0,1,4.32.62,1.94,1.94,0,0,0,1,.25c.22,0,.59.09.58-.15s-.37-.15-.58-.17a4.9,4.9,0,0,0-.61-.21c-1.77-.3-3.53-.63-5.3-.84A.48.48,0,0,0,26.11,59.93Z"/><path class="cls-1" d="M4.57,74.73a2,2,0,0,0-.83-.38c-.37,0-.37.34-.46.58s0,.4.3.45l.47.07c.32,0,.66.1.8-.2S4.72,74.84,4.57,74.73Z"/><path class="cls-1" d="M193.48,75.53l-.58,0c-.13,0-.26,0-.31.12s.08.21.16.3a1.17,1.17,0,0,0,1.57.19c.1-.08.27-.14.23-.31s-.24-.2-.39-.23Z"/><path class="cls-1" d="M10.14,76.38C8.4,76,6.7,75.7,4.86,75.46A18.24,18.24,0,0,0,10.14,76.38Z"/><path class="cls-1" d="M3.79,46.2a7.11,7.11,0,0,0,1.94.15,4.49,4.49,0,0,0-1.94-.47c-.11,0-.24,0-.24.13S3.68,46.17,3.79,46.2Z"/><path class="cls-1" d="M21.11,86.31c0-.25-.46-.28-.77-.31s-.59-.08-.6.2.39.16.59.26a.14.14,0,0,0,.11,0C20.66,86.36,21.12,86.68,21.11,86.31Z"/><path class="cls-1" d="M12.19,56.49a.18.18,0,0,0-.18-.17,5,5,0,0,0-2,.23l2,.08C12.14,56.64,12.19,56.59,12.19,56.49Z"/><path class="cls-1" d="M29.34,56.46c-.17.46.21.33.4.38s.34.06.31-.15-.13-.51-.46-.51S29.14,56.13,29.34,56.46Z"/><path class="cls-1" d="M14.92,54.66a.17.17,0,0,0,.21-.17c0-.15-.14-.14-.24-.14s-.46,0-.69,0a1,1,0,0,0-.85-.1c-.12,0-.32,0-.31.16s.2.17.32.23.13.22.27.18A2,2,0,0,1,14.92,54.66Z"/><path class="cls-1" d="M7.68,74a8.84,8.84,0,0,0,1.8.27C8.05,73.68,8.05,73.68,7.68,74Z"/><path class="cls-1" d="M34.07,74c0-.17-.15-.18-.25-.2-.28,0-.5.11-.74.16a.24.24,0,0,0,.27.25C33.6,74.21,34,74.39,34.07,74Z"/><path class="cls-1" d="M24.22,73.35c0-.21-.2-.32-.36-.34a.33.33,0,0,0-.37.27c0,.23.24.16.36.24S24.22,73.57,24.22,73.35Z"/><path class="cls-1" d="M20.36,73.55a2.85,2.85,0,0,0,.51-.07c.14,0,.3-.13.1-.33-.15-.4-.53-.36-.83-.49C20.33,72.94,19.92,73.31,20.36,73.55Z"/><path class="cls-1" d="M20.2,91.45c0,.13.14.2.26.18a.54.54,0,0,0,.47-.38c0-.11-.13-.13-.26-.14A.51.51,0,0,0,20.2,91.45Z"/><path class="cls-1" d="M30.74,56c-.73-.3-.73-.3-1.09,0C30,56.17,30.3,56,30.74,56Z"/><path class="cls-1" d="M196.8,90.88c0,.25.2.09.3.15s.4.06.4-.18-.22-.19-.34-.18S196.81,90.72,196.8,90.88Z"/><path class="cls-1" d="M21.12,54.13c.14,0,.38-.05.23-.38-.18.31-.46.2-.78.11C20.72,54.2,20.93,54.19,21.12,54.13Z"/><path class="cls-1" d="M27.92,118.73c-.11,0-.22,0-.2.16s.13.3.31.31.21-.09.19-.23A.28.28,0,0,0,27.92,118.73Z"/><path class="cls-1" d="M27.26,86.76a.51.51,0,0,0-.52-.26c-.08,0-.09.11,0,.17A.42.42,0,0,0,27.26,86.76Z"/><path class="cls-1" d="M5,84a.17.17,0,0,0,0,.14A.41.41,0,0,0,5.56,84C5.37,84,5.18,83.82,5,84Z"/><path class="cls-1" d="M2.61,80.3c.11,0,.23,0,.21-.15S2.69,80,2.59,80a.18.18,0,0,0-.22.15C2.4,80.27,2.51,80.29,2.61,80.3Z"/><path class="cls-1" d="M13.63,73.66c.2.13.36.18.52.07s0-.13,0-.16S13.78,73.45,13.63,73.66Z"/><path class="cls-1" d="M67.91,149.78c-.3-.17-.58,0-.87,0s-.33,0-.49,0a9.49,9.49,0,0,1-1.51-.23l-1.48-.31-.12-.1a3.45,3.45,0,0,0-1.71-.24,24.84,24.84,0,0,1-2.7-.55,7,7,0,0,0-1.51-.27,7,7,0,0,0-1.11-.31,2.85,2.85,0,0,0-.71-.18h0a4.91,4.91,0,0,0-1.3-.3h0a4.71,4.71,0,0,0-1.29-.33c-.38-.06-.74-.34-1.16-.16,0,0-.11,0-.17,0-.4-.08-.79-.18-1.19-.25-.17,0-.43-.09-.45.09s.21.26.39.3a3.33,3.33,0,0,0,.63,0,1.43,1.43,0,0,1,1.3.55.61.61,0,0,0,.51.19,3,3,0,0,1,1.08.11h0c.15.43.59.35,1,.36h.27c.51,0,.65.05.77.44,0,.06,0,.08.12.08a5.29,5.29,0,0,0,.71.09,5.66,5.66,0,0,1,1.31-.09h.27a2,2,0,0,0,.92.25,1.85,1.85,0,0,1,1.31.4.4.4,0,0,0,.24.1c.69,0,1.38.22,2.07.2.1,0,.21-.05.26.06s-.32,0-.36.21c.3.07.6,0,.89.12.1.09.26.18.15.3s-.24,0-.36,0a2.84,2.84,0,0,0-1.46.1,4.36,4.36,0,0,0,1.67.2c.29,0,.66-.07.82.08s.68.19,1,.28c.06,0,.16,0,.18-.05s0-.12-.12-.12c-.34,0-.37-.24-.45-.42.11-.05.26-.06.31,0,.33.32.86,0,1.2.32.08.07.12-.05.18-.08.29-.14.38-.52.9-.39.11,0,.29,0,.31-.1S68,149.84,67.91,149.78Zm-11.86-2.09h0ZM65.14,150a.54.54,0,0,0,0-.23h0C65.37,150,65.29,150,65.14,150Z"/><path class="cls-1" d="M45.37,145h0a3,3,0,0,0-1.68-.42.15.15,0,0,1-.16-.05.76.76,0,0,0-.62-.24c-.1,0-.25-.06-.27-.11-.14-.37-.48-.29-.76-.24a4.71,4.71,0,0,1-.75,0l-.36-.16h0c-.09-.16-.63-.14-.37-.46,0,0,0-.08-.1-.1a2.77,2.77,0,0,0-1.92-.08,2.75,2.75,0,0,1-.49.11l.2.08a2.69,2.69,0,0,0,2,.59h0a2.69,2.69,0,0,0,2.11.29c0,.07,0,.11,0,.11s-.28.15-.21.32.25.11.41.1.16,0,.16.14c0,.26.22.37.56.36s.54.06.8.07.43.28.7.24a4.84,4.84,0,0,1,1.14,0,1.65,1.65,0,0,0,.62,0C46,145.37,45.49,145.33,45.37,145Z"/><path class="cls-1" d="M183.51,145.24a4,4,0,0,0-.95-.24c-1.25,0-2.46-.32-3.69-.41a2,2,0,0,0-.81-.16c-.19,0-.5-.06-.49.1s.31.1.49.11a4.39,4.39,0,0,0,.52.13c1.51.2,3,.42,4.52.56A.54.54,0,0,0,183.51,145.24Z"/><path class="cls-1" d="M201.85,135.57a1.83,1.83,0,0,0,.71.25c.31,0,.31-.22.38-.38s0-.26-.25-.29l-.4-.05c-.27,0-.56-.07-.68.13S201.72,135.5,201.85,135.57Z"/><path class="cls-1" d="M41,135.05h.49c.11,0,.22,0,.27-.08s-.07-.14-.14-.2a1.23,1.23,0,0,0-1.34-.12c-.09.05-.23.09-.19.2s.2.13.32.15Z"/><path class="cls-1" d="M197.11,134.5c1.48.23,2.93.44,4.49.6A19.27,19.27,0,0,0,197.11,134.5Z"/><path class="cls-1" d="M202.52,154.2a7.41,7.41,0,0,0-1.66-.1,4.8,4.8,0,0,0,1.65.31c.09,0,.21,0,.21-.09S202.61,154.21,202.52,154.2Z"/><path class="cls-1" d="M187.76,128c0,.17.4.18.66.2s.5.06.51-.12-.34-.11-.51-.18h-.09C188.15,128,187.75,127.77,187.76,128Z"/><path class="cls-1" d="M195.36,147.48c0,.07.07.1.15.11a5.47,5.47,0,0,0,1.72-.15l-1.74-.05C195.4,147.38,195.36,147.41,195.36,147.48Z"/><path class="cls-1" d="M180.75,147.5c.14-.3-.18-.22-.34-.25s-.29,0-.26.1a.36.36,0,0,0,.39.33C180.7,147.68,180.92,147.71,180.75,147.5Z"/><path class="cls-1" d="M193,148.68a.13.13,0,0,0-.18.1c0,.1.12.1.21.1l.59,0a1,1,0,0,0,.72.06c.1,0,.27,0,.26-.1s-.17-.11-.27-.15-.11-.15-.23-.12A2.24,2.24,0,0,1,193,148.68Z"/><path class="cls-1" d="M199.2,136.07a8.8,8.8,0,0,0-1.54-.18C198.89,136.26,198.89,136.26,199.2,136.07Z"/><path class="cls-1" d="M176.72,136c0,.12.13.12.22.13a2.06,2.06,0,0,0,.62-.1.19.19,0,0,0-.23-.16C177.12,135.91,176.82,135.8,176.72,136Z"/><path class="cls-1" d="M185.11,136.47c0,.14.17.21.31.23s.3-.08.31-.18-.2-.11-.3-.16S185.12,136.33,185.11,136.47Z"/><path class="cls-1" d="M188.4,136.34c-.15,0-.3,0-.43,0s-.26.09-.09.22.45.23.7.31C188.42,136.74,188.77,136.5,188.4,136.34Z"/><path class="cls-1" d="M188.54,124.66c0-.09-.12-.13-.23-.12a.46.46,0,0,0-.4.25c0,.07.12.08.22.09S188.49,124.8,188.54,124.66Z"/><path class="cls-1" d="M178.45,156.63a1.59,1.59,0,0,0,1.11,0A2.38,2.38,0,0,0,178.45,156.63Z"/><path class="cls-1" d="M179.55,147.83c.63.19.63.19.94,0C180.2,147.68,179.93,147.82,179.55,147.83Z"/><path class="cls-1" d="M38.12,125c0-.16-.18-.06-.26-.1s-.34,0-.34.12.18.12.29.12S38.11,125.14,38.12,125Z"/><path class="cls-1" d="M187.75,149c-.12,0-.32,0-.19.25.15-.21.39-.14.66-.07A.38.38,0,0,0,187.75,149Z"/><path class="cls-1" d="M108.67,157.14a.09.09,0,0,0,0,.1.62.62,0,0,0,.6,0C109,157.15,108.85,157,108.67,157.14Z"/><path class="cls-1" d="M182.53,127.72a.48.48,0,0,0,.44.17c.06,0,.07-.07,0-.11A.44.44,0,0,0,182.53,127.72Z"/><path class="cls-1" d="M201,129.5c.17.06.33.14.49,0s0-.08,0-.08A.42.42,0,0,0,201,129.5Z"/><path class="cls-1" d="M203.34,132c0,.09.11.1.2.11s.17,0,.18-.1-.11-.1-.21-.1S203.33,131.94,203.34,132Z"/><path class="cls-1" d="M194.13,136.27a.47.47,0,0,0-.44,0c-.06,0,0,.08,0,.1A.35.35,0,0,0,194.13,136.27Z"/></svg>