<svg id="Layer_1" data-name="Layer 1" xmlns="http://www.w3.org/2000/svg" viewBox="0 0 1920 177.25"><defs><style>.cls-1{fill:#fff;fill-rule:evenodd;}</style></defs><title>footer-top</title><path class="cls-1" d="M1920,123.81c-.42.41-1.58.57-.52,1.52a3.05,3.05,0,0,1,.52,0Z"/><path class="cls-1" d="M1910.94,111.79c-1.37.47,2.68,2.9,1.71,3.53,2.91,1.91,4.68-1.16,7.35-.27v-4.93A68.8,68.8,0,0,1,1910.94,111.79Z"/><path class="cls-1" d="M11.54,130.59c.31-2.22,3.8-3.3,6.17-4.78.55-.18,1.11-.36,1.67-.56-.95-3,5.58-3.41,5.87-6l5.05-1.68.85-.28c-1.11-.79-.74-1-.29-1.27,3.92-.34,1.68-2.89,5.6-3.22.11-2.87,7.7-3,8.69-5.59,5.1-1.08,4.9-4.06,10.66-4.9-2.58-2.1,2.49-1.43,3.09-2.39.44-5.26,7.67-8.09,11.73-12.06,3.33,0,.58-2.12,3.08-2.38,1.17-.19,3.94,1.13,2.53-.84l4.22-1.4L83,82.39c1.94-.67,4.42.89,6.18-.69q1.27-.4,2.52-.84c-2.77-2.87-3.69,2.3-6.47-.57.56-.19,1.12-.37,1.68-.57l1.7-.55c1.68-.56,3.35-1.12,5.05-1.67.83-.29,1.68-.56,2.53-.84a5,5,0,0,1,2.14-2.1c3.25-2,8.8-3.07,9.63-5.88L113,67c3.39-.15.52-2.53,3.91-2.67L121.14,63c-2.17-2.33,3.69-1.77,4.75-2.94l4.23-1.4,1.67-.56c-1.13-2.74,6-2.49,8.14-4-.69-.84-.62-1.39.55-1.55,3.42-.71,5.32-2,6.46-3.5l.83-.27c-3.66-2.49,4.8-.61,1.11-3.1,1.84.14,3-2.59,5.35-.41-4.29.41.76,4.15-4.47,4.21-.82.49-2.6.62-1.4,1.83l13.48-4.46c-1.07-.75-2-.71-3.12-1.7-1.11-.79-.74-1-.27-1.26,1.87,1.62,3-.23,4.79,1.13l2.53-.84c-.31-1.07,1.62-1.34.26-2.8,2.64.42-.59-3.9,3.38-1.12,2.29.75,2.7.29.53-1.55,2.33-1.73,5.56.5,7.87-1.24,4.5,3.74-.27.59-1.38,1.82,1.78,1.2,3.25,1.07,5.09,2.41.82-.86-2.86-3.35,1.08-3.09l3.41,3c1-.84,2.48.25,4,1.43.52-2.44,3.94-1.06,8.42-2.8a6.54,6.54,0,0,0,3.67.17q-3.47-3.33-5.93-2.14c-3.71-6.19,7.43-.44,11.55,3,2,2.56-5.18-2-6.17.67-.51.43-1.25-.12-2-.71-.86,2.65-4.32.75-7.6,2.51.69,1.74,1.86,2.72,4.26,2.69,1.43-1.61,3.75.68,5.32-.4,1.5,1.31-.42,1.39.59,2.53,1.08-2,6.44-.78,7.28-3.78-.3-2,3-2.8,4.49-4.2,3,1.12,5.3-.56,7.87-1.25,1.17-.16,2.77,1.57,4.24,2.69-4.11-.44-2.11,1.06-5.9,1.95-3.88-.31-8-1.5-8.7,1.52-1.69.17-.4,1.41-1.41,1.83,2,2.24,3.36,1.48,4.79,1.14.09-.87.47-3.33,3.65.15,1.46-1.6,3.81.68,5.35-.41-2.32-.9-3-1.78-1.42-2.25,1.31-1.4,2.35-2.12,6.2-.68,2.24-.58,4.79,1,2.23-2.11-1.78-1.79,5,1.42,6.47.59,1.12,3.58-2.9,2.29-6.43,3.49-2.19,3.35,3.4.22,4.79,1.14.9,0,2,.72,2.82.44,2.14,1.73,1.35,2.42,3.68,4.23-3.38-.22-6.81-.75-10.14-.73.29,1.07-1.62,1.34-.26,2.81a7.94,7.94,0,0,1,3.94,1.42c1.76-.27,3.08-2.39,5.64.86,4.72.79,11.39,2.6,12.38-1.37,2.78-.7,2.09-3.91,6.75-2.23.09,1.93-2.34,1.08-4.78,2.95,2.41,2.21-3.09,1.6-3.91,2.65-1.87.31-.6,1.73-2.26,2.1-.26.1-.56.19-.82.28,2.56,1.55,4.44,2.76,4.53,4l-3.38,1.11c1.12.79.74,1,.3,1.28,1.27,1.55-.86.14-1.7.55a6.56,6.56,0,0,0,.59.59c1.71,1.49,2.93.86,4.2.55.4.33.77.66,1.14,1-1.17.16-1.26.71-.55,1.55,1.46-.25,2.71-1.39,4.5-.13.79-.48,1.75-.28,2.82.43-1.18,2,4.17.31,5.93,2.13,2-.83,4.13-1.61.82-4.36-1.38.63-3.17-.62-4.52.12.12-.83,2-1.58,4.33-2a19.74,19.74,0,0,1,4.81-.17,10.48,10.48,0,0,1,3.25.77c.27-.09.56-.18.83-.29a.67.67,0,0,0,.16-.63c0-.36-.12-.74.39-.9l1.68-.57c.24-2-3.81-2.06-2.54-3.24,1.5,1.31,2.51.42,3.95,1.42,2.42,1.88-.12,2,.29,3.15.14.39.61.9,1.71,1.64l.85-.28c.52-.32.44-.87.22-1.46-.37-1-1.12-2.09-.25-2.63-.76-.84-.28-1.25-1.42-2.24a8.16,8.16,0,0,1-4-1.43c-1.06-.75-2-.7-3.09-1.7l.83-.27c2.26-.55,4.3-1.17,2-3.38-1.6-1.66-2.74-1.44-4.24-2.68l-2.52.83c.31,3.17-5.72,1.42,2,4.8-.7.71.69,2.18-.26,2.81-2.08-1.2-3.41.93-5.62-.86C261.53,62.22,261.73,65.2,256,66l-.85.28c-2.61-2.09,2.48-1.44,3.08-2.38,3.35-1.12,2.79-3.65,6.16-4.76,2.25-.55,4.3-1.18,1.94-3.38-9.72-.4,3.11-2.86,6.75-2.23.8-.48,1.73-.28,2.82.43,1.36-.62,3.15.62,4.5-.13C273.3,46.08,290.73,49,294.47,56c2.58,1.11,3.67,2.11,2.56,3.25,2.61,2.1,2.91,3.37.86,3.8-1.92.73.81,3.14,0,4.29-.28.41-1,.67-2.53.62.69.84.62,1.39-.55,1.55a9,9,0,0,1,2.56,3.25c.26-.1.55-.19.82-.28-1-1.23-2.71-5.52,1.11-3.09.65,1.58,3.36,3.92,4,5.5l.85-.28.85-.28c1.17-.18,2.18-1,3.65.15,3.12,0-.55-2.52,1.11-3.09l-2.27-2c-.09-.77-1-1.54-2-2.34-1.6-1.27-3.51-2.62-3.11-4.15A16.94,16.94,0,0,1,307.68,67c2.58,2.81,4.46,6.11,4.66,7.64-1.17.17-2.21,1-3.67-.15-.3,1.25,1,3.09,4,5.5,3.69-.52-6.7-5.69,1.11-3.09l.85-.28,2.53-.84a12.62,12.62,0,0,0,8.18,4.11c1.8,1.8,1.14,2.74-1.09,3.09-.4-.33-.77-.66-1.14-1-.78.3.72,1.43,1.41,2.26,2.72,2.66,5.2,4.15,7.06,3.12-.75,1.08,5.44,4.67,4,5.5l1.12,1,7.92,6.92c.77.65,1.52,1.32,2.26,2,1.12.79.74,1,.3,1.26-2.45.48-.8-2.08-4.53-4-1.54-1.13-1.62-.3-1.68.55a4.73,4.73,0,0,0-3.11-1.7c.72-1.08-2-3.43-2-4.78-.75-.66-1.49-1.32-2.27-2-1.85.11-.7,1.3.59,2.54-1.11.37-2.26.73-3.37,1.11,1.52.71,3,1.44,2.26,2,3.58,3.22-1.39,3.37,5.39,7.76l1.7-.57c-1.24-2-2.5-2.24,2.24-2.1l-1.13-1c2.85,2.23,5.37,4.48,8.48,5.37-2.25.36-2.9,1.28-1.11,3.09.75,2-3.56,2.21.33,5.35l-.85.28c1.78,1.26,3.06.12,4.49-.12-1.11-.79-.73-1-.29-1.27,4.79,0,.9-3.17,3.64-3.93l2.52-.84c3-2.23,5.08-4.77,10.39-6.16l5.88-2c-1.17-1.21.59-1.34,1.4-1.83-2.56-4,2.53-5.29,5.58-7.3l.85-.28,1.12,1c3.5-.89,6.26-2,7.31-3.79a1.71,1.71,0,0,0,1.38-1.82l.85-.28c-1.27-1.42,1.17-1.52,2.23-2.1,3.43-.13-1.47-3.25,2-3.37A8.59,8.59,0,0,0,400,85.21l2.53-.84c-1.23-1.31.53-1.55,1.67-.55l5.06-1.68c-1.3-1.48,1.38-.58,2.82.43-.13-1,.68-1.69,2.23-2.1-3.51-3.87,2.53-2,5.05-1.67,1.06-.74,2.53.44,3.67.15.69-1-1.12-1-2-.71a3.06,3.06,0,0,1,.26-2.81l1.12,1c2-.68,4.45.88,6.2-.68.92-.06.34-.65-.3-1.27,3.55.57,2.06-1.38,4.5-.12,1.28-1,3-.06,4.52-.14.76.86.27,1.27,1.42,2.26-1.3.31-2.58.63-1.41,1.83l-2.52.83a19.06,19.06,0,0,1,5.38,3.68c.83-2.62,4.32-.61,8.46,1.3,0,1.37-2,2-2,3.36-2.52.46-3.2,1.57,0,4.08-.84.48.11,2.41-2.52.84l-2.55.84c1.46,1.11,2.5.33,3.67.15.75.86.29,1.27,1.42,2.26-5.59-1.09-.36,2.74-5.61,3.22,1.2,1.4.3,2.05,1.73,3.53l-.85.28c2.14,1.73,1.81,2.58-.26,2.8-.71.53-.06,1.54.57,2.54l2.52-.83c-1-1.72,1.09-2.34,2-3.38.22-2-3.83-2.06-2.56-3.25,1.15-.3,2.61.89,3.67.16-2.44-2.56-.41-3.26,2.8.43.17-1,.62-4.73-2-4.79.69-.09.2-3.22,2.25-2.11,2.06,2.5.22,3.58,2.28,6.06l1.14,1c.37.33.75.66,1.15,1,5.94,1.18,1.06-2,4.75-2.94,1.07.71,2.27,1.94,3.12,1.7-1.39-1.46.55-1.74.26-2.81a16.09,16.09,0,0,0,4.24,2.69c-3.05.07.7,2.58.86,3.8,1.14,1,2,1,3.11,1.69-.8.3.73,1.43,1.42,2.26-.93.06-.34.65.29,1.27l1.12,1c1.15,1,2.05,1,3.12,1.7l3.41,3c1.35,1.09.52,2,2.27,2,1.6-.18,3.05,2,3.38,3a1.73,1.73,0,0,0,1.39-1.83c0-1.16.78-2,3.08-2.39l11-3.62-1.12-1c3.48-.65,7.67,1.86,10.69-.82-.75-.86-.29-1.27-1.41-2.25l1.67-.56c10.55-.5,5.76-3.48,15.46-3.76-1.53-1.51,1-1.57,2.23-2.09,0-1.17.76-2.06,3.08-2.39,2,1.31,2.92,1.33,3.41,3,5.43-3.17,10.73-2.78,14.86-6.28.6-.94,5.69-.28,3.08-2.39,1.7-.55,3.38-1.11,5.06-1.67.58-.18,1.11-.37,1.7-.55,3.08,1.62,5.1-1.37,8.43,1.29-2.8-2.56.58-2.9,2.79-3.65,4.39-.53,5.58-3.33,9-.25-1.85-4.27,4.57-2,8.13-4.06,6.59,2-4.46,2.4-6.75,2.23,4.07,2.49-2.5,3.42-6.14,4.77,3.82-4.55-2.89-1.8-7.34-.31,3.39,2.94,5.43-.05,8.46,1.29l1.68-.55c4.15-.42,7.36-4.81,12.39-1.37,4.59-1.38,1.64.22,2.27,2,2.51-1.83,2.56-1.84,6.73-2.22-.8-.82-.64-3.93,1.4-1.83,1.12,1,.66,1.4,1.42,2.25,2.22-.55,4.23-1.2,3.92-2.66,3.82.85,7.17-.34,10.68-.81l5.06-1.67a2,2,0,0,1-.57-2.54c-6.71-2.85,3-1.72,5-1.67-1.53-1.51,1-1.58,2.23-2.1,1.07-.21-.33-1.87,1.7-.56,1.84-.31.57-1.73,2.23-2.1,1.81,1.31,3.14.51,4.79,1.13,1.17-.16,2.2-1,3.65.16-2,.67,3.41,2.59,4,1.42l6.73-2.23c-.69-.83-.61-1.38.55-1.55,2.21-.75,5.59-1.1,2.79-3.65,1.26-.13,1.77.93,2.26,2,3-.14,5.26-3.47,8.73-1.52l2.52-.83a15.59,15.59,0,0,0-4.24-2.69c4.05,1.85,7.37.51,10.69-.81l1.69-.56,3.37-1.12L688,64.86l2.53-.84c2.53-1.22,3-3.17,7.29-3.77-.37,2.19-2.93,3.59-6.16,4.76a16.3,16.3,0,0,0,1.16,5.07c2.9,2.1,4.5-1.46,7.32.3,1.62-3,5.27.45,5.9-1.95.51-.41,1.24.13,2,.72l1.69-.57c3.72-.9,8.28,1.9,12.11,1.45l.85-.28c-.55-3.94,8-1.69,10.95-3.63,2.47,2.89,3.16-2,5.63.87l-2.52.84-1.69.56a6.64,6.64,0,0,0-5.34.4c-4.33,1-3.05,3.95-5,5.75l-.85.28c-1.44-1-2.44-.11-4-1.41-1.51,0-3.32-1.31-4.79-1.15,1.44,1.49-2.12,1.18-.26,2.82-.84.28-1.69.55-2.53.84-.76-.86-.28-1.27-1.42-2.27-.9,0-2-.71-2.82-.42.43,2.37-4.86,2-7.87,1.24-1.18.1-2.57-.67-4-1.43-.56.2-1.13.38-1.69.56,1.63,1.12,1.47,4.22-1.39,1.83-3,.09-5.74,1.33-9,.25-1.82.22-.65,1.52.29,1.27,1.08,1-.15,1.11-.55,1.55s-1.24-.13-2-.71c-1.68.17-.39,1.41-1.4,1.82l1.14,1c-2,.65-3.94,1.31-5.91,2-.72.85,1.08.85,2.27,2-.8.48-1.75.28-2.82-.43-2.23.75-5.24,1.21-4.76,3a8.06,8.06,0,0,1-4-1.43l-.85.28c4.32,4.53-6,.42-4.48,4.21l-3.36,1.11c.13,2-1.84,3.23-4.48,4.21-2.9-2.1-4.49,1.46-7.32-.3l-.84.27c-2.33,2.11-3.53,1-7.58,2.51l-.85.28c3.33,1.34,5.82-1,9.3,1l1.13,1,7.58-2.51,11-3.63,3.36-1.12.85-.27c2.13.07,3.58-2.83,6.19-.69l4.21-1.39,2.53-.84,10.95-3.62c3.87-1.6,8.38-.37,12.09-2.64L713.47,81c.91,0,1.69-.52,2.82.43L720.5,80c.79-.49,1.75-.27,2.82.43l4.21-1.4c1.76-1.56,4.43.89,6.19-.68l1.13,1,1.69-.55,4.21-1.4a106.14,106.14,0,0,1,10.43,2c3.26-.7,3.49,4.88,5.37,3.67.38.33.76.67,1.14,1-.73.85,1.07.85,2.26,2-2.2,1-5.48-2.81-7.32-.31-.51.42-1.24-.12-2-.71l-.84.28,1.13,1c-2.11,1.34-4.9-.32-7.32-.31-3.8,1.43,2.57,1.14,4.53,4a6.39,6.39,0,0,0,4.51-.12l1.13,1c2.35,3.22,3.71,3.83,7.34,4.38l5.06-1.67c.4-.44,1.63-.57.55-1.55l.85-.27c1.89-.09.47-2.18,2.52-.84-.41.43,0,1.15,1.42,2.26l-4.21,1.39-5.05,1.67,1.13,1c1.13,1,2.27,2,3.4,3l1.68-.56c1.17-.17,2.2-1,3.66.15.84-.27,1.69-.55,2.53-.84l1.68-.55c.8-.49,1.75-.28,2.83.43l4.21-1.39c1.07.7,2,.91,2.81.43,1.85-.12.71-1.3-.57-2.54,2.3-1.81,5.4-.12,7.87-1.24l1.13,1c1.13,1,2,1,3.1,1.7l1.69-.56,3.37-1.11c2.32-2.22,6.84-3.23,12.09-2.64,3-.15,5.24-3.47,8.71-1.52.84-.29,1.69-.57,2.53-.84l1.68-.56,9.27-3.06q3.6,1.84,6.48.57c3.37,4.49,5.34,4.38,8.19,4.12,1.49-.44,1.34-1.47.26-2.82-3.83-3.1-1.15,4.72-6.47-.58,1.12-.37,2.24-.75,3.37-1.11a49.37,49.37,0,0,1,11.82.17l-1.14-1c1.61-.91,3.44-.81,5.64.87,2.31-2.25,12.07,3.44,6.19-.69-2.54-4,4.54,1.92,5.63.86.76.85.28,1.26,1.43,2.25a67.07,67.07,0,0,1-9.56,1.81c-1.37.47,2.67,2.89,1.71,3.52,3.56,2.35,5.41-2.78,9.29,1a1.73,1.73,0,0,0-1.39,1.82c-1.55-1.14-1.63-.3-1.69.55a16,16,0,0,0-4.78-1.13c.32,1.86-2.43,2.62-1.66,4.63,2.58.75,4.85.09,7.6,1.58-.39.43-1.62.58-.55,1.55,1.5-.07,3.22.87,4.51-.13-1.08-1,.15-1.11.55-1.55,8.12,6.09,5.07-2.88,10.68-.81.52-.42,1.25.13,2,.71-.43-1.31,2.75-1.34-.88-3.81,1.18-.15,2.71,1.26,4.25,2.69,3.09-.05-5.95-4.46-2.85-4.51,1.45.58,8,.92,3.08-2.38,2.25.59,4.91,3,7.06,3.11,9.79,3.61,11.64-4.16,21.11,1.2a16.07,16.07,0,0,1,4.25,2.68c3.64,1.39,6.86,1,10.42,2,.51-.42,1.24.12,2,.71.85-.24,2,1,3.11,1.7a18.93,18.93,0,0,1,5.38,3.67c-1.22.68-4.12-1-2.54.84-4.6-2.16-3,.77-6.48-.58-1.13.3-2.62-.88-3.66-.15a8,8,0,0,1,2.29,6c2.82,2.18,4.06,3.78,2.85,4.52-2.47-2.9-3.95-1.44-6.21-3.4l-1.69.55,2.27,2c3.07-.27.47,2,2.55,3.24,1.59,1.68,2.74,1.44,4.24,2.68,2.41-1.07.53-3.68.52-5.62a8.14,8.14,0,0,0,5.09,2.41c-3.7-4.07,1.54-2.21.82-4.36q3.32.63,7.34,4.39c-4.19-2.26-7.32-2.68-8.16,0-2.35.61-4,4.68-5.58,7.3-.76-.85-.28-1.26-1.43-2.26-5.11.39,5.54,4.3,2.85,4.52l2.27,2c1.69-.55,4.15,2.34,5.63.86-1.62-2.33-1.31-4-2.29-6.06,3,1.13,5.08,6.84,5.69,9,2.42,0,4.13-3.05,7-1l.84-.28c.54-.77.28-1.84-1.71-3.52.61-.94,6.47,3.17,3.66.15,2.43.05,6,4.91,7.9,2.84-2.35-2.21-.31-2.83,2-3.38-.5-1.72,3.28-1.92,2.79-3.64-3.56-3.66-6.55-4.86-9.32-5.1-2.44-2.39,3-1.8,4.21-1.4a8.7,8.7,0,0,0,2.55,3.24c2.27,2,4.53,4,6.8,5.94-1.45-.35-2.88-.7-1.69.56.85-.25,2,1,3.11,1.7a8.78,8.78,0,0,1,3.94,1.29l0,1.36.7.22c-.66-.7-.55-1-.09-1.15,1.62,1.12,2.93,2.52,4.72,3.37l1.14,1c1.12-.37,2.24-.75,3.37-1.11a2.66,2.66,0,0,0,1.16,1.62,5.1,5.1,0,0,0,1,2.09c1.19-.1,2.58.65,4,1.41-3.17-.56-3.64,3.86-5,5.76-3.6,1.26.22,7.5-5.87,6,5.44,2.68-.53,5.39.07,8.16,6.47,2.48,3.4-3.38,7.28-3.77.38.33.75.66,1.15,1-.67.92-.47,2.17-1.11,3.1s-.47,2.16-1.11,3.08c-3.67,0-.82,2.43-1.94,3.38-.65,1.38,1.57.29,3.09,1.7,1.35-.76,3.14.49,4.5-.13,1.57-1.08,3.91,1.2,5.35-.41l1.14,1c-2.47,1.11-5.56-.57-7.87,1.25-1.12,1.13,0,2.12,2.56,3.23l.82-.27c4.21,1.23,7.5-1.61,11.25-2.36l1.68-.55c3.41-.15.54-2.53,3.93-2.66-3.07-2.83-5.33-2.18-7.61-1.58l-.83.28c-.4-.33-.77-.66-1.14-1,4.17-2.86,9.87.94,14-1.93,1.3-1.67,5.58-2.26,5.34-4.48,6-3.47,10.84-7.34,16.53-10.93l.85-.27c.3-2.22,3.79-3.29,6.16-4.78l1.68-.55c-1-3.05,5.57-3.42,5.87-6,1.67-.56,3.37-1.11,5-1.68l.85-.27c-1.12-.79-.74-1-.3-1.28,3.93-.33,1.69-2.88,5.61-3.21.1-2.87,7.7-3.05,8.69-5.6,5.1-1.07,4.9-4.06,10.66-4.9-2.59-2.1,2.48-1.43,3.08-2.38.45-5.27,7.67-8.1,11.74-12.06,3.32,0,.58-2.13,3.08-2.39,1.17-.18,3.93,1.14,2.53-.84l4.22-1.4,2.53-.82c1.94-.68,4.42.88,6.17-.69l2.53-.84c-2.78-2.88-3.7,2.3-6.47-.58l1.67-.56,1.71-.56,5-1.67,2.52-.84a5,5,0,0,1,2.14-2.09c3.25-1.95,8.8-3.07,9.63-5.89L1155,87.9c3.39-.14.52-2.53,3.9-2.67l4.23-1.39c-2.16-2.33,3.69-1.77,4.76-2.94l4.22-1.4,1.68-.55c-1.14-2.75,6-2.5,8.13-4.06-.68-.84-.61-1.39.56-1.55,3.41-.71,5.31-2,6.46-3.5l.82-.27c-3.66-2.49,4.8-.61,1.11-3.1,1.84.14,3-2.59,5.35-.4-4.28.4.76,4.15-4.46,4.2-.82.49-2.6.63-1.41,1.84l13.48-4.47c-1.06-.75-2-.7-3.11-1.69-1.12-.79-.74-1-.27-1.27,1.87,1.62,3-.23,4.79,1.13l2.53-.84c-.31-1.07,1.62-1.34.26-2.8,2.64.42-.6-3.89,3.37-1.12,2.29.76,2.7.3.53-1.55,2.34-1.73,5.57.5,7.88-1.23,4.5,3.73-.28.58-1.39,1.82,1.79,1.2,3.26,1.06,5.09,2.41.83-.86-2.86-3.35,1.09-3.1,1.14,1,2.26,2,3.41,3,1-.83,2.47.26,3.94,1.43.52-2.44,3.94-1,8.43-2.79a6.62,6.62,0,0,0,3.67.16c-2.32-2.21-4.29-2.92-5.94-2.14-3.7-6.19,7.43-.43,11.56,3,2,2.57-5.19-2-6.17.68-.51.42-1.25-.12-2-.71-.85,2.64-4.31.74-7.6,2.51.7,1.73,1.86,2.71,4.26,2.69,1.44-1.61,3.76.67,5.33-.41,1.49,1.31-.43,1.39.58,2.53,1.09-2,6.45-.78,7.29-3.77-.3-2.05,3-2.81,4.49-4.21,3,1.13,5.29-.56,7.87-1.25,1.17-.16,2.77,1.57,4.24,2.69-4.11-.43-2.11,1.06-5.91,2-3.88-.32-7.95-1.51-8.7,1.52-1.69.17-.4,1.41-1.4,1.83,2,2.23,3.36,1.47,4.79,1.13.08-.86.47-3.33,3.65.15,1.46-1.6,3.8.68,5.35-.4-2.32-.9-3-1.79-1.42-2.26,1.31-1.39,2.34-2.12,6.2-.68,2.24-.58,4.78,1,2.23-2.1-1.79-1.8,5,1.41,6.47.58,1.12,3.59-2.91,2.29-6.44,3.49-2.18,3.35,3.4.22,4.79,1.15.91,0,2,.71,2.82.43,2.15,1.73,1.36,2.42,3.69,4.23-3.38-.21-6.82-.75-10.14-.73.28,1.07-1.63,1.35-.26,2.81a7.94,7.94,0,0,1,3.94,1.42c1.75-.27,3.08-2.39,5.64.86,4.71.79,11.38,2.6,12.37-1.37,2.78-.69,2.1-3.91,6.75-2.22.09,1.93-2.33,1.07-4.78,2.94,2.41,2.21-3.08,1.6-3.91,2.65-1.86.31-.59,1.73-2.25,2.1-.27.11-.56.2-.83.29,2.57,1.55,4.45,2.75,4.53,4l-3.37,1.12c1.11.79.74,1,.29,1.27,1.28,1.55-.85.14-1.7.56a8,8,0,0,0,.6.58c1.7,1.5,2.92.87,4.19.55.4.33.77.66,1.15,1-1.17.16-1.26.71-.56,1.55,1.47-.25,2.71-1.38,4.5-.12.8-.49,1.76-.29,2.82.42-1.17,2,4.18.32,5.94,2.13,2-.83,4.12-1.61.81-4.35-1.38.62-3.16-.63-4.52.12.12-.83,2-1.59,4.34-2a19.7,19.7,0,0,1,4.81-.18,10.91,10.91,0,0,1,3.25.77c.26-.09.56-.18.82-.28a.64.64,0,0,0,.16-.64c0-.36-.11-.74.4-.9s1.12-.37,1.68-.57c.24-2-3.81-2-2.54-3.23,1.49,1.3,2.5.41,3.94,1.41,2.42,1.88-.11,2,.3,3.15.13.4.6.91,1.71,1.65.29-.09.55-.19.84-.29.52-.32.44-.86.22-1.45-.36-1-1.12-2.09-.25-2.63-.75-.85-.27-1.26-1.41-2.25a8.07,8.07,0,0,1-4-1.42c-1.07-.75-2-.71-3.09-1.7l.82-.28c2.27-.54,4.31-1.16,2-3.37-1.6-1.67-2.75-1.44-4.24-2.69l-2.53.83c.32,3.17-5.72,1.42,2,4.8-.69.71.69,2.18-.26,2.81-2.08-1.2-3.4.93-5.62-.86-5.12,1.08-4.92,4-10.66,4.9l-.85.27c-2.6-2.09,2.49-1.43,3.09-2.38,3.35-1.12,2.78-3.65,6.16-4.76,2.24-.55,4.3-1.18,1.94-3.38-9.72-.4,3.11-2.85,6.75-2.23.79-.48,1.73-.28,2.82.43,1.36-.62,3.14.62,4.5-.12-7.09-7.8,10.34-4.93,14.08,2.15,2.57,1.11,3.67,2.12,2.56,3.25q3.92,3.15.86,3.8c-1.93.73.8,3.14,0,4.3-.27.41-1,.66-2.52.62.68.83.61,1.38-.56,1.54a8.82,8.82,0,0,1,2.56,3.25l.83-.28c-1-1.23-2.71-5.52,1.11-3.09.64,1.58,3.35,3.92,4,5.51.29-.11.55-.2.84-.29l.85-.28c1.17-.18,2.19-1,3.65.15,3.12,0-.54-2.52,1.11-3.08l-2.26-2c-.09-.76-1-1.53-2-2.34-1.6-1.26-3.51-2.61-3.11-4.15a17.06,17.06,0,0,1,5.27,4.08c2.57,2.8,4.46,6.11,4.65,7.63-1.17.18-2.2,1-3.67-.15q-.43,1.89,4,5.5c3.69-.51-6.7-5.69,1.11-3.08l.85-.29,2.52-.84a12.59,12.59,0,0,0,8.18,4.11c1.81,1.81,1.14,2.74-1.09,3.1-.39-.33-.77-.66-1.14-1-.78.31.73,1.44,1.42,2.26,2.72,2.66,5.19,4.15,7,3.13-.75,1.08,5.44,4.67,4,5.5l1.13,1,7.91,6.93c.77.65,1.52,1.31,2.27,2,1.11.79.74,1,.29,1.26-2.44.49-.79-2.07-4.53-4-1.53-1.13-1.62-.3-1.67.55a4.68,4.68,0,0,0-3.12-1.69c.73-1.09-2-3.44-2-4.79-.74-.66-1.49-1.32-2.26-2-1.85.12-.7,1.3.59,2.54l-3.38,1.11c1.52.72,3,1.44,2.27,2,3.58,3.22-1.4,3.37,5.39,7.76l1.7-.56c-1.25-2-2.5-2.25,2.23-2.11l-1.12-1c2.84,2.24,5.36,4.48,8.47,5.37-2.25.36-2.89,1.29-1.11,3.1.75,2-3.56,2.2.33,5.35l-.85.27c1.79,1.26,3.06.12,4.5-.12-1.12-.79-.74-1.05-.29-1.27,4.79,0,.9-3.16,3.63-3.93l2.53-.84c3-2.22,5.07-4.77,10.39-6.15,2-.66,3.91-1.31,5.88-2-1.18-1.22.58-1.35,1.4-1.84-2.57-4,2.52-5.29,5.57-7.3l.85-.27,1.13,1c3.49-.88,6.26-2,7.3-3.78a1.7,1.7,0,0,0,1.38-1.82l.85-.29c-1.27-1.42,1.17-1.52,2.24-2.1,3.43-.13-1.48-3.25,2-3.37a8.6,8.6,0,0,0,2.56,3.25c.82-.29,1.67-.57,2.52-.84-1.22-1.32.53-1.56,1.68-.56,1.67-.56,3.37-1.11,5-1.68-1.3-1.48,1.38-.58,2.82.43-.13-1,.69-1.69,2.23-2.1-3.51-3.87,2.53-2,5.06-1.67,1.05-.73,2.52.45,3.67.15.69-1-1.13-1-2-.71a3,3,0,0,1,.26-2.81l1.12,1c2-.67,4.44.89,6.19-.67.93-.07.34-.65-.29-1.28,3.55.57,2.05-1.38,4.5-.12,1.27-1,3-.06,4.52-.13.75.85.27,1.26,1.41,2.25-1.3.31-2.58.63-1.4,1.83l-2.53.83a18.64,18.64,0,0,1,5.38,3.69c.84-2.62,4.32-.61,8.46,1.29,0,1.38-2,2-2,3.37-2.52.45-3.21,1.56,0,4.07-.84.48.11,2.41-2.53.84l-2.55.84c1.47,1.11,2.5.33,3.67.16.76.85.3,1.26,1.42,2.25-5.58-1.08-.35,2.75-5.61,3.22,1.21,1.4.3,2.05,1.74,3.53l-.85.28c2.14,1.74,1.81,2.59-.26,2.8-.71.53-.06,1.54.56,2.54l2.53-.83c-1-1.71,1.09-2.33,2-3.38.22-2-3.83-2.05-2.56-3.24,1.14-.31,2.61.89,3.67.16-2.45-2.56-.41-3.26,2.8.42.17-1,.62-4.72-2-4.79.7-.09.2-3.21,2.26-2.11,2,2.5.22,3.58,2.27,6.06.4.33.77.67,1.15,1s.75.67,1.14,1c6,1.18,1.06-2,4.76-3,1.07.71,2.26,1.94,3.11,1.7-1.38-1.46.55-1.74.26-2.81a16.26,16.26,0,0,0,4.24,2.69c-3.05.07.71,2.58.86,3.8,1.15,1,2,1,3.12,1.69-.81.3.73,1.43,1.41,2.27-.92.05-.33.65.3,1.26l1.12,1c1.14,1,2,.95,3.11,1.7,1.15,1,2.27,2,3.42,3,1.35,1.08.52,1.94,2.26,2,1.6-.18,3.06,2,3.39,3a1.71,1.71,0,0,0,1.38-1.83c0-1.15.79-2.05,3.08-2.39,3.67-1.2,7.31-2.4,11-3.62l-1.13-1c3.49-.65,7.67,1.86,10.7-.82-.76-.85-.3-1.26-1.42-2.25l1.68-.56c10.55-.49,5.76-3.48,15.45-3.76-1.52-1.51,1-1.57,2.23-2.09,0-1.16.77-2.06,3.09-2.39,1.94,1.31,2.92,1.33,3.4,3,5.43-3.17,10.74-2.79,14.87-6.29.6-.94,5.69-.28,3.08-2.38l5-1.67c.58-.18,1.12-.38,1.7-.56,3.09,1.62,5.11-1.37,8.44,1.3-2.81-2.56.57-2.91,2.79-3.66,4.39-.53,5.58-3.32,9-.25-1.85-4.26,4.57-2,8.14-4.06,6.59,2-4.46,2.4-6.75,2.23,4.07,2.49-2.5,3.43-6.14,4.77,3.81-4.55-2.9-1.79-7.35-.31,3.39,2.94,5.43,0,8.47,1.3l1.67-.56c4.15-.41,7.37-4.81,12.4-1.37,4.59-1.38,1.64.23,2.26,2,2.52-1.83,2.56-1.84,6.73-2.22-.8-.82-.64-3.92,1.41-1.82,1.12,1,.66,1.39,1.41,2.24,2.22-.54,4.24-1.19,3.92-2.66,3.82.86,7.17-.34,10.69-.81,1.7-.55,3.37-1.11,5.06-1.67a2.05,2.05,0,0,1-.58-2.54c-6.71-2.85,3-1.72,5.05-1.67-1.52-1.51,1-1.58,2.24-2.1,1.06-.21-.33-1.87,1.7-.56,1.84-.31.57-1.73,2.23-2.1,1.81,1.31,3.14.51,4.79,1.13,1.17-.16,2.19-1,3.65.17-2,.66,3.4,2.58,4,1.41l6.73-2.22c-.68-.84-.6-1.39.56-1.55,2.21-.76,5.59-1.1,2.78-3.65,1.27-.14,1.78.92,2.27,2,3-.14,5.25-3.47,8.72-1.52l2.53-.83a15.9,15.9,0,0,0-4.24-2.69c4.05,1.86,7.37.51,10.69-.81l1.68-.56,3.37-1.12,6.74-2.23,2.53-.83c2.54-1.23,3-3.18,7.3-3.78-.38,2.19-2.93,3.6-6.16,4.77a16,16,0,0,0,1.16,5.06c2.9,2.11,4.49-1.45,7.31.31,1.63-3.06,5.27.44,5.9-2,.51-.41,1.24.13,2,.72l1.69-.56c3.73-.91,8.29,1.89,12.12,1.44l.84-.27c-.55-4,8-1.7,11-3.63,2.47,2.88,3.16-2,5.64.87-.84.27-1.69.55-2.53.84l-1.68.55a6.62,6.62,0,0,0-5.35.41c-4.32,1-3,3.94-5,5.74l-.84.29c-1.44-1-2.44-.12-4-1.42-1.51,0-3.32-1.31-4.79-1.14,1.44,1.48-2.13,1.18-.27,2.81l-2.52.84c-.76-.85-.29-1.27-1.43-2.27-.89,0-2-.7-2.82-.42.44,2.37-4.86,2-7.86,1.24-1.19.11-2.57-.66-4-1.42l-1.69.55c1.64,1.12,1.47,4.22-1.38,1.83-3,.09-5.75,1.33-9,.26-1.81.22-.65,1.51.3,1.26,1.07,1-.15,1.11-.55,1.55s-1.24-.13-2-.71c-1.68.17-.38,1.41-1.39,1.82l1.13,1-5.9,2c-.73.84,1.08.84,2.26,2-.79.48-1.74.28-2.82-.43-2.22.75-5.23,1.22-4.76,3a8.13,8.13,0,0,1-4-1.43l-.84.29c4.32,4.52-6,.42-4.48,4.2l-3.37,1.12c.13,2-1.84,3.22-4.47,4.2-2.91-2.1-4.5,1.46-7.32-.3l-.85.28c-2.32,2.1-3.53,1-7.58,2.5-.28.11-.56.2-.85.29,3.33,1.33,5.83-1,9.3,1l1.14,1,7.57-2.51,11-3.62,3.37-1.12.84-.28c2.14.08,3.59-2.83,6.19-.69l4.21-1.38,2.53-.84q5.47-1.83,10.95-3.62c3.87-1.61,8.38-.38,12.09-2.64l7.59-2.51c.91,0,1.69-.53,2.81.42l4.21-1.39c.8-.49,1.76-.27,2.82.43l4.21-1.4c1.76-1.56,4.44.9,6.2-.68.37.34.75.67,1.13,1,.56-.2,1.12-.38,1.68-.56l4.22-1.4a105.48,105.48,0,0,1,10.42,2c3.27-.71,3.49,4.88,5.38,3.67l1.13,1c-.73.84,1.08.84,2.27,2-2.2,1-5.48-2.81-7.33-.3-.51.41-1.23-.13-2-.72l-.84.28,1.13,1c-2.11,1.35-4.91-.31-7.32-.31-3.81,1.43,2.57,1.14,4.53,4a6.41,6.41,0,0,0,4.5-.13l1.13,1c2.36,3.21,3.71,3.83,7.35,4.38l5-1.67c.4-.44,1.64-.58.56-1.55l.84-.28c1.9-.08.48-2.18,2.53-.83-.41.42,0,1.14,1.42,2.25l-4.21,1.4-5.06,1.67,1.14,1,3.39,3,1.69-.56c1.17-.17,2.2-1,3.66.16l2.53-.84,1.68-.56c.8-.48,1.75-.28,2.82.43l4.21-1.39c1.07.71,2,.92,2.81.43,1.85-.11.72-1.3-.57-2.54,2.3-1.81,5.4-.12,7.87-1.24l1.13,1c1.13,1,2,1,3.11,1.7l1.68-.56,3.37-1.11c2.32-2.22,6.85-3.23,12.09-2.64,3-.15,5.25-3.47,8.71-1.52l2.54-.84,1.68-.55,9.26-3.07q3.6,1.85,6.48.58c3.38,4.49,5.35,4.38,8.2,4.11,1.49-.44,1.34-1.46.26-2.82-3.83-3.1-1.15,4.73-6.48-.58l3.37-1.11a49.36,49.36,0,0,1,11.82.17l-1.13-1c1.61-.91,3.44-.81,5.64.87,2.31-2.25,12.07,3.44,6.19-.69-2.55-4,4.53,1.92,5.63.86.6.68.43,1.09.92,1.73V0H0V138.09c3.57-2.41,7-4.88,10.69-7.23Zm1812.14-19.92c1.51-.49,1.85-4.28,5.9-2-4.38.56-2.76,3.28-3.35,5.2-.76-.85-.28-1.27-1.42-2.26-.84.29-1.68.56-2.52.84C1821.09,111.29,1822.87,111.16,1823.68,110.67Zm-4.76,3a7.82,7.82,0,0,1,3.94,1.41l-5,1.67-2.26-2C1819.1,115.82,1816.52,114.29,1818.92,113.62Zm-68.09-36.11c4.65-1.79,7.41-3,10.75-4.43,2.08-.87,4.38-1.8,7.5-3,4.35,1.81,7.74-.52,11.83.18.17,1-7.16,2.84-10.4,2.08a14,14,0,0,0-3.14.5c-4.06,1.18-5.55,4-12.87,4.79l-2.53.84c-2,1.48-4.73-1-4.21,1.4l-4.22,1.39c-.9,0-1.69.52-2.81-.43C1746.18,80.17,1745.34,76.57,1750.83,77.51Zm-94.41,23.07c2.17,2.33-3.7,1.77-4.77,2.94C1650.6,100.63,1651.12,98.27,1656.42,100.58Zm-5.62,3.22c-3.55.53-6.69,0-7.58,2.51-1.12-1-.66-1.4-1.41-2.26C1644.6,103,1647.34,101.8,1650.8,103.8Zm-203.27-9.07c-2.59-2.11,2.48-1.45,3.08-2.39,7.76,9-7.43,6-10.63,9C1434.46,95.74,1455.85,99.8,1447.53,94.73ZM1004.84,136a2.44,2.44,0,0,0,.33-.23,14.49,14.49,0,0,1,2,1.23c-.67.37-1.58.66-1,1.48a1.7,1.7,0,0,1-1.38,1.83C1003.83,138.56,1005.05,137.55,1004.84,136Zm-2.86.42a10.44,10.44,0,0,1-.32,1.87l-.42.14C999.24,136.2,1000.35,136.36,1002,136.45Zm-21.42-17.06c2.86.12,8.89,3.66,9.62,6.36-3.07-1.25-10.32-.49-10.72-3.26-2.26-2-3.74-.51-6.22-3.4C976.93,119.56,979.71,122.2,980.56,119.39ZM968.48,122c3.8,5.06-5.08,1.23-7.87,1.25C959.07,120.09,967,125.13,968.48,122ZM893.39,91c-2.19.67-.18,1.07,1.43,2.26-1.47,1.48-4-1.41-5.63-.86l-5.66-5A22.74,22.74,0,0,1,893.39,91ZM781.64,89.78c1.51-.49,1.86-4.29,5.9-2-4.37.56-2.76,3.27-3.34,5.19-.76-.85-.28-1.26-1.42-2.25l-2.53.84C779.06,90.4,780.83,90.26,781.64,89.78Zm-4.76,2.94a8,8,0,0,1,4,1.42l-5.06,1.67c-.75-.65-1.51-1.31-2.26-2C777.07,94.93,774.48,93.4,776.88,92.72ZM708.8,56.62c4.64-1.79,7.41-3,10.74-4.43,2.08-.87,4.39-1.81,7.51-3,4.34,1.81,7.73-.52,11.82.18.18,1.05-7.16,2.84-10.4,2.08a13.31,13.31,0,0,0-3.13.5c-4.07,1.18-5.56,4-12.88,4.79l-2.52.84c-2,1.48-4.74-1-4.22,1.39l-4.21,1.4c-.91,0-1.69.52-2.82-.43C704.15,59.27,703.3,55.68,708.8,56.62ZM614.39,79.69c2.16,2.32-3.71,1.77-4.77,2.94C608.56,79.73,609.09,77.38,614.39,79.69Zm-5.62,3.21c-3.56.54-6.7,0-7.58,2.51-1.12-1-.66-1.39-1.42-2.25C602.56,82.14,605.3,80.9,608.77,82.9ZM405.49,73.83c-2.59-2.1,2.48-1.44,3.08-2.38,7.77,9-7.43,6-10.62,9C392.43,74.85,413.82,78.91,405.49,73.83Z"/><path class="cls-1" d="M1918.87,118.71a15.77,15.77,0,0,0-4.79-1.14c.33,1.86-2.43,2.62-1.65,4.64,2.57.74,4.83.09,7.57,1.56v-6C1919,117.25,1918.92,118,1918.87,118.71Z"/></svg>