<?xml version="1.0" encoding="utf-8"?>
<!-- Generator: Adobe Illustrator 23.0.3, SVG Export Plug-In . SVG Version: 6.00 Build 0)  -->
<svg version="1.1" id="Layer_1" xmlns="http://www.w3.org/2000/svg" xmlns:xlink="http://www.w3.org/1999/xlink" x="0px" y="0px"
	 viewBox="0 0 1920 1080" style="enable-background:new 0 0 1920 1080;" xml:space="preserve">
<g>
	<path d="M972.2,831.54c0.27,5.52,0.54,11.09,0.82,16.72c0.22,1.58,0.43,3.16,0.65,4.74C977.07,846.97,976.65,843.13,972.2,831.54z"
		/>
	<path d="M939.96,844.32c-0.04-0.72-0.17-1.44-0.35-2.16c-0.47,9.6-1.04,19.19-1.53,28.79c-0.01,0.18-0.01,0.35-0.02,0.53
		c0.4,1.02,0.81,2.04,1.23,3.06c0.5-2.49,0.99-4.98,1.49-7.47C940.58,859.48,940.37,851.9,939.96,844.32z"/>
	<path d="M1139.65,862.95c-0.24-3.62-0.71-7.23-1.09-10.84c-3.6,8.98-3.48,12.88,1.12,19.41
		C1139.68,868.18,1139.82,865.55,1139.65,862.95z"/>
	<path d="M219.65,862.95c-0.24-3.62-0.71-7.23-1.09-10.84c-3.6,8.98-3.48,12.88,1.12,19.41
		C219.68,868.18,219.82,865.55,219.65,862.95z"/>
	<path d="M1595.88,936.49c4.89-7.9,9.12-15.93,13.15-24.08c1.23-2.49,2.27-5.21,2.72-7.93c3.3-19.76-1.56-38.04-10.4-55.54
		c-0.44,0.56-1.11,1.09-1.17,1.69c-1.19,11.54-2.3,23.1-3.5,35.4c1.05-2.89,1.88-5.15,3.18-8.72
		C1598.07,897.93,1594.68,916.99,1595.88,936.49z"/>
	<path d="M675.88,936.49c4.89-7.9,9.12-15.93,13.15-24.08c1.23-2.49,2.27-5.21,2.72-7.93c3.3-19.76-1.56-38.04-10.4-55.54
		c-0.43,0.56-1.11,1.09-1.17,1.69c-1.19,11.54-2.3,23.1-3.5,35.4c1.05-2.89,1.88-5.15,3.18-8.72
		C678.07,897.93,674.68,916.99,675.88,936.49z"/>
	<path d="M931.2,835.28c1.67-1.34,3.2-2.57,4.64-3.73c-0.9-2.47-1.79-4.94-2.69-7.4C932.53,827.71,931.88,831.4,931.2,835.28z"/>
	<path d="M711.31,839.65c-0.44-2.1-1-2.47-2.55-1.3c-0.74,3.34-1.68,6.66-2.21,10.04c-1.49,9.63-2.8,19.28-4.19,28.92
		c0.6,0.11,1.21,0.23,1.81,0.34c2-5.58,3.56-11.37,6.12-16.67C713.74,853.85,712.83,846.88,711.31,839.65z"/>
	<path d="M0,0v850c4.65-5.06,8.21-10.47,9.34-17.62c1.29-8.17,3.73-16.15,6.57-24.03c-1.5,8.57-3,17.14-4.71,26.93
		c4.68-3.76,8.27-6.66,11.86-9.55c0.42,0.29,0.84,0.59,1.26,0.88c-5.49,3.55-4.39,8.88-4.63,13.89
		c-0.48,10.15-1.09,20.29-1.62,30.44c-0.09,1.8-0.01,3.61,0.82,5.55c3.65-18.3,7.29-36.59,10.94-54.89c0.32,0.05,0.65,0.1,0.97,0.15
		c-0.59,19.02-1.19,38.03-1.79,57.31c6.31-2.55,6.94-3.84,5.54-9.55c-1.54-6.24-1.82-12.46,1.13-18.56
		c-1.07,6.7-1.18,13.23,3.32,19.26c3.41-28.46,6.82-56.92,10.24-85.38c0.23,0.01,0.45,0.01,0.68,0.02
		c1.12,22.97,2.24,45.94,3.43,70.22c16.05-18.94,25.86-40.16,35.01-61.79c-3.55,18.53-9.09,36.35-17.27,53.35
		c-1.38,2.86-2.08,6.29-2.16,9.49c-0.26,10.57-0.1,21.15-0.1,31.73c0.54,0.06,1.07,0.12,1.61,0.18c2.74-8.92,5.14-17.95,8.3-26.72
		c3.33-9.23,2.26-18.33,0.43-27.55c0.44-0.1,0.89-0.21,1.33-0.31c2.13,8.26,4.27,16.52,6.4,24.77c0.43,0.01,0.85,0.02,1.28,0.03
		c0-9.91,0-19.81,0-29.72c0.44,0.01,0.87,0.01,1.31,0.02c1.03,6.99,2.06,13.97,3.19,21.65c4.55-4.31,8.55-8.1,12.75-12.09
		c0.19,0.83,0.41,1.27,0.31,1.38c-4.75,4.5-6.1,9.38-3.88,15.98c1.96,5.81,2.15,12.2,3.95,18.32c1.2-10.17,2.4-20.35,3.61-30.52
		c0.35,0.03,0.69,0.06,1.04,0.08c-1.36,15.76-2.3,31.57-4.27,47.25c-1.04,8.29-1.3,16.1,2.12,23.88c1.78,4.06,3.04,8.35,4.53,12.54
		c0.45-0.03,0.89-0.06,1.34-0.09c1.08-14.92,2.16-29.85,3.28-45.48c0.41,1.61,0.67,2.6,0.78,3.06c2.03-18.63,4.11-37.7,6.19-56.77
		c0.24,0.03,0.49,0.07,0.73,0.1c-0.9,20.3-1.81,40.6-2.71,60.9c0.9,0.1,1.8,0.2,2.71,0.3c4.41-24.88,8.82-49.77,12.83-72.33
		c1.47,27.48,3.07,57.32,4.67,87.17c0.69,0.12,1.37,0.23,2.06,0.35c3.36-5.23,10.59-8.05,9.38-16.07c-0.33-2.19-1.38-4.4-2.55-6.32
		c-7.25-11.89-9.78-24.24-3.91-37.56c-3.03,11.03-2.14,21.38,5.55,32.11c0-1.94,7.7-3.4,22.77-50.6c0.75-2.34-8.28,29.96-5.84,40.42
		c0.14,0.6,13.33-14.51,12.08-26.51c0.51,1.74,0.76,2.59,1.01,3.44c0.43,0.12,0.87,0.24,1.3,0.36c4.22-12.22,8.43-24.44,12.65-36.67
		c0.84,8.4-5.3,17.1,1.53,25.52c0.15-0.48,0.27-0.89,0.39-1.28c-0.1-0.44-0.19-0.88-0.29-1.31c0.26-0.09,0.52-0.18,0.77-0.27
		c-0.15,0.5-0.31,1.01-0.48,1.58c2.01,9.05,4.03,18.09,6.04,27.14c0.26-0.03,0.51-0.06,0.77-0.09c-0.87-14.66-1.74-29.32-2.61-43.98
		c0.17-0.03,0.34-0.07,0.51-0.1c3.23,13.72,6.46,27.44,9.84,41.78c2.15-1.62,3.54-2.68,4.93-3.73c-0.62-5.57-1.24-11.13-1.86-16.7
		c0.11-0.08,0.23-0.16,0.34-0.25c1.94,5.28,4.68,10.41,5.66,15.86c2.14,11.94,4.59,24.04,4.68,36.09
		c0.1,13.55,6.05,24.59,11.48,37.49c5.02-16.63,1.83-32.35,2.14-48.96c0.77,1.41,1.13,2.06,1.48,2.71c0.27,0.01,0.54,0.02,0.8,0.03
		c0-22.15,0-44.3,0-66.46c0.62-0.02,1.23-0.03,1.85-0.05c-0.82,25.46,0.09,50.8,4.29,75.92c0.51,0.02,1.03,0.04,1.54,0.06
		c0.85-16.23,1.71-32.46,2.56-48.68c0.15-0.05,0.3-0.09,0.45-0.14c2.46,18.05,4.92,36.1,7.47,54.75c1.41-4.58,2.68-8.68,3.98-12.88
		c1.21,6.33,2.41,12.61,3.77,19.67c1.4-22.72,2.74-44.51,4.07-66.3c0.33,0.02,0.67,0.05,1,0.07c0,20.3,0,40.59,0,60.89
		c5.63-5.9,9.83-11.43,9.08-20.21c-2.47-28.88-3.99-57.84-5.86-86.77c-0.22-3.48-0.38-6.96,0.18-10.55
		c6.15,26.95,12.3,53.9,18.76,82.23c13.49-26.79,19.89-54.32,25.93-82.19c-0.6,9.97-0.51,20.04-1.97,29.88
		c-2.32,15.62-5.69,31.08-8.6,46.61c-0.24,1.28-0.76,2.7-0.44,3.87c3.22,12.13,6.59,24.22,10.7,36.22
		c-1.45-13.21-2.9-26.41-4.35-39.62c0.3-0.06,0.6-0.12,0.9-0.18c2.72,9.52,5.45,19.04,8.47,29.59c7.67-22.38,4.19-44.53,6.66-66.18
		c1.2,9.34,2.4,18.68,3.72,29.01c4.46-7.51,8.44-14.22,13.14-22.15c0.12,2.08,0.31,2.61,0.14,2.97
		c-9.02,19.45-12.42,39.36-7.1,60.67c4.8,19.21,8.44,38.71,12.61,58.07c0.26,1.21,0.79,2.36,1.64,4.84
		c2.75-14.81-0.03-28.15-0.75-42.4c0.94,1.99,1.53,3.22,2.16,4.55c0.23-0.29,0.52-0.48,0.51-0.66c-0.68-8.44-1.95-16.29-7.16-23.8
		c-8.22-11.86-9.03-26.93-3.9-38.71c-2.86,13.49-1.47,26.07,8.36,36.97c-2.86-31.7-4.62-63.4-1.21-95.18
		c-0.66,35.66,5.34,70.58,10.33,105.61c0.61-0.03,1.21-0.07,1.82-0.1c0-4.14,0.09-8.29-0.03-12.43c-0.12-4.15-0.44-8.3,0.07-12.6
		c1.59,7.7,3.28,15.38,4.74,23.11c1.61,8.49,1.52,8.51,10.41,13.21c0-18.37,0-36.17,0-53.97c0.61,0,1.23-0.01,1.84-0.01
		c0.61,15.78,1.35,31.56,1.8,47.35c0.3,10.74,0.12,10.74,11.36,15.84c-3.97-25.05-7.87-49.68-11.77-74.31
		c0.39-0.06,0.77-0.13,1.16-0.19c2.47,12.16,4.94,24.32,7.41,36.48c0.33-0.05,0.66-0.1,0.99-0.15c-2.66-22.45-5.32-44.91-7.98-67.36
		c0.24-0.05,0.48-0.1,0.72-0.16c4.53,15.72,9.06,31.44,13.94,48.4c4.03-15.14-1.45-27.63-4.87-40.59c1.84,3.08,3.68,6.16,5.97,9.98
		c0.33-2.22,0.53-3.59,0.77-5.17c0.53,3.62,0.52,7.19,1.63,10.37c2.79,7.97,6.09,15.77,9.66,23.53
		c-3.04-17.04-6.07-34.08-9.11-51.13c0.24-0.05,0.49-0.11,0.73-0.16c5.23,14.75,10.46,29.51,15.69,44.26
		c3.47-6.74,5.41-13.32,2.2-20.51c0.76,0.7,1.51,1.4,2.99,2.76c1.32-8.8,2.55-17.05,3.79-25.29c0.16,0.03,0.33,0.05,0.49,0.08
		c0,10.6-0.02,21.21,0.02,31.81c0.01,1.8,0.07,3.67,0.53,5.39c3.81,14.46,7.72,28.9,11.61,43.35c0.37,1.38,0.81,2.75,1.1,3.76
		c4.02-10.02,8.16-19.97,11.94-30.05c0.69-1.85,0.06-4.24-0.15-6.36c-2.19-22.47-4.42-44.94-5.6-67.49
		c2.48,17.8,4.38,35.7,7.59,53.36c3.08,16.92,7.54,33.59,11.39,50.37c0.59-0.12,1.17-0.25,1.76-0.37
		c-2.16-21.77-4.32-43.55-6.48-65.32c0.37-0.11,0.73-0.21,1.1-0.32c6.69,25.96,13.38,51.92,20.07,77.88
		c2.74-10.24-0.11-20.26-1.06-30.64c2.88,8.49,5.68,16.72,8.71,25.67c5.57-7.75,1.07-15.4,2.37-22.97
		c0.69,4.41,1.32,8.46,1.97,12.65c5.35-5.28,8.43-15.24,7.07-22.01c-7.77-38.69-15.51-77.39-23.25-116.09
		c-0.09-0.47-0.01-0.97-0.01-2.71c11.9,32.15,23.37,63.16,35.36,95.57c10.97-34.03,13.43-67.82,14-101.89
		c0.57,0,1.14,0.01,1.71,0.01c1.07,16.84,2.79,33.67,3.01,50.52c0.18,13.78-1.46,27.58-2.25,41.37c-0.09,1.64-0.41,3.48,0.18,4.9
		c3.81,9.19,7.84,18.29,12.03,27.98c3.61-15.94,7.12-31.49,10.64-47.04c0.28,0.06,0.57,0.12,0.85,0.18
		c-1.73,10.3-3.53,20.58-5.17,30.89c-1.26,7.89-2.33,15.82-3.46,23.73c-0.14,0.98-0.3,2.04-0.07,2.97
		c2.65,10.64,5.38,21.27,8.72,31.9c-0.14-2.44-0.34-4.87-0.42-7.31c-0.98-27.52-0.92-54.95,5.41-82.03
		c2.3-9.86,6.07-18.95,11.11-28.32c-1.66,9.36-3.31,17.97-4.62,26.64c-0.35,2.35-0.27,5.14,0.69,7.24
		c8.51,18.61,12.16,38.37,13.83,58.54c0.94,11.28,1.03,22.63,1.52,33.94c0.04,0.9,0.16,1.8,0.91,2.71c1.6-8.4,2-17.26,5.03-25.12
		c7.4-19.22,2.51-37.68-1.59-56.3c-2.76-12.52-5.92-24.95-8.89-37.42c-0.26-1.09-0.47-2.19-0.71-3.28c0.4-0.1,0.81-0.2,1.21-0.3
		c6.09,21.47,12.19,42.95,18.4,64.84c2.76-5.29,4.57-10.05,3.3-16.2c-5.42-26.12-5.8-52.6-4.53-79.13c0.06-1.27,0.4-2.53,0.89-3.78
		c3.06,31.55,7.84,62.65,20.76,92.29c0.11-1.92,0.56-3.88,0.28-5.74c-1.65-11.18-3.46-22.33-4.57-33.64
		c2.16,9.22,4.31,18.43,6.47,27.65c0.38,0.11,0.77,0.22,1.15,0.33c7.63-25.26,15.27-50.53,22.9-75.79c0.23,0.02,0.47,0.04,0.7,0.06
		c-0.42,3.76-0.77,7.52-1.28,11.27c-4.51,32.84-9.15,65.66-13.44,98.53c-0.44,3.33,0.48,7.23,1.91,10.33
		c2.78,5.99,6.37,11.61,9.94,17.92c6.19-11.62,4.69-23.81,7.26-35.47c0,13.37,0,26.75,0,40.12c0.28-0.01,0.56-0.03,0.84-0.04
		c5.05-25.24,10.1-50.48,15.15-75.71c0.25,0.06,0.5,0.12,0.75,0.18c-0.98,20.56-1.95,41.13-2.93,61.69
		c0.52,0.04,1.04,0.08,1.56,0.12c7.72-30.02,11.11-60.65,13.12-91.59c0,5.78,0.03,11.56-0.01,17.34c-0.04,5.83-0.22,11.66-0.19,17.5
		c0.01,2.29,0.44,4.58,0.67,6.87c-0.01,0.01-0.02,0.02-0.03,0.04c2.52,2.86,5.36,5.51,7.42,8.67c2.77,4.25,4.9,8.91,6.9,12.63
		c4.25-10.39,8.64-21.1,13.03-31.83c-0.04,0.03-0.08,0.05-0.13,0.09c0.47-2.71,1.47-5.44,1.33-8.12c-0.5-9.13-1.41-18.24-1.38-27.47
		c2.69,11.32,5.39,22.64,8.08,33.97c0.43-0.01,0.86-0.02,1.29-0.03c2.09-7.34,4.18-14.68,6.63-23.3
		c-0.52,13.86-3.47,26.18-3.53,38.67c0.75,0.11,1.49,0.23,2.24,0.34c1.64-6.27,3.28-12.54,4.65-17.77c0.08,0.3,0.28,1,0.57,2.07
		c2.08-3.86,3.81-7.07,5.55-10.28c-6.38,16.64-5.53,33.29-0.34,50.2c5.48-24.99,10.95-49.97,16.43-74.96
		c0.21,0.04,0.42,0.08,0.63,0.12c-1.09,20.12-2.21,40.23-3.27,60.35c-0.6,11.31-1.57,22.64-1.38,33.94c0.07,4.02,3.08,8,4.66,11.8
		c4.9-0.41,4.31-3.05,4.07-5.53c-0.99-10.1-1.98-20.2-2.24-30.39c1.65,10.43,3.29,20.86,4.97,31.51c0.97-0.26,1.49-0.25,1.8-0.5
		c2.36-1.9,4.89-3.97,6.68-6.07c2.09-2.46,2.24-6.76,2.77-10.34c4.1-27.95,5.48-56.02,3.52-84.23c-0.15-2.15-0.02-4.31-0.02-6.47
		c0.5-0.02,1.01-0.05,1.51-0.07c1.37,28.62,2.74,57.25,4.15,86.83c1.07-1.4,1.99-2.04,2.02-2.72c0.41-10.31,1.58-20.69,0.68-30.9
		c-0.35-3.97,0.63-7.73,0.85-11.56c-0.18-1.46-0.26-2.98-0.22-4.55c0.28,1.54,0.3,3.05,0.22,4.55c0.85,6.77,4.12,12.42,10.39,17.15
		c1.01-11.41,1.99-22.53,2.97-33.65c2.56,16.51,2.24,33.27,4.81,49.69c0.57-0.02,1.13-0.03,1.7-0.05
		c1.83-5.36,3.66-10.71,5.49-16.07c-0.43,9.7-3.28,19.11-0.86,28.67c0.55,0.09,1.09,0.17,1.64,0.26c2.55-10.41,5.21-20.8,7.53-31.27
		c0.35-1.56-0.93-3.47-1.38-5.23c-4.22-16.59-8.42-33.19-12.61-49.79c-0.15-0.58-0.02-1.23-0.02-2.12
		c4.96,12.49,9.78,24.68,14.64,36.86c0.49,1.23,1.02,2.48,1.78,3.55c0.18,0.25,1.07,0,1.18-0.06c1.77,4.5,3.59,9.09,5.86,14.85
		c1.66-2.99,2.64-4.77,3.44-6.2c0,3.49-0.84,7.5,0.23,10.91c1.14,3.64,4.09,6.72,7.15,11.42c2.64-26.84,5.13-52.17,7.62-77.51
		c0.21,0,0.42,0,0.64,0c1.06,15.77,2.1,31.53,3.19,47.3c1.05,15.12,1.5,30.34,3.62,45.31c0.74,5.25,5.66,9.9,9.63,14.46
		c4.32-26.78,3.11-53.15-0.07-79.52c0.6-0.05,1.19-0.09,1.79-0.14c2.29,23.47,4.59,46.94,6.98,71.4c2.42-3.66,3.95-7.02,3.75-11.02
		c-0.26-5.3-1.1-10.61-0.93-15.89c0.22-6.68,1.19-13.33,1.87-20.29c1.57,10.6,3.11,20.93,4.65,31.26c0.45-0.02,0.9-0.05,1.35-0.07
		c0.53-19.37,2.51-38.76-1.49-58.18c1.45,6.61,3.06,13.19,4.31,19.83c1.32,7.03,2.48,14.11,3.39,21.21
		c0.88,6.9,1.36,13.86,2.69,20.87c0.32-0.89,0.64-1.78,0.96-2.69c1.88,15.58,3.75,31,5.61,46.41c0.61-0.03,1.22-0.06,1.84-0.09
		c3.23-12.18,8.53-23.71,6.76-37.18c-1.65-12.49-1.29-25.25-1.15-38.02c0.28,0.93,0.55,1.86,1.06,3.57
		c1.18-5.27,2.17-9.71,3.06-13.7c2.13,2.65,4.07,5.06,6.01,7.47c0.44-0.19,0.88-0.38,1.32-0.57c0.88-8.87,1.77-17.74,2.65-26.62
		c0.28-0.04,0.55-0.07,0.83-0.11c0.86,11.68,1.71,23.37,2.57,35.05c0.15,0,0.31-0.01,0.46-0.01c1.95-9.87,3.89-19.75,5.84-29.62
		c0.48,0.07,0.95,0.13,1.43,0.2c-0.72,6.79-1.46,13.53-0.59,20.21c1.05-2.28,1.83-4.74,2.25-7.44c0.62-3.92,1.51-7.79,2.57-11.63
		c-1.87-5.13-3.71-10.27-5.48-15.44c-1.54-4.53-2.39-9.29-3.01-14.14c3.61,7.44,6.98,15.01,10.68,22.4c0.58-1.74,1.18-3.48,1.8-5.22
		c-0.38,2.17-0.76,4.34-1.14,6.53c1.22,2.4,2.47,4.77,3.78,7.11c0.95,1.69,1.93,3.35,2.93,5.01c0.53-0.43,1.06-0.85,1.58-1.27
		c0.42,0.29,0.84,0.59,1.26,0.88c-0.82,0.53-1.48,1.11-2.04,1.71c1.54,2.51,3.12,4.99,4.72,7.46c0.94-4.73,1.88-9.45,2.83-14.18
		c0.32,0.05,0.65,0.1,0.97,0.15c-0.2,6.3-0.39,12.6-0.59,18.91c2.32,3.51,4.66,7.02,6.94,10.56c0.54-0.21,1.08-0.42,1.62-0.62
		c0.44-9.87,1.45-19.76,1.15-29.61c-0.3-9.85-1.9-19.67-2.77-27.95c0.56,1.59,1.67,4.75,2.78,7.91c0.29-0.04,0.58-0.08,0.87-0.13
		c0.36-6.35,0.71-12.69,1.07-19.04c0.16,0.01,0.32,0.01,0.48,0.02c1.33,9.04,2.64,18.08,3.99,27.11c0.96-8.03,1.93-16.06,2.89-24.09
		c0.23,0.01,0.45,0.01,0.68,0.02c0.75,15.32,1.5,30.65,2.26,46.35c4.34,5.6,5.94,11.69,5.81,18.09c1.46-1.91,2.88-3.84,4.24-5.78
		c-0.28-4.31-0.73-8.59-1.65-12.75c-1.36-6.12-5.57-11.6-8.12-16.61c1.35,0.94,3.86,2.7,7.17,5.02c-0.51-5.36-0.94-9.9-1.37-14.43
		c3.77,8.8,4.05,19.24,11.8,26.47c7.13-12.23,12.84-25.01,18.31-37.93c-2.81,14.65-6.86,28.85-12.48,42.57
		c1.33,3.27,2.72,6.7,4.12,10.14c0,3.64,0,7.27,0,10.91c1.69-7.73,0.7-15.39-0.83-23.13c0.44-0.1,0.89-0.21,1.33-0.31
		c2.13,8.26,4.27,16.52,6.4,24.77c0.43,0.01,0.85,0.02,1.28,0.03c0-9.91,0-19.81,0-29.72c0.44,0.01,0.87,0.01,1.31,0.02
		c1.03,6.99,2.06,13.97,3.19,21.65c4.55-4.31,8.55-8.1,12.75-12.09c0.19,0.83,0.41,1.27,0.31,1.38c-4.75,4.5-6.1,9.38-3.88,15.98
		c1.96,5.81,2.15,12.2,3.95,18.32c1.2-10.17,2.4-20.35,3.61-30.52c0.35,0.03,0.69,0.06,1.04,0.08c-1.36,15.76-2.3,31.57-4.27,47.25
		c-1.04,8.29-1.3,16.1,2.12,23.88c1.78,4.06,3.04,8.35,4.53,12.54c0.45-0.03,0.89-0.06,1.34-0.09c1.08-14.92,2.16-29.85,3.28-45.48
		c0.41,1.61,0.67,2.6,0.78,3.06c2.03-18.63,4.11-37.7,6.19-56.77c0.24,0.03,0.49,0.07,0.73,0.1c-0.9,20.3-1.81,40.6-2.71,60.9
		c0.9,0.1,1.8,0.2,2.71,0.3c4.41-24.88,8.82-49.77,12.83-72.33c1.47,27.48,3.07,57.32,4.67,87.17c0.69,0.12,1.37,0.23,2.06,0.35
		c3.36-5.23,10.59-8.05,9.38-16.07c-0.33-2.19-1.38-4.4-2.55-6.32c-7.25-11.89-9.78-24.24-3.91-37.56
		c-3.03,11.03-2.14,21.38,5.55,32.11c0-1.94,7.7-3.4,22.77-50.6c0.75-2.34-8.28,29.96-5.84,40.42c0.14,0.6,13.33-14.51,12.08-26.51
		c0.51,1.74,0.76,2.59,1.01,3.44c0.43,0.12,0.87,0.24,1.3,0.36c4.22-12.22,8.43-24.44,12.65-36.67c0.84,8.4-5.3,17.1,1.53,25.52
		c0.15-0.48,0.27-0.89,0.39-1.28c-0.1-0.44-0.19-0.88-0.29-1.31c0.26-0.09,0.52-0.18,0.77-0.27c-0.15,0.5-0.31,1.01-0.48,1.58
		c2.01,9.05,4.03,18.09,6.04,27.14c0.26-0.03,0.51-0.06,0.77-0.09c-0.87-14.66-1.74-29.32-2.61-43.98c0.17-0.03,0.34-0.07,0.51-0.1
		c3.23,13.72,6.46,27.44,9.84,41.78c2.15-1.62,3.54-2.68,4.93-3.73c-0.62-5.57-1.24-11.13-1.86-16.7c0.11-0.08,0.23-0.16,0.34-0.25
		c1.94,5.28,4.68,10.41,5.66,15.86c2.14,11.94,4.59,24.04,4.68,36.09c0.1,13.55,6.05,24.59,11.48,37.49
		c5.02-16.63,1.83-32.35,2.14-48.96c0.77,1.41,1.13,2.06,1.48,2.71c0.27,0.01,0.54,0.02,0.8,0.03c0-22.15,0-44.3,0-66.46
		c0.62-0.02,1.23-0.03,1.85-0.05c-0.82,25.46,0.09,50.8,4.29,75.92c0.51,0.02,1.03,0.04,1.54,0.06c0.85-16.23,1.71-32.46,2.56-48.68
		c0.15-0.05,0.3-0.09,0.45-0.14c2.46,18.05,4.92,36.1,7.47,54.75c1.41-4.58,2.68-8.68,3.98-12.88c1.21,6.33,2.41,12.61,3.77,19.67
		c1.4-22.72,2.74-44.51,4.07-66.3c0.33,0.02,0.67,0.05,1,0.07c0,20.3,0,40.59,0,60.89c5.63-5.9,9.83-11.43,9.08-20.21
		c-2.47-28.88-3.99-57.84-5.86-86.77c-0.22-3.48-0.38-6.96,0.18-10.55c6.15,26.95,12.3,53.9,18.76,82.23
		c13.49-26.79,19.89-54.32,25.93-82.19c-0.6,9.97-0.51,20.04-1.97,29.88c-2.32,15.62-5.69,31.08-8.6,46.61
		c-0.24,1.28-0.76,2.7-0.44,3.87c3.22,12.13,6.59,24.22,10.7,36.22c-1.45-13.21-2.9-26.41-4.35-39.62c0.3-0.06,0.6-0.12,0.9-0.18
		c2.72,9.52,5.45,19.04,8.47,29.59c7.67-22.38,4.19-44.53,6.66-66.18c1.2,9.34,2.4,18.68,3.72,29.01
		c4.46-7.51,8.44-14.22,13.14-22.15c0.12,2.08,0.31,2.61,0.14,2.97c-9.02,19.45-12.42,39.36-7.1,60.67
		c4.8,19.21,8.44,38.71,12.61,58.07c0.26,1.21,0.79,2.36,1.64,4.84c2.75-14.81-0.03-28.15-0.76-42.4c0.94,1.99,1.53,3.22,2.16,4.55
		c0.23-0.29,0.52-0.48,0.51-0.66c-0.68-8.44-1.95-16.29-7.16-23.8c-8.22-11.86-9.03-26.93-3.9-38.71
		c-2.86,13.49-1.47,26.07,8.36,36.97c-2.86-31.7-4.62-63.4-1.21-95.18c-0.66,35.66,5.34,70.58,10.33,105.61
		c0.61-0.03,1.21-0.07,1.82-0.1c0-4.14,0.09-8.29-0.03-12.43c-0.12-4.15-0.44-8.3,0.07-12.6c1.59,7.7,3.28,15.38,4.74,23.11
		c1.61,8.49,1.52,8.51,10.41,13.21c0-18.37,0-36.17,0-53.97c0.61,0,1.23-0.01,1.84-0.01c0.61,15.78,1.35,31.56,1.8,47.35
		c0.3,10.74,0.12,10.74,11.36,15.84c-3.97-25.05-7.87-49.68-11.77-74.31c0.39-0.06,0.77-0.13,1.16-0.19
		c2.47,12.16,4.94,24.32,7.41,36.48c0.33-0.05,0.66-0.1,0.99-0.15c-2.66-22.45-5.32-44.91-7.98-67.36c0.24-0.05,0.48-0.1,0.72-0.16
		c4.53,15.72,9.06,31.44,13.94,48.4c4.03-15.14-1.45-27.63-4.87-40.59c1.84,3.08,3.68,6.16,5.97,9.98c0.33-2.22,0.53-3.59,0.77-5.17
		c0.53,3.62,0.52,7.19,1.63,10.37c2.79,7.97,6.09,15.77,9.66,23.53c-3.04-17.04-6.07-34.08-9.11-51.13
		c0.24-0.05,0.49-0.11,0.73-0.16c5.23,14.75,10.46,29.51,15.69,44.26c3.47-6.74,5.41-13.32,2.2-20.51c0.76,0.7,1.51,1.4,3,2.76
		c1.32-8.8,2.55-17.05,3.79-25.29c0.16,0.03,0.33,0.05,0.49,0.08c0,10.6-0.02,21.21,0.02,31.81c0.01,1.8,0.07,3.67,0.53,5.39
		c3.81,14.46,7.72,28.9,11.61,43.35c0.37,1.38,0.81,2.75,1.1,3.76c4.02-10.02,8.16-19.97,11.94-30.05c0.69-1.85,0.06-4.24-0.15-6.36
		c-2.19-22.47-4.42-44.94-5.6-67.49c2.48,17.8,4.38,35.7,7.59,53.36c3.08,16.92,7.54,33.59,11.39,50.37
		c0.59-0.12,1.17-0.25,1.76-0.37c-2.16-21.77-4.32-43.55-6.48-65.32c0.37-0.11,0.73-0.21,1.1-0.32
		c6.69,25.96,13.38,51.92,20.07,77.88c2.74-10.24-0.11-20.26-1.06-30.64c2.88,8.49,5.68,16.72,8.71,25.67
		c5.57-7.75,1.07-15.4,2.37-22.97c0.69,4.41,1.32,8.46,1.97,12.65c5.35-5.28,8.43-15.24,7.07-22.01
		c-7.77-38.69-15.51-77.39-23.25-116.09c-0.09-0.47-0.01-0.97-0.01-2.71c11.9,32.15,23.37,63.16,35.35,95.57
		c10.97-34.03,13.43-67.82,14-101.89c0.57,0,1.14,0.01,1.71,0.01c1.07,16.84,2.79,33.67,3.01,50.52
		c0.18,13.78-1.46,27.58-2.25,41.37c-0.09,1.64-0.41,3.48,0.18,4.9c3.81,9.19,7.84,18.29,12.03,27.98
		c3.61-15.94,7.12-31.49,10.64-47.04c0.28,0.06,0.57,0.12,0.85,0.18c-1.73,10.3-3.53,20.58-5.17,30.89
		c-1.26,7.89-2.33,15.82-3.46,23.73c-0.14,0.98-0.3,2.04-0.07,2.97c2.65,10.64,5.38,21.27,8.72,31.9c-0.14-2.44-0.34-4.87-0.42-7.31
		c-0.98-27.52-0.92-54.95,5.41-82.03c2.3-9.86,6.07-18.95,11.11-28.32c-1.66,9.36-3.31,17.97-4.62,26.64
		c-0.35,2.35-0.27,5.14,0.69,7.24c8.51,18.61,12.16,38.37,13.83,58.54c0.94,11.28,1.03,22.63,1.52,33.94
		c0.04,0.9,0.16,1.8,0.91,2.71c1.6-8.4,2-17.26,5.03-25.12c7.4-19.22,2.51-37.68-1.59-56.3c-2.76-12.52-5.92-24.95-8.89-37.42
		c-0.26-1.09-0.47-2.19-0.71-3.28c0.4-0.1,0.81-0.2,1.21-0.3c6.09,21.47,12.19,42.95,18.4,64.84c2.76-5.29,4.57-10.05,3.3-16.2
		c-5.42-26.12-5.8-52.6-4.53-79.13c0.06-1.27,0.4-2.53,0.89-3.78c3.06,31.55,7.84,62.65,20.76,92.29c0.11-1.92,0.56-3.88,0.28-5.74
		c-1.65-11.18-3.46-22.33-4.57-33.64c2.16,9.22,4.31,18.43,6.47,27.65c0.38,0.11,0.77,0.22,1.15,0.33
		c7.63-25.26,15.27-50.53,22.9-75.79c0.23,0.02,0.47,0.04,0.7,0.06c-0.42,3.76-0.77,7.52-1.28,11.27
		c-4.51,32.84-9.15,65.66-13.44,98.53c-0.44,3.33,0.48,7.23,1.91,10.33c2.78,5.99,6.38,11.61,9.94,17.92
		c6.19-11.62,4.69-23.81,7.26-35.47c0,13.37,0,26.75,0,40.12c0.28-0.01,0.56-0.03,0.84-0.04c5.05-25.24,10.1-50.48,15.15-75.71
		c0.25,0.06,0.5,0.12,0.75,0.18c-0.98,20.56-1.95,41.13-2.93,61.69c0.52,0.04,1.04,0.08,1.56,0.12
		c7.72-30.02,11.11-60.65,13.12-91.59c0,5.78,0.03,11.56-0.01,17.34c-0.04,5.83-0.22,11.66-0.19,17.5c0.01,2.29,0.44,4.58,0.67,6.87
		c-0.01,0.01-0.02,0.02-0.03,0.04c2.52,2.86,5.36,5.51,7.42,8.67c2.77,4.25,4.9,8.91,6.9,12.63c4.25-10.39,8.64-21.1,13.03-31.83
		c-0.04,0.03-0.08,0.05-0.13,0.09c0.47-2.71,1.47-5.44,1.33-8.12c-0.5-9.13-1.41-18.24-1.38-27.47c2.69,11.32,5.39,22.64,8.08,33.97
		c0.43-0.01,0.86-0.02,1.29-0.03c2.09-7.34,4.18-14.68,6.63-23.3c-0.52,13.86-3.47,26.18-3.53,38.67c0.75,0.11,1.49,0.23,2.24,0.34
		c1.64-6.27,3.28-12.54,4.65-17.77c0.08,0.3,0.28,1,0.57,2.07c2.08-3.86,3.81-7.07,5.55-10.28c-6.38,16.64-5.53,33.29-0.34,50.2
		c5.48-24.99,10.95-49.97,16.43-74.96c0.21,0.04,0.42,0.08,0.63,0.12c-1.09,20.12-2.21,40.23-3.27,60.35
		c-0.6,11.31-1.57,22.64-1.38,33.94c0.07,4.02,3.08,8,4.66,11.8c4.9-0.41,4.31-3.05,4.07-5.53c-0.99-10.1-1.98-20.2-2.24-30.39
		c1.65,10.43,3.29,20.86,4.97,31.51c0.97-0.26,1.49-0.25,1.8-0.5c2.36-1.9,4.89-3.97,6.68-6.07c2.09-2.46,2.24-6.76,2.77-10.34
		c4.1-27.95,5.48-56.02,3.52-84.23c-0.15-2.15-0.02-4.31-0.02-6.47c0.5-0.02,1.01-0.05,1.51-0.07c1.37,28.62,2.74,57.25,4.15,86.83
		c1.07-1.4,1.99-2.04,2.02-2.72c0.41-10.31,1.58-20.69,0.68-30.9c-0.35-3.97,0.63-7.73,0.85-11.56c-0.18-1.46-0.26-2.98-0.22-4.55
		c0.28,1.54,0.3,3.05,0.22,4.55c0.85,6.77,4.12,12.42,10.39,17.15c1.01-11.41,1.99-22.53,2.97-33.65
		c2.56,16.51,2.24,33.27,4.81,49.69c0.57-0.02,1.13-0.03,1.7-0.05c1.83-5.36,3.66-10.71,5.49-16.07c-0.43,9.7-3.28,19.11-0.86,28.67
		c0.55,0.09,1.09,0.17,1.64,0.26c2.55-10.41,5.21-20.8,7.53-31.27c0.35-1.56-0.93-3.47-1.38-5.23
		c-4.22-16.59-8.42-33.19-12.61-49.79c-0.15-0.58-0.02-1.23-0.02-2.12c4.96,12.49,9.78,24.68,14.64,36.86
		c0.49,1.23,1.02,2.48,1.78,3.55c0.18,0.25,1.07,0,1.18-0.06c1.77,4.5,3.59,9.09,5.86,14.85c1.66-2.99,2.64-4.77,3.44-6.2
		c0,3.49-0.84,7.5,0.23,10.91c1.14,3.64,4.09,6.72,7.15,11.42c2.64-26.84,5.13-52.17,7.62-77.51c0.21,0,0.42,0,0.64,0
		c1.06,15.77,2.1,31.53,3.19,47.3c1.05,15.12,1.5,30.34,3.62,45.31c0.74,5.25,5.66,9.9,9.63,14.46c4.32-26.78,3.11-53.15-0.07-79.52
		c0.6-0.05,1.19-0.09,1.79-0.14c2.29,23.47,4.59,46.94,6.98,71.4c2.42-3.66,3.95-7.02,3.75-11.02c-0.26-5.3-1.1-10.61-0.93-15.89
		c0.22-6.68,1.19-13.33,1.87-20.29c1.57,10.6,3.11,20.93,4.65,31.26c0.45-0.02,0.9-0.05,1.35-0.07c0.53-19.37,2.51-38.76-1.49-58.18
		c1.45,6.61,3.06,13.19,4.31,19.83c1.32,7.03,2.48,14.11,3.39,21.21c0.88,6.9,1.36,13.86,2.69,20.87c0.32-0.89,0.64-1.78,0.96-2.69
		c1.88,15.58,3.75,31,5.61,46.41c0.61-0.03,1.22-0.06,1.84-0.09c3.23-12.18,8.53-23.71,6.76-37.18
		c-1.65-12.49-1.29-25.25-1.15-38.02c0.28,0.93,0.55,1.86,1.06,3.57c1.18-5.27,2.17-9.71,3.06-13.7c2.13,2.65,4.07,5.06,6.01,7.47
		c0.44-0.19,0.88-0.38,1.32-0.57c0.88-8.87,1.77-17.74,2.65-26.62c0.28-0.04,0.55-0.07,0.83-0.11c0.86,11.68,1.71,23.37,2.57,35.05
		c0.15,0,0.31-0.01,0.46-0.01c1.95-9.87,3.89-19.75,5.84-29.62c0.48,0.07,0.95,0.13,1.43,0.2c-1.05,9.98-2.18,19.85,1.88,29.59
		c3.89,9.34,6.93,19.03,11.09,28.56c0.12-0.99,0.36-1.99,0.33-2.98c-0.28-10.16-0.48-20.32-1.02-30.47
		c-0.14-2.55-1.34-5.08-2.23-7.55c-3.75-10.49-7.7-20.92-11.29-31.46c-1.54-4.53-2.39-9.29-3.01-14.14
		c5,10.3,9.53,20.86,15.12,30.83c5.65,10.06,12.35,19.52,18.6,29.24c0.54-0.21,1.08-0.42,1.62-0.62c0.44-9.87,1.45-19.76,1.15-29.61
		c-0.3-9.85-1.9-19.67-2.77-27.95c0.56,1.59,1.67,4.75,2.78,7.91c0.29-0.04,0.58-0.08,0.87-0.13c0.36-6.35,0.71-12.69,1.07-19.04
		c0.16,0.01,0.32,0.01,0.48,0.02c1.88,12.72,3.69,25.45,5.68,38.15c0.43,2.75,1.45,5.41,2.2,8.11c1.14,8.3,2.29,16.6,3.43,24.91
		c3.47-6.13,2.97-9.98-1.7-22.07c6.55,8.24,7.05,17.56,4.86,27.35c-1.38,6.18,1.68,15.05,6.06,17.82c0-6.29,0.25-12.67-0.06-19.02
		c-0.43-8.8-0.36-17.78-2.26-26.3c-1.36-6.12-5.57-11.6-8.12-16.61c1.35,0.94,3.86,2.7,7.17,5.02c-0.51-5.36-0.94-9.9-1.37-14.43
		c4.09,9.55,4.06,21.01,13.92,28.24c0.12-2.33,0.24-4.65,0.29-5.54c2.19,5.39,4.87,11.97,7.54,18.55V0H0z"/>
	<path d="M1631.31,839.65c-0.44-2.1-1-2.47-2.55-1.3c-0.74,3.34-1.68,6.66-2.21,10.04c-1.49,9.63-2.8,19.28-4.19,28.92
		c0.6,0.11,1.21,0.23,1.81,0.34c2-5.58,3.56-11.37,6.12-16.67C1633.74,853.85,1632.83,846.88,1631.31,839.65z"/>
	<path d="M0,1080c0-76.67,0-153.33,0-230L0,1080L0,1080z"/>
</g>
</svg>
